<svg width="54" height="54" viewBox="0 0 54 54" fill="none" xmlns="http://www.w3.org/2000/svg">
<path d="M10.7297 26.3201C10.7497 26.2501 10.7697 26.1801 10.7997 26.1101C10.8097 26.0801 10.8297 26.05 10.8497 26.02C10.8797 25.96 10.9097 25.9101 10.9497 25.8601C10.9697 25.8301 10.9997 25.8 11.0197 25.77C11.0597 25.73 11.0997 25.6799 11.1397 25.6399C11.1497 25.6299 11.1597 25.6201 11.1697 25.6101L22.2597 15.9099C22.8597 15.3899 23.7597 15.4501 24.2797 16.0501C24.7997 16.6501 24.7397 17.5501 24.1397 18.0701L15.9197 25.26H41.2697C42.0597 25.26 42.6997 25.9 42.6997 26.69C42.6997 27.48 42.0597 28.1201 41.2697 28.1201H15.9197L24.1397 35.3101C24.7297 35.8301 24.7997 36.7401 24.2797 37.3301C23.9997 37.6501 23.5997 37.8201 23.1997 37.8201C22.8697 37.8201 22.5297 37.7 22.2597 37.47L11.1697 27.77C11.1697 27.77 11.1497 27.75 11.1397 27.74C11.0997 27.7 11.0597 27.6601 11.0197 27.6101C10.9997 27.5801 10.9697 27.55 10.9497 27.52C10.9097 27.47 10.8797 27.4101 10.8497 27.3601C10.8297 27.3301 10.8197 27.3 10.7997 27.27C10.7697 27.2 10.7497 27.1301 10.7297 27.0601C10.7297 27.0401 10.7097 27.01 10.7097 26.99C10.6897 26.89 10.6797 26.79 10.6797 26.69C10.6797 26.59 10.6897 26.4899 10.7097 26.3899C10.7097 26.3699 10.7197 26.3401 10.7297 26.3201Z" fill="url(#paint0_linear_157_307)"/>
<path d="M0 26.6899C0 41.4299 11.95 53.3799 26.69 53.3799C41.43 53.3799 53.38 41.4299 53.38 26.6899C53.38 11.9499 41.43 0 26.69 0C11.95 0 0 11.9499 0 26.6899ZM2.08 26.6899C2.08 13.1199 13.12 2.07007 26.7 2.07007C40.27 2.07007 51.32 13.1099 51.32 26.6899C51.32 40.2699 40.28 51.3101 26.7 51.3101C13.13 51.3101 2.08 40.2699 2.08 26.6899Z" fill="url(#paint1_linear_157_307)"/>
<defs>
<linearGradient id="paint0_linear_157_307" x1="42.6997" y1="26.69" x2="10.6797" y2="26.69" gradientUnits="userSpaceOnUse">
<stop offset="0.12" stop-color="#020010"/>
<stop offset="0.23" stop-color="#03242A"/>
<stop offset="0.4" stop-color="#04544E"/>
<stop offset="0.57" stop-color="#057A6A"/>
<stop offset="0.71" stop-color="#06967E"/>
<stop offset="0.84" stop-color="#06A78A"/>
<stop offset="0.94" stop-color="#07AD8F"/>
</linearGradient>
<linearGradient id="paint1_linear_157_307" x1="53.38" y1="26.6899" x2="0" y2="26.6899" gradientUnits="userSpaceOnUse">
<stop offset="0.12" stop-color="#020010"/>
<stop offset="0.23" stop-color="#03242A"/>
<stop offset="0.4" stop-color="#04544E"/>
<stop offset="0.57" stop-color="#057A6A"/>
<stop offset="0.71" stop-color="#06967E"/>
<stop offset="0.84" stop-color="#06A78A"/>
<stop offset="0.94" stop-color="#07AD8F"/>
</linearGradient>
</defs>
</svg>
