<svg width="1275" height="1274" viewBox="0 0 1275 1274" fill="none" xmlns="http://www.w3.org/2000/svg">
<path opacity="0.1" d="M1259.81 492.285C1242.26 410.475 1209.35 335.935 1161.97 270.735C1112.34 202.435 1047.58 142.295 974.69 96.835C900.9 50.805 818.33 19.595 735.91 6.57498H735.89C690.08 -0.665023 642.98 -1.86517 595.7 2.67483C595.68 2.50483 595.65 2.34483 595.62 2.17483L593.73 2.45486C593.75 2.59486 593.77 2.72477 593.79 2.86477C481.32 14.0348 367.95 57.6549 268.75 129.775C169.67 201.805 93.2799 296.055 47.9499 399.465C47.8999 399.445 47.8599 399.425 47.8099 399.405L47.0299 401.145C47.0799 401.165 47.1299 401.195 47.1899 401.215C28.1899 444.945 14.7399 490.295 7.47988 536.285C-5.65012 619.445 -1.48013 703.605 19.8799 786.405C40.4299 866.065 75.8199 940.715 125.06 1008.27C141.54 1030.88 159.25 1052.26 178.13 1072.34C177.59 1072.62 177.05 1072.9 176.51 1073.19L177.41 1074.88C178.1 1074.51 178.8 1074.15 179.49 1073.79C210.43 1106.51 244.49 1135.78 281.39 1161.35C280.75 1161.92 280.11 1162.46 279.47 1163.02L280.73 1164.46C281.49 1163.79 282.25 1163.14 283.01 1162.48C289.87 1167.2 296.82 1171.8 303.87 1176.27C334.95 1195.95 367.24 1212.68 400.54 1226.39C400.5 1226.45 400.46 1226.51 400.42 1226.57L402.04 1227.59C402.14 1227.43 402.24 1227.28 402.34 1227.13C445.69 1244.82 490.77 1257.4 537.19 1264.73C620.82 1277.94 708.18 1276.18 789.85 1259.67C877.49 1241.94 955.4 1208.61 1021.42 1160.6C1086.73 1113.1 1141.67 1049.67 1184.74 972.055C1224.47 900.465 1252.44 818.495 1265.62 735.025C1278.64 652.635 1276.68 570.975 1259.81 492.305V492.285ZM1045.01 1074.42C1038.05 1065.12 1031.29 1055.75 1024.68 1046.37C1048.23 1022.34 1069.39 994.325 1087.99 962.495C1098.71 966.395 1109.08 971.345 1119.23 976.815C1097.59 1013.52 1072.69 1046.34 1045.01 1074.42ZM1121.06 977.805C1131.75 983.655 1142.2 990.045 1152.55 996.375C1156.42 998.745 1160.29 1001.11 1164.17 1003.45C1138.47 1043.96 1108.73 1080.68 1075.51 1112.66C1065.28 1100.73 1055.58 1088.48 1046.26 1076.09C1074.16 1047.97 1099.17 1015.12 1121.07 977.815L1121.06 977.805ZM823.66 1194.52C824.41 1179.46 826.52 1165.47 830.05 1152.25C866.9 1143.41 900.94 1130.88 931.89 1114.78C933.85 1127.13 937.08 1139.23 941.02 1151.14C905.16 1169.89 865.71 1184.41 823.66 1194.53V1194.52ZM941.65 1153.01C946.73 1168.04 952.89 1182.78 959.01 1197.35C917.91 1219.34 873.11 1236.67 826.03 1249.04C823.74 1230 822.89 1212.56 823.58 1196.37C866.36 1186.24 905.82 1171.74 941.65 1153.02V1153.01ZM563.61 1203.29C574.06 1186.95 586.67 1172.86 600.79 1160.4C638.66 1166.1 677.1 1168.38 714.75 1167.26C705.73 1180.64 698.23 1195.21 692.44 1211.42C650.59 1212.53 607.41 1209.87 563.62 1203.3L563.61 1203.29ZM691.85 1213.08C685.85 1230.34 681.76 1249.44 679.85 1270.9C633.11 1272.91 585.62 1270.35 538.52 1262.99C543.82 1240.92 552.04 1221.83 562.5 1205.07C605.57 1211.56 649.19 1214.24 691.85 1213.09V1213.08ZM89.1099 557.095C89.1899 556.605 89.2699 556.125 89.3499 555.635C121.11 564.775 152.62 575.995 183.89 588.605C183.65 589.995 183.41 591.385 183.19 592.775C177.45 628.805 176.65 666.005 180.52 703.435C149.1 695.895 117.56 689.665 85.9499 685.365C81.4999 642.105 82.4499 598.985 89.1099 557.105V557.095ZM83.9999 685.095C57.2499 681.515 30.4499 679.325 3.63987 678.875C0.0598743 632.005 1.85988 584.655 9.22988 537.545C35.4799 541.735 61.5699 547.725 87.4999 555.115C87.4099 555.675 87.3099 556.235 87.2299 556.805C80.5699 598.705 79.5999 641.835 84.0099 685.105L83.9999 685.095ZM734.54 87.7449L735.04 87.825C777.75 94.575 819.62 106.865 859.74 124.115C857.13 152.975 856.85 182.325 858.18 211.785C823.88 197.085 788.2 186.625 751.88 180.895C751.25 180.795 750.61 180.695 749.98 180.595C748.49 180.365 746.99 180.155 745.49 179.945C739.22 149.005 734.84 118.065 733.31 87.555C733.72 87.615 734.13 87.6749 734.53 87.7449H734.54ZM733.22 85.605C732.02 59.535 732.94 33.7848 736.57 8.62478C782.94 16.0348 828.81 29.1449 873.03 47.2549C866.55 71.5749 862.34 96.5348 859.95 121.875C819.84 104.735 778.18 92.6948 735.36 85.9348L734.84 85.855C734.3 85.775 733.76 85.695 733.23 85.605H733.22ZM1076.19 287.485C1066.08 310.635 1057.61 334.225 1050.43 358.055C1025.13 327.105 996.74 299.455 966.04 275.615C969.3 248.295 973.94 221.455 980.36 195.025C1015.28 221.805 1047.52 252.805 1076.19 287.485ZM980.9 192.785C987.04 167.925 994.78 143.435 1004.46 119.245C1044.35 147.225 1081.35 179.545 1114.28 215.465C1099.87 238.205 1087.59 261.615 1077.06 285.495C1048.35 250.785 1016.19 219.775 980.9 192.785ZM1189.5 503.425C1174.66 517.845 1161.61 533.275 1149.96 549.415C1141 517.045 1128.71 485.235 1113.24 454.605C1123.11 434.545 1134.35 414.765 1147.27 395.565C1165.02 430.315 1179.15 466.495 1189.49 503.425H1189.5ZM1148.6 393.605C1163.09 372.315 1179.68 351.775 1198.81 332.405C1220.44 371.795 1237.42 413.705 1249.58 457.435C1227.49 470.575 1208.25 485.475 1191.31 501.685C1180.75 464.355 1166.47 428.235 1148.6 393.605ZM1203.89 733.165C1203.77 733.925 1203.64 734.685 1203.52 735.445C1188.35 738.175 1174.62 742.955 1161.73 750.085C1161.88 749.185 1162.03 748.295 1162.17 747.395C1167.23 715.685 1168.75 683.355 1166.89 650.965C1179.59 638.805 1193.55 628.155 1209.21 619.165C1211.58 657.375 1209.87 695.615 1203.9 733.155L1203.89 733.165ZM1211.3 617.985C1228.99 608.105 1248.84 600.325 1271.52 594.875C1273.73 640.345 1271.23 686.875 1263.87 733.835C1241.97 731.935 1222.81 732.215 1205.51 735.105C1205.6 734.565 1205.69 734.015 1205.78 733.475C1211.86 695.225 1213.69 656.635 1211.3 617.995V617.985ZM185.7 589.335C221.21 603.715 256.4 619.845 291.25 636.665C291.07 637.705 290.89 638.745 290.73 639.785C285.85 670.465 285.01 702.005 288.01 733.665C253.04 722.655 217.84 712.455 182.48 703.905C178.55 666.415 179.32 629.145 185.06 593.075C185.26 591.835 185.47 590.585 185.69 589.345L185.7 589.335ZM1127.55 776.225C1120.1 783.605 1112.77 792.025 1105.39 801.555C1109.05 777.275 1110.09 752.905 1108.59 728.765C1116.21 715.485 1124.1 702.955 1132.46 691.245C1133.85 718.025 1132.53 745.085 1128.23 772.075C1128.01 773.465 1127.78 774.845 1127.54 776.225H1127.55ZM850.12 1105.77C854.16 1099.19 858.68 1092.73 863.69 1086.33C888.13 1078.51 911.75 1067.97 934.18 1054.82C933.09 1059.11 932.22 1063.35 931.55 1067.57C906.01 1083.1 878.72 1095.93 850.11 1105.77H850.12ZM644.43 1123.88C616.83 1119.7 589.6 1112.18 563.21 1101.64C583.49 1093.19 604.69 1085.57 626.62 1078.28C649.71 1087.62 673.66 1094.33 698.29 1098.33C681.17 1106.46 664.26 1114.97 648.15 1124.42C646.91 1124.24 645.68 1124.07 644.44 1123.88H644.43ZM293.05 637.535C320.97 651.035 348.68 664.975 376.17 678.805C386.01 683.755 395.67 688.615 405.22 693.395C405.22 693.395 405.22 693.415 405.22 693.425C401.14 719.215 400.25 745.505 402.36 771.725C401.15 771.315 399.93 770.895 398.72 770.485C362.79 758.215 326.52 745.825 289.99 734.295C286.91 702.525 287.72 670.875 292.62 640.095C292.76 639.245 292.9 638.395 293.05 637.545V637.535ZM700.16 1096.7H700.11C676.04 1092.89 652.43 1086.32 629.68 1077.26C639.91 1073.88 650.28 1070.57 660.79 1067.27C667.75 1065.09 674.76 1062.92 681.8 1060.75C686.75 1059.22 691.7 1057.69 696.66 1056.15C714.93 1063.78 733.93 1069.4 753.32 1072.82C744.97 1076.74 736.59 1080.59 728.23 1084.42C719.27 1088.53 710.28 1092.65 701.34 1096.87C700.94 1096.81 700.55 1096.75 700.15 1096.69L700.16 1096.7ZM1063.99 895.635C1058.16 899.755 1052.51 903.305 1046.97 906.345C1051.67 894.245 1055.07 881.825 1057.07 869.265C1057.3 867.835 1057.5 866.395 1057.7 864.955C1065.22 857.625 1072.59 849.275 1079.95 839.835C1076.7 859.185 1071.29 877.855 1064 895.645L1063.99 895.635ZM1008.03 616.005C1005.91 641.225 1003.72 667.295 1000.5 693.385C990.92 682.885 980.47 673.385 969.34 665.005C968.52 635.815 966.67 606.725 964.88 578.595C964.58 573.825 964.28 569.115 963.99 564.445C980.16 576.255 995.22 589.905 1008.93 605.245C1008.63 608.795 1008.33 612.385 1008.02 616.005H1008.03ZM1055.18 868.955C1053.06 882.275 1049.35 895.275 1044.27 907.785C1035.49 912.355 1026.96 915.615 1018.4 917.695C1021.44 909.945 1023.64 902.045 1024.91 894.115C1025.15 892.605 1025.35 891.095 1025.53 889.575C1035.95 883.645 1045.83 876.195 1055.46 867.095C1055.37 867.715 1055.28 868.335 1055.18 868.955ZM638.31 803.115C640.61 788.645 644.49 774.485 649.8 760.855C683.1 782.015 716.81 802.855 751 822.645C747.74 831.335 745.33 840.395 743.84 849.705C743.66 850.815 743.5 851.935 743.35 853.055C707.85 838.745 672.69 822.715 637.87 805.995C638.01 805.035 638.15 804.065 638.3 803.105L638.31 803.115ZM1023.02 893.805C1021.69 902.135 1019.37 910.305 1016.22 918.195C1003.85 920.925 991.37 921.235 977.89 919.605C979.36 915.795 980.45 911.865 981.1 907.855C981.23 907.025 981.34 906.195 981.44 905.355C996.64 902.605 1010.48 897.815 1023.46 890.725C1023.32 891.755 1023.18 892.785 1023.01 893.805H1023.02ZM862.48 1010.55L862.22 1010.51C861.33 1010.37 860.44 1010.21 859.55 1010.05C873.48 997.505 885.9 983.315 896.19 966.885C897.12 967.075 898.06 967.255 899 967.405L899.2 967.435C902.66 967.965 906.16 968.165 909.68 968.075C904.24 984.365 896.59 998.655 887.07 1011.66C878.83 1012.16 870.59 1011.83 862.48 1010.56V1010.55ZM745.74 850.015C747.2 840.885 749.57 832.065 752.74 823.655C782.46 840.815 812.55 857.185 843.07 872.265C841.51 876.525 840.35 880.955 839.63 885.515C839.57 885.875 839.52 886.245 839.47 886.605C807.79 877.465 776.37 866.305 745.2 853.805C745.36 852.535 745.53 851.275 745.74 850.015ZM979.21 907.555C978.56 911.585 977.45 915.535 975.94 919.355C961.48 917.415 945.84 913.285 927.97 907.525C946.94 908.835 963.92 908.315 979.47 905.705C979.39 906.325 979.31 906.945 979.21 907.555ZM841.52 885.815C842.21 881.455 843.31 877.205 844.79 873.125C866.86 883.995 889.15 894.195 911.69 903.535C888.09 899.355 864.64 893.805 841.32 887.145C841.38 886.705 841.44 886.255 841.51 885.815H841.52ZM921.24 827.835C921.32 827.845 921.4 827.865 921.49 827.875C923.34 851.305 923.31 874.795 920.31 897.635C918.02 873.875 913.44 850.345 907.36 827.055C911.94 826.845 916.56 827.095 921.17 827.815H921.24V827.835ZM918.35 897.295C911.02 874.375 902.51 851.705 893.07 829.265C897.11 828.195 901.24 827.495 905.41 827.185C911.46 850.335 916.03 873.705 918.35 897.295ZM916.55 897.925C904.26 876.785 891.34 855.895 877.93 835.255C882.2 832.965 886.66 831.125 891.22 829.785C900.69 852.265 909.21 874.975 916.55 897.935V897.925ZM914.89 898.885C898.21 880.725 881.42 862.595 864.54 844.515C866.15 843.115 867.83 841.765 869.58 840.495C871.74 838.925 873.97 837.495 876.25 836.185C889.67 856.845 902.6 877.735 914.89 898.885ZM913.45 900.145C893.24 886.035 873.13 871.675 853.14 857.115C856.01 853.025 859.35 849.235 863.1 845.785C879.98 863.865 896.77 881.985 913.45 900.145ZM912.42 901.755C889.87 892.405 867.56 882.195 845.47 871.315C847.22 866.895 849.43 862.665 852.06 858.695C872.07 873.265 892.19 887.635 912.42 901.755ZM911.22 905.385C887.84 906.195 864.41 904.535 841.03 901.245C840.67 897.165 840.69 893.085 841.1 889.055C864.33 895.685 887.7 901.215 911.22 905.385ZM911.4 907.285C889.58 912.815 866.93 915.405 843.99 916.035C842.66 911.815 841.73 907.515 841.22 903.205C864.59 906.475 888.01 908.105 911.4 907.285ZM912.53 908.975C893.17 919.105 872.15 925.855 850.28 930.325C848 926.335 846.11 922.185 844.63 917.935C867.72 917.265 890.54 914.615 912.53 908.975ZM909.55 912.645C893.48 924.135 876.2 933.595 858.03 941.425C856.9 940.085 855.81 938.695 854.77 937.265C853.54 935.575 852.39 933.845 851.31 932.075C871.66 927.875 891.29 921.685 909.55 912.645ZM913.69 911.995C900.21 927.385 884.99 940.435 868.49 951.605C865.24 949.015 862.18 946.115 859.35 942.945C878.57 934.615 896.82 924.455 913.69 912.005V911.995ZM915.32 913.035C905.74 930.835 894.24 946.225 881.23 959.705C877.35 957.795 873.61 955.495 870.08 952.835C886.58 941.605 901.81 928.495 915.31 913.035H915.32ZM917.11 913.745C911.92 932.895 904.48 949.735 895.24 964.715C891.09 963.765 887.01 962.375 883.07 960.585C896.05 947.055 907.53 931.595 917.11 913.745ZM918.91 914.415C918.16 933.805 915.19 950.845 910.3 966.135C906.67 966.275 903.05 966.085 899.49 965.535L899.29 965.505C898.61 965.395 897.93 965.275 897.26 965.145C906.38 950.215 913.75 933.445 918.92 914.415H918.91ZM920.84 914.195C924.54 932.735 926.01 948.955 925.35 963.715C921.07 964.905 916.72 965.695 912.38 966.005C917.2 950.675 920.11 933.595 920.84 914.185V914.195ZM922.59 913.195C930.71 929.835 936.74 944.055 940.62 957.565C936.34 959.845 931.88 961.725 927.33 963.135C927.91 948.245 926.37 931.885 922.6 913.195H922.59ZM924.18 912.095C934.52 924.065 944.32 936.385 953.74 948.865C950.17 951.765 946.35 954.365 942.36 956.615C938.42 943.065 932.34 928.785 924.18 912.095ZM925.29 910.445C940.36 920.195 953.58 928.715 966.71 935.545C963.36 939.935 959.48 943.995 955.21 947.635C945.69 935.015 935.77 922.555 925.29 910.445ZM926.82 909.165C943.05 914.405 957.57 918.315 971.12 920.455C972.51 920.675 973.88 920.875 975.25 921.055C973.31 925.585 970.82 929.915 967.87 933.995C954.84 927.245 941.74 918.825 926.82 909.165ZM928 905.605C947.36 902.155 964.28 896.655 979.34 889.315C980.01 894.135 980.13 898.965 979.69 903.695C964.11 906.385 947.06 906.925 928 905.605ZM928.08 903.655C946.15 895.785 961.81 885.895 975.55 874.435C977.13 878.665 978.29 882.985 979.03 887.315C964.08 894.675 947.3 900.195 928.08 903.655ZM927.53 901.815C943.69 889.905 957.4 876.285 969.17 861.365C971.43 865.055 973.35 868.875 974.92 872.785C961.26 884.135 945.65 893.935 927.53 901.815ZM926.63 900.095C940.11 884.645 951.22 867.715 960.43 849.715C962.34 851.805 964.14 854.025 965.83 856.355C966.61 857.435 967.35 858.525 968.07 859.625C956.36 874.565 942.72 888.195 926.63 900.095ZM926.8 896.975C937.14 879.555 945.16 860.865 951.31 841.245C954.02 843.365 956.61 845.695 959.04 848.225C950.2 865.605 939.6 881.975 926.8 896.975ZM924.38 897.295C931.68 876.775 935.82 854.995 937.88 832.995C941.99 834.915 945.95 837.275 949.68 840.025C943.39 860.235 935.13 879.455 924.38 897.295ZM922.25 897.565C925.2 874.845 925.25 851.505 923.43 828.235C927.72 829.085 931.94 830.405 936.03 832.165C933.98 854.575 929.76 876.745 922.25 897.565ZM923.28 826.255C920.67 794.615 914.7 763.145 908.01 733.575C917.27 735.175 926.4 737.905 935.24 741.665C937.56 769.745 938.79 800.135 936.22 830.165C932.02 828.405 927.69 827.085 923.29 826.255H923.28ZM921.33 825.915C916.5 825.165 911.66 824.925 906.87 825.175C898.54 793.675 887.53 762.615 875.79 731.995C885.72 731.285 895.83 731.665 905.97 733.225C912.67 762.795 918.69 794.285 921.33 825.915ZM904.92 825.305C900.66 825.645 896.45 826.375 892.33 827.485C879.34 796.795 864.62 766.535 848.81 736.655C856.94 734.415 865.3 732.895 873.81 732.165C885.56 762.785 896.59 793.845 904.93 825.315L904.92 825.305ZM890.47 828.005C885.8 829.395 881.25 831.285 876.88 833.645C858.21 804.985 838.59 776.765 818.42 748.935C827.45 744.025 837 740.065 846.92 737.175C862.75 767.065 877.48 797.325 890.47 828.005ZM875.2 834.575C872.89 835.895 870.64 837.355 868.45 838.945C866.63 840.265 864.89 841.655 863.23 843.115C839.6 817.815 815.79 792.595 791.87 767.485C799.52 760.775 807.86 754.865 816.73 749.875C836.91 777.705 856.53 805.925 875.2 834.585V834.575ZM861.8 844.385C857.95 847.915 854.54 851.805 851.59 855.995C823.65 835.625 795.91 814.865 768.38 793.835C774.74 784.625 782.16 776.215 790.44 768.755C814.36 793.875 838.17 819.095 861.8 844.395V844.385ZM850.51 857.575C847.81 861.635 845.54 865.945 843.74 870.475C813.23 855.385 783.14 839.015 753.42 821.845C757.1 812.495 761.77 803.645 767.29 795.415C794.82 816.445 822.56 837.205 850.5 857.575H850.51ZM839.23 888.525C838.78 892.635 838.74 896.805 839.08 900.975C807.46 896.395 775.92 888.865 744.7 880.395C743.99 872.135 744.08 863.885 744.97 855.765C776.12 868.255 807.54 879.395 839.23 888.525ZM831.94 901.825C834.38 902.215 836.82 902.575 839.27 902.925C839.76 907.345 840.68 911.755 842.01 916.085C811.6 916.775 780.73 914.075 750.69 910.315C747.79 901.135 745.84 891.785 744.89 882.425C773.69 890.215 802.76 897.215 831.94 901.825ZM842.62 917.985C844.1 922.355 845.99 926.625 848.3 930.725C820.63 936.195 791.65 938.065 763.01 938.535C758.23 930.095 754.33 921.295 751.34 912.325C781.36 916.065 812.22 918.715 842.62 917.985ZM849.31 932.475C850.52 934.495 851.82 936.465 853.22 938.385C854.18 939.695 855.17 940.965 856.2 942.205C832.63 952.185 807.59 959.445 781.82 964.835C778.52 961.125 775.38 957.235 772.42 953.155C769.41 949.025 766.64 944.775 764.1 940.425C792.71 939.925 821.65 937.995 849.31 932.465V932.475ZM857.5 943.735C860.38 947.025 863.5 950.035 866.83 952.725C847.21 965.785 825.81 976.235 803.41 984.835C796.26 979.415 789.52 973.275 783.31 966.485C809.01 961.055 833.98 953.745 857.5 943.735ZM868.41 953.975C872.02 956.745 875.84 959.145 879.82 961.155C864.72 976.515 847.64 989.345 829.2 1000.38C820.86 996.535 812.82 991.775 805.22 986.205C827.53 977.565 848.84 967.075 868.41 953.985V953.975ZM881.66 962.035C885.71 963.925 889.9 965.405 894.18 966.435C883.8 982.875 871.24 997.055 857.16 1009.58C848.37 1007.8 839.72 1005.02 831.36 1001.34C849.67 990.275 866.64 977.405 881.67 962.035H881.66ZM911.75 967.965C916.27 967.685 920.79 966.915 925.25 965.705C924.4 980.395 921.41 993.675 916.38 1006.44C907.56 1009.02 898.58 1010.74 889.6 1011.47C898.93 998.475 906.43 984.215 911.75 967.975V967.965ZM927.23 965.135C931.99 963.695 936.66 961.765 941.14 959.405C944.35 971.155 945.92 982.425 945.78 994.335C937.09 998.995 928.02 1002.83 918.76 1005.71C923.61 993.005 926.46 979.765 927.23 965.125V965.135ZM942.88 958.465C947.09 956.115 951.1 953.395 954.85 950.355C961.17 958.765 967.31 967.235 973.34 975.735C965.38 982.365 956.77 988.265 947.72 993.285C947.76 981.445 946.13 970.205 942.88 958.475V958.465ZM956.33 949.125C960.82 945.315 964.9 941.045 968.41 936.415C978.39 941.495 988.38 945.605 999.15 948.535C992.14 957.995 983.92 966.725 974.82 974.485C968.8 965.995 962.65 957.525 956.34 949.125H956.33ZM969.56 934.855C972.63 930.585 975.22 926.035 977.21 921.295C990.58 922.905 1003.08 922.645 1015.44 920.095C1011.52 929.465 1006.42 938.445 1000.35 946.865C989.55 943.985 979.55 939.915 969.55 934.855H969.56ZM981.65 903.345C982.06 898.435 981.89 893.435 981.15 888.435C997.06 880.455 1010.89 870.385 1023.35 858.515C1024.68 868.545 1024.83 878.555 1023.75 888.315C1010.75 895.595 996.89 900.515 981.65 903.345ZM980.82 886.425C980.02 881.945 978.78 877.495 977.11 873.125C992.25 860.245 1005.04 845.435 1016.18 829.335C1019.37 838.175 1021.66 847.165 1023.02 856.145C1010.57 868.165 996.75 878.355 980.83 886.425H980.82ZM976.45 871.495C974.8 867.475 972.79 863.545 970.42 859.755C983.84 842.415 994.7 823.355 1003.8 803.165C1008.47 811.045 1012.38 819.205 1015.5 827.505C1004.4 843.765 991.64 858.605 976.45 871.495ZM969.31 858.035C968.69 857.095 968.04 856.165 967.38 855.235C965.51 852.645 963.49 850.205 961.35 847.905C972.19 826.355 980.35 803.305 986.65 779.455C989.75 782.995 992.72 786.705 995.53 790.575C998.04 794.035 1000.39 797.565 1002.59 801.155C993.53 821.455 982.71 840.625 969.32 858.035H969.31ZM959.94 846.425C957.41 843.845 954.72 841.465 951.9 839.305C959.56 814.295 964.24 787.815 966.87 760.605C973.33 765.725 979.44 771.455 985.11 777.745C978.86 801.685 970.74 824.815 959.93 846.435L959.94 846.425ZM950.27 838.095C946.4 835.295 942.3 832.905 938.06 830.975C940.69 800.975 939.51 770.615 937.23 742.535C946.98 746.885 956.34 752.495 965.09 759.225C962.51 786.505 957.89 813.045 950.28 838.105L950.27 838.095ZM937.05 740.365C935.79 725.375 934.24 711.055 932.8 697.825C930.76 679.005 928.33 660.155 925.64 641.325C940.5 647.775 954.51 655.955 967.45 665.545C968.3 696.235 968 727.035 965.3 756.965C956.41 750.255 946.92 744.675 937.05 740.365ZM930.9 698.035C932.3 710.955 933.82 724.905 935.06 739.505C926.13 735.775 916.91 733.095 907.56 731.545C904.2 716.785 900.68 702.505 897.33 688.935C892.3 668.555 886.89 648.185 881.21 627.875C895.91 630.495 910.09 634.755 923.59 640.445C926.34 659.645 928.83 678.865 930.91 698.035H930.9ZM895.46 689.395C898.75 702.735 902.21 716.745 905.51 731.235C895.33 729.725 885.13 729.335 875.04 730.055C869.91 716.705 864.64 703.445 859.41 690.265L857.61 685.715C849.6 665.515 841.31 645.315 832.86 625.175C847.62 624.215 862.53 624.885 877.37 627.225C877.95 627.315 878.53 627.415 879.11 627.515C884.87 648.105 890.36 668.745 895.46 689.395ZM855.83 686.415L857.63 690.965C862.79 703.965 867.98 717.045 873.05 730.215C864.51 730.945 856.07 732.465 847.79 734.755C829.49 700.305 809.76 666.335 789.56 632.775C803.06 628.865 816.88 626.365 830.84 625.315C839.37 645.645 847.74 666.035 855.83 686.415ZM845.92 735.295C836.02 738.185 826.39 742.165 817.17 747.225C793.67 714.845 769.42 682.985 745.05 651.525C758.72 643.825 773 637.745 787.67 633.345C807.88 666.905 827.62 700.855 845.92 735.305V735.295ZM815.48 748.155C810.52 750.965 805.67 754.075 800.98 757.495C797.3 760.175 793.79 763.005 790.42 765.965C762.65 736.805 734.73 707.785 706.78 678.915C712.5 673.795 718.52 668.955 724.8 664.445C730.84 660.115 737.03 656.125 743.36 652.485C767.73 683.945 791.97 715.795 815.47 748.165L815.48 748.155ZM788.99 767.235C780.51 774.875 773.04 783.375 766.72 792.575C734.89 768.245 703.34 743.545 672.03 718.665C681.53 704.665 692.72 691.725 705.37 680.195C733.31 709.065 761.23 738.085 789 767.235H788.99ZM765.65 794.155C760.05 802.535 755.37 811.475 751.71 820.845C717.53 801.055 683.83 780.205 650.53 759.045C655.97 745.485 662.83 732.475 670.97 720.245C702.28 745.125 733.84 769.825 765.66 794.155H765.65ZM743.13 855.035C742.19 863.225 742.06 871.535 742.73 879.865C727.13 875.615 711.62 871.145 696.21 866.705L692.54 865.645C673.89 860.275 655.21 854.655 636.56 848.875C635.49 835.195 635.82 821.485 637.6 807.995C672.44 824.715 707.61 840.735 743.13 855.035ZM692.01 867.485L695.68 868.545C711.32 873.055 727.08 877.595 742.91 881.905C743.81 891.345 745.71 900.795 748.58 910.065C732.32 907.995 716.31 905.635 700.76 903.335L698 902.925C680.46 900.335 662.87 897.475 645.3 894.465C640.9 880.185 638.01 865.585 636.72 850.945C655.13 856.645 673.57 862.185 691.99 867.495L692.01 867.485ZM697.74 904.805L700.5 905.215C716.34 907.555 732.66 909.975 749.25 912.065C752.21 921.135 756.08 930.025 760.84 938.575C742.82 938.825 724.96 938.545 707.67 938.265L706.57 938.245C692.29 938.015 677.94 937.595 663.59 937.055C656.32 924.035 650.42 910.435 645.97 896.505C663.23 899.455 680.51 902.255 697.74 904.805ZM706.53 940.155L707.63 940.175C725.28 940.455 743.52 940.745 761.92 940.465C764.64 945.185 767.62 949.805 770.88 954.285C773.66 958.105 776.6 961.775 779.67 965.285C751.07 971.145 721.6 974.735 692.21 977.195C687.53 971.965 683.06 966.475 678.85 960.755C673.68 953.735 668.96 946.475 664.69 939.005C678.66 939.525 692.63 939.935 706.54 940.155H706.53ZM781.14 966.945C787.36 973.855 794.12 980.115 801.3 985.635C776.97 994.825 751.49 1001.87 725.82 1007.74C714.37 999.345 703.63 989.715 693.81 978.985C723.15 976.485 752.58 972.855 781.13 966.945H781.14ZM803.1 987.005C810.73 992.705 818.82 997.575 827.21 1001.55C807.9 1012.91 787.16 1022.35 765.68 1030.68C752.5 1024.96 739.82 1017.76 727.88 1009.23C753.46 1003.33 778.85 996.245 803.1 987.005ZM829.34 1002.54C837.76 1006.35 846.48 1009.26 855.35 1011.17C841.3 1023.42 825.79 1034.09 809.42 1043.77C795.36 1041.38 781.53 1037.33 768.2 1031.76C789.54 1023.41 810.15 1013.93 829.33 1002.54H829.34ZM857.74 1011.65C859.13 1011.92 860.52 1012.17 861.91 1012.39L862.18 1012.43C869.81 1013.62 877.66 1013.99 885.61 1013.59C876.97 1025.06 866.86 1035.56 855.54 1045.6C841.62 1046.79 827.64 1046.46 813.81 1044.46C813.33 1044.39 812.86 1044.32 812.39 1044.24C828.56 1034.56 843.88 1023.89 857.75 1011.65H857.74ZM888.16 1013.44C897.23 1012.79 906.41 1011.14 915.54 1008.53C911.61 1018.04 906.55 1027.29 900.4 1036.66C886.77 1040.94 872.81 1043.88 858.76 1045.31C869.83 1035.33 879.71 1024.88 888.16 1013.45V1013.44ZM917.93 1007.82C927.33 1004.95 936.66 1001.07 945.74 996.235C945.56 1003.2 944.8 1010.42 943.45 1018.09C930.6 1025.22 917.13 1031.16 903.3 1035.72C909.26 1026.45 914.15 1017.27 917.93 1007.82ZM947.71 995.165C953.97 991.715 960.1 987.795 966.05 983.445C968.87 981.375 971.61 979.225 974.27 977.025C977.39 981.435 980.48 985.845 983.54 990.245C971.81 1000.28 959.07 1009.24 945.62 1016.88C946.89 1009.27 947.59 1002.1 947.71 995.165ZM975.73 975.785C985.35 967.615 993.8 958.595 1000.9 949.005C1006.65 950.485 1012.62 951.635 1018.95 952.425C1009.09 965.705 997.64 977.985 984.99 988.985C981.93 984.585 978.85 980.185 975.73 975.785ZM1002.12 947.325C1008.48 938.485 1013.69 929.175 1017.62 919.615C1026.1 917.675 1034.54 914.635 1043.19 910.355C1037.19 924.505 1029.44 938.015 1020.25 950.645C1013.89 949.895 1007.89 948.775 1002.12 947.325ZM1025.8 887.145C1026.78 877.215 1026.51 867.055 1025.05 856.885C1036.48 845.735 1046.76 833.035 1056.47 819.015C1058 833.875 1057.87 848.955 1055.89 864.005C1046.21 873.375 1036.27 881.045 1025.8 887.145ZM1024.69 854.505C1023.22 845.415 1020.81 836.325 1017.5 827.395C1028.71 810.895 1038.23 793.075 1046.79 774.585C1051.3 788.065 1054.47 801.975 1056.14 816.095C1046.42 830.325 1036.12 843.195 1024.69 854.495V854.505ZM1016.81 825.565C1013.58 817.185 1009.55 808.955 1004.76 801.015C1014.24 779.585 1021.78 756.925 1028.31 733.735C1035.4 745.945 1041.34 758.805 1045.97 772.095C1037.37 790.995 1027.93 808.995 1016.82 825.555L1016.81 825.565ZM1003.53 799.025C1001.51 795.775 999.36 792.585 997.08 789.445C993.98 785.175 990.69 781.105 987.24 777.235C993.98 751.195 998.54 724.225 1001.96 697.245C1011.34 707.855 1019.72 719.325 1026.96 731.455C1020.46 754.745 1012.97 777.505 1003.54 799.025H1003.53ZM985.69 775.525C979.9 769.215 973.67 763.475 967.09 758.345C969.86 728.435 970.21 697.675 969.4 667.005C980.55 675.465 990.88 684.975 1000.26 695.355C996.88 722.385 992.37 749.415 985.69 775.525ZM962.98 578.715C964.74 606.345 966.55 634.885 967.39 663.545C954.18 653.825 940.06 645.665 925.34 639.285C920.2 603.555 914.14 567.915 907.98 532.815C926.99 540.765 945.08 550.875 961.99 562.985C962.31 568.165 962.64 573.405 962.98 578.705V578.715ZM923.29 638.405C909.49 632.595 895.18 628.345 880.63 625.825C870.24 588.765 858.99 551.885 847.63 515.515C867.75 518.815 887.26 524.345 905.9 531.955C912.07 567.045 918.14 602.675 923.3 638.405H923.29ZM878.54 625.485C863.04 622.975 847.47 622.265 832.08 623.305C816.45 586.095 800.26 549.095 784.19 512.665C804.36 511.205 824.91 511.965 845.52 515.175C856.88 551.545 868.14 588.415 878.55 625.475L878.54 625.485ZM830.06 623.455C816.01 624.545 802.11 627.105 788.53 631.075C774.9 608.465 761.08 586.035 747.34 563.765C739.28 550.685 731.1 537.425 722.97 524.125C742.11 518.275 761.94 514.435 782.15 512.825C798.22 549.245 814.41 586.255 830.05 623.455H830.06ZM745.72 564.765C759.36 586.895 773.1 609.175 786.64 631.635C771.91 636.095 757.58 642.225 743.86 649.985C728.96 630.765 714.02 611.685 699.17 592.735C687.91 578.355 676.47 563.765 665.05 549.085C682.77 539.035 701.56 530.825 721.09 524.705C729.31 538.145 737.57 551.545 745.72 564.765ZM697.67 593.915C712.46 612.795 727.35 631.795 742.19 650.945C735.88 654.585 729.71 658.565 723.69 662.885C717.33 667.455 711.24 672.355 705.45 677.535C675.34 646.435 645.19 615.515 615.15 584.805C630 571.625 646.17 559.955 663.38 550.045C674.86 564.795 686.36 579.465 697.67 593.915ZM704.03 678.815C691.32 690.405 680.08 703.405 670.52 717.465C636.59 690.485 602.96 663.295 569.61 636.115C582.34 617.745 597.18 600.955 613.72 586.075C643.77 616.785 673.92 647.705 704.04 678.815H704.03ZM669.46 719.055C661.28 731.325 654.37 744.385 648.89 758.005C624.97 742.785 601.25 727.415 577.7 712.155C565.62 704.325 553.38 696.385 541.08 688.455C548.48 670.505 557.72 653.525 568.53 637.695C601.89 664.875 635.53 692.075 669.46 719.055ZM576.65 713.755C600.3 729.085 624.12 744.525 648.15 759.815C642.72 773.675 638.75 788.095 636.42 802.815C636.3 803.585 636.18 804.365 636.07 805.135C607.38 791.335 578.91 777.075 550.67 762.925C541.61 758.385 532.7 753.925 523.89 749.525C527.16 728.875 532.74 709.045 540.34 690.255C552.54 698.125 564.67 705.985 576.65 713.755ZM549.82 764.635C578.25 778.875 606.91 793.235 635.8 807.125C633.96 820.705 633.59 834.495 634.61 848.265C596.55 836.455 558.64 824.015 521.32 811.615C519.85 791.665 520.58 771.535 523.6 751.505C532.23 755.815 540.95 760.185 549.83 764.625L549.82 764.635ZM634.77 850.325C636.01 865.045 638.85 879.725 643.21 894.095C606.25 887.725 569.38 880.635 533.21 873.615C527.07 854.045 523.13 833.965 521.47 813.695C558.79 826.085 596.7 838.525 634.76 850.325H634.77ZM643.84 896.145C648.24 910.155 654.1 923.855 661.34 936.975C626.89 935.635 592.43 933.555 558.75 931.515C548.38 913.595 540.06 894.895 533.88 875.695C570.04 882.715 606.9 889.795 643.85 896.145H643.84ZM662.43 938.925C666.89 946.815 671.85 954.495 677.3 961.895C681.27 967.275 685.45 972.445 689.82 977.395C663.13 979.575 636.55 980.865 610.81 982.115C605.9 982.355 601.06 982.585 596.26 982.825C589.16 975.045 582.46 966.835 576.19 958.245C570.31 950.195 564.89 941.935 559.92 933.495C593.58 935.535 628.02 937.605 662.44 938.925H662.43ZM610.91 984.025C637.14 982.755 664.24 981.445 691.43 979.185C701.21 990.025 711.93 999.775 723.37 1008.29C696.96 1014.25 670.39 1019 644.71 1023.59C644.03 1023.71 643.36 1023.83 642.68 1023.95C626.59 1012.51 611.57 999.345 597.94 984.645C602.22 984.435 606.53 984.225 610.9 984.015L610.91 984.025ZM645.05 1025.48C671.28 1020.79 698.43 1015.94 725.41 1009.8C737.32 1018.46 749.98 1025.79 763.15 1031.66C741.49 1039.95 719.11 1047.17 696.75 1054.13C678.62 1046.51 661.22 1036.9 644.89 1025.51C644.94 1025.51 645 1025.49 645.05 1025.48ZM765.65 1032.75C778.97 1038.47 792.8 1042.69 806.87 1045.26C790.62 1054.72 773.58 1063.24 756.33 1071.4C736.89 1068.19 717.83 1062.74 699.5 1055.27C721.79 1048.31 744.08 1041.08 765.64 1032.75H765.65ZM809.81 1045.77C810.27 1045.85 810.72 1045.92 811.18 1046C811.96 1046.12 812.75 1046.24 813.54 1046.36C826.48 1048.23 839.74 1048.67 853.09 1047.76C842.73 1056.74 831.4 1065.38 819.27 1074.05C799.59 1075.59 779.62 1074.97 759.69 1071.95C776.81 1063.8 793.72 1055.27 809.81 1045.79V1045.77ZM856.3 1047.5C870.39 1046.3 884.56 1043.59 898.54 1039.44C893.61 1046.71 888.03 1054.07 881.81 1061.7C862.74 1067.78 843.02 1071.87 823 1073.72C834.95 1065.1 846.11 1056.48 856.3 1047.5ZM901.45 1038.55C915.58 1034.15 929.49 1028.27 942.92 1021C941.99 1025.85 940.83 1030.89 939.45 1036.16C922.22 1046.1 904.02 1054.33 885.15 1060.6C891.21 1053.06 896.65 1045.76 901.45 1038.54V1038.55ZM945.1 1019.81C953.36 1015.22 961.43 1010.11 969.25 1004.48C974.67 1000.57 979.89 996.475 984.9 992.195C986.6 994.645 988.3 997.105 989.99 999.555C975.15 1012.86 958.97 1024.69 941.79 1034.81C943.12 1029.59 944.22 1024.61 945.11 1019.81H945.1ZM986.34 990.945C999.7 979.345 1011.49 966.485 1021.48 952.725C1024.75 953.075 1028.12 953.335 1031.6 953.495C1019.79 969.745 1006.27 984.745 991.4 998.255C989.72 995.815 988.03 993.385 986.34 990.945ZM1022.78 950.925C1032.23 937.645 1040.02 923.545 1045.92 908.965C1051.38 906.115 1056.93 902.765 1062.63 898.875C1054.69 917.535 1044.69 935.205 1032.95 951.625C1029.45 951.485 1026.07 951.255 1022.78 950.915V950.925ZM1058.09 861.845C1059.82 847.025 1059.76 831.915 1057.98 816.835C1066.53 804.285 1074.65 790.705 1082.73 776.225C1084.25 796.185 1083.57 816.205 1080.58 835.865C1073.13 845.635 1065.68 854.275 1058.09 861.855V861.845ZM1057.61 813.945C1055.76 800.015 1052.45 786.125 1047.75 772.525C1056.27 753.935 1063.85 734.705 1071.22 715.485C1076.95 734.265 1080.72 753.485 1082.43 772.795C1074.3 787.455 1066.16 801.225 1057.6 813.945H1057.61ZM1046.88 770.055C1042.16 756.915 1036.13 744.065 1028.86 731.735C1035.35 708.435 1040.86 684.615 1046.31 660.995C1046.51 660.145 1046.7 659.285 1046.9 658.435C1056.57 675.765 1064.41 693.915 1070.3 712.535C1062.77 732.205 1055.21 751.545 1046.87 770.055H1046.88ZM1044.45 660.575C1039.14 683.575 1033.78 706.755 1027.51 729.475C1024.18 723.975 1020.6 718.585 1016.77 713.315C1012.2 707.025 1007.33 701.005 1002.21 695.275C1005.54 668.615 1007.78 641.955 1009.95 616.175C1010.2 613.165 1010.45 610.185 1010.7 607.235C1016.97 614.375 1022.94 621.875 1028.6 629.715C1034.73 638.205 1040.37 646.975 1045.51 655.985C1045.15 657.525 1044.8 659.055 1044.45 660.585V660.575ZM1030.15 628.585C1024.09 620.195 1017.67 612.195 1010.92 604.595C1012.29 588.455 1013.67 572.955 1015.34 557.695C1016.74 544.875 1018.25 531.975 1019.92 519.025C1026.34 526.505 1032.51 534.285 1038.39 542.365C1047.84 555.335 1056.35 568.755 1063.91 582.525C1060.86 593.465 1058.01 604.275 1055.32 614.915C1052.16 627.415 1049.11 640.435 1046.14 653.235C1041.24 644.795 1035.91 636.565 1030.15 628.575V628.585ZM1013.43 557.485C1011.82 572.205 1010.48 587.135 1009.16 602.635C995.32 587.335 980.14 573.725 963.84 561.975C962.73 544.025 961.75 526.825 961.19 510.245C960.65 494.395 960.17 478.725 959.81 463.225C980.97 478.755 1000.56 496.775 1018.24 517.085C1016.49 530.615 1014.9 544.095 1013.44 557.485H1013.43ZM959.28 510.305C959.83 526.435 960.77 543.135 961.84 560.535C944.85 548.495 926.67 538.455 907.59 530.585C906.12 522.225 904.64 513.885 903.18 505.595C901.43 495.695 899.67 485.795 897.94 475.895C895.33 461.005 892.52 445.565 889.8 430.635C889.33 428.035 888.85 425.435 888.38 422.825C912.91 433.055 936.2 446.125 957.87 461.805C958.23 477.785 958.73 493.955 959.28 510.315V510.305ZM887.91 430.975C890.63 445.905 893.44 461.345 896.05 476.225C897.79 486.125 899.54 496.025 901.29 505.925C902.69 513.825 904.09 521.765 905.49 529.725C886.76 522.175 867.17 516.705 846.98 513.475C842.63 499.555 838.27 485.705 833.93 471.955L829.14 456.745C823.39 438.475 817.24 419.975 810.78 400.795C836.89 404.975 862.17 412.105 886.27 421.965C886.82 424.985 887.37 427.985 887.91 430.985V430.975ZM827.32 457.315L832.11 472.535C836.35 485.995 840.62 499.535 844.88 513.155C824.37 510.035 803.76 509.265 783.36 510.785C779.5 502.035 775.64 493.305 771.81 484.625C767.24 474.285 762.67 463.945 758.11 453.595C750.04 435.285 741.6 416.525 733.33 398.175C758.32 395.965 783.58 396.625 808.65 400.455C815.22 419.965 821.48 438.765 827.32 457.315ZM756.35 454.365C760.91 464.705 765.48 475.055 770.05 485.395C773.8 493.875 777.56 502.385 781.33 510.935C761.23 512.575 741.34 516.445 721.95 522.445C710.57 503.815 699.28 485.125 688.52 466.745C681.93 455.495 675.32 444.235 668.71 432.965C664.96 426.575 661.19 420.165 657.43 413.745C681.47 405.965 706.25 400.735 731.31 398.365C739.67 416.905 748.19 435.865 756.35 454.365ZM667.06 433.935C673.68 445.205 680.29 456.465 686.87 467.705C697.56 485.965 708.77 504.535 720.07 523.025C700.78 529.145 681.98 537.395 663.98 547.705C650.36 530.205 636.76 512.605 623.5 495.135L621.07 491.925C609.38 476.535 597.65 461.075 585.9 445.565C608.05 432.825 631.43 422.315 655.58 414.355C659.41 420.895 663.25 427.415 667.07 433.935H667.06ZM619.54 493.085L621.97 496.285C635.19 513.695 648.73 531.235 662.3 548.665C653.43 553.815 644.76 559.465 636.31 565.615C628.51 571.295 621.05 577.285 613.94 583.565C586.27 555.285 558.69 527.185 531.3 499.285C528.5 496.435 525.69 493.575 522.89 490.715C541.82 474.045 562.42 459.205 584.22 446.525C596.02 462.105 607.81 477.625 619.54 493.085ZM529.94 500.635C557.3 528.515 584.87 556.595 612.52 584.855C595.62 599.995 580.75 616.785 568.13 634.915C539.32 611.435 510.71 587.965 482.3 564.655C477.19 560.465 472.07 556.265 466.95 552.055C482.82 530.195 501.17 510.035 521.47 491.995C524.3 494.875 527.13 497.765 529.96 500.645L529.94 500.635ZM481.08 566.125C509.53 589.465 538.18 612.975 567.04 636.485C556.05 652.495 546.79 669.535 539.42 687.385C520.99 675.505 502.43 663.635 484.11 652.155C465.93 640.765 447.5 629.105 429.39 617.635C439.16 595.085 451.45 573.645 465.83 553.605C470.92 557.785 476.01 561.955 481.09 566.125H481.08ZM483.09 653.775C501.51 665.315 520.15 677.245 538.68 689.185C530.98 708.195 525.4 728.095 522.1 748.635C502.78 739.005 483.93 729.695 464.97 720.625C445.86 711.485 426.83 702.065 407.34 692.315C411.45 667.075 418.69 642.665 428.61 619.405C446.64 630.825 464.99 642.435 483.08 653.775H483.09ZM464.15 722.345C483.28 731.495 502.3 740.885 521.8 750.615C518.73 770.725 517.93 790.935 519.35 810.965C510.58 808.055 501.84 805.145 493.15 802.245C482.71 798.765 472.27 795.295 461.83 791.825C442.87 785.535 423.37 778.885 404.34 772.395C402.16 746.255 403.01 720.015 407.03 694.295C426.34 703.955 445.21 713.285 464.15 722.345ZM461.22 793.645C471.66 797.115 482.1 800.585 492.54 804.065C501.49 807.045 510.48 810.035 519.51 813.035C521.11 833.385 524.99 853.545 531.09 873.195C528.16 872.625 525.23 872.055 522.32 871.495C506.54 868.425 490.76 865.355 474.98 862.345L453.98 858.325C442.82 856.185 431.64 854.035 420.42 851.915C412.21 826.605 406.86 800.595 404.53 774.485C423.31 780.895 442.54 787.445 461.24 793.655L461.22 793.645ZM453.61 860.195L474.61 864.215C490.39 867.225 506.17 870.295 521.95 873.365C525.21 873.995 528.47 874.635 531.74 875.265C537.88 894.545 546.15 913.345 556.48 931.365C539.04 930.305 521.06 929.225 503.36 928.255C486.99 927.365 470.49 926.525 453.89 925.825C440.3 902.935 429.32 878.805 421.1 853.985C431.96 856.045 442.81 858.125 453.62 860.205L453.61 860.195ZM503.25 930.175C521.37 931.165 539.8 932.275 557.62 933.355C562.8 942.225 568.47 950.915 574.64 959.375C580.64 967.595 587.04 975.465 593.79 982.945C577.07 983.775 560.95 984.665 545.11 985.865C530.38 986.975 515.91 988.175 501.7 989.495C491.16 978.245 481.26 966.275 472.12 953.635C466.04 945.235 460.35 936.605 455.04 927.795C471.21 928.485 487.29 929.305 503.24 930.175H503.25ZM545.26 987.765C561.57 986.535 578.19 985.635 595.46 984.775C609.04 999.575 624.01 1012.86 640.06 1024.43C625.61 1027.02 611.82 1029.5 598.12 1032.2C585.54 1034.68 572.88 1037.24 560.21 1039.94C539.81 1025.84 520.73 1009.53 503.37 991.255C517.09 989.995 531.05 988.835 545.26 987.765ZM598.49 1034.07C612.75 1031.26 627.12 1028.68 642.24 1025.98C658.51 1037.48 675.85 1047.22 693.94 1055C689.71 1056.31 685.47 1057.62 681.24 1058.93C674.2 1061.1 667.19 1063.27 660.22 1065.45C648.96 1068.98 637.86 1072.53 626.93 1076.16C604.4 1066.96 582.75 1055.3 562.38 1041.44C574.45 1038.87 586.5 1036.44 598.49 1034.08V1034.07ZM729.03 1086.17C738.22 1081.95 747.45 1077.72 756.62 1073.39C757.02 1073.46 757.42 1073.53 757.82 1073.59H757.87C777.11 1076.64 796.7 1077.46 816.25 1076.19C810.89 1079.99 805.38 1083.8 799.73 1087.65C793.76 1091.73 787.95 1095.83 782.32 1099.99C756.93 1101.96 730.95 1101.19 704.74 1097.4C712.82 1093.61 720.93 1089.89 729.02 1086.18L729.03 1086.17ZM800.81 1089.22C807.37 1084.74 813.75 1080.33 819.93 1075.92C839.93 1074.35 859.87 1070.57 879.35 1064.7C876.41 1068.25 873.33 1071.86 870.12 1075.56C867.68 1078.36 865.35 1081.17 863.11 1084C838.33 1092.03 812.48 1097.36 785.97 1099.69C790.79 1096.17 795.74 1092.69 800.82 1089.23L800.81 1089.22ZM871.56 1076.81C875.46 1072.33 879.16 1067.96 882.67 1063.67C901.92 1057.61 920.69 1049.49 938.58 1039.41C937.77 1042.34 936.91 1045.35 935.96 1048.44C935.66 1049.41 935.38 1050.39 935.11 1051.35C913.5 1064.23 890.49 1074.83 866.44 1082.88C868.1 1080.85 869.8 1078.82 871.55 1076.8L871.56 1076.81ZM937.79 1049C938.93 1045.24 939.98 1041.61 940.92 1038.08C950.1 1032.8 959.04 1027 967.69 1020.69C975.93 1014.68 983.82 1008.27 991.33 1001.51C992.51 1003.22 993.69 1004.93 994.86 1006.64C977.26 1022.96 958.03 1037.47 937.52 1049.91C937.61 1049.61 937.7 1049.3 937.79 1049ZM992.77 1000.22C1008.3 986.065 1022.17 970.405 1034.15 953.595C1036.32 953.665 1038.53 953.695 1040.78 953.685C1041.05 953.685 1041.32 953.685 1041.59 953.685C1028.15 972.405 1012.95 989.675 996.27 1005.31C995.1 1003.61 993.93 1001.91 992.76 1000.21L992.77 1000.22ZM1040.77 951.775C1038.97 951.775 1037.21 951.755 1035.47 951.715C1047.56 934.465 1057.67 916.045 1065.56 896.845C1068.49 894.775 1071.46 892.565 1074.49 890.205C1076.14 888.925 1077.78 887.685 1079.41 886.495C1069.53 909.735 1057.26 931.585 1042.96 951.785C1042.24 951.775 1041.51 951.765 1040.78 951.775H1040.77ZM1073.31 888.705C1071.14 890.395 1069.01 892.005 1066.89 893.545C1074.03 875.495 1079.21 856.785 1082.22 837.725C1082.28 837.365 1082.33 836.995 1082.39 836.635C1086.08 831.775 1089.77 826.655 1093.48 821.235C1096.43 816.925 1099.36 812.805 1102.28 808.855C1097.78 834.845 1090.51 859.695 1080.82 883.145C1078.33 884.895 1075.83 886.735 1073.32 888.695L1073.31 888.705ZM1102.96 804.735C1099.29 809.595 1095.61 814.725 1091.89 820.155C1088.9 824.515 1085.93 828.695 1082.96 832.685C1085.67 813.055 1086.11 793.095 1084.39 773.205C1088.52 765.735 1092.65 758.045 1096.83 750.135C1100.14 743.885 1103.47 737.765 1106.85 731.795C1108.13 755.635 1106.92 779.685 1103.14 803.645C1103.08 804.005 1103.02 804.365 1102.96 804.725V804.735ZM1095.14 749.255C1091.43 756.285 1087.75 763.145 1084.08 769.825C1082.17 750.535 1078.22 731.335 1072.33 712.605C1073.43 709.725 1074.53 706.855 1075.63 703.985C1078.62 696.155 1081.61 688.315 1084.66 680.505C1087.77 672.525 1090.98 664.535 1094.31 656.565C1100.96 680.035 1105.1 704.055 1106.65 728.315C1102.76 735.105 1098.93 742.095 1095.15 749.255H1095.14ZM1082.87 679.795C1079.82 687.615 1076.83 695.455 1073.84 703.285C1073.03 705.415 1072.21 707.545 1071.4 709.675C1065.34 691.075 1057.35 672.955 1047.54 655.665C1050.65 642.235 1053.85 628.525 1057.17 615.385C1059.7 605.375 1062.37 595.215 1065.22 584.945C1077.12 607.035 1086.56 630.035 1093.46 653.625C1089.79 662.335 1086.28 671.075 1082.88 679.795H1082.87ZM1065.96 582.285C1071.66 561.905 1078.09 541.115 1085.6 520.245C1098.99 546.325 1109.81 573.695 1117.71 601.885C1109.24 617.945 1101.66 634.345 1094.64 650.845C1087.58 627.295 1077.99 604.335 1065.96 582.285ZM1064.64 579.905C1057.28 566.655 1049.05 553.745 1039.94 541.235C1033.68 532.645 1027.11 524.385 1020.25 516.475C1023.58 490.915 1027.53 465.185 1032.53 439.495C1052.48 463.775 1069.92 490.105 1084.41 517.925C1076.86 538.765 1070.39 559.535 1064.65 579.905H1064.64ZM1018.57 514.555C1000.76 494.275 981.04 476.285 959.76 460.805C959.05 429.465 958.85 398.825 959.63 368.815C985.86 388.995 1009.79 412.145 1030.94 437.585C1025.91 463.265 1021.92 488.995 1018.57 514.555ZM957.81 459.405C936.01 443.775 912.61 430.755 887.96 420.585C881.8 386.675 875.54 351.605 870.45 316.045C901.59 329.585 930.87 346.935 957.75 367.385C956.93 397.415 957.12 428.055 957.81 459.405ZM885.86 419.725C861.76 409.965 836.5 402.915 810.42 398.795H810.39C810.29 398.775 810.19 398.755 810.08 398.745C808.27 393.365 806.43 387.945 804.58 382.445C794.22 351.795 783.5 320.095 773.61 287.835C774 287.895 774.39 287.945 774.78 288.015C775.32 288.105 775.87 288.185 776.41 288.275C808.41 293.505 839.21 302.665 868.38 315.155C873.45 350.715 879.69 385.795 885.85 419.725H885.86ZM802.77 383.055C804.52 388.235 806.25 393.345 807.96 398.415C783.2 394.715 757.87 394.075 732.51 396.365C731.49 394.095 730.47 391.835 729.45 389.585C714.09 355.505 698.58 321.105 683.76 286.385C713.61 283.025 743.09 283.335 771.52 287.515C781.5 320.095 792.32 352.105 802.78 383.055H802.77ZM727.71 390.375C728.63 392.425 729.57 394.485 730.5 396.555C705.64 398.945 680.78 404.145 656.41 412.005C636.03 377.265 615.57 342.195 595.51 306.735C624.19 296.765 653.14 290.005 681.78 286.615C696.68 321.525 712.27 356.105 727.71 390.375ZM654.54 412.605C630.56 420.485 607.09 430.955 584.61 443.875C560.11 411.535 535.53 378.915 511.1 346.015C537.96 330.175 565.67 317.235 593.66 307.365C613.71 342.805 634.17 377.875 654.54 412.605ZM582.95 444.845C571.56 451.465 560.43 458.725 549.63 466.595C539.82 473.745 530.42 481.305 521.44 489.225C492.82 460.065 463.95 430.635 434.99 401.015C446.68 390.795 458.93 381.025 471.7 371.795C484.05 362.875 496.65 354.605 509.45 346.995C533.88 379.895 558.45 412.505 582.94 444.845H582.95ZM520 490.505C499.42 508.845 481.12 529.115 465.43 550.805C433.45 524.575 401.17 498.135 368.63 471.745C387.48 447.055 409.27 423.675 433.55 402.275C462.51 431.905 491.39 461.335 520.01 490.505H520ZM464.32 552.365C449.77 572.695 437.51 594.245 427.79 616.615C423.78 614.075 419.79 611.545 415.82 609.025C384.56 589.205 353.01 569.205 321.14 549.445C333.44 523.235 349.02 497.625 367.47 473.265C400.03 499.675 432.32 526.115 464.32 552.365ZM414.79 610.645C418.84 613.215 422.92 615.805 427.02 618.395C416.92 642.015 409.66 666.525 405.55 691.415C396.17 686.725 386.69 681.955 377.03 677.095C349.36 663.175 321.48 649.155 293.37 635.565C298.31 607.305 307.47 578.925 320.31 551.195C352.11 570.915 383.59 590.865 414.78 610.645H414.79ZM398.11 772.285C399.58 772.785 401.06 773.295 402.53 773.795C404.81 799.995 410.11 826.085 418.27 851.495C383.04 844.815 347.56 838.345 311.96 832.835C300.83 801.095 293.51 768.675 290.21 736.355C326.46 747.815 362.45 760.105 398.11 772.285ZM418.94 853.575C427.11 878.495 438.04 902.735 451.6 925.735C419.95 924.415 387.92 923.585 355.65 923.775C337.93 895.275 323.54 865.415 312.68 834.895C348.26 840.415 383.73 846.895 418.94 853.575ZM452.76 927.695C458.28 936.925 464.22 945.965 470.57 954.755C479.48 967.075 489.04 978.735 499.2 989.725C469.94 992.475 441.74 995.755 414.45 999.855C400.76 985.515 387.87 970.145 375.92 953.815C369.18 944.605 362.82 935.225 356.83 925.675C389.09 925.505 421.11 926.355 452.75 927.695H452.76ZM500.85 991.495C518.03 1009.82 536.94 1026.22 557.4 1040.54C532.71 1045.85 507.95 1051.75 483.42 1058.74C459.48 1042.26 436.87 1023.09 416.08 1001.54C443.37 997.475 471.57 994.225 500.85 991.495ZM559.55 1042.04C562.96 1044.39 566.4 1046.68 569.89 1048.91C587.26 1060.02 605.29 1069.45 623.9 1077.16C602.04 1084.47 580.9 1092.12 560.68 1100.61C534.61 1089.98 509.39 1076.4 485.48 1060.14C510.04 1053.19 534.83 1047.32 559.55 1042.03V1042.04ZM701.63 1098.86C727.63 1102.83 753.61 1103.96 779.2 1102.31C768.54 1110.32 758.55 1118.55 749.32 1127.2C717.39 1130.03 684.54 1129.36 651.21 1124.85C667.43 1115.46 684.43 1106.98 701.62 1098.86H701.63ZM782.73 1102.06C809.22 1100.09 835.28 1095.15 860.49 1087.33C855.61 1093.71 851.22 1100.15 847.29 1106.73C816.99 1116.92 785.22 1123.76 752.46 1126.91C761.82 1118.29 771.94 1110.07 782.73 1102.06ZM936.53 1053.43C945.84 1047.88 954.94 1041.88 963.8 1035.43C975.23 1027.11 986.07 1018.19 996.29 1008.72C997.36 1010.28 998.43 1011.84 999.5 1013.39C999.88 1013.94 1000.26 1014.49 1000.63 1015.04C980.11 1034.32 957.69 1051.48 933.71 1066.25C934.43 1062.01 935.36 1057.74 936.52 1053.43H936.53ZM1001.08 1012.31C999.96 1010.68 998.84 1009.04 997.71 1007.41C1015.19 991.055 1030.83 973.075 1044.5 953.745C1047.64 953.835 1050.75 954.045 1053.83 954.365C1038.4 975.855 1021.05 995.715 1002.05 1013.72C1001.73 1013.25 1001.4 1012.78 1001.08 1012.31ZM1045.81 951.875C1060.5 930.795 1072.85 908.125 1082.65 884.205C1088.1 880.425 1093.49 877.165 1098.86 874.385C1086.94 902.305 1072.22 928.455 1055.09 952.585C1052.03 952.235 1048.94 952.005 1045.81 951.885V951.875ZM1083.93 881.005C1093.5 856.975 1100.51 831.695 1104.77 805.515C1112.17 795.745 1119.52 787.115 1126.97 779.535C1121.26 811.895 1112.13 842.695 1100.02 871.625C1094.68 874.275 1089.33 877.395 1083.93 881.005ZM1108.36 725.335C1106.61 701.115 1102.29 677.145 1095.49 653.735C1102.47 637.185 1110.03 620.725 1118.45 604.585C1125.89 631.835 1130.61 659.835 1132.29 688.175C1123.9 699.765 1115.99 712.185 1108.36 725.335ZM1121 606.615C1120.6 605.105 1120.18 603.595 1119.76 602.085C1128.52 585.535 1138.22 569.355 1149.18 553.805C1157.7 585.595 1162.99 617.915 1164.9 650.185C1153.79 660.905 1143.63 672.775 1134.1 685.685C1132.38 659.325 1128.01 632.915 1120.99 606.615H1121ZM1119.01 599.425C1110.97 571.265 1100.08 543.995 1086.47 517.835C1093.89 497.425 1102.36 476.945 1112.19 456.745C1127.54 487.345 1139.7 519.095 1148.53 551.415C1137.53 566.875 1127.79 582.965 1119 599.425H1119.01ZM1085.27 515.535C1074.89 495.875 1062.97 476.855 1049.53 458.555C1044.2 451.295 1038.66 444.215 1032.95 437.315C1037.91 412.105 1043.87 386.945 1051.23 362.055C1056.58 368.695 1061.8 375.485 1066.86 382.425C1083.68 405.485 1098.45 429.655 1111.11 454.605C1101.24 474.755 1092.73 495.165 1085.27 515.535ZM1031.37 435.445C1009.84 409.765 985.72 386.775 959.69 366.875C960.53 336.595 962.39 306.945 965.79 277.845C996.36 301.685 1024.62 329.335 1049.77 360.265C1042.37 385.135 1036.36 410.255 1031.37 435.445ZM957.81 365.445C930.44 344.755 900.97 327.485 870.17 314.085C865.5 281.205 861.86 247.915 860.23 214.765C896.75 230.695 931.65 251.455 964.01 276.465C960.57 305.555 958.68 335.185 957.81 365.445ZM868.11 313.195C838.63 300.565 807.95 291.495 776.72 286.385C776.17 286.295 775.63 286.205 775.08 286.125C774.38 286.015 773.69 285.915 772.99 285.815C762.54 251.595 753.04 216.775 745.89 181.945C747.16 182.125 748.42 182.305 749.69 182.495C750.33 182.595 750.95 182.685 751.58 182.785C788.04 188.545 823.86 199.085 858.27 213.915C859.86 247.055 863.47 280.325 868.11 313.195ZM770.9 285.495C742.4 281.385 712.87 281.145 682.98 284.555C668.53 250.635 654.75 216.405 642.4 181.855C676.66 177.425 710.77 177.155 743.88 181.655C750.99 216.475 760.46 251.295 770.89 285.495H770.9ZM680.99 284.785C652.29 288.215 623.27 295.025 594.54 305.045C576.2 272.595 558.2 239.825 540.92 206.705C573.73 194.955 607.16 186.575 640.45 182.115C652.78 216.655 666.55 250.875 680.98 284.785H680.99ZM592.71 305.685C564.65 315.605 536.88 328.595 509.96 344.475C487.45 314.135 465.07 283.555 443.01 252.735C473.89 234.595 506.18 219.275 539.11 207.355C556.38 240.485 574.37 273.245 592.71 305.685ZM508.31 345.455C495.52 353.065 482.92 361.335 470.58 370.245C457.81 379.465 445.47 389.305 433.64 399.635C406.85 372.225 379.99 344.645 353.19 316.945C380.6 293.375 410.25 272.105 441.35 253.695C463.41 284.525 485.79 315.105 508.3 345.435L508.31 345.455ZM432.2 400.905C408.01 422.215 386.02 445.655 367.01 470.435C336.84 445.975 306.43 421.545 275.8 397.335C298.19 368.975 323.79 342.395 351.74 318.205C378.55 345.905 405.41 373.485 432.2 400.895V400.905ZM365.85 471.955C361.05 478.275 356.43 484.665 352.03 491.145C339.27 509.905 328.35 528.995 319.29 548.305C286.13 527.765 252.62 507.485 218.7 487.925C233.63 456.895 252.54 426.995 274.62 398.835C305.25 423.045 335.67 447.475 365.85 471.955ZM318.47 550.055C305.6 577.875 296.6 606.175 291.58 634.705C256.73 617.885 221.54 601.765 186.02 587.405C191.91 554.075 202.81 521.285 217.86 489.655C251.78 509.215 285.3 529.505 318.47 550.045V550.055ZM288.22 735.735C291.46 768.145 298.73 800.675 309.82 832.515C276.51 827.395 243.11 823.145 209.71 820.365C195.98 782.675 186.89 744.185 182.71 705.925C218.06 714.495 253.26 724.715 288.23 735.735H288.22ZM310.53 834.565C321.35 865.185 335.71 895.165 353.4 923.785C323.39 924.005 293.19 925.125 262.91 927.565C241.31 893.835 223.74 858.465 210.42 822.345C243.81 825.145 277.22 829.425 310.52 834.565H310.53ZM354.59 925.695C360.79 935.615 367.39 945.385 374.39 954.945C386.13 970.995 398.7 986.095 412.04 1000.21C384.68 1004.37 358.23 1009.38 332.52 1015.51C313.6 996.045 295.9 974.915 279.66 952.265C274.26 944.735 269.07 937.095 264.09 929.385C294.37 926.975 324.58 925.885 354.59 925.685V925.695ZM413.65 1001.9C434.26 1023.49 456.69 1042.75 480.77 1059.5C457.65 1066.17 434.75 1073.82 412.34 1082.88C384.63 1063.92 358.38 1041.88 334.1 1017.1C359.81 1011.01 386.28 1006.03 413.65 1001.89V1001.9ZM482.8 1060.91C485.89 1063.03 489 1065.12 492.15 1067.16C513.38 1080.95 535.34 1092.5 557.89 1101.79C537.72 1110.38 518.5 1119.83 500.42 1130.66C470.62 1118.4 441.73 1102.8 414.25 1084.18C436.7 1075.16 459.64 1067.54 482.8 1060.91ZM560.38 1102.82C586.7 1113.45 613.83 1120.99 641.57 1125.37C642.43 1125.51 643.29 1125.64 644.14 1125.77C644.6 1125.84 645.05 1125.9 645.51 1125.97C629.36 1135.6 614.04 1146.21 600.16 1158.37C598.92 1158.18 597.69 1158 596.45 1157.8C596.19 1157.76 595.91 1157.71 595.66 1157.67C564.09 1152.64 532.91 1143.82 502.66 1131.57C520.82 1120.79 540.13 1111.38 560.39 1102.82H560.38ZM648.55 1126.41C681.71 1131.07 714.79 1131.94 747.28 1129.14C735.56 1140.33 725.11 1152.23 716.1 1165.26C679 1166.52 640.91 1164.41 602.67 1158.75C616.72 1146.6 632.22 1136.02 648.54 1126.41H648.55ZM750.36 1128.86C783.1 1125.8 815.21 1119.02 846.16 1108.64C838.46 1121.87 832.63 1135.63 828.57 1150.31C793.59 1158.7 756.6 1163.72 718.52 1165.17C727.71 1152.07 738.38 1140.11 750.35 1128.87L750.36 1128.86ZM848.96 1107.69C877.57 1097.87 905.17 1084.97 931.33 1069.09C929.15 1084.01 929.5 1098.47 931.56 1112.6C900.83 1128.49 866.88 1140.95 830.73 1149.79C834.93 1134.94 840.97 1121.05 848.96 1107.69ZM933.47 1067.78C942.78 1062.06 951.9 1055.96 960.82 1049.48C975.1 1039.11 988.62 1027.95 1001.34 1016.07C1008.16 1026.01 1015.06 1036.02 1022.11 1046.05C1008.27 1060.14 993.65 1072.82 978.3 1083.94C964.3 1094.08 949.27 1103.33 933.37 1111.65C931.35 1097.39 931.09 1082.8 933.47 1067.78ZM1002.75 1014.74C1022.32 996.295 1039.96 976.145 1055.51 954.545C1066.02 955.785 1076.14 958.325 1085.97 961.765C1067.65 992.915 1046.7 1020.78 1023.48 1044.66C1016.44 1034.65 1009.56 1024.65 1002.75 1014.74ZM1056.78 952.775C1074.43 927.995 1089.35 901.325 1101.3 873.155C1111.2 868.295 1121.09 865.035 1131.25 863.165C1119.06 898.015 1104.19 930.515 1086.96 960.095C1077.23 956.665 1067.2 954.105 1056.78 952.785V952.775ZM1102.41 870.475C1114.73 840.865 1123.8 809.625 1129.33 777.185C1138.97 767.705 1148.8 759.975 1159.16 753.825C1152.8 791.395 1143.64 827.305 1131.97 861.055C1121.94 862.805 1112.18 865.875 1102.41 870.475ZM1129.86 773.965C1129.95 773.435 1130.04 772.905 1130.12 772.365C1134.53 744.675 1135.91 716.715 1134.3 688.685C1143.81 675.605 1153.96 663.585 1165.06 652.735C1166.77 684.435 1165.22 716.065 1160.27 747.095C1160.05 748.495 1159.81 749.895 1159.58 751.295C1149.25 757.255 1139.45 764.765 1129.86 773.965ZM1166.73 648.455C1164.69 616.075 1159.28 583.665 1150.63 551.785C1162.24 535.545 1175.28 520.025 1190.1 505.525C1200.22 542.205 1206.6 579.595 1209.06 617.025C1193.4 625.905 1179.45 636.445 1166.73 648.455ZM1112.16 452.475C1099.6 427.885 1084.99 404.055 1068.4 381.305C1063.06 373.985 1057.55 366.835 1051.89 359.845C1059.04 335.965 1067.48 312.335 1077.56 289.135C1084.92 298.105 1092.05 307.315 1098.92 316.765C1116.78 341.325 1132.59 367.045 1146.28 393.605C1133.33 412.745 1122.07 432.465 1112.16 452.455V452.475ZM964.28 274.255C931.8 249.265 896.78 228.525 860.14 212.635C858.77 183.155 859.02 153.785 861.6 124.915C902.85 142.825 942.22 165.985 978.7 193.755C972.25 220.165 967.58 246.975 964.28 274.265V274.255ZM743.48 179.665C710.28 175.225 676.09 175.535 641.75 180.025C630.72 149.015 620.86 117.745 612.73 86.2049C653.25 81.3049 693.12 81.5649 731.38 87.2549C732.88 117.785 737.24 148.725 743.48 179.665ZM639.81 180.285C606.44 184.795 572.94 193.225 540.06 205.025C524.46 175.065 509.46 144.815 495.33 114.235C533.85 100.555 572.61 91.2048 610.82 86.4448C618.95 117.995 628.79 149.275 639.82 180.295L639.81 180.285ZM538.24 205.675C505.23 217.655 472.88 233.025 441.93 251.215C422.01 223.355 402.35 195.295 383.09 167.025C419.17 145.715 456.23 128.255 493.52 114.875C507.65 145.455 522.65 175.715 538.24 205.675ZM440.27 252.205C409.1 270.665 379.37 291.995 351.9 315.625C327.9 290.825 303.96 265.925 280.14 240.975C294.45 228.635 309.42 216.725 325.03 205.305C343.48 191.805 362.31 179.365 381.42 168.005C400.68 196.275 420.34 224.335 440.26 252.195L440.27 252.205ZM350.45 316.875C322.43 341.125 296.78 367.765 274.33 396.175C247.16 374.715 219.83 353.435 192.33 332.465C217.35 300.625 246.28 270.315 278.69 242.215C302.5 267.165 326.45 292.065 350.45 316.865V316.875ZM273.15 397.685C251.01 425.915 232.04 455.885 217.05 486.985C187.28 469.855 157.2 453.285 126.78 437.595C143.65 401.925 165.28 367.135 191.16 333.985C218.65 354.955 245.99 376.225 273.15 397.685ZM216.22 488.715C201.12 520.415 190.16 553.275 184.22 586.675C152.95 574.085 121.43 562.865 89.6599 553.735C96.1199 515.225 108.42 476.795 125.97 439.325C156.39 455.015 186.46 471.575 216.22 488.715ZM180.73 705.445C184.87 743.805 193.92 782.395 207.61 820.195C177.08 817.715 146.55 816.485 116.13 816.985C100.87 774.365 90.7899 730.775 86.1499 687.315C117.76 691.635 149.3 697.885 180.73 705.445ZM208.32 822.175C221.61 858.405 239.16 893.885 260.75 927.735C232.42 930.075 204.03 933.585 175.68 938.605C151.41 900.275 131.7 860.045 116.81 818.885C147.24 818.415 177.77 819.665 208.32 822.175ZM261.93 929.565C267.1 937.605 272.49 945.555 278.11 953.395C294.18 975.805 311.68 996.735 330.37 1016.04C304.32 1022.33 279.02 1029.8 254.32 1038.76C234.48 1018.23 215.86 996.115 198.7 972.515C191.03 961.965 183.73 951.235 176.79 940.355C205.16 935.355 233.58 931.875 261.93 929.565ZM331.92 1017.62C356.21 1042.51 382.48 1064.66 410.22 1083.75C387.95 1092.86 366.17 1103.37 345.13 1115.71C313.4 1093.92 283.41 1068.64 255.78 1040.25C280.51 1031.32 305.83 1023.88 331.92 1017.62ZM412.11 1085.05C439.61 1103.79 468.54 1119.51 498.38 1131.89C479.76 1143.2 462.38 1155.99 446.46 1170.83C411.95 1156.59 378.56 1138.49 346.88 1116.91C367.96 1104.6 389.79 1094.12 412.11 1085.04V1085.05ZM500.59 1132.8C531.4 1145.4 563.17 1154.44 595.36 1159.56C595.62 1159.6 595.88 1159.64 596.14 1159.68C596.86 1159.79 597.58 1159.9 598.3 1160.01C584.33 1172.5 571.86 1186.62 561.52 1202.97C560.5 1202.81 559.48 1202.67 558.46 1202.51L557.96 1202.43C520.72 1196.55 483.99 1186.13 448.42 1171.63C464.4 1156.83 481.87 1144.07 500.58 1132.8H500.59ZM717.14 1167.18C743.26 1166.3 768.98 1163.78 793.86 1159.61C805.46 1157.66 816.82 1155.38 827.92 1152.77C824.47 1165.98 822.43 1179.96 821.71 1194.99C781.39 1204.54 738.69 1210.06 694.49 1211.36C700.36 1195.14 707.98 1180.56 717.13 1167.18H717.14ZM933.7 1113.84C949.8 1105.36 965.06 1095.9 979.43 1085.48C994.86 1074.3 1009.5 1061.7 1023.32 1047.74C1029.93 1057.11 1036.69 1066.49 1043.65 1075.78C1028.31 1091.21 1012.14 1105.19 995.19 1117.56C978.76 1129.56 961.23 1140.44 942.74 1150.21C938.81 1138.29 935.6 1126.18 933.69 1113.83L933.7 1113.84ZM1088.96 960.805C1094.12 951.895 1099.09 942.695 1103.84 933.195C1114.92 911.085 1124.8 887.465 1133.35 862.785C1145.58 860.765 1158.23 860.695 1171.78 862.175C1157.7 902.745 1140.38 940.645 1120.18 975.145C1110.04 969.675 1099.67 964.715 1088.95 960.795L1088.96 960.805ZM1134.07 860.705C1145.87 826.275 1155.08 789.825 1161.31 752.575C1174.22 745.235 1187.97 740.305 1203.18 737.485C1196.11 780.435 1185.76 821.585 1172.44 860.315C1158.91 858.795 1146.28 858.795 1134.07 860.705ZM1205.18 737.125C1222.46 734.155 1241.63 733.835 1263.57 735.725C1255.99 783.305 1244.04 829.225 1228.18 872.735L1228.29 872.345C1208.4 866.685 1190.69 862.525 1174.3 860.535C1187.78 821.155 1198.22 779.555 1205.17 737.125H1205.18ZM1271.42 592.925C1248.75 598.345 1228.88 606.065 1211.16 615.855C1208.89 581.415 1203.27 546.945 1194.29 512.645C1193.51 509.685 1192.71 506.725 1191.88 503.775C1208.79 487.495 1228.01 472.535 1250.09 459.345C1261.89 502.345 1269.05 547.085 1271.41 592.915L1271.42 592.925ZM1197.84 330.655C1178.71 349.975 1162.11 370.455 1147.6 391.675C1133.93 365.425 1118.2 340.045 1100.46 315.645C1093.36 305.885 1086.01 296.385 1078.42 287.135C1088.93 263.195 1101.21 239.725 1115.62 216.925C1131.56 234.415 1146.54 252.745 1160.42 271.845C1174.12 290.705 1186.6 310.335 1197.84 330.645V330.655ZM1002.85 118.115C993.16 142.265 985.4 166.725 979.24 191.525C966.85 182.125 954.08 173.205 940.94 164.805C915.35 148.445 888.93 134.385 861.79 122.665C864.16 97.2948 868.34 72.3149 874.81 47.9849C919.6 66.4849 962.67 90.1048 1002.85 118.115ZM734.68 8.32498C731.04 33.505 730.11 59.255 731.29 85.315C692.92 79.635 653.12 79.3348 612.26 84.3648C605.51 57.9548 599.98 31.355 595.99 4.57498C642.76 0.0949769 689.35 1.24498 734.68 8.32498ZM610.34 84.605C581.87 88.225 552.88 94.4349 523.51 103.215C513.88 106.095 504.24 109.265 494.61 112.695C482.52 86.4648 471.06 59.9849 460.43 33.2449C504.49 18.7649 549.35 9.18491 594.07 4.75491C598.06 31.5649 603.58 58.175 610.33 84.605H610.34ZM269.88 131.325C328.84 88.465 392.81 55.695 458.62 33.855C469.26 60.605 480.71 87.095 492.81 113.345C455.22 126.865 417.91 144.475 382.07 165.545C365.34 140.965 348.92 116.235 332.89 91.345L331.28 92.3848C347.29 117.265 363.7 141.975 380.41 166.525C361.07 177.965 342.17 190.415 323.9 203.775C308.38 215.135 293.34 227.125 278.88 239.665C258.33 218.125 237.89 196.555 217.61 174.955L216.22 176.265C236.48 197.845 256.91 219.405 277.44 240.925C245.45 268.815 216.31 299.345 191.05 331.505C167.64 313.665 144.11 296.045 120.47 278.745C161.27 223.695 211.64 173.675 269.87 131.335L269.88 131.325ZM119.35 280.275C142.97 297.565 166.49 315.175 189.88 333.005C182.16 342.885 174.8 352.915 167.85 363.075C151.24 387.325 137 411.925 125.17 436.765C100.25 423.945 75.0999 411.725 49.6999 400.255C68.0099 358.475 91.4099 318.195 119.35 280.275ZM124.35 438.485C106.52 476.295 94.2899 514.655 87.7999 553.205C61.8699 545.825 35.7799 539.835 9.50988 535.645C16.7799 490.145 30.1199 445.285 48.9199 402.005C74.2999 413.455 99.4399 425.675 124.34 438.485H124.35ZM3.77988 680.785C30.6099 681.245 57.4199 683.455 84.1899 687.045C88.7999 730.605 98.8599 774.295 114.1 817.015C86.9399 817.525 59.8599 819.425 32.9099 823.055L33.1599 824.955C60.2399 821.305 87.4699 819.425 114.78 818.925C129.66 860.195 149.36 900.535 173.63 938.975C146.94 943.775 120.29 949.915 93.7499 957.705C41.9699 871.755 11.4399 777.335 3.75988 680.785H3.77988ZM126.6 1007.14C115.24 991.565 104.64 975.635 94.7899 959.405C121.35 951.625 148.03 945.495 174.75 940.725C181.84 951.865 189.3 962.855 197.15 973.645C214.21 997.105 232.61 1019.09 252.24 1039.52C227.57 1048.56 203.49 1059.1 179.81 1071.46C160.96 1051.36 143.18 1029.9 126.59 1007.15L126.6 1007.14ZM181.18 1072.9C204.88 1060.56 228.99 1050.04 253.7 1041.02C281.17 1069.41 311.04 1094.79 343.11 1116.91C322.1 1129.38 301.85 1143.71 282.61 1160.29C246.25 1135.07 212.27 1105.83 181.19 1072.9H181.18ZM284.23 1161.41C303.5 1144.85 323.79 1130.55 344.85 1118.11C348.19 1120.39 351.54 1122.65 354.92 1124.86C383.93 1143.84 413.93 1159.72 444.75 1172.45C428.74 1187.62 414.25 1204.9 401.5 1224.87C360.34 1208.06 321.07 1186.79 284.22 1161.41H284.23ZM446.69 1173.25C482.66 1187.94 519.73 1198.33 557.63 1204.32L558.15 1204.4C558.9 1204.52 559.65 1204.63 560.4 1204.74C550.04 1221.52 541.89 1240.63 536.61 1262.68C490.57 1255.34 445.93 1242.86 403.3 1225.6C416.07 1205.65 430.62 1188.39 446.69 1173.25ZM681.77 1270.81C683.71 1249.34 687.83 1230.26 693.9 1213.02C725.01 1212.09 755.59 1209.14 785.08 1204.15C797.52 1202.04 809.7 1199.59 821.63 1196.81C820.98 1213.03 821.85 1230.47 824.16 1249.51C778.4 1261.38 730.5 1268.57 681.77 1270.8V1270.81ZM1020.29 1159.03C1001.52 1172.68 981.6 1185.16 960.71 1196.43C954.59 1181.86 948.43 1167.12 943.38 1152.11C962.04 1142.26 979.7 1131.26 996.33 1119.12C1013.37 1106.68 1029.56 1092.77 1044.9 1077.44C1054.21 1089.82 1063.91 1102.05 1074.13 1113.97C1057.07 1130.28 1039.11 1145.34 1020.3 1159.02L1020.29 1159.03ZM1165.18 1001.83C1161.29 999.495 1157.42 997.115 1153.54 994.745C1143.19 988.405 1132.73 982.005 1122.02 976.145C1127.74 966.325 1133.25 956.215 1138.54 945.785C1151.81 919.605 1163.57 891.615 1173.67 862.395C1190.04 864.345 1207.75 868.495 1227.66 874.155C1210.96 919.665 1189.97 962.515 1165.19 1001.83H1165.18Z" fill="#E3E2ED"/>
</svg>
