<svg width="1080" height="380" viewBox="0 0 1080 380" fill="none" xmlns="http://www.w3.org/2000/svg">
<path d="M223.803 -297.34C-16.7474 35.77 282.083 515.49 689.183 396.68C893.253 333.97 1021.38 115.73 949.033 -90.29C895.123 -250.75 730.823 -360.32 561.173 -327.45C548.873 -324.91 533.963 -322.02 522.143 -317.68C509.983 -314.42 495.983 -308.49 484.463 -303.49C431.233 -280.01 384.933 -240.66 350.443 -193.86C239.603 -41.21 301.843 184.78 477.953 255.34C577.633 296.2 701.083 268.68 774.083 188.6C880.213 80.27 858.163 -104.89 729.243 -185.19C706.943 -199.61 681.243 -209.77 655.103 -214.73C575.533 -231.14 488.613 -198.76 439.253 -133.4C381.743 -61.74 384.343 46.1 444.543 115.46C518.373 205.22 656.083 203.74 726.353 110.46C784.343 35.9 761.213 -77.74 679.503 -124.8C616.283 -162.7 527.443 -142.03 487.163 -80.02C431.683 0.00997925 486.283 118.47 585.583 121.11C640.333 122.99 694.853 81.61 702.803 26.71C716.223 -50.66 637.503 -120.37 563.513 -86C510.163 -62.7 490.823 7.54996 530.063 52.34C586.453 119.99 698.503 58.19 660.753 -24.7C644.563 -59.39 598.063 -74.23 566.013 -51.93C508.893 -15.35 548.283 75.51 613.753 50.93C653.083 35.23 655.853 -21.31 616.053 -38.2C588.783 -50.49 553.573 -26.97 557.503 3.52002C559.143 22.93 577.213 39.92 597.093 37.94C630.893 35.65 642.283 -10.07 610.483 -25.09C591.723 -34.04 566.983 -17.83 569.943 3.40997C571.933 25.81 601.533 35.63 615.093 16.61C609.313 25.2 597.763 29.26 587.773 26.23C565.643 19.89 562.093 -11.47 581.153 -23.75C599.203 -37.45 626.723 -25.27 631.293 -3.66998C640.323 32.34 593.843 56.51 567.403 32.15C528.013 -3.86996 571.153 -63.05 618.553 -44.49C681.073 -16.14 650.473 71.28 584.923 64.24C538.113 59.55 511.773 1.31 536.463 -38.02C568.113 -91.73 646.283 -86.02 673.783 -31.42C709.273 35.66 645.343 110.95 573.473 97.65C527.933 90.37 492.953 48.94 489.193 3.76001C481.643 -67.37 551.003 -127.17 620.173 -117.39C703.683 -107.81 753.973 -12.06 720.553 63.65C689.053 139.75 591.783 174.06 519.093 135.59C377.983 59.48 414.813 -139.95 565.973 -177.47C713.063 -214.65 838.193 -64.21 794.203 76.26C738.823 246.38 519.863 284.35 404.533 150.11C338.583 77.02 322.813 -35.92 365.823 -124.39L373.543 -139.93C376.763 -145.06 384.093 -157.06 387.343 -161.97C390.633 -166.38 399.643 -177.83 403.083 -182.33C425.133 -208.15 452.683 -231.11 482.723 -247.19C617.233 -320.71 779.313 -272.38 861.793 -145.67C970.463 20.71 896.253 238.89 718.703 320.4C614.053 370.05 484.453 362.79 386.603 300.27C246.773 215.54 176.553 37.67 217.953 -120.51C242.363 -222.26 311.313 -309.42 398.473 -365.9L428.583 -382.97C443.183 -390.91 460.553 -398.04 475.883 -404.36C484.093 -406.95 500.543 -412.72 508.763 -415.28C592.003 -439.18 683.113 -437.39 765.403 -409.89C1071.63 -304.83 1177.27 82.3599 977.303 334.21C817.813 542.96 515.673 601.14 289.623 467.01C-5.55737 296.29 -90.2474 -102.78 106.133 -380.67C164.553 -457.91 277.233 -377.91 223.813 -297.35L223.803 -297.34Z" fill="url(#paint0_linear_115_83)"/>
<defs>
<linearGradient id="paint0_linear_115_83" x1="539.723" y1="539.07" x2="539.723" y2="-431.93" gradientUnits="userSpaceOnUse">
<stop offset="0.04" stop-color="#020010"/>
<stop offset="0.15" stop-color="#020D1A"/>
<stop offset="0.37" stop-color="#033234"/>
<stop offset="0.66" stop-color="#056C5F"/>
<stop offset="0.94" stop-color="#07AD8F"/>
</linearGradient>
</defs>
</svg>
