<svg width="1283" height="1282" viewBox="0 0 1283 1282" fill="none" xmlns="http://www.w3.org/2000/svg">
<g opacity="0.1" filter="url(#filter0_d_115_18)">
<path d="M1263.81 492.285C1246.26 410.475 1213.35 335.935 1165.97 270.735C1116.34 202.435 1051.58 142.295 978.69 96.835C904.9 50.805 822.33 19.595 739.91 6.57498H739.89C694.08 -0.665023 646.98 -1.86517 599.7 2.67483C599.68 2.50483 599.65 2.34483 599.62 2.17483L597.73 2.45486C597.75 2.59486 597.77 2.72477 597.79 2.86477C485.32 14.0348 371.95 57.6549 272.75 129.775C173.67 201.805 97.2799 296.055 51.9499 399.465C51.8999 399.445 51.8599 399.425 51.8099 399.405L51.0299 401.145C51.0799 401.165 51.1299 401.195 51.1899 401.215C32.1899 444.945 18.7399 490.295 11.4799 536.285C-1.65012 619.445 2.51987 703.605 23.8799 786.405C44.4299 866.065 79.8199 940.715 129.06 1008.27C145.54 1030.88 163.25 1052.26 182.13 1072.34C181.59 1072.62 181.05 1072.9 180.51 1073.19L181.41 1074.88C182.1 1074.51 182.8 1074.15 183.49 1073.79C214.43 1106.51 248.49 1135.78 285.39 1161.35C284.75 1161.92 284.11 1162.46 283.47 1163.02L284.73 1164.46C285.49 1163.79 286.25 1163.14 287.01 1162.48C293.87 1167.2 300.82 1171.8 307.87 1176.27C338.95 1195.95 371.24 1212.68 404.54 1226.39C404.5 1226.45 404.46 1226.51 404.42 1226.57L406.04 1227.59C406.14 1227.43 406.24 1227.28 406.34 1227.13C449.69 1244.82 494.77 1257.4 541.19 1264.73C624.82 1277.94 712.18 1276.18 793.85 1259.67C881.49 1241.94 959.4 1208.61 1025.42 1160.6C1090.73 1113.1 1145.67 1049.67 1188.74 972.055C1228.47 900.465 1256.44 818.495 1269.62 735.025C1282.64 652.635 1280.68 570.975 1263.81 492.305V492.285ZM1049.01 1074.42C1042.05 1065.12 1035.29 1055.75 1028.68 1046.37C1052.23 1022.34 1073.39 994.325 1091.99 962.495C1102.71 966.395 1113.08 971.345 1123.23 976.815C1101.59 1013.52 1076.69 1046.34 1049.01 1074.42ZM1125.06 977.805C1135.75 983.655 1146.2 990.045 1156.55 996.375C1160.42 998.745 1164.29 1001.11 1168.17 1003.45C1142.47 1043.96 1112.73 1080.68 1079.51 1112.66C1069.28 1100.73 1059.58 1088.48 1050.26 1076.09C1078.16 1047.97 1103.17 1015.12 1125.07 977.815L1125.06 977.805ZM827.66 1194.52C828.41 1179.46 830.52 1165.47 834.05 1152.25C870.9 1143.41 904.94 1130.88 935.89 1114.78C937.85 1127.13 941.08 1139.23 945.02 1151.14C909.16 1169.89 869.71 1184.41 827.66 1194.53V1194.52ZM945.65 1153.01C950.73 1168.04 956.89 1182.78 963.01 1197.35C921.91 1219.34 877.11 1236.67 830.03 1249.04C827.74 1230 826.89 1212.56 827.58 1196.37C870.36 1186.24 909.82 1171.74 945.65 1153.02V1153.01ZM567.61 1203.29C578.06 1186.95 590.67 1172.86 604.79 1160.4C642.66 1166.1 681.1 1168.38 718.75 1167.26C709.73 1180.64 702.23 1195.21 696.44 1211.42C654.59 1212.53 611.41 1209.87 567.62 1203.3L567.61 1203.29ZM695.85 1213.08C689.85 1230.34 685.76 1249.44 683.85 1270.9C637.11 1272.91 589.62 1270.35 542.52 1262.99C547.82 1240.92 556.04 1221.83 566.5 1205.07C609.57 1211.56 653.19 1214.24 695.85 1213.09V1213.08ZM93.1099 557.095C93.1899 556.605 93.2699 556.125 93.3499 555.635C125.11 564.775 156.62 575.995 187.89 588.605C187.65 589.995 187.41 591.385 187.19 592.775C181.45 628.805 180.65 666.005 184.52 703.435C153.1 695.895 121.56 689.665 89.9499 685.365C85.4999 642.105 86.4499 598.985 93.1099 557.105V557.095ZM87.9999 685.095C61.2499 681.515 34.4499 679.325 7.63987 678.875C4.05987 632.005 5.85988 584.655 13.2299 537.545C39.4799 541.735 65.5699 547.725 91.4999 555.115C91.4099 555.675 91.3099 556.235 91.2299 556.805C84.5699 598.705 83.5999 641.835 88.0099 685.105L87.9999 685.095ZM738.54 87.7449L739.04 87.825C781.75 94.575 823.62 106.865 863.74 124.115C861.13 152.975 860.85 182.325 862.18 211.785C827.88 197.085 792.2 186.625 755.88 180.895C755.25 180.795 754.61 180.695 753.98 180.595C752.49 180.365 750.99 180.155 749.49 179.945C743.22 149.005 738.84 118.065 737.31 87.555C737.72 87.615 738.13 87.6749 738.53 87.7449H738.54ZM737.22 85.605C736.02 59.535 736.94 33.7848 740.57 8.62478C786.94 16.0348 832.81 29.1449 877.03 47.2549C870.55 71.5749 866.34 96.5348 863.95 121.875C823.84 104.735 782.18 92.6948 739.36 85.9348L738.84 85.855C738.3 85.775 737.76 85.695 737.23 85.605H737.22ZM1080.19 287.485C1070.08 310.635 1061.61 334.225 1054.43 358.055C1029.13 327.105 1000.74 299.455 970.04 275.615C973.3 248.295 977.94 221.455 984.36 195.025C1019.28 221.805 1051.52 252.805 1080.19 287.485ZM984.9 192.785C991.04 167.925 998.78 143.435 1008.46 119.245C1048.35 147.225 1085.35 179.545 1118.28 215.465C1103.87 238.205 1091.59 261.615 1081.06 285.495C1052.35 250.785 1020.19 219.775 984.9 192.785ZM1193.5 503.425C1178.66 517.845 1165.61 533.275 1153.96 549.415C1145 517.045 1132.71 485.235 1117.24 454.605C1127.11 434.545 1138.35 414.765 1151.27 395.565C1169.02 430.315 1183.15 466.495 1193.49 503.425H1193.5ZM1152.6 393.605C1167.09 372.315 1183.68 351.775 1202.81 332.405C1224.44 371.795 1241.42 413.705 1253.58 457.435C1231.49 470.575 1212.25 485.475 1195.31 501.685C1184.75 464.355 1170.47 428.235 1152.6 393.605ZM1207.89 733.165C1207.77 733.925 1207.64 734.685 1207.52 735.445C1192.35 738.175 1178.62 742.955 1165.73 750.085C1165.88 749.185 1166.03 748.295 1166.17 747.395C1171.23 715.685 1172.75 683.355 1170.89 650.965C1183.59 638.805 1197.55 628.155 1213.21 619.165C1215.58 657.375 1213.87 695.615 1207.9 733.155L1207.89 733.165ZM1215.3 617.985C1232.99 608.105 1252.84 600.325 1275.52 594.875C1277.73 640.345 1275.23 686.875 1267.87 733.835C1245.97 731.935 1226.81 732.215 1209.51 735.105C1209.6 734.565 1209.69 734.015 1209.78 733.475C1215.86 695.225 1217.69 656.635 1215.3 617.995V617.985ZM189.7 589.335C225.21 603.715 260.4 619.845 295.25 636.665C295.07 637.705 294.89 638.745 294.73 639.785C289.85 670.465 289.01 702.005 292.01 733.665C257.04 722.655 221.84 712.455 186.48 703.905C182.55 666.415 183.32 629.145 189.06 593.075C189.26 591.835 189.47 590.585 189.69 589.345L189.7 589.335ZM1131.55 776.225C1124.1 783.605 1116.77 792.025 1109.39 801.555C1113.05 777.275 1114.09 752.905 1112.59 728.765C1120.21 715.485 1128.1 702.955 1136.46 691.245C1137.85 718.025 1136.53 745.085 1132.23 772.075C1132.01 773.465 1131.78 774.845 1131.54 776.225H1131.55ZM854.12 1105.77C858.16 1099.19 862.68 1092.73 867.69 1086.33C892.13 1078.51 915.75 1067.97 938.18 1054.82C937.09 1059.11 936.22 1063.35 935.55 1067.57C910.01 1083.1 882.72 1095.93 854.11 1105.77H854.12ZM648.43 1123.88C620.83 1119.7 593.6 1112.18 567.21 1101.64C587.49 1093.19 608.69 1085.57 630.62 1078.28C653.71 1087.62 677.66 1094.33 702.29 1098.33C685.17 1106.46 668.26 1114.97 652.15 1124.42C650.91 1124.24 649.68 1124.07 648.44 1123.88H648.43ZM297.05 637.535C324.97 651.035 352.68 664.975 380.17 678.805C390.01 683.755 399.67 688.615 409.22 693.395C409.22 693.395 409.22 693.415 409.22 693.425C405.14 719.215 404.25 745.505 406.36 771.725C405.15 771.315 403.93 770.895 402.72 770.485C366.79 758.215 330.52 745.825 293.99 734.295C290.91 702.525 291.72 670.875 296.62 640.095C296.76 639.245 296.9 638.395 297.05 637.545V637.535ZM704.16 1096.7H704.11C680.04 1092.89 656.43 1086.32 633.68 1077.26C643.91 1073.88 654.28 1070.57 664.79 1067.27C671.75 1065.09 678.76 1062.92 685.8 1060.75C690.75 1059.22 695.7 1057.69 700.66 1056.15C718.93 1063.78 737.93 1069.4 757.32 1072.82C748.97 1076.74 740.59 1080.59 732.23 1084.42C723.27 1088.53 714.28 1092.65 705.34 1096.87C704.94 1096.81 704.55 1096.75 704.15 1096.69L704.16 1096.7ZM1067.99 895.635C1062.16 899.755 1056.51 903.305 1050.97 906.345C1055.67 894.245 1059.07 881.825 1061.07 869.265C1061.3 867.835 1061.5 866.395 1061.7 864.955C1069.22 857.625 1076.59 849.275 1083.95 839.835C1080.7 859.185 1075.29 877.855 1068 895.645L1067.99 895.635ZM1012.03 616.005C1009.91 641.225 1007.72 667.295 1004.5 693.385C994.92 682.885 984.47 673.385 973.34 665.005C972.52 635.815 970.67 606.725 968.88 578.595C968.58 573.825 968.28 569.115 967.99 564.445C984.16 576.255 999.22 589.905 1012.93 605.245C1012.63 608.795 1012.33 612.385 1012.02 616.005H1012.03ZM1059.18 868.955C1057.06 882.275 1053.35 895.275 1048.27 907.785C1039.49 912.355 1030.96 915.615 1022.4 917.695C1025.44 909.945 1027.64 902.045 1028.91 894.115C1029.15 892.605 1029.35 891.095 1029.53 889.575C1039.95 883.645 1049.83 876.195 1059.46 867.095C1059.37 867.715 1059.28 868.335 1059.18 868.955ZM642.31 803.115C644.61 788.645 648.49 774.485 653.8 760.855C687.1 782.015 720.81 802.855 755 822.645C751.74 831.335 749.33 840.395 747.84 849.705C747.66 850.815 747.5 851.935 747.35 853.055C711.85 838.745 676.69 822.715 641.87 805.995C642.01 805.035 642.15 804.065 642.3 803.105L642.31 803.115ZM1027.02 893.805C1025.69 902.135 1023.37 910.305 1020.22 918.195C1007.85 920.925 995.37 921.235 981.89 919.605C983.36 915.795 984.45 911.865 985.1 907.855C985.23 907.025 985.34 906.195 985.44 905.355C1000.64 902.605 1014.48 897.815 1027.46 890.725C1027.32 891.755 1027.18 892.785 1027.01 893.805H1027.02ZM866.48 1010.55L866.22 1010.51C865.33 1010.37 864.44 1010.21 863.55 1010.05C877.48 997.505 889.9 983.315 900.19 966.885C901.12 967.075 902.06 967.255 903 967.405L903.2 967.435C906.66 967.965 910.16 968.165 913.68 968.075C908.24 984.365 900.59 998.655 891.07 1011.66C882.83 1012.16 874.59 1011.83 866.48 1010.56V1010.55ZM749.74 850.015C751.2 840.885 753.57 832.065 756.74 823.655C786.46 840.815 816.55 857.185 847.07 872.265C845.51 876.525 844.35 880.955 843.63 885.515C843.57 885.875 843.52 886.245 843.47 886.605C811.79 877.465 780.37 866.305 749.2 853.805C749.36 852.535 749.53 851.275 749.74 850.015ZM983.21 907.555C982.56 911.585 981.45 915.535 979.94 919.355C965.48 917.415 949.84 913.285 931.97 907.525C950.94 908.835 967.92 908.315 983.47 905.705C983.39 906.325 983.31 906.945 983.21 907.555ZM845.52 885.815C846.21 881.455 847.31 877.205 848.79 873.125C870.86 883.995 893.15 894.195 915.69 903.535C892.09 899.355 868.64 893.805 845.32 887.145C845.38 886.705 845.44 886.255 845.51 885.815H845.52ZM925.24 827.835C925.32 827.845 925.4 827.865 925.49 827.875C927.34 851.305 927.31 874.795 924.31 897.635C922.02 873.875 917.44 850.345 911.36 827.055C915.94 826.845 920.56 827.095 925.17 827.815H925.24V827.835ZM922.35 897.295C915.02 874.375 906.51 851.705 897.07 829.265C901.11 828.195 905.24 827.495 909.41 827.185C915.46 850.335 920.03 873.705 922.35 897.295ZM920.55 897.925C908.26 876.785 895.34 855.895 881.93 835.255C886.2 832.965 890.66 831.125 895.22 829.785C904.69 852.265 913.21 874.975 920.55 897.935V897.925ZM918.89 898.885C902.21 880.725 885.42 862.595 868.54 844.515C870.15 843.115 871.83 841.765 873.58 840.495C875.74 838.925 877.97 837.495 880.25 836.185C893.67 856.845 906.6 877.735 918.89 898.885ZM917.45 900.145C897.24 886.035 877.13 871.675 857.14 857.115C860.01 853.025 863.35 849.235 867.1 845.785C883.98 863.865 900.77 881.985 917.45 900.145ZM916.42 901.755C893.87 892.405 871.56 882.195 849.47 871.315C851.22 866.895 853.43 862.665 856.06 858.695C876.07 873.265 896.19 887.635 916.42 901.755ZM915.22 905.385C891.84 906.195 868.41 904.535 845.03 901.245C844.67 897.165 844.69 893.085 845.1 889.055C868.33 895.685 891.7 901.215 915.22 905.385ZM915.4 907.285C893.58 912.815 870.93 915.405 847.99 916.035C846.66 911.815 845.73 907.515 845.22 903.205C868.59 906.475 892.01 908.105 915.4 907.285ZM916.53 908.975C897.17 919.105 876.15 925.855 854.28 930.325C852 926.335 850.11 922.185 848.63 917.935C871.72 917.265 894.54 914.615 916.53 908.975ZM913.55 912.645C897.48 924.135 880.2 933.595 862.03 941.425C860.9 940.085 859.81 938.695 858.77 937.265C857.54 935.575 856.39 933.845 855.31 932.075C875.66 927.875 895.29 921.685 913.55 912.645ZM917.69 911.995C904.21 927.385 888.99 940.435 872.49 951.605C869.24 949.015 866.18 946.115 863.35 942.945C882.57 934.615 900.82 924.455 917.69 912.005V911.995ZM919.32 913.035C909.74 930.835 898.24 946.225 885.23 959.705C881.35 957.795 877.61 955.495 874.08 952.835C890.58 941.605 905.81 928.495 919.31 913.035H919.32ZM921.11 913.745C915.92 932.895 908.48 949.735 899.24 964.715C895.09 963.765 891.01 962.375 887.07 960.585C900.05 947.055 911.53 931.595 921.11 913.745ZM922.91 914.415C922.16 933.805 919.19 950.845 914.3 966.135C910.67 966.275 907.05 966.085 903.49 965.535L903.29 965.505C902.61 965.395 901.93 965.275 901.26 965.145C910.38 950.215 917.75 933.445 922.92 914.415H922.91ZM924.84 914.195C928.54 932.735 930.01 948.955 929.35 963.715C925.07 964.905 920.72 965.695 916.38 966.005C921.2 950.675 924.11 933.595 924.84 914.185V914.195ZM926.59 913.195C934.71 929.835 940.74 944.055 944.62 957.565C940.34 959.845 935.88 961.725 931.33 963.135C931.91 948.245 930.37 931.885 926.6 913.195H926.59ZM928.18 912.095C938.52 924.065 948.32 936.385 957.74 948.865C954.17 951.765 950.35 954.365 946.36 956.615C942.42 943.065 936.34 928.785 928.18 912.095ZM929.29 910.445C944.36 920.195 957.58 928.715 970.71 935.545C967.36 939.935 963.48 943.995 959.21 947.635C949.69 935.015 939.77 922.555 929.29 910.445ZM930.82 909.165C947.05 914.405 961.57 918.315 975.12 920.455C976.51 920.675 977.88 920.875 979.25 921.055C977.31 925.585 974.82 929.915 971.87 933.995C958.84 927.245 945.74 918.825 930.82 909.165ZM932 905.605C951.36 902.155 968.28 896.655 983.34 889.315C984.01 894.135 984.13 898.965 983.69 903.695C968.11 906.385 951.06 906.925 932 905.605ZM932.08 903.655C950.15 895.785 965.81 885.895 979.55 874.435C981.13 878.665 982.29 882.985 983.03 887.315C968.08 894.675 951.3 900.195 932.08 903.655ZM931.53 901.815C947.69 889.905 961.4 876.285 973.17 861.365C975.43 865.055 977.35 868.875 978.92 872.785C965.26 884.135 949.65 893.935 931.53 901.815ZM930.63 900.095C944.11 884.645 955.22 867.715 964.43 849.715C966.34 851.805 968.14 854.025 969.83 856.355C970.61 857.435 971.35 858.525 972.07 859.625C960.36 874.565 946.72 888.195 930.63 900.095ZM930.8 896.975C941.14 879.555 949.16 860.865 955.31 841.245C958.02 843.365 960.61 845.695 963.04 848.225C954.2 865.605 943.6 881.975 930.8 896.975ZM928.38 897.295C935.68 876.775 939.82 854.995 941.88 832.995C945.99 834.915 949.95 837.275 953.68 840.025C947.39 860.235 939.13 879.455 928.38 897.295ZM926.25 897.565C929.2 874.845 929.25 851.505 927.43 828.235C931.72 829.085 935.94 830.405 940.03 832.165C937.98 854.575 933.76 876.745 926.25 897.565ZM927.28 826.255C924.67 794.615 918.7 763.145 912.01 733.575C921.27 735.175 930.4 737.905 939.24 741.665C941.56 769.745 942.79 800.135 940.22 830.165C936.02 828.405 931.69 827.085 927.29 826.255H927.28ZM925.33 825.915C920.5 825.165 915.66 824.925 910.87 825.175C902.54 793.675 891.53 762.615 879.79 731.995C889.72 731.285 899.83 731.665 909.97 733.225C916.67 762.795 922.69 794.285 925.33 825.915ZM908.92 825.305C904.66 825.645 900.45 826.375 896.33 827.485C883.34 796.795 868.62 766.535 852.81 736.655C860.94 734.415 869.3 732.895 877.81 732.165C889.56 762.785 900.59 793.845 908.93 825.315L908.92 825.305ZM894.47 828.005C889.8 829.395 885.25 831.285 880.88 833.645C862.21 804.985 842.59 776.765 822.42 748.935C831.45 744.025 841 740.065 850.92 737.175C866.75 767.065 881.48 797.325 894.47 828.005ZM879.2 834.575C876.89 835.895 874.64 837.355 872.45 838.945C870.63 840.265 868.89 841.655 867.23 843.115C843.6 817.815 819.79 792.595 795.87 767.485C803.52 760.775 811.86 754.865 820.73 749.875C840.91 777.705 860.53 805.925 879.2 834.585V834.575ZM865.8 844.385C861.95 847.915 858.54 851.805 855.59 855.995C827.65 835.625 799.91 814.865 772.38 793.835C778.74 784.625 786.16 776.215 794.44 768.755C818.36 793.875 842.17 819.095 865.8 844.395V844.385ZM854.51 857.575C851.81 861.635 849.54 865.945 847.74 870.475C817.23 855.385 787.14 839.015 757.42 821.845C761.1 812.495 765.77 803.645 771.29 795.415C798.82 816.445 826.56 837.205 854.5 857.575H854.51ZM843.23 888.525C842.78 892.635 842.74 896.805 843.08 900.975C811.46 896.395 779.92 888.865 748.7 880.395C747.99 872.135 748.08 863.885 748.97 855.765C780.12 868.255 811.54 879.395 843.23 888.525ZM835.94 901.825C838.38 902.215 840.82 902.575 843.27 902.925C843.76 907.345 844.68 911.755 846.01 916.085C815.6 916.775 784.73 914.075 754.69 910.315C751.79 901.135 749.84 891.785 748.89 882.425C777.69 890.215 806.76 897.215 835.94 901.825ZM846.62 917.985C848.1 922.355 849.99 926.625 852.3 930.725C824.63 936.195 795.65 938.065 767.01 938.535C762.23 930.095 758.33 921.295 755.34 912.325C785.36 916.065 816.22 918.715 846.62 917.985ZM853.31 932.475C854.52 934.495 855.82 936.465 857.22 938.385C858.18 939.695 859.17 940.965 860.2 942.205C836.63 952.185 811.59 959.445 785.82 964.835C782.52 961.125 779.38 957.235 776.42 953.155C773.41 949.025 770.64 944.775 768.1 940.425C796.71 939.925 825.65 937.995 853.31 932.465V932.475ZM861.5 943.735C864.38 947.025 867.5 950.035 870.83 952.725C851.21 965.785 829.81 976.235 807.41 984.835C800.26 979.415 793.52 973.275 787.31 966.485C813.01 961.055 837.98 953.745 861.5 943.735ZM872.41 953.975C876.02 956.745 879.84 959.145 883.82 961.155C868.72 976.515 851.64 989.345 833.2 1000.38C824.86 996.535 816.82 991.775 809.22 986.205C831.53 977.565 852.84 967.075 872.41 953.985V953.975ZM885.66 962.035C889.71 963.925 893.9 965.405 898.18 966.435C887.8 982.875 875.24 997.055 861.16 1009.58C852.37 1007.8 843.72 1005.02 835.36 1001.34C853.67 990.275 870.64 977.405 885.67 962.035H885.66ZM915.75 967.965C920.27 967.685 924.79 966.915 929.25 965.705C928.4 980.395 925.41 993.675 920.38 1006.44C911.56 1009.02 902.58 1010.74 893.6 1011.47C902.93 998.475 910.43 984.215 915.75 967.975V967.965ZM931.23 965.135C935.99 963.695 940.66 961.765 945.14 959.405C948.35 971.155 949.92 982.425 949.78 994.335C941.09 998.995 932.02 1002.83 922.76 1005.71C927.61 993.005 930.46 979.765 931.23 965.125V965.135ZM946.88 958.465C951.09 956.115 955.1 953.395 958.85 950.355C965.17 958.765 971.31 967.235 977.34 975.735C969.38 982.365 960.77 988.265 951.72 993.285C951.76 981.445 950.13 970.205 946.88 958.475V958.465ZM960.33 949.125C964.82 945.315 968.9 941.045 972.41 936.415C982.39 941.495 992.38 945.605 1003.15 948.535C996.14 957.995 987.92 966.725 978.82 974.485C972.8 965.995 966.65 957.525 960.34 949.125H960.33ZM973.56 934.855C976.63 930.585 979.22 926.035 981.21 921.295C994.58 922.905 1007.08 922.645 1019.44 920.095C1015.52 929.465 1010.42 938.445 1004.35 946.865C993.55 943.985 983.55 939.915 973.55 934.855H973.56ZM985.65 903.345C986.06 898.435 985.89 893.435 985.15 888.435C1001.06 880.455 1014.89 870.385 1027.35 858.515C1028.68 868.545 1028.83 878.555 1027.75 888.315C1014.75 895.595 1000.89 900.515 985.65 903.345ZM984.82 886.425C984.02 881.945 982.78 877.495 981.11 873.125C996.25 860.245 1009.04 845.435 1020.18 829.335C1023.37 838.175 1025.66 847.165 1027.02 856.145C1014.57 868.165 1000.75 878.355 984.83 886.425H984.82ZM980.45 871.495C978.8 867.475 976.79 863.545 974.42 859.755C987.84 842.415 998.7 823.355 1007.8 803.165C1012.47 811.045 1016.38 819.205 1019.5 827.505C1008.4 843.765 995.64 858.605 980.45 871.495ZM973.31 858.035C972.69 857.095 972.04 856.165 971.38 855.235C969.51 852.645 967.49 850.205 965.35 847.905C976.19 826.355 984.35 803.305 990.65 779.455C993.75 782.995 996.72 786.705 999.53 790.575C1002.04 794.035 1004.39 797.565 1006.59 801.155C997.53 821.455 986.71 840.625 973.32 858.035H973.31ZM963.94 846.425C961.41 843.845 958.72 841.465 955.9 839.305C963.56 814.295 968.24 787.815 970.87 760.605C977.33 765.725 983.44 771.455 989.11 777.745C982.86 801.685 974.74 824.815 963.93 846.435L963.94 846.425ZM954.27 838.095C950.4 835.295 946.3 832.905 942.06 830.975C944.69 800.975 943.51 770.615 941.23 742.535C950.98 746.885 960.34 752.495 969.09 759.225C966.51 786.505 961.89 813.045 954.28 838.105L954.27 838.095ZM941.05 740.365C939.79 725.375 938.24 711.055 936.8 697.825C934.76 679.005 932.33 660.155 929.64 641.325C944.5 647.775 958.51 655.955 971.45 665.545C972.3 696.235 972 727.035 969.3 756.965C960.41 750.255 950.92 744.675 941.05 740.365ZM934.9 698.035C936.3 710.955 937.82 724.905 939.06 739.505C930.13 735.775 920.91 733.095 911.56 731.545C908.2 716.785 904.68 702.505 901.33 688.935C896.3 668.555 890.89 648.185 885.21 627.875C899.91 630.495 914.09 634.755 927.59 640.445C930.34 659.645 932.83 678.865 934.91 698.035H934.9ZM899.46 689.395C902.75 702.735 906.21 716.745 909.51 731.235C899.33 729.725 889.13 729.335 879.04 730.055C873.91 716.705 868.64 703.445 863.41 690.265L861.61 685.715C853.6 665.515 845.31 645.315 836.86 625.175C851.62 624.215 866.53 624.885 881.37 627.225C881.95 627.315 882.53 627.415 883.11 627.515C888.87 648.105 894.36 668.745 899.46 689.395ZM859.83 686.415L861.63 690.965C866.79 703.965 871.98 717.045 877.05 730.215C868.51 730.945 860.07 732.465 851.79 734.755C833.49 700.305 813.76 666.335 793.56 632.775C807.06 628.865 820.88 626.365 834.84 625.315C843.37 645.645 851.74 666.035 859.83 686.415ZM849.92 735.295C840.02 738.185 830.39 742.165 821.17 747.225C797.67 714.845 773.42 682.985 749.05 651.525C762.72 643.825 777 637.745 791.67 633.345C811.88 666.905 831.62 700.855 849.92 735.305V735.295ZM819.48 748.155C814.52 750.965 809.67 754.075 804.98 757.495C801.3 760.175 797.79 763.005 794.42 765.965C766.65 736.805 738.73 707.785 710.78 678.915C716.5 673.795 722.52 668.955 728.8 664.445C734.84 660.115 741.03 656.125 747.36 652.485C771.73 683.945 795.97 715.795 819.47 748.165L819.48 748.155ZM792.99 767.235C784.51 774.875 777.04 783.375 770.72 792.575C738.89 768.245 707.34 743.545 676.03 718.665C685.53 704.665 696.72 691.725 709.37 680.195C737.31 709.065 765.23 738.085 793 767.235H792.99ZM769.65 794.155C764.05 802.535 759.37 811.475 755.71 820.845C721.53 801.055 687.83 780.205 654.53 759.045C659.97 745.485 666.83 732.475 674.97 720.245C706.28 745.125 737.84 769.825 769.66 794.155H769.65ZM747.13 855.035C746.19 863.225 746.06 871.535 746.73 879.865C731.13 875.615 715.62 871.145 700.21 866.705L696.54 865.645C677.89 860.275 659.21 854.655 640.56 848.875C639.49 835.195 639.82 821.485 641.6 807.995C676.44 824.715 711.61 840.735 747.13 855.035ZM696.01 867.485L699.68 868.545C715.32 873.055 731.08 877.595 746.91 881.905C747.81 891.345 749.71 900.795 752.58 910.065C736.32 907.995 720.31 905.635 704.76 903.335L702 902.925C684.46 900.335 666.87 897.475 649.3 894.465C644.9 880.185 642.01 865.585 640.72 850.945C659.13 856.645 677.57 862.185 695.99 867.495L696.01 867.485ZM701.74 904.805L704.5 905.215C720.34 907.555 736.66 909.975 753.25 912.065C756.21 921.135 760.08 930.025 764.84 938.575C746.82 938.825 728.96 938.545 711.67 938.265L710.57 938.245C696.29 938.015 681.94 937.595 667.59 937.055C660.32 924.035 654.42 910.435 649.97 896.505C667.23 899.455 684.51 902.255 701.74 904.805ZM710.53 940.155L711.63 940.175C729.28 940.455 747.52 940.745 765.92 940.465C768.64 945.185 771.62 949.805 774.88 954.285C777.66 958.105 780.6 961.775 783.67 965.285C755.07 971.145 725.6 974.735 696.21 977.195C691.53 971.965 687.06 966.475 682.85 960.755C677.68 953.735 672.96 946.475 668.69 939.005C682.66 939.525 696.63 939.935 710.54 940.155H710.53ZM785.14 966.945C791.36 973.855 798.12 980.115 805.3 985.635C780.97 994.825 755.49 1001.87 729.82 1007.74C718.37 999.345 707.63 989.715 697.81 978.985C727.15 976.485 756.58 972.855 785.13 966.945H785.14ZM807.1 987.005C814.73 992.705 822.82 997.575 831.21 1001.55C811.9 1012.91 791.16 1022.35 769.68 1030.68C756.5 1024.96 743.82 1017.76 731.88 1009.23C757.46 1003.33 782.85 996.245 807.1 987.005ZM833.34 1002.54C841.76 1006.35 850.48 1009.26 859.35 1011.17C845.3 1023.42 829.79 1034.09 813.42 1043.77C799.36 1041.38 785.53 1037.33 772.2 1031.76C793.54 1023.41 814.15 1013.93 833.33 1002.54H833.34ZM861.74 1011.65C863.13 1011.92 864.52 1012.17 865.91 1012.39L866.18 1012.43C873.81 1013.62 881.66 1013.99 889.61 1013.59C880.97 1025.06 870.86 1035.56 859.54 1045.6C845.62 1046.79 831.64 1046.46 817.81 1044.46C817.33 1044.39 816.86 1044.32 816.39 1044.24C832.56 1034.56 847.88 1023.89 861.75 1011.65H861.74ZM892.16 1013.44C901.23 1012.79 910.41 1011.14 919.54 1008.53C915.61 1018.04 910.55 1027.29 904.4 1036.66C890.77 1040.94 876.81 1043.88 862.76 1045.31C873.83 1035.33 883.71 1024.88 892.16 1013.45V1013.44ZM921.93 1007.82C931.33 1004.95 940.66 1001.07 949.74 996.235C949.56 1003.2 948.8 1010.42 947.45 1018.09C934.6 1025.22 921.13 1031.16 907.3 1035.72C913.26 1026.45 918.15 1017.27 921.93 1007.82ZM951.71 995.165C957.97 991.715 964.1 987.795 970.05 983.445C972.87 981.375 975.61 979.225 978.27 977.025C981.39 981.435 984.48 985.845 987.54 990.245C975.81 1000.28 963.07 1009.24 949.62 1016.88C950.89 1009.27 951.59 1002.1 951.71 995.165ZM979.73 975.785C989.35 967.615 997.8 958.595 1004.9 949.005C1010.65 950.485 1016.62 951.635 1022.95 952.425C1013.09 965.705 1001.64 977.985 988.99 988.985C985.93 984.585 982.85 980.185 979.73 975.785ZM1006.12 947.325C1012.48 938.485 1017.69 929.175 1021.62 919.615C1030.1 917.675 1038.54 914.635 1047.19 910.355C1041.19 924.505 1033.44 938.015 1024.25 950.645C1017.89 949.895 1011.89 948.775 1006.12 947.325ZM1029.8 887.145C1030.78 877.215 1030.51 867.055 1029.05 856.885C1040.48 845.735 1050.76 833.035 1060.47 819.015C1062 833.875 1061.87 848.955 1059.89 864.005C1050.21 873.375 1040.27 881.045 1029.8 887.145ZM1028.69 854.505C1027.22 845.415 1024.81 836.325 1021.5 827.395C1032.71 810.895 1042.23 793.075 1050.79 774.585C1055.3 788.065 1058.47 801.975 1060.14 816.095C1050.42 830.325 1040.12 843.195 1028.69 854.495V854.505ZM1020.81 825.565C1017.58 817.185 1013.55 808.955 1008.76 801.015C1018.24 779.585 1025.78 756.925 1032.31 733.735C1039.4 745.945 1045.34 758.805 1049.97 772.095C1041.37 790.995 1031.93 808.995 1020.82 825.555L1020.81 825.565ZM1007.53 799.025C1005.51 795.775 1003.36 792.585 1001.08 789.445C997.98 785.175 994.69 781.105 991.24 777.235C997.98 751.195 1002.54 724.225 1005.96 697.245C1015.34 707.855 1023.72 719.325 1030.96 731.455C1024.46 754.745 1016.97 777.505 1007.54 799.025H1007.53ZM989.69 775.525C983.9 769.215 977.67 763.475 971.09 758.345C973.86 728.435 974.21 697.675 973.4 667.005C984.55 675.465 994.88 684.975 1004.26 695.355C1000.88 722.385 996.37 749.415 989.69 775.525ZM966.98 578.715C968.74 606.345 970.55 634.885 971.39 663.545C958.18 653.825 944.06 645.665 929.34 639.285C924.2 603.555 918.14 567.915 911.98 532.815C930.99 540.765 949.08 550.875 965.99 562.985C966.31 568.165 966.64 573.405 966.98 578.705V578.715ZM927.29 638.405C913.49 632.595 899.18 628.345 884.63 625.825C874.24 588.765 862.99 551.885 851.63 515.515C871.75 518.815 891.26 524.345 909.9 531.955C916.07 567.045 922.14 602.675 927.3 638.405H927.29ZM882.54 625.485C867.04 622.975 851.47 622.265 836.08 623.305C820.45 586.095 804.26 549.095 788.19 512.665C808.36 511.205 828.91 511.965 849.52 515.175C860.88 551.545 872.14 588.415 882.55 625.475L882.54 625.485ZM834.06 623.455C820.01 624.545 806.11 627.105 792.53 631.075C778.9 608.465 765.08 586.035 751.34 563.765C743.28 550.685 735.1 537.425 726.97 524.125C746.11 518.275 765.94 514.435 786.15 512.825C802.22 549.245 818.41 586.255 834.05 623.455H834.06ZM749.72 564.765C763.36 586.895 777.1 609.175 790.64 631.635C775.91 636.095 761.58 642.225 747.86 649.985C732.96 630.765 718.02 611.685 703.17 592.735C691.91 578.355 680.47 563.765 669.05 549.085C686.77 539.035 705.56 530.825 725.09 524.705C733.31 538.145 741.57 551.545 749.72 564.765ZM701.67 593.915C716.46 612.795 731.35 631.795 746.19 650.945C739.88 654.585 733.71 658.565 727.69 662.885C721.33 667.455 715.24 672.355 709.45 677.535C679.34 646.435 649.19 615.515 619.15 584.805C634 571.625 650.17 559.955 667.38 550.045C678.86 564.795 690.36 579.465 701.67 593.915ZM708.03 678.815C695.32 690.405 684.08 703.405 674.52 717.465C640.59 690.485 606.96 663.295 573.61 636.115C586.34 617.745 601.18 600.955 617.72 586.075C647.77 616.785 677.92 647.705 708.04 678.815H708.03ZM673.46 719.055C665.28 731.325 658.37 744.385 652.89 758.005C628.97 742.785 605.25 727.415 581.7 712.155C569.62 704.325 557.38 696.385 545.08 688.455C552.48 670.505 561.72 653.525 572.53 637.695C605.89 664.875 639.53 692.075 673.46 719.055ZM580.65 713.755C604.3 729.085 628.12 744.525 652.15 759.815C646.72 773.675 642.75 788.095 640.42 802.815C640.3 803.585 640.18 804.365 640.07 805.135C611.38 791.335 582.91 777.075 554.67 762.925C545.61 758.385 536.7 753.925 527.89 749.525C531.16 728.875 536.74 709.045 544.34 690.255C556.54 698.125 568.67 705.985 580.65 713.755ZM553.82 764.635C582.25 778.875 610.91 793.235 639.8 807.125C637.96 820.705 637.59 834.495 638.61 848.265C600.55 836.455 562.64 824.015 525.32 811.615C523.85 791.665 524.58 771.535 527.6 751.505C536.23 755.815 544.95 760.185 553.83 764.625L553.82 764.635ZM638.77 850.325C640.01 865.045 642.85 879.725 647.21 894.095C610.25 887.725 573.38 880.635 537.21 873.615C531.07 854.045 527.13 833.965 525.47 813.695C562.79 826.085 600.7 838.525 638.76 850.325H638.77ZM647.84 896.145C652.24 910.155 658.1 923.855 665.34 936.975C630.89 935.635 596.43 933.555 562.75 931.515C552.38 913.595 544.06 894.895 537.88 875.695C574.04 882.715 610.9 889.795 647.85 896.145H647.84ZM666.43 938.925C670.89 946.815 675.85 954.495 681.3 961.895C685.27 967.275 689.45 972.445 693.82 977.395C667.13 979.575 640.55 980.865 614.81 982.115C609.9 982.355 605.06 982.585 600.26 982.825C593.16 975.045 586.46 966.835 580.19 958.245C574.31 950.195 568.89 941.935 563.92 933.495C597.58 935.535 632.02 937.605 666.44 938.925H666.43ZM614.91 984.025C641.14 982.755 668.24 981.445 695.43 979.185C705.21 990.025 715.93 999.775 727.37 1008.29C700.96 1014.25 674.39 1019 648.71 1023.59C648.03 1023.71 647.36 1023.83 646.68 1023.95C630.59 1012.51 615.57 999.345 601.94 984.645C606.22 984.435 610.53 984.225 614.9 984.015L614.91 984.025ZM649.05 1025.48C675.28 1020.79 702.43 1015.94 729.41 1009.8C741.32 1018.46 753.98 1025.79 767.15 1031.66C745.49 1039.95 723.11 1047.17 700.75 1054.13C682.62 1046.51 665.22 1036.9 648.89 1025.51C648.94 1025.51 649 1025.49 649.05 1025.48ZM769.65 1032.75C782.97 1038.47 796.8 1042.69 810.87 1045.26C794.62 1054.72 777.58 1063.24 760.33 1071.4C740.89 1068.19 721.83 1062.74 703.5 1055.27C725.79 1048.31 748.08 1041.08 769.64 1032.75H769.65ZM813.81 1045.77C814.27 1045.85 814.72 1045.92 815.18 1046C815.96 1046.12 816.75 1046.24 817.54 1046.36C830.48 1048.23 843.74 1048.67 857.09 1047.76C846.73 1056.74 835.4 1065.38 823.27 1074.05C803.59 1075.59 783.62 1074.97 763.69 1071.95C780.81 1063.8 797.72 1055.27 813.81 1045.79V1045.77ZM860.3 1047.5C874.39 1046.3 888.56 1043.59 902.54 1039.44C897.61 1046.71 892.03 1054.07 885.81 1061.7C866.74 1067.78 847.02 1071.87 827 1073.72C838.95 1065.1 850.11 1056.48 860.3 1047.5ZM905.45 1038.55C919.58 1034.15 933.49 1028.27 946.92 1021C945.99 1025.85 944.83 1030.89 943.45 1036.16C926.22 1046.1 908.02 1054.33 889.15 1060.6C895.21 1053.06 900.65 1045.76 905.45 1038.54V1038.55ZM949.1 1019.81C957.36 1015.22 965.43 1010.11 973.25 1004.48C978.67 1000.57 983.89 996.475 988.9 992.195C990.6 994.645 992.3 997.105 993.99 999.555C979.15 1012.86 962.97 1024.69 945.79 1034.81C947.12 1029.59 948.22 1024.61 949.11 1019.81H949.1ZM990.34 990.945C1003.7 979.345 1015.49 966.485 1025.48 952.725C1028.75 953.075 1032.12 953.335 1035.6 953.495C1023.79 969.745 1010.27 984.745 995.4 998.255C993.72 995.815 992.03 993.385 990.34 990.945ZM1026.78 950.925C1036.23 937.645 1044.02 923.545 1049.92 908.965C1055.38 906.115 1060.93 902.765 1066.63 898.875C1058.69 917.535 1048.69 935.205 1036.95 951.625C1033.45 951.485 1030.07 951.255 1026.78 950.915V950.925ZM1062.09 861.845C1063.82 847.025 1063.76 831.915 1061.98 816.835C1070.53 804.285 1078.65 790.705 1086.73 776.225C1088.25 796.185 1087.57 816.205 1084.58 835.865C1077.13 845.635 1069.68 854.275 1062.09 861.855V861.845ZM1061.61 813.945C1059.76 800.015 1056.45 786.125 1051.75 772.525C1060.27 753.935 1067.85 734.705 1075.22 715.485C1080.95 734.265 1084.72 753.485 1086.43 772.795C1078.3 787.455 1070.16 801.225 1061.6 813.945H1061.61ZM1050.88 770.055C1046.16 756.915 1040.13 744.065 1032.86 731.735C1039.35 708.435 1044.86 684.615 1050.31 660.995C1050.51 660.145 1050.7 659.285 1050.9 658.435C1060.57 675.765 1068.41 693.915 1074.3 712.535C1066.77 732.205 1059.21 751.545 1050.87 770.055H1050.88ZM1048.45 660.575C1043.14 683.575 1037.78 706.755 1031.51 729.475C1028.18 723.975 1024.6 718.585 1020.77 713.315C1016.2 707.025 1011.33 701.005 1006.21 695.275C1009.54 668.615 1011.78 641.955 1013.95 616.175C1014.2 613.165 1014.45 610.185 1014.7 607.235C1020.97 614.375 1026.94 621.875 1032.6 629.715C1038.73 638.205 1044.37 646.975 1049.51 655.985C1049.15 657.525 1048.8 659.055 1048.45 660.585V660.575ZM1034.15 628.585C1028.09 620.195 1021.67 612.195 1014.92 604.595C1016.29 588.455 1017.67 572.955 1019.34 557.695C1020.74 544.875 1022.25 531.975 1023.92 519.025C1030.34 526.505 1036.51 534.285 1042.39 542.365C1051.84 555.335 1060.35 568.755 1067.91 582.525C1064.86 593.465 1062.01 604.275 1059.32 614.915C1056.16 627.415 1053.11 640.435 1050.14 653.235C1045.24 644.795 1039.91 636.565 1034.15 628.575V628.585ZM1017.43 557.485C1015.82 572.205 1014.48 587.135 1013.16 602.635C999.32 587.335 984.14 573.725 967.84 561.975C966.73 544.025 965.75 526.825 965.19 510.245C964.65 494.395 964.17 478.725 963.81 463.225C984.97 478.755 1004.56 496.775 1022.24 517.085C1020.49 530.615 1018.9 544.095 1017.44 557.485H1017.43ZM963.28 510.305C963.83 526.435 964.77 543.135 965.84 560.535C948.85 548.495 930.67 538.455 911.59 530.585C910.12 522.225 908.64 513.885 907.18 505.595C905.43 495.695 903.67 485.795 901.94 475.895C899.33 461.005 896.52 445.565 893.8 430.635C893.33 428.035 892.85 425.435 892.38 422.825C916.91 433.055 940.2 446.125 961.87 461.805C962.23 477.785 962.73 493.955 963.28 510.315V510.305ZM891.91 430.975C894.63 445.905 897.44 461.345 900.05 476.225C901.79 486.125 903.54 496.025 905.29 505.925C906.69 513.825 908.09 521.765 909.49 529.725C890.76 522.175 871.17 516.705 850.98 513.475C846.63 499.555 842.27 485.705 837.93 471.955L833.14 456.745C827.39 438.475 821.24 419.975 814.78 400.795C840.89 404.975 866.17 412.105 890.27 421.965C890.82 424.985 891.37 427.985 891.91 430.985V430.975ZM831.32 457.315L836.11 472.535C840.35 485.995 844.62 499.535 848.88 513.155C828.37 510.035 807.76 509.265 787.36 510.785C783.5 502.035 779.64 493.305 775.81 484.625C771.24 474.285 766.67 463.945 762.11 453.595C754.04 435.285 745.6 416.525 737.33 398.175C762.32 395.965 787.58 396.625 812.65 400.455C819.22 419.965 825.48 438.765 831.32 457.315ZM760.35 454.365C764.91 464.705 769.48 475.055 774.05 485.395C777.8 493.875 781.56 502.385 785.33 510.935C765.23 512.575 745.34 516.445 725.95 522.445C714.57 503.815 703.28 485.125 692.52 466.745C685.93 455.495 679.32 444.235 672.71 432.965C668.96 426.575 665.19 420.165 661.43 413.745C685.47 405.965 710.25 400.735 735.31 398.365C743.67 416.905 752.19 435.865 760.35 454.365ZM671.06 433.935C677.68 445.205 684.29 456.465 690.87 467.705C701.56 485.965 712.77 504.535 724.07 523.025C704.78 529.145 685.98 537.395 667.98 547.705C654.36 530.205 640.76 512.605 627.5 495.135L625.07 491.925C613.38 476.535 601.65 461.075 589.9 445.565C612.05 432.825 635.43 422.315 659.58 414.355C663.41 420.895 667.25 427.415 671.07 433.935H671.06ZM623.54 493.085L625.97 496.285C639.19 513.695 652.73 531.235 666.3 548.665C657.43 553.815 648.76 559.465 640.31 565.615C632.51 571.295 625.05 577.285 617.94 583.565C590.27 555.285 562.69 527.185 535.3 499.285C532.5 496.435 529.69 493.575 526.89 490.715C545.82 474.045 566.42 459.205 588.22 446.525C600.02 462.105 611.81 477.625 623.54 493.085ZM533.94 500.635C561.3 528.515 588.87 556.595 616.52 584.855C599.62 599.995 584.75 616.785 572.13 634.915C543.32 611.435 514.71 587.965 486.3 564.655C481.19 560.465 476.07 556.265 470.95 552.055C486.82 530.195 505.17 510.035 525.47 491.995C528.3 494.875 531.13 497.765 533.96 500.645L533.94 500.635ZM485.08 566.125C513.53 589.465 542.18 612.975 571.04 636.485C560.05 652.495 550.79 669.535 543.42 687.385C524.99 675.505 506.43 663.635 488.11 652.155C469.93 640.765 451.5 629.105 433.39 617.635C443.16 595.085 455.45 573.645 469.83 553.605C474.92 557.785 480.01 561.955 485.09 566.125H485.08ZM487.09 653.775C505.51 665.315 524.15 677.245 542.68 689.185C534.98 708.195 529.4 728.095 526.1 748.635C506.78 739.005 487.93 729.695 468.97 720.625C449.86 711.485 430.83 702.065 411.34 692.315C415.45 667.075 422.69 642.665 432.61 619.405C450.64 630.825 468.99 642.435 487.08 653.775H487.09ZM468.15 722.345C487.28 731.495 506.3 740.885 525.8 750.615C522.73 770.725 521.93 790.935 523.35 810.965C514.58 808.055 505.84 805.145 497.15 802.245C486.71 798.765 476.27 795.295 465.83 791.825C446.87 785.535 427.37 778.885 408.34 772.395C406.16 746.255 407.01 720.015 411.03 694.295C430.34 703.955 449.21 713.285 468.15 722.345ZM465.22 793.645C475.66 797.115 486.1 800.585 496.54 804.065C505.49 807.045 514.48 810.035 523.51 813.035C525.11 833.385 528.99 853.545 535.09 873.195C532.16 872.625 529.23 872.055 526.32 871.495C510.54 868.425 494.76 865.355 478.98 862.345L457.98 858.325C446.82 856.185 435.64 854.035 424.42 851.915C416.21 826.605 410.86 800.595 408.53 774.485C427.31 780.895 446.54 787.445 465.24 793.655L465.22 793.645ZM457.61 860.195L478.61 864.215C494.39 867.225 510.17 870.295 525.95 873.365C529.21 873.995 532.47 874.635 535.74 875.265C541.88 894.545 550.15 913.345 560.48 931.365C543.04 930.305 525.06 929.225 507.36 928.255C490.99 927.365 474.49 926.525 457.89 925.825C444.3 902.935 433.32 878.805 425.1 853.985C435.96 856.045 446.81 858.125 457.62 860.205L457.61 860.195ZM507.25 930.175C525.37 931.165 543.8 932.275 561.62 933.355C566.8 942.225 572.47 950.915 578.64 959.375C584.64 967.595 591.04 975.465 597.79 982.945C581.07 983.775 564.95 984.665 549.11 985.865C534.38 986.975 519.91 988.175 505.7 989.495C495.16 978.245 485.26 966.275 476.12 953.635C470.04 945.235 464.35 936.605 459.04 927.795C475.21 928.485 491.29 929.305 507.24 930.175H507.25ZM549.26 987.765C565.57 986.535 582.19 985.635 599.46 984.775C613.04 999.575 628.01 1012.86 644.06 1024.43C629.61 1027.02 615.82 1029.5 602.12 1032.2C589.54 1034.68 576.88 1037.24 564.21 1039.94C543.81 1025.84 524.73 1009.53 507.37 991.255C521.09 989.995 535.05 988.835 549.26 987.765ZM602.49 1034.07C616.75 1031.26 631.12 1028.68 646.24 1025.98C662.51 1037.48 679.85 1047.22 697.94 1055C693.71 1056.31 689.47 1057.62 685.24 1058.93C678.2 1061.1 671.19 1063.27 664.22 1065.45C652.96 1068.98 641.86 1072.53 630.93 1076.16C608.4 1066.96 586.75 1055.3 566.38 1041.44C578.45 1038.87 590.5 1036.44 602.49 1034.08V1034.07ZM733.03 1086.17C742.22 1081.95 751.45 1077.72 760.62 1073.39C761.02 1073.46 761.42 1073.53 761.82 1073.59H761.87C781.11 1076.64 800.7 1077.46 820.25 1076.19C814.89 1079.99 809.38 1083.8 803.73 1087.65C797.76 1091.73 791.95 1095.83 786.32 1099.99C760.93 1101.96 734.95 1101.19 708.74 1097.4C716.82 1093.61 724.93 1089.89 733.02 1086.18L733.03 1086.17ZM804.81 1089.22C811.37 1084.74 817.75 1080.33 823.93 1075.92C843.93 1074.35 863.87 1070.57 883.35 1064.7C880.41 1068.25 877.33 1071.86 874.12 1075.56C871.68 1078.36 869.35 1081.17 867.11 1084C842.33 1092.03 816.48 1097.36 789.97 1099.69C794.79 1096.17 799.74 1092.69 804.82 1089.23L804.81 1089.22ZM875.56 1076.81C879.46 1072.33 883.16 1067.96 886.67 1063.67C905.92 1057.61 924.69 1049.49 942.58 1039.41C941.77 1042.34 940.91 1045.35 939.96 1048.44C939.66 1049.41 939.38 1050.39 939.11 1051.35C917.5 1064.23 894.49 1074.83 870.44 1082.88C872.1 1080.85 873.8 1078.82 875.55 1076.8L875.56 1076.81ZM941.79 1049C942.93 1045.24 943.98 1041.61 944.92 1038.08C954.1 1032.8 963.04 1027 971.69 1020.69C979.93 1014.68 987.82 1008.27 995.33 1001.51C996.51 1003.22 997.69 1004.93 998.86 1006.64C981.26 1022.96 962.03 1037.47 941.52 1049.91C941.61 1049.61 941.7 1049.3 941.79 1049ZM996.77 1000.22C1012.3 986.065 1026.17 970.405 1038.15 953.595C1040.32 953.665 1042.53 953.695 1044.78 953.685C1045.05 953.685 1045.32 953.685 1045.59 953.685C1032.15 972.405 1016.95 989.675 1000.27 1005.31C999.1 1003.61 997.93 1001.91 996.76 1000.21L996.77 1000.22ZM1044.77 951.775C1042.97 951.775 1041.21 951.755 1039.47 951.715C1051.56 934.465 1061.67 916.045 1069.56 896.845C1072.49 894.775 1075.46 892.565 1078.49 890.205C1080.14 888.925 1081.78 887.685 1083.41 886.495C1073.53 909.735 1061.26 931.585 1046.96 951.785C1046.24 951.775 1045.51 951.765 1044.78 951.775H1044.77ZM1077.31 888.705C1075.14 890.395 1073.01 892.005 1070.89 893.545C1078.03 875.495 1083.21 856.785 1086.22 837.725C1086.28 837.365 1086.33 836.995 1086.39 836.635C1090.08 831.775 1093.77 826.655 1097.48 821.235C1100.43 816.925 1103.36 812.805 1106.28 808.855C1101.78 834.845 1094.51 859.695 1084.82 883.145C1082.33 884.895 1079.83 886.735 1077.32 888.695L1077.31 888.705ZM1106.96 804.735C1103.29 809.595 1099.61 814.725 1095.89 820.155C1092.9 824.515 1089.93 828.695 1086.96 832.685C1089.67 813.055 1090.11 793.095 1088.39 773.205C1092.52 765.735 1096.65 758.045 1100.83 750.135C1104.14 743.885 1107.47 737.765 1110.85 731.795C1112.13 755.635 1110.92 779.685 1107.14 803.645C1107.08 804.005 1107.02 804.365 1106.96 804.725V804.735ZM1099.14 749.255C1095.43 756.285 1091.75 763.145 1088.08 769.825C1086.17 750.535 1082.22 731.335 1076.33 712.605C1077.43 709.725 1078.53 706.855 1079.63 703.985C1082.62 696.155 1085.61 688.315 1088.66 680.505C1091.77 672.525 1094.98 664.535 1098.31 656.565C1104.96 680.035 1109.1 704.055 1110.65 728.315C1106.76 735.105 1102.93 742.095 1099.15 749.255H1099.14ZM1086.87 679.795C1083.82 687.615 1080.83 695.455 1077.84 703.285C1077.03 705.415 1076.21 707.545 1075.4 709.675C1069.34 691.075 1061.35 672.955 1051.54 655.665C1054.65 642.235 1057.85 628.525 1061.17 615.385C1063.7 605.375 1066.37 595.215 1069.22 584.945C1081.12 607.035 1090.56 630.035 1097.46 653.625C1093.79 662.335 1090.28 671.075 1086.88 679.795H1086.87ZM1069.96 582.285C1075.66 561.905 1082.09 541.115 1089.6 520.245C1102.99 546.325 1113.81 573.695 1121.71 601.885C1113.24 617.945 1105.66 634.345 1098.64 650.845C1091.58 627.295 1081.99 604.335 1069.96 582.285ZM1068.64 579.905C1061.28 566.655 1053.05 553.745 1043.94 541.235C1037.68 532.645 1031.11 524.385 1024.25 516.475C1027.58 490.915 1031.53 465.185 1036.53 439.495C1056.48 463.775 1073.92 490.105 1088.41 517.925C1080.86 538.765 1074.39 559.535 1068.65 579.905H1068.64ZM1022.57 514.555C1004.76 494.275 985.04 476.285 963.76 460.805C963.05 429.465 962.85 398.825 963.63 368.815C989.86 388.995 1013.79 412.145 1034.94 437.585C1029.91 463.265 1025.92 488.995 1022.57 514.555ZM961.81 459.405C940.01 443.775 916.61 430.755 891.96 420.585C885.8 386.675 879.54 351.605 874.45 316.045C905.59 329.585 934.87 346.935 961.75 367.385C960.93 397.415 961.12 428.055 961.81 459.405ZM889.86 419.725C865.76 409.965 840.5 402.915 814.42 398.795H814.39C814.29 398.775 814.19 398.755 814.08 398.745C812.27 393.365 810.43 387.945 808.58 382.445C798.22 351.795 787.5 320.095 777.61 287.835C778 287.895 778.39 287.945 778.78 288.015C779.32 288.105 779.87 288.185 780.41 288.275C812.41 293.505 843.21 302.665 872.38 315.155C877.45 350.715 883.69 385.795 889.85 419.725H889.86ZM806.77 383.055C808.52 388.235 810.25 393.345 811.96 398.415C787.2 394.715 761.87 394.075 736.51 396.365C735.49 394.095 734.47 391.835 733.45 389.585C718.09 355.505 702.58 321.105 687.76 286.385C717.61 283.025 747.09 283.335 775.52 287.515C785.5 320.095 796.32 352.105 806.78 383.055H806.77ZM731.71 390.375C732.63 392.425 733.57 394.485 734.5 396.555C709.64 398.945 684.78 404.145 660.41 412.005C640.03 377.265 619.57 342.195 599.51 306.735C628.19 296.765 657.14 290.005 685.78 286.615C700.68 321.525 716.27 356.105 731.71 390.375ZM658.54 412.605C634.56 420.485 611.09 430.955 588.61 443.875C564.11 411.535 539.53 378.915 515.1 346.015C541.96 330.175 569.67 317.235 597.66 307.365C617.71 342.805 638.17 377.875 658.54 412.605ZM586.95 444.845C575.56 451.465 564.43 458.725 553.63 466.595C543.82 473.745 534.42 481.305 525.44 489.225C496.82 460.065 467.95 430.635 438.99 401.015C450.68 390.795 462.93 381.025 475.7 371.795C488.05 362.875 500.65 354.605 513.45 346.995C537.88 379.895 562.45 412.505 586.94 444.845H586.95ZM524 490.505C503.42 508.845 485.12 529.115 469.43 550.805C437.45 524.575 405.17 498.135 372.63 471.745C391.48 447.055 413.27 423.675 437.55 402.275C466.51 431.905 495.39 461.335 524.01 490.505H524ZM468.32 552.365C453.77 572.695 441.51 594.245 431.79 616.615C427.78 614.075 423.79 611.545 419.82 609.025C388.56 589.205 357.01 569.205 325.14 549.445C337.44 523.235 353.02 497.625 371.47 473.265C404.03 499.675 436.32 526.115 468.32 552.365ZM418.79 610.645C422.84 613.215 426.92 615.805 431.02 618.395C420.92 642.015 413.66 666.525 409.55 691.415C400.17 686.725 390.69 681.955 381.03 677.095C353.36 663.175 325.48 649.155 297.37 635.565C302.31 607.305 311.47 578.925 324.31 551.195C356.11 570.915 387.59 590.865 418.78 610.645H418.79ZM402.11 772.285C403.58 772.785 405.06 773.295 406.53 773.795C408.81 799.995 414.11 826.085 422.27 851.495C387.04 844.815 351.56 838.345 315.96 832.835C304.83 801.095 297.51 768.675 294.21 736.355C330.46 747.815 366.45 760.105 402.11 772.285ZM422.94 853.575C431.11 878.495 442.04 902.735 455.6 925.735C423.95 924.415 391.92 923.585 359.65 923.775C341.93 895.275 327.54 865.415 316.68 834.895C352.26 840.415 387.73 846.895 422.94 853.575ZM456.76 927.695C462.28 936.925 468.22 945.965 474.57 954.755C483.48 967.075 493.04 978.735 503.2 989.725C473.94 992.475 445.74 995.755 418.45 999.855C404.76 985.515 391.87 970.145 379.92 953.815C373.18 944.605 366.82 935.225 360.83 925.675C393.09 925.505 425.11 926.355 456.75 927.695H456.76ZM504.85 991.495C522.03 1009.82 540.94 1026.22 561.4 1040.54C536.71 1045.85 511.95 1051.75 487.42 1058.74C463.48 1042.26 440.87 1023.09 420.08 1001.54C447.37 997.475 475.57 994.225 504.85 991.495ZM563.55 1042.04C566.96 1044.39 570.4 1046.68 573.89 1048.91C591.26 1060.02 609.29 1069.45 627.9 1077.16C606.04 1084.47 584.9 1092.12 564.68 1100.61C538.61 1089.98 513.39 1076.4 489.48 1060.14C514.04 1053.19 538.83 1047.32 563.55 1042.03V1042.04ZM705.63 1098.86C731.63 1102.83 757.61 1103.96 783.2 1102.31C772.54 1110.32 762.55 1118.55 753.32 1127.2C721.39 1130.03 688.54 1129.36 655.21 1124.85C671.43 1115.46 688.43 1106.98 705.62 1098.86H705.63ZM786.73 1102.06C813.22 1100.09 839.28 1095.15 864.49 1087.33C859.61 1093.71 855.22 1100.15 851.29 1106.73C820.99 1116.92 789.22 1123.76 756.46 1126.91C765.82 1118.29 775.94 1110.07 786.73 1102.06ZM940.53 1053.43C949.84 1047.88 958.94 1041.88 967.8 1035.43C979.23 1027.11 990.07 1018.19 1000.29 1008.72C1001.36 1010.28 1002.43 1011.84 1003.5 1013.39C1003.88 1013.94 1004.26 1014.49 1004.63 1015.04C984.11 1034.32 961.69 1051.48 937.71 1066.25C938.43 1062.01 939.36 1057.74 940.52 1053.43H940.53ZM1005.08 1012.31C1003.96 1010.68 1002.84 1009.04 1001.71 1007.41C1019.19 991.055 1034.83 973.075 1048.5 953.745C1051.64 953.835 1054.75 954.045 1057.83 954.365C1042.4 975.855 1025.05 995.715 1006.05 1013.72C1005.73 1013.25 1005.4 1012.78 1005.08 1012.31ZM1049.81 951.875C1064.5 930.795 1076.85 908.125 1086.65 884.205C1092.1 880.425 1097.49 877.165 1102.86 874.385C1090.94 902.305 1076.22 928.455 1059.09 952.585C1056.03 952.235 1052.94 952.005 1049.81 951.885V951.875ZM1087.93 881.005C1097.5 856.975 1104.51 831.695 1108.77 805.515C1116.17 795.745 1123.52 787.115 1130.97 779.535C1125.26 811.895 1116.13 842.695 1104.02 871.625C1098.68 874.275 1093.33 877.395 1087.93 881.005ZM1112.36 725.335C1110.61 701.115 1106.29 677.145 1099.49 653.735C1106.47 637.185 1114.03 620.725 1122.45 604.585C1129.89 631.835 1134.61 659.835 1136.29 688.175C1127.9 699.765 1119.99 712.185 1112.36 725.335ZM1125 606.615C1124.6 605.105 1124.18 603.595 1123.76 602.085C1132.52 585.535 1142.22 569.355 1153.18 553.805C1161.7 585.595 1166.99 617.915 1168.9 650.185C1157.79 660.905 1147.63 672.775 1138.1 685.685C1136.38 659.325 1132.01 632.915 1124.99 606.615H1125ZM1123.01 599.425C1114.97 571.265 1104.08 543.995 1090.47 517.835C1097.89 497.425 1106.36 476.945 1116.19 456.745C1131.54 487.345 1143.7 519.095 1152.53 551.415C1141.53 566.875 1131.79 582.965 1123 599.425H1123.01ZM1089.27 515.535C1078.89 495.875 1066.97 476.855 1053.53 458.555C1048.2 451.295 1042.66 444.215 1036.95 437.315C1041.91 412.105 1047.87 386.945 1055.23 362.055C1060.58 368.695 1065.8 375.485 1070.86 382.425C1087.68 405.485 1102.45 429.655 1115.11 454.605C1105.24 474.755 1096.73 495.165 1089.27 515.535ZM1035.37 435.445C1013.84 409.765 989.72 386.775 963.69 366.875C964.53 336.595 966.39 306.945 969.79 277.845C1000.36 301.685 1028.62 329.335 1053.77 360.265C1046.37 385.135 1040.36 410.255 1035.37 435.445ZM961.81 365.445C934.44 344.755 904.97 327.485 874.17 314.085C869.5 281.205 865.86 247.915 864.23 214.765C900.75 230.695 935.65 251.455 968.01 276.465C964.57 305.555 962.68 335.185 961.81 365.445ZM872.11 313.195C842.63 300.565 811.95 291.495 780.72 286.385C780.17 286.295 779.63 286.205 779.08 286.125C778.38 286.015 777.69 285.915 776.99 285.815C766.54 251.595 757.04 216.775 749.89 181.945C751.16 182.125 752.42 182.305 753.69 182.495C754.33 182.595 754.95 182.685 755.58 182.785C792.04 188.545 827.86 199.085 862.27 213.915C863.86 247.055 867.47 280.325 872.11 313.195ZM774.9 285.495C746.4 281.385 716.87 281.145 686.98 284.555C672.53 250.635 658.75 216.405 646.4 181.855C680.66 177.425 714.77 177.155 747.88 181.655C754.99 216.475 764.46 251.295 774.89 285.495H774.9ZM684.99 284.785C656.29 288.215 627.27 295.025 598.54 305.045C580.2 272.595 562.2 239.825 544.92 206.705C577.73 194.955 611.16 186.575 644.45 182.115C656.78 216.655 670.55 250.875 684.98 284.785H684.99ZM596.71 305.685C568.65 315.605 540.88 328.595 513.96 344.475C491.45 314.135 469.07 283.555 447.01 252.735C477.89 234.595 510.18 219.275 543.11 207.355C560.38 240.485 578.37 273.245 596.71 305.685ZM512.31 345.455C499.52 353.065 486.92 361.335 474.58 370.245C461.81 379.465 449.47 389.305 437.64 399.635C410.85 372.225 383.99 344.645 357.19 316.945C384.6 293.375 414.25 272.105 445.35 253.695C467.41 284.525 489.79 315.105 512.3 345.435L512.31 345.455ZM436.2 400.905C412.01 422.215 390.02 445.655 371.01 470.435C340.84 445.975 310.43 421.545 279.8 397.335C302.19 368.975 327.79 342.395 355.74 318.205C382.55 345.905 409.41 373.485 436.2 400.895V400.905ZM369.85 471.955C365.05 478.275 360.43 484.665 356.03 491.145C343.27 509.905 332.35 528.995 323.29 548.305C290.13 527.765 256.62 507.485 222.7 487.925C237.63 456.895 256.54 426.995 278.62 398.835C309.25 423.045 339.67 447.475 369.85 471.955ZM322.47 550.055C309.6 577.875 300.6 606.175 295.58 634.705C260.73 617.885 225.54 601.765 190.02 587.405C195.91 554.075 206.81 521.285 221.86 489.655C255.78 509.215 289.3 529.505 322.47 550.045V550.055ZM292.22 735.735C295.46 768.145 302.73 800.675 313.82 832.515C280.51 827.395 247.11 823.145 213.71 820.365C199.98 782.675 190.89 744.185 186.71 705.925C222.06 714.495 257.26 724.715 292.23 735.735H292.22ZM314.53 834.565C325.35 865.185 339.71 895.165 357.4 923.785C327.39 924.005 297.19 925.125 266.91 927.565C245.31 893.835 227.74 858.465 214.42 822.345C247.81 825.145 281.22 829.425 314.52 834.565H314.53ZM358.59 925.695C364.79 935.615 371.39 945.385 378.39 954.945C390.13 970.995 402.7 986.095 416.04 1000.21C388.68 1004.37 362.23 1009.38 336.52 1015.51C317.6 996.045 299.9 974.915 283.66 952.265C278.26 944.735 273.07 937.095 268.09 929.385C298.37 926.975 328.58 925.885 358.59 925.685V925.695ZM417.65 1001.9C438.26 1023.49 460.69 1042.75 484.77 1059.5C461.65 1066.17 438.75 1073.82 416.34 1082.88C388.63 1063.92 362.38 1041.88 338.1 1017.1C363.81 1011.01 390.28 1006.03 417.65 1001.89V1001.9ZM486.8 1060.91C489.89 1063.03 493 1065.12 496.15 1067.16C517.38 1080.95 539.34 1092.5 561.89 1101.79C541.72 1110.38 522.5 1119.83 504.42 1130.66C474.62 1118.4 445.73 1102.8 418.25 1084.18C440.7 1075.16 463.64 1067.54 486.8 1060.91ZM564.38 1102.82C590.7 1113.45 617.83 1120.99 645.57 1125.37C646.43 1125.51 647.29 1125.64 648.14 1125.77C648.6 1125.84 649.05 1125.9 649.51 1125.97C633.36 1135.6 618.04 1146.21 604.16 1158.37C602.92 1158.18 601.69 1158 600.45 1157.8C600.19 1157.76 599.91 1157.71 599.66 1157.67C568.09 1152.64 536.91 1143.82 506.66 1131.57C524.82 1120.79 544.13 1111.38 564.39 1102.82H564.38ZM652.55 1126.41C685.71 1131.07 718.79 1131.94 751.28 1129.14C739.56 1140.33 729.11 1152.23 720.1 1165.26C683 1166.52 644.91 1164.41 606.67 1158.75C620.72 1146.6 636.22 1136.02 652.54 1126.41H652.55ZM754.36 1128.86C787.1 1125.8 819.21 1119.02 850.16 1108.64C842.46 1121.87 836.63 1135.63 832.57 1150.31C797.59 1158.7 760.6 1163.72 722.52 1165.17C731.71 1152.07 742.38 1140.11 754.35 1128.87L754.36 1128.86ZM852.96 1107.69C881.57 1097.87 909.17 1084.97 935.33 1069.09C933.15 1084.01 933.5 1098.47 935.56 1112.6C904.83 1128.49 870.88 1140.95 834.73 1149.79C838.93 1134.94 844.97 1121.05 852.96 1107.69ZM937.47 1067.78C946.78 1062.06 955.9 1055.96 964.82 1049.48C979.1 1039.11 992.62 1027.95 1005.34 1016.07C1012.16 1026.01 1019.06 1036.02 1026.11 1046.05C1012.27 1060.14 997.65 1072.82 982.3 1083.94C968.3 1094.08 953.27 1103.33 937.37 1111.65C935.35 1097.39 935.09 1082.8 937.47 1067.78ZM1006.75 1014.74C1026.32 996.295 1043.96 976.145 1059.51 954.545C1070.02 955.785 1080.14 958.325 1089.97 961.765C1071.65 992.915 1050.7 1020.78 1027.48 1044.66C1020.44 1034.65 1013.56 1024.65 1006.75 1014.74ZM1060.78 952.775C1078.43 927.995 1093.35 901.325 1105.3 873.155C1115.2 868.295 1125.09 865.035 1135.25 863.165C1123.06 898.015 1108.19 930.515 1090.96 960.095C1081.23 956.665 1071.2 954.105 1060.78 952.785V952.775ZM1106.41 870.475C1118.73 840.865 1127.8 809.625 1133.33 777.185C1142.97 767.705 1152.8 759.975 1163.16 753.825C1156.8 791.395 1147.64 827.305 1135.97 861.055C1125.94 862.805 1116.18 865.875 1106.41 870.475ZM1133.86 773.965C1133.95 773.435 1134.04 772.905 1134.12 772.365C1138.53 744.675 1139.91 716.715 1138.3 688.685C1147.81 675.605 1157.96 663.585 1169.06 652.735C1170.77 684.435 1169.22 716.065 1164.27 747.095C1164.05 748.495 1163.81 749.895 1163.58 751.295C1153.25 757.255 1143.45 764.765 1133.86 773.965ZM1170.73 648.455C1168.69 616.075 1163.28 583.665 1154.63 551.785C1166.24 535.545 1179.28 520.025 1194.1 505.525C1204.22 542.205 1210.6 579.595 1213.06 617.025C1197.4 625.905 1183.45 636.445 1170.73 648.455ZM1116.16 452.475C1103.6 427.885 1088.99 404.055 1072.4 381.305C1067.06 373.985 1061.55 366.835 1055.89 359.845C1063.04 335.965 1071.48 312.335 1081.56 289.135C1088.92 298.105 1096.05 307.315 1102.92 316.765C1120.78 341.325 1136.59 367.045 1150.28 393.605C1137.33 412.745 1126.07 432.465 1116.16 452.455V452.475ZM968.28 274.255C935.8 249.265 900.78 228.525 864.14 212.635C862.77 183.155 863.02 153.785 865.6 124.915C906.85 142.825 946.22 165.985 982.7 193.755C976.25 220.165 971.58 246.975 968.28 274.265V274.255ZM747.48 179.665C714.28 175.225 680.09 175.535 645.75 180.025C634.72 149.015 624.86 117.745 616.73 86.2049C657.25 81.3049 697.12 81.5649 735.38 87.2549C736.88 117.785 741.24 148.725 747.48 179.665ZM643.81 180.285C610.44 184.795 576.94 193.225 544.06 205.025C528.46 175.065 513.46 144.815 499.33 114.235C537.85 100.555 576.61 91.2048 614.82 86.4448C622.95 117.995 632.79 149.275 643.82 180.295L643.81 180.285ZM542.24 205.675C509.23 217.655 476.88 233.025 445.93 251.215C426.01 223.355 406.35 195.295 387.09 167.025C423.17 145.715 460.23 128.255 497.52 114.875C511.65 145.455 526.65 175.715 542.24 205.675ZM444.27 252.205C413.1 270.665 383.37 291.995 355.9 315.625C331.9 290.825 307.96 265.925 284.14 240.975C298.45 228.635 313.42 216.725 329.03 205.305C347.48 191.805 366.31 179.365 385.42 168.005C404.68 196.275 424.34 224.335 444.26 252.195L444.27 252.205ZM354.45 316.875C326.43 341.125 300.78 367.765 278.33 396.175C251.16 374.715 223.83 353.435 196.33 332.465C221.35 300.625 250.28 270.315 282.69 242.215C306.5 267.165 330.45 292.065 354.45 316.865V316.875ZM277.15 397.685C255.01 425.915 236.04 455.885 221.05 486.985C191.28 469.855 161.2 453.285 130.78 437.595C147.65 401.925 169.28 367.135 195.16 333.985C222.65 354.955 249.99 376.225 277.15 397.685ZM220.22 488.715C205.12 520.415 194.16 553.275 188.22 586.675C156.95 574.085 125.43 562.865 93.6599 553.735C100.12 515.225 112.42 476.795 129.97 439.325C160.39 455.015 190.46 471.575 220.22 488.715ZM184.73 705.445C188.87 743.805 197.92 782.395 211.61 820.195C181.08 817.715 150.55 816.485 120.13 816.985C104.87 774.365 94.7899 730.775 90.1499 687.315C121.76 691.635 153.3 697.885 184.73 705.445ZM212.32 822.175C225.61 858.405 243.16 893.885 264.75 927.735C236.42 930.075 208.03 933.585 179.68 938.605C155.41 900.275 135.7 860.045 120.81 818.885C151.24 818.415 181.77 819.665 212.32 822.175ZM265.93 929.565C271.1 937.605 276.49 945.555 282.11 953.395C298.18 975.805 315.68 996.735 334.37 1016.04C308.32 1022.33 283.02 1029.8 258.32 1038.76C238.48 1018.23 219.86 996.115 202.7 972.515C195.03 961.965 187.73 951.235 180.79 940.355C209.16 935.355 237.58 931.875 265.93 929.565ZM335.92 1017.62C360.21 1042.51 386.48 1064.66 414.22 1083.75C391.95 1092.86 370.17 1103.37 349.13 1115.71C317.4 1093.92 287.41 1068.64 259.78 1040.25C284.51 1031.32 309.83 1023.88 335.92 1017.62ZM416.11 1085.05C443.61 1103.79 472.54 1119.51 502.38 1131.89C483.76 1143.2 466.38 1155.99 450.46 1170.83C415.95 1156.59 382.56 1138.49 350.88 1116.91C371.96 1104.6 393.79 1094.12 416.11 1085.04V1085.05ZM504.59 1132.8C535.4 1145.4 567.17 1154.44 599.36 1159.56C599.62 1159.6 599.88 1159.64 600.14 1159.68C600.86 1159.79 601.58 1159.9 602.3 1160.01C588.33 1172.5 575.86 1186.62 565.52 1202.97C564.5 1202.81 563.48 1202.67 562.46 1202.51L561.96 1202.43C524.72 1196.55 487.99 1186.13 452.42 1171.63C468.4 1156.83 485.87 1144.07 504.58 1132.8H504.59ZM721.14 1167.18C747.26 1166.3 772.98 1163.78 797.86 1159.61C809.46 1157.66 820.82 1155.38 831.92 1152.77C828.47 1165.98 826.43 1179.96 825.71 1194.99C785.39 1204.54 742.69 1210.06 698.49 1211.36C704.36 1195.14 711.98 1180.56 721.13 1167.18H721.14ZM937.7 1113.84C953.8 1105.36 969.06 1095.9 983.43 1085.48C998.86 1074.3 1013.5 1061.7 1027.32 1047.74C1033.93 1057.11 1040.69 1066.49 1047.65 1075.78C1032.31 1091.21 1016.14 1105.19 999.19 1117.56C982.76 1129.56 965.23 1140.44 946.74 1150.21C942.81 1138.29 939.6 1126.18 937.69 1113.83L937.7 1113.84ZM1092.96 960.805C1098.12 951.895 1103.09 942.695 1107.84 933.195C1118.92 911.085 1128.8 887.465 1137.35 862.785C1149.58 860.765 1162.23 860.695 1175.78 862.175C1161.7 902.745 1144.38 940.645 1124.18 975.145C1114.04 969.675 1103.67 964.715 1092.95 960.795L1092.96 960.805ZM1138.07 860.705C1149.87 826.275 1159.08 789.825 1165.31 752.575C1178.22 745.235 1191.97 740.305 1207.18 737.485C1200.11 780.435 1189.76 821.585 1176.44 860.315C1162.91 858.795 1150.28 858.795 1138.07 860.705ZM1209.18 737.125C1226.46 734.155 1245.63 733.835 1267.57 735.725C1259.99 783.305 1248.04 829.225 1232.18 872.735L1232.29 872.345C1212.4 866.685 1194.69 862.525 1178.3 860.535C1191.78 821.155 1202.22 779.555 1209.17 737.125H1209.18ZM1275.42 592.925C1252.75 598.345 1232.88 606.065 1215.16 615.855C1212.89 581.415 1207.27 546.945 1198.29 512.645C1197.51 509.685 1196.71 506.725 1195.88 503.775C1212.79 487.495 1232.01 472.535 1254.09 459.345C1265.89 502.345 1273.05 547.085 1275.41 592.915L1275.42 592.925ZM1201.84 330.655C1182.71 349.975 1166.11 370.455 1151.6 391.675C1137.93 365.425 1122.2 340.045 1104.46 315.645C1097.36 305.885 1090.01 296.385 1082.42 287.135C1092.93 263.195 1105.21 239.725 1119.62 216.925C1135.56 234.415 1150.54 252.745 1164.42 271.845C1178.12 290.705 1190.6 310.335 1201.84 330.645V330.655ZM1006.85 118.115C997.16 142.265 989.4 166.725 983.24 191.525C970.85 182.125 958.08 173.205 944.94 164.805C919.35 148.445 892.93 134.385 865.79 122.665C868.16 97.2948 872.34 72.3149 878.81 47.9849C923.6 66.4849 966.67 90.1048 1006.85 118.115ZM738.68 8.32498C735.04 33.505 734.11 59.255 735.29 85.315C696.92 79.635 657.12 79.3348 616.26 84.3648C609.51 57.9548 603.98 31.355 599.99 4.57498C646.76 0.0949769 693.35 1.24498 738.68 8.32498ZM614.34 84.605C585.87 88.225 556.88 94.4349 527.51 103.215C517.88 106.095 508.24 109.265 498.61 112.695C486.52 86.4648 475.06 59.9849 464.43 33.2449C508.49 18.7649 553.35 9.18491 598.07 4.75491C602.06 31.5649 607.58 58.175 614.33 84.605H614.34ZM273.88 131.325C332.84 88.465 396.81 55.695 462.62 33.855C473.26 60.605 484.71 87.095 496.81 113.345C459.22 126.865 421.91 144.475 386.07 165.545C369.34 140.965 352.92 116.235 336.89 91.345L335.28 92.3848C351.29 117.265 367.7 141.975 384.41 166.525C365.07 177.965 346.17 190.415 327.9 203.775C312.38 215.135 297.34 227.125 282.88 239.665C262.33 218.125 241.89 196.555 221.61 174.955L220.22 176.265C240.48 197.845 260.91 219.405 281.44 240.925C249.45 268.815 220.31 299.345 195.05 331.505C171.64 313.665 148.11 296.045 124.47 278.745C165.27 223.695 215.64 173.675 273.87 131.335L273.88 131.325ZM123.35 280.275C146.97 297.565 170.49 315.175 193.88 333.005C186.16 342.885 178.8 352.915 171.85 363.075C155.24 387.325 141 411.925 129.17 436.765C104.25 423.945 79.0999 411.725 53.6999 400.255C72.0099 358.475 95.4099 318.195 123.35 280.275ZM128.35 438.485C110.52 476.295 98.2899 514.655 91.7999 553.205C65.8699 545.825 39.7799 539.835 13.5099 535.645C20.7799 490.145 34.1199 445.285 52.9199 402.005C78.2999 413.455 103.44 425.675 128.34 438.485H128.35ZM7.77988 680.785C34.6099 681.245 61.4199 683.455 88.1899 687.045C92.7999 730.605 102.86 774.295 118.1 817.015C90.9399 817.525 63.8599 819.425 36.9099 823.055L37.1599 824.955C64.2399 821.305 91.4699 819.425 118.78 818.925C133.66 860.195 153.36 900.535 177.63 938.975C150.94 943.775 124.29 949.915 97.7499 957.705C45.9699 871.755 15.4399 777.335 7.75988 680.785H7.77988ZM130.6 1007.14C119.24 991.565 108.64 975.635 98.7899 959.405C125.35 951.625 152.03 945.495 178.75 940.725C185.84 951.865 193.3 962.855 201.15 973.645C218.21 997.105 236.61 1019.09 256.24 1039.52C231.57 1048.56 207.49 1059.1 183.81 1071.46C164.96 1051.36 147.18 1029.9 130.59 1007.15L130.6 1007.14ZM185.18 1072.9C208.88 1060.56 232.99 1050.04 257.7 1041.02C285.17 1069.41 315.04 1094.79 347.11 1116.91C326.1 1129.38 305.85 1143.71 286.61 1160.29C250.25 1135.07 216.27 1105.83 185.19 1072.9H185.18ZM288.23 1161.41C307.5 1144.85 327.79 1130.55 348.85 1118.11C352.19 1120.39 355.54 1122.65 358.92 1124.86C387.93 1143.84 417.93 1159.72 448.75 1172.45C432.74 1187.62 418.25 1204.9 405.5 1224.87C364.34 1208.06 325.07 1186.79 288.22 1161.41H288.23ZM450.69 1173.25C486.66 1187.94 523.73 1198.33 561.63 1204.32L562.15 1204.4C562.9 1204.52 563.65 1204.63 564.4 1204.74C554.04 1221.52 545.89 1240.63 540.61 1262.68C494.57 1255.34 449.93 1242.86 407.3 1225.6C420.07 1205.65 434.62 1188.39 450.69 1173.25ZM685.77 1270.81C687.71 1249.34 691.83 1230.26 697.9 1213.02C729.01 1212.09 759.59 1209.14 789.08 1204.15C801.52 1202.04 813.7 1199.59 825.63 1196.81C824.98 1213.03 825.85 1230.47 828.16 1249.51C782.4 1261.38 734.5 1268.57 685.77 1270.8V1270.81ZM1024.29 1159.03C1005.52 1172.68 985.6 1185.16 964.71 1196.43C958.59 1181.86 952.43 1167.12 947.38 1152.11C966.04 1142.26 983.7 1131.26 1000.33 1119.12C1017.37 1106.68 1033.56 1092.77 1048.9 1077.44C1058.21 1089.82 1067.91 1102.05 1078.13 1113.97C1061.07 1130.28 1043.11 1145.34 1024.3 1159.02L1024.29 1159.03ZM1169.18 1001.83C1165.29 999.495 1161.42 997.115 1157.54 994.745C1147.19 988.405 1136.73 982.005 1126.02 976.145C1131.74 966.325 1137.25 956.215 1142.54 945.785C1155.81 919.605 1167.57 891.615 1177.67 862.395C1194.04 864.345 1211.75 868.495 1231.66 874.155C1214.96 919.665 1193.97 962.515 1169.19 1001.83H1169.18Z" fill="#E3E2ED"/>
</g>
<defs>
<filter id="filter0_d_115_18" x="0" y="0" width="1282.11" height="1281.5" filterUnits="userSpaceOnUse" color-interpolation-filters="sRGB">
<feFlood flood-opacity="0" result="BackgroundImageFix"/>
<feColorMatrix in="SourceAlpha" type="matrix" values="0 0 0 0 0 0 0 0 0 0 0 0 0 0 0 0 0 0 127 0" result="hardAlpha"/>
<feOffset dy="4"/>
<feGaussianBlur stdDeviation="2"/>
<feComposite in2="hardAlpha" operator="out"/>
<feColorMatrix type="matrix" values="0 0 0 0 0 0 0 0 0 0 0 0 0 0 0 0 0 0 0.25 0"/>
<feBlend mode="normal" in2="BackgroundImageFix" result="effect1_dropShadow_115_18"/>
<feBlend mode="normal" in="SourceGraphic" in2="effect1_dropShadow_115_18" result="shape"/>
</filter>
</defs>
</svg>
