<svg width="397" height="424" viewBox="0 0 397 424" fill="none" xmlns="http://www.w3.org/2000/svg">
<path d="M254.63 358.927L165.7 307.277C163.31 305.897 162.12 304.067 162.09 302.137C162.09 302.077 162.09 295.477 162.09 295.417C162.13 293.077 163.86 297.147 167.2 295.217L245.25 265.197C251.43 261.627 260.79 261.237 266.14 264.327L325.91 299.347C327.7 300.377 328.99 295.997 329.46 297.387C329.61 297.847 329.52 303.997 329.53 304.477C329.58 306.877 327.85 309.427 324.42 311.407L275.54 358.057C269.36 361.627 260 362.017 254.65 358.927H254.63Z" fill="url(#paint0_linear_115_680)"/>
<path d="M254.63 352.337L165.7 300.687C160.34 297.597 161.02 292.197 167.2 288.627L245.25 258.607C251.43 255.037 260.79 254.647 266.14 257.737L325.91 292.757C331.27 295.847 330.59 301.247 324.41 304.817L275.53 351.467C269.35 355.037 259.99 355.427 254.64 352.337H254.63Z" fill="url(#paint1_linear_115_680)"/>
<path style="mix-blend-mode:multiply" opacity="0.82" d="M325.91 292.757L266.14 257.737C260.78 254.647 251.43 255.037 245.25 258.607L205.93 273.737C206.3 274.027 206.69 274.317 207.15 274.577L296.08 326.227C297.31 326.937 298.76 327.457 300.33 327.807L324.41 304.827C330.59 301.257 331.27 295.857 325.91 292.767V292.757Z" fill="url(#paint2_linear_115_680)"/>
<path style="mix-blend-mode:screen" opacity="0.6" d="M324.41 303.697L275.53 350.347C269.35 353.917 259.99 354.307 254.64 351.217L165.71 299.567C163.49 298.287 162.32 296.607 162.14 294.817C161.86 297.007 163.03 299.137 165.71 300.687L254.64 352.337C260 355.427 269.35 355.037 275.53 351.467L324.41 304.817C328.03 302.727 329.74 300.017 329.48 297.497C329.2 299.677 327.49 301.917 324.41 303.697Z" fill="url(#paint3_linear_115_680)"/>
<path d="M370.82 352.627L152.41 226.427C141.24 219.977 132.19 202.687 132.19 187.797V20.7568C132.19 5.86676 141.24 -0.973025 152.41 5.47697L370.82 131.677C381.99 138.127 391.04 155.417 391.04 170.307V337.347C391.04 352.237 381.99 359.077 370.82 352.627Z" fill="url(#paint4_linear_115_680)"/>
<path d="M373.42 340.997L158.09 216.597C149.1 210.887 143.55 199.477 143.55 187.797V19.6671C143.55 16.8971 146.56 15.1772 148.95 16.5772C149.23 16.7372 149.45 16.8669 149.58 16.9469L365.14 141.507C375.84 147.677 379.68 158.627 379.68 170.307V337.907C379.68 340.877 376.47 342.737 373.89 341.267C373.69 341.147 373.52 341.057 373.42 340.997Z" fill="url(#paint5_linear_115_680)"/>
<g style="mix-blend-mode:multiply">
<path d="M365.14 141.507L149.58 16.9469C149.44 16.8669 149.22 16.7372 148.95 16.5772C146.56 15.1772 143.55 16.8971 143.55 19.6671V187.797C143.55 199.477 149.11 210.887 158.09 216.597L373.42 340.997C373.53 341.057 373.69 341.147 373.89 341.267C376.47 342.737 379.68 340.877 379.68 337.907V170.307C379.68 158.627 375.83 147.677 365.14 141.507ZM377.41 337.907C377.41 338.897 376.58 339.507 375.81 339.507C375.54 339.507 375.27 339.437 375.02 339.287L159.23 214.617C151.12 209.457 145.82 198.907 145.82 187.787V19.6573C145.82 18.8473 146.51 18.3472 147.14 18.3472C147.37 18.3472 147.59 18.4072 147.8 18.5372L364 143.477C375.08 149.867 377.41 161.597 377.41 170.307V337.917V337.907Z" fill="#BCBEC0"/>
</g>
<path d="M376.55 128.627L158.14 2.42663C153.72 -0.123369 149.64 -0.593115 146.31 0.686885C145.89 0.846884 140.25 3.84677 139.85 4.06677C139.84 4.06677 139.83 4.07679 139.82 4.08679C143.28 2.40679 147.64 2.71667 152.41 5.46667L370.82 131.667C381.99 138.117 391.04 155.407 391.04 170.297V337.337C391.04 346.627 387.51 352.787 382.15 354.537C382.59 354.557 383.13 354.387 383.92 353.937C384.18 353.787 390.29 350.337 390.54 350.167C394.38 347.477 396.77 341.947 396.77 334.297V167.257C396.77 152.367 387.72 135.077 376.55 128.627Z" fill="url(#paint6_linear_115_680)"/>
<path d="M371.79 131.187L153.38 4.98683C148.8 2.34683 144.59 1.96677 141.2 3.42677C144.09 2.96677 147.41 3.66704 150.95 5.70704L369.36 131.907C380.53 138.357 389.58 155.647 389.58 170.537V337.577C389.58 346.357 386.42 352.307 381.54 354.417C387.78 353.427 392.01 347.017 392.01 336.847V169.807C392.01 154.917 382.96 137.627 371.79 131.177V131.187Z" fill="url(#paint7_linear_115_680)"/>
<path style="mix-blend-mode:screen" d="M173.09 195.727L148.54 181.427L121.43 196.877V223.857L145.9 237.997V238.017L145.91 238.007L145.93 238.017V237.997L173.09 222.697V195.727Z" fill="url(#paint8_linear_115_680)"/>
<g opacity="0.9">
<path d="M145.9 211.257V238.017L157.02 231.597V204.617L145.9 211.257Z" fill="url(#paint9_linear_115_680)"/>
<path d="M145.93 211.257V238.017L121.43 223.857V196.877L145.93 211.257Z" fill="url(#paint10_linear_115_680)"/>
<path d="M121.43 196.877L145.93 211.257L157.02 204.617L132.47 190.327L121.43 196.877Z" fill="url(#paint11_linear_115_680)"/>
</g>
<path style="mix-blend-mode:screen" d="M173.09 160.737L148.54 146.447L121.43 161.897V188.877L145.9 203.017V203.027H145.91H145.93V203.017L173.09 187.717V160.737Z" fill="url(#paint12_linear_115_680)"/>
<g opacity="0.9">
<path d="M145.9 176.267V203.027L157.02 196.607V169.637L145.9 176.267Z" fill="url(#paint13_linear_115_680)"/>
<path d="M145.93 176.267V203.027L121.43 188.877V161.897L145.93 176.267Z" fill="url(#paint14_linear_115_680)"/>
<path d="M121.43 161.897L145.93 176.267L157.02 169.637L132.47 155.337L121.43 161.897Z" fill="url(#paint15_linear_115_680)"/>
</g>
<path style="mix-blend-mode:screen" d="M173.09 125.427L148.54 111.137L121.43 126.587V153.567L145.9 167.707V167.717H145.91H145.93V167.707L173.09 152.407V125.427Z" fill="url(#paint16_linear_115_680)"/>
<g opacity="0.9">
<path d="M145.9 140.957V167.717L157.02 161.297V134.327L145.9 140.957Z" fill="url(#paint17_linear_115_680)"/>
<path d="M145.93 140.957V167.717L121.43 153.567V126.587L145.93 140.957Z" fill="url(#paint18_linear_115_680)"/>
<path d="M121.43 126.587L145.93 140.957L157.02 134.327L132.47 120.027L121.43 126.587Z" fill="url(#paint19_linear_115_680)"/>
</g>
<path d="M140.43 159.427L126.72 151.517V135.777L140.43 143.697V159.427Z" fill="white"/>
<path d="M141.76 187.037C141.76 191.887 138.34 193.837 134.11 191.397C129.89 188.957 126.46 183.057 126.46 178.207C126.46 173.357 129.88 171.407 134.11 173.847C138.33 176.287 141.76 182.187 141.76 187.037Z" fill="white"/>
<path d="M129.4 223.777L125.09 212.727L129.4 206.657L138.01 211.627L142.32 222.677L138.01 228.757L129.4 223.777Z" fill="white"/>
<path style="mix-blend-mode:screen" d="M378.51 268.077L353.95 253.787L326.84 269.237V296.217L351.31 310.357V310.377L351.32 310.367L351.34 310.377V310.357L378.51 295.057V268.077Z" fill="url(#paint20_linear_115_680)"/>
<g opacity="0.9">
<path d="M351.31 283.607V310.377L362.43 303.957V276.977L351.31 283.607Z" fill="url(#paint21_linear_115_680)"/>
<path d="M351.34 283.607V310.377L326.84 296.217V269.237L351.34 283.607Z" fill="url(#paint22_linear_115_680)"/>
<path d="M326.84 269.237L351.34 283.607L362.43 276.977L337.88 262.677L326.84 269.237Z" fill="url(#paint23_linear_115_680)"/>
</g>
<path style="mix-blend-mode:screen" d="M378.51 219.877L353.95 205.577L326.84 221.037V248.007L351.31 262.147V262.167L351.32 262.157L351.34 262.167V262.147L378.51 246.857V219.877Z" fill="url(#paint24_linear_115_680)"/>
<g opacity="0.9">
<path d="M351.31 235.407V262.167L362.43 255.747V228.767L351.31 235.407Z" fill="url(#paint25_linear_115_680)"/>
<path d="M351.34 235.407V262.167L326.84 248.007V221.037L351.34 235.407Z" fill="url(#paint26_linear_115_680)"/>
<path d="M326.84 221.037L351.34 235.407L362.43 228.767L337.88 214.477L326.84 221.037Z" fill="url(#paint27_linear_115_680)"/>
</g>
<path style="mix-blend-mode:screen" d="M378.51 183.977L353.95 169.687L326.84 185.137V212.117L351.31 226.257V226.277L351.32 226.267L351.34 226.277V226.257L378.51 210.957V183.977Z" fill="url(#paint28_linear_115_680)"/>
<g opacity="0.9">
<path d="M351.31 199.507V226.277L362.43 219.847V192.877L351.31 199.507Z" fill="url(#paint29_linear_115_680)"/>
<path d="M351.34 199.507V226.277L326.84 212.117V185.137L351.34 199.507Z" fill="url(#paint30_linear_115_680)"/>
<path d="M326.84 185.137L351.34 199.507L362.43 192.877L337.88 178.577L326.84 185.137Z" fill="url(#paint31_linear_115_680)"/>
</g>
<path style="mix-blend-mode:screen" d="M378.51 147.227L353.95 132.937L326.84 148.387V175.367L351.31 189.507V189.517H351.32H351.34V189.507L378.51 174.207V147.227Z" fill="url(#paint32_linear_115_680)"/>
<g opacity="0.9">
<path d="M351.31 162.757V189.517L362.43 183.097V156.127L351.31 162.757Z" fill="url(#paint33_linear_115_680)"/>
<path d="M351.34 162.757V189.517L326.84 175.367V148.387L351.34 162.757Z" fill="url(#paint34_linear_115_680)"/>
<path d="M326.84 148.387L351.34 162.757L362.43 156.127L337.88 141.827L326.84 148.387Z" fill="url(#paint35_linear_115_680)"/>
</g>
<path d="M344.23 197.487L331.33 204.837L329.74 211.867L336.61 213.937L349.51 206.587L344.23 197.487ZM331.41 209.127L332.09 206.137L335.86 212.647L332.94 211.767L331.41 209.127ZM332.62 205.577L341.04 200.777L345.04 207.667L336.62 212.467L332.62 205.577Z" fill="white"/>
<path d="M342.39 177.677L344.96 172.747L348.48 170.747L342.79 160.937L339.27 162.937L333.68 162.657C333.57 162.657 333.49 162.717 333.46 162.827L330.39 173.257C330.34 173.427 330.41 173.687 330.56 173.887C330.71 174.087 330.91 174.177 331.05 174.117L331.27 174.017L331.07 174.157C330.95 174.237 330.93 174.457 331.03 174.687C331.05 174.727 331.07 174.767 331.09 174.807C331.19 174.987 331.35 175.117 331.49 175.157L342.13 177.777C342.24 177.807 342.34 177.777 342.39 177.677ZM332.64 174.477L336.39 171.877C336.91 172.467 337.56 172.737 337.99 172.487C338.54 172.177 338.54 171.147 337.99 170.207C337.44 169.257 336.55 168.747 336 169.057C335.57 169.307 335.48 169.987 335.73 170.737L331.58 172.637L334.2 163.717L339.25 163.967L344.05 172.257L341.72 176.717L332.63 174.477H332.64Z" fill="white"/>
<path d="M345.09 245.077L342.98 241.437C343.91 241.197 344.98 241.277 346.09 241.537C346.55 241.647 346.98 241.607 347.35 241.397C348.71 240.617 348.52 237.837 346.78 235.577C345.83 234.337 344.57 233.617 343.61 233.737C342.94 233.827 342.5 234.257 342.29 234.877C341.92 235.957 341.44 236.917 340.77 237.617L338.68 234.017L336.62 235.187L337.57 236.827L331.59 240.237C330.9 240.637 330.47 241.437 330.38 242.507L330.23 244.357C330.23 244.467 330.19 244.547 330.14 244.617L329.35 245.687C329.18 245.917 329.26 246.307 329.45 246.637C329.64 246.977 329.96 247.237 330.24 247.197L331.41 247.037C331.49 247.027 331.59 247.037 331.68 247.087L333.54 247.937C334.5 248.377 335.39 248.407 336.07 248.017L342.08 244.597L343.03 246.237L345.09 245.067V245.077ZM335.47 246.987C334.93 247.297 334.22 247.267 333.46 246.927L331.61 246.077C331.38 245.977 331.16 245.927 330.96 245.957L330.57 246.007L330.89 245.577C331.01 245.417 331.08 245.207 331.1 244.967L331.25 243.117C331.32 242.267 331.66 241.627 332.21 241.317L338.19 237.907L341.47 243.567L335.46 246.987H335.47Z" fill="white"/>
<path d="M346.5 300.437L342.97 294.347C342.6 293.707 342.04 293.317 341.61 293.357L340.58 291.577C342.13 290.127 341.98 286.677 340.11 283.457C338.07 279.937 334.76 278.027 332.73 279.197C330.69 280.357 330.69 284.157 332.73 287.667C334.6 290.887 337.52 292.747 339.57 292.157L340.6 293.937C340.35 294.287 340.41 294.967 340.78 295.607L344.31 301.697C344.75 302.457 345.47 302.877 345.91 302.617L346.52 302.277C346.96 302.027 346.96 301.207 346.52 300.437H346.5ZM338.84 289.767C337.5 290.537 335.32 289.277 333.98 286.957C332.64 284.637 332.64 282.137 333.98 281.377C335.32 280.607 337.5 281.867 338.84 284.187C340.18 286.507 340.18 289.007 338.84 289.767Z" fill="white"/>
<g opacity="0.2">
<path opacity="0.09" d="M76.4701 337.297L97.54 329.587C98.08 329.277 98.8101 328.937 99.4001 328.687C101.74 327.687 104.42 327.127 107.13 327.127C109.56 327.127 111.81 327.567 113.71 328.387C114.13 328.567 114.64 328.827 115.02 329.057L207.19 385.437C209.77 386.927 211.78 389.647 211.96 392.247C211.96 392.317 211.97 392.387 211.98 392.447C212.25 395.567 210.4 398.597 206.88 400.627L129.31 420.657C126.81 422.097 122.9 423.097 119.73 423.097C116.62 423.297 113.59 422.717 111.31 421.397L75.8701 352.747C73.3401 351.287 71.6001 348.377 71.4001 345.837C71.4001 345.717 71.3801 345.607 71.3701 345.487C71.1301 342.367 72.9601 339.337 76.4801 337.307L76.4701 337.297Z" fill="black"/>
<path opacity="0.18" d="M76.8 337.487L97.7 329.837C98.19 329.557 99.03 329.187 99.56 328.957C101.87 327.957 104.53 327.377 107.22 327.367C109.63 327.367 111.87 327.807 113.74 328.627C114.12 328.797 114.69 329.097 115.03 329.297L206.47 385.237C208.79 386.577 211.18 389.457 211.45 391.777C211.45 391.847 211.48 391.907 211.49 391.967C212.04 394.967 210.33 398.027 206.78 400.067L129.99 419.897C127.74 421.197 123.36 422.317 120.5 422.317C117.32 422.717 114.01 422.217 111.62 420.847L76.51 352.817C74.23 351.507 72.39 348.187 72.13 345.907C72.12 345.797 72.1 345.687 72.08 345.577C71.6 342.567 73.25 339.527 76.8 337.477V337.487Z" fill="black"/>
<path opacity="0.27" d="M77.1404 337.677L97.8804 330.087C98.3104 329.837 99.2603 329.437 99.7303 329.237C102.01 328.237 104.66 327.637 107.31 327.627C109.7 327.617 111.92 328.067 113.77 328.897C114.1 329.047 114.74 329.387 115.04 329.567L205.76 385.057C207.82 386.247 210.6 389.287 210.95 391.337C210.96 391.397 210.99 391.457 211.01 391.527C211.84 394.417 210.27 397.487 206.7 399.547L130.7 419.167C128.7 420.317 123.85 421.567 121.31 421.567C118.05 422.177 114.46 421.757 111.97 420.317L77.1803 352.917C75.1603 351.747 73.2104 348.017 72.8904 346.007C72.8704 345.907 72.8404 345.797 72.8204 345.697C72.0904 342.787 73.5804 339.737 77.1404 337.687V337.677Z" fill="black"/>
<path opacity="0.36" d="M77.4703 337.867L98.0503 330.337C98.4303 330.117 99.4803 329.697 99.8903 329.507C102.15 328.497 104.77 327.887 107.4 327.867C109.77 327.847 111.98 328.317 113.8 329.137C114.09 329.267 114.79 329.657 115.06 329.807L205.05 384.857C206.85 385.897 210.4 389.057 210.45 390.877C210.48 390.937 210.5 390.997 210.52 391.057C211.63 393.827 210.2 396.927 206.61 398.997L131.39 418.417C129.64 419.427 124.31 420.797 122.09 420.797C118.76 421.607 114.89 421.267 112.3 419.767L77.8303 352.997C76.0603 351.977 73.9803 347.837 73.6303 346.087C73.6103 345.987 73.5703 345.897 73.5303 345.797C72.5403 342.987 73.8703 339.937 77.4603 337.867H77.4703Z" fill="black"/>
<path opacity="0.45" d="M77.7999 338.057L98.21 330.587C98.53 330.397 99.6899 329.947 100.05 329.787C102.28 328.777 104.88 328.147 107.49 328.117C109.84 328.097 112.04 328.567 113.83 329.387C114.08 329.497 114.84 329.927 115.07 330.067L204.33 384.667C205.88 385.557 209.89 388.867 209.94 390.427C209.97 390.487 210 390.537 210.03 390.597C211.42 393.257 210.14 396.367 206.52 398.457L132.09 417.677C130.59 418.537 124.79 420.037 122.88 420.037C119.48 421.047 115.33 420.797 112.63 419.237L78.4899 353.097C76.9699 352.217 74.4499 347.717 74.3799 346.187C74.3399 346.097 74.3 346.007 74.26 345.917C73 343.207 74.1899 340.157 77.7999 338.067V338.057Z" fill="black"/>
<path opacity="0.55" d="M78.14 338.247L98.39 330.837C98.66 330.677 99.93 330.197 100.22 330.057C102.42 329.047 105.01 328.387 107.59 328.357C109.92 328.327 112.11 328.807 113.87 329.637C114.08 329.737 114.9 330.207 115.09 330.317L203.63 384.477C204.92 385.217 209.41 388.677 209.44 389.977C209.48 390.027 209.51 390.087 209.55 390.137C211.23 392.677 210.08 395.817 206.43 397.917L132.79 416.927C131.54 417.647 125.26 419.267 123.68 419.267C120.2 420.477 115.78 420.307 112.97 418.687L79.15 353.167C77.88 352.437 75.19 347.527 75.13 346.257C75.08 346.177 75.04 346.087 74.99 346.007C73.45 343.397 74.5 340.337 78.14 338.237V338.247Z" fill="black"/>
<path opacity="0.64" d="M78.4703 338.437L98.5603 331.087C98.7803 330.967 100.15 330.437 100.38 330.337C102.56 329.317 105.12 328.647 107.67 328.617C109.99 328.587 112.15 329.077 113.9 329.897C114.07 329.977 114.95 330.487 115.1 330.577L202.91 384.297C203.94 384.897 208.9 388.497 208.93 389.537C208.97 389.587 209.01 389.637 209.06 389.687C211.02 392.117 210.01 395.277 206.34 397.387L133.48 416.197C132.48 416.777 125.73 418.507 124.46 418.507C120.91 419.917 116.21 419.837 113.29 418.147L79.8003 353.257C78.7903 352.677 75.9203 347.367 75.8703 346.347C75.8103 346.267 75.7603 346.197 75.7103 346.117C73.8803 343.617 74.8103 340.547 78.4603 338.437H78.4703Z" fill="black"/>
<path opacity="0.73" d="M78.8003 338.637L98.7203 331.347C98.8803 331.257 100.36 330.697 100.53 330.617C102.68 329.597 105.22 328.907 107.75 328.867C110.05 328.827 112.2 329.327 113.92 330.147C114.04 330.207 114.99 330.767 115.1 330.827L202.19 384.097C202.96 384.547 208.4 388.287 208.42 389.077C208.47 389.127 208.52 389.177 208.56 389.217C210.81 391.527 209.93 394.707 206.24 396.837L134.17 415.447C133.42 415.877 126.2 417.737 125.24 417.737C121.62 419.347 116.63 419.347 113.62 417.607L80.4503 353.347C79.6903 352.907 76.6502 347.207 76.6102 346.437C76.5503 346.367 76.4903 346.297 76.4303 346.227C74.3003 343.847 75.1102 340.747 78.7902 338.627L78.8003 338.637Z" fill="black"/>
<path opacity="0.82" d="M79.14 338.827L98.9 331.597C99.01 331.537 100.59 330.947 100.71 330.887C102.84 329.867 105.36 329.157 107.86 329.107C110.14 329.067 112.28 329.567 113.97 330.397C114.05 330.437 115.06 331.037 115.13 331.087L201.49 383.917C202.01 384.217 207.91 388.107 207.93 388.627C207.98 388.667 208.04 388.717 208.09 388.757C210.63 390.947 209.89 394.157 206.17 396.297L134.89 414.697C134.39 414.987 126.69 416.967 126.06 416.967C122.36 418.787 117.1 418.857 113.98 417.057L81.14 353.427C80.63 353.137 77.42 347.027 77.39 346.517C77.32 346.457 77.25 346.387 77.19 346.327C74.75 344.077 75.45 340.947 79.16 338.807L79.14 338.827Z" fill="black"/>
<path opacity="0.91" d="M79.4703 339.017L99.0702 331.847C99.1202 331.817 100.81 331.197 100.87 331.167C102.97 330.137 105.47 329.407 107.94 329.357C110.2 329.317 112.32 329.827 113.99 330.647C114.03 330.667 115.1 331.317 115.14 331.337L200.78 383.727C201.04 383.877 207.42 387.917 207.42 388.177C207.48 388.217 207.54 388.257 207.6 388.307C210.43 390.367 209.82 393.607 206.07 395.777L135.57 413.977C135.32 414.117 127.15 416.227 126.83 416.227C123.06 418.247 117.52 418.407 114.29 416.547L81.7703 353.547C81.5203 353.397 78.1302 346.897 78.1102 346.637C78.0302 346.577 77.9602 346.527 77.8802 346.467C75.1302 344.367 75.7302 341.187 79.4502 339.037L79.4703 339.017Z" fill="black"/>
<path d="M114.63 415.987L78.8701 346.707C75.5401 344.787 75.9601 341.427 79.8001 339.207L101.03 331.437C104.88 329.217 110.69 328.977 114.02 330.897L206.91 387.717C210.24 389.637 209.82 392.997 205.98 395.217L127.62 415.447C123.77 417.667 117.96 417.907 114.63 415.987Z" fill="black"/>
</g>
<path d="M176.81 408.867L71.6699 333.377L103.65 318.577L208.79 394.067L176.81 408.867Z" fill="url(#paint36_linear_115_680)"/>
<path d="M97.2499 347.667L85.3799 339.137L110.44 327.537L122.32 336.057L97.2499 347.667Z" fill="#138BBD"/>
<path d="M112.82 358.837L100.94 350.317L126.01 338.707L137.88 347.237L112.82 358.837Z" fill="#18A0CA"/>
<path d="M128.38 370.017L116.5 361.487L141.57 349.877L153.45 358.407L128.38 370.017Z" fill="#1CB6D7"/>
<path d="M143.94 381.187L132.07 372.657L157.13 361.057L169.01 369.587L143.94 381.187Z" fill="#21CBE5"/>
<path d="M159.51 392.367L147.63 383.837L172.7 372.227L184.57 380.757L159.51 392.367Z" fill="#25E1F2"/>
<path d="M175.07 403.537L163.19 395.007L188.26 383.407L200.14 391.927L175.07 403.537Z" fill="#2AF6FF"/>
<path style="mix-blend-mode:multiply" d="M176.81 408.867L71.6699 333.377L103.65 318.577L185.72 404.737L176.81 408.867Z" fill="url(#paint37_linear_115_680)"/>
<path d="M145.95 415.087L66.8198 329.717L103.05 318.617L182.18 403.987L145.95 415.087Z" fill="url(#paint38_linear_115_680)"/>
<path d="M87.3902 346.477L78.4502 336.837L106.84 328.137L115.78 337.777L87.3902 346.477Z" fill="#9F19AB"/>
<path d="M99.1002 359.117L90.1602 349.477L118.56 340.777L127.5 350.417L99.1002 359.117Z" fill="#B228B2"/>
<path d="M110.81 371.757L101.88 362.107L130.27 353.407L139.21 363.057L110.81 371.757Z" fill="#C537B9"/>
<path d="M122.53 384.387L113.59 374.747L141.98 366.047L150.92 375.687L122.53 384.387Z" fill="#D945C0"/>
<path d="M134.24 397.027L125.3 387.387L153.7 378.687L162.64 388.327L134.24 397.027Z" fill="#EC54C7"/>
<path d="M145.95 409.667L137.02 400.017L165.41 391.317L174.35 400.967L145.95 409.667Z" fill="#FF63CE"/>
<path style="mix-blend-mode:multiply" d="M145.95 415.087L66.8198 329.717L103.05 318.617L157.16 411.797L145.95 415.087Z" fill="url(#paint39_linear_115_680)"/>
<path d="M114.28 418.567L63.1699 326.427L102.33 319.317L153.44 411.457L114.28 418.567Z" fill="url(#paint40_linear_115_680)"/>
<path d="M78.1602 345.047L72.3901 334.637L103.08 329.067L108.85 339.477L78.1602 345.047Z" fill="#FFBA78"/>
<path d="M85.7302 358.687L79.9502 348.277L110.64 342.707L116.42 353.107L85.7302 358.687Z" fill="#FFC281"/>
<path d="M93.29 372.327L87.52 361.917L118.21 356.347L123.98 366.747L93.29 372.327Z" fill="#FFCB8B"/>
<path d="M100.86 385.967L95.0801 375.557L125.77 369.977L131.55 380.387L100.86 385.967Z" fill="#FFD394"/>
<path d="M108.42 399.597L102.65 389.197L133.34 383.617L139.11 394.027L108.42 399.597Z" fill="#FFDC9E"/>
<path d="M115.99 413.237L110.22 402.837L140.9 397.257L146.68 407.667L115.99 413.237Z" fill="#FFE4A7"/>
<g opacity="0.2">
<path opacity="0.09" d="M69.8197 271.927C72.6797 270.277 76.2798 269.397 79.8898 269.437C81.2998 269.457 82.6498 269.637 83.9098 269.917C85.3298 270.237 86.9897 270.907 88.1297 271.567L197.25 334.287C200.27 336.027 201.84 338.797 201.64 341.787C201.59 342.537 201.42 343.277 201.19 343.997C200.46 346.217 198.24 348.597 195.7 350.067L134.14 385.547C133.42 385.967 132.45 386.437 131.65 386.747C129.37 387.637 126.8 388.137 124.21 388.157C121.09 388.177 118.24 387.507 116 386.217L6.53972 323.297C3.50972 321.547 1.95977 318.777 2.15977 315.777C2.19977 315.137 2.33975 314.517 2.50975 313.897C3.16975 311.547 5.46974 309.027 8.12974 307.497L69.8398 271.927H69.8197Z" fill="black"/>
<path opacity="0.18" d="M70.1698 272.127C73.0198 270.477 76.6498 269.627 80.2098 269.707C81.6198 269.747 82.9598 269.967 84.1998 270.257C85.4398 270.547 87.3498 271.367 88.3698 271.957L197.15 334.477C200.16 336.217 201.56 338.967 201.17 341.897C201.07 342.617 200.85 343.307 200.6 344.007C199.88 345.987 197.31 348.517 195.02 349.837L134.23 384.877C133.58 385.247 132.5 385.787 131.78 386.077C129.54 386.967 127.01 387.497 124.45 387.527C121.37 387.567 118.54 386.927 116.34 385.657L6.87977 322.737C3.85977 320.987 2.46978 318.217 2.88978 315.287C2.97978 314.677 3.15981 314.087 3.34981 313.497C4.01981 311.407 6.6898 308.727 9.0898 307.337L70.1798 272.127H70.1698Z" fill="black"/>
<path opacity="0.27" d="M70.5099 272.327C73.3599 270.687 77 269.857 80.53 269.977C81.94 270.027 83.2599 270.287 84.4899 270.607C85.6199 270.897 87.7099 271.837 88.6199 272.357L197.05 334.687C200.05 336.417 201.29 339.167 200.7 342.017C200.56 342.697 200.28 343.347 200.01 344.027C199.31 345.767 196.38 348.437 194.35 349.617L134.32 384.217C133.74 384.547 132.55 385.157 131.91 385.417C129.71 386.307 127.22 386.867 124.69 386.917C121.66 386.977 118.84 386.357 116.68 385.107L7.21997 322.187C4.19997 320.447 2.98994 317.677 3.61994 314.807C3.74994 314.227 3.97994 313.677 4.18994 313.097C4.84994 311.257 7.91992 308.417 10.0399 307.187L70.52 272.327H70.5099Z" fill="black"/>
<path opacity="0.36" d="M70.8598 272.527C73.6998 270.887 77.3698 270.087 80.8598 270.257C82.2698 270.327 83.5798 270.627 84.7898 270.957C85.7798 271.227 88.0798 272.297 88.8798 272.757L196.97 334.887C199.96 336.617 201.04 339.347 200.25 342.127C200.07 342.777 199.73 343.377 199.44 344.027C198.78 345.527 195.47 348.347 193.69 349.377L134.43 383.527C133.92 383.817 132.62 384.497 132.06 384.727C129.89 385.617 127.44 386.207 124.95 386.277C121.96 386.357 119.17 385.757 117.04 384.527L7.57984 321.607C4.55984 319.867 3.50981 317.097 4.36981 314.297C4.53981 313.747 4.82981 313.237 5.04981 312.677C5.68981 311.087 9.15984 308.097 11.0198 307.017L70.8798 272.517L70.8598 272.527Z" fill="black"/>
<path opacity="0.45" d="M71.2099 272.727C74.0499 271.087 77.7299 270.317 81.1898 270.527C82.5899 270.617 83.8899 270.957 85.0799 271.297C85.9199 271.537 88.4398 272.757 89.1198 273.157L196.87 335.087C199.85 336.807 200.78 339.527 199.78 342.247C199.55 342.857 199.16 343.407 198.85 344.047C198.24 345.307 194.54 348.277 193.01 349.157L134.52 382.867C134.09 383.117 132.66 383.867 132.19 384.067C130.06 384.967 127.65 385.577 125.19 385.657C122.25 385.757 119.47 385.187 117.37 383.977L7.90988 321.057C4.89988 319.317 3.99987 316.557 5.08987 313.827C5.29987 313.307 5.53985 312.787 5.87985 312.287C6.22985 310.867 10.3799 307.797 11.9699 306.877L71.2099 272.737V272.727Z" fill="black"/>
<path opacity="0.55" d="M71.5598 272.927C74.3898 271.297 78.0998 270.547 81.5098 270.797C82.9098 270.907 84.1898 271.287 85.3698 271.637C86.0698 271.847 88.7998 273.217 89.3698 273.547L196.77 335.277C199.74 336.987 200.53 339.707 199.3 342.347C199.03 342.927 198.7 343.507 198.25 344.047C197.92 345.167 193.6 348.177 192.32 348.917L134.6 382.187C134.24 382.397 132.7 383.217 132.3 383.387C130.21 384.287 127.83 384.927 125.42 385.027C122.52 385.147 119.77 384.597 117.7 383.407L8.23979 320.487C5.22979 318.747 4.4798 315.987 5.8098 313.327C6.0498 312.837 6.33982 312.347 6.70982 311.877C6.99982 310.697 11.5898 307.477 12.9198 306.717L71.5398 272.927H71.5598Z" fill="black"/>
<path opacity="0.64" d="M71.8997 273.127C74.7297 271.497 78.4497 270.777 81.8297 271.067C83.2297 271.197 84.4897 271.607 85.6597 271.977C86.2197 272.157 89.1596 273.677 89.6196 273.937L196.68 335.477C199.64 337.187 200.29 339.887 198.84 342.457C198.53 342.997 198.16 343.547 197.67 344.057C197.41 344.957 192.67 348.097 191.66 348.687L134.71 381.507C134.42 381.677 132.77 382.577 132.45 382.717C130.4 383.617 128.06 384.287 125.68 384.397C122.83 384.537 120.09 384.017 118.06 382.837L8.59967 319.917C5.58967 318.177 4.98963 315.417 6.55963 312.827C6.83963 312.367 7.15964 311.897 7.56964 311.467C7.80964 310.517 12.8397 307.167 13.8997 306.547L71.8997 273.117V273.127Z" fill="black"/>
<path opacity="0.73" d="M72.2499 273.327C75.0699 271.697 78.82 271.007 82.16 271.347C83.56 271.497 84.81 271.947 85.96 272.337C86.37 272.477 89.5299 274.157 89.8699 274.357L196.58 335.697C199.53 337.397 200.05 340.107 198.37 342.587C198.02 343.097 197.61 343.607 197.08 344.087C196.88 344.757 191.74 348.037 190.98 348.477L134.8 380.857C134.58 380.977 132.82 381.957 132.58 382.067C130.56 382.967 128.27 383.667 125.92 383.797C123.11 383.957 120.39 383.457 118.4 382.307L8.93994 319.387C5.93994 317.657 5.45992 314.877 7.28992 312.367C7.59992 311.937 7.96997 311.497 8.40997 311.087C8.58997 310.377 14.0599 306.877 14.8599 306.417L72.2399 273.347L72.2499 273.327Z" fill="black"/>
<path opacity="0.82" d="M72.5997 273.527C75.4197 271.897 79.1797 271.237 82.4897 271.617C83.8797 271.777 85.1197 272.277 86.2597 272.677C86.5397 272.777 89.8997 274.617 90.1297 274.747L196.5 335.887C199.44 337.587 199.84 340.297 197.92 342.697C197.54 343.177 197.08 343.657 196.51 344.097C196.38 344.547 190.83 347.947 190.32 348.247L134.91 380.187C134.77 380.267 132.89 381.327 132.73 381.397C130.75 382.297 128.49 383.017 126.18 383.167C123.41 383.347 120.72 382.867 118.76 381.737L9.29965 318.817C6.29965 317.087 5.95964 314.297 8.03964 311.867C8.38964 311.457 8.78969 311.057 9.27969 310.677C9.39969 310.207 15.3197 306.567 15.8497 306.257L72.6096 273.537L72.5997 273.527Z" fill="black"/>
<path opacity="0.91" d="M72.9497 273.727C75.7597 272.107 79.5497 271.467 82.8097 271.887C84.1997 272.067 85.4197 272.597 86.5497 273.017C86.6897 273.067 90.2597 275.077 90.3797 275.137L196.41 336.077C199.34 337.767 199.62 340.487 197.46 342.797C197.04 343.247 196.53 343.687 195.93 344.087C195.86 344.307 189.91 347.847 189.66 347.997L135.02 379.487C134.95 379.527 132.96 380.657 132.88 380.697C130.94 381.607 128.72 382.347 126.44 382.517C123.72 382.707 121.04 382.267 119.12 381.157L9.6597 318.237C6.6597 316.507 6.44965 313.697 8.78964 311.357C9.16964 310.977 9.61968 310.597 10.1397 310.247C10.1997 310.007 16.5597 306.227 16.8297 306.077L72.9697 273.717L72.9497 273.727Z" fill="black"/>
<path d="M119.45 380.597L9.99003 317.677C6.52003 315.667 6.95006 312.167 10.9601 309.857L73.29 273.927C77.3 271.607 83.3701 271.357 86.8401 273.367L196.3 336.287C199.77 338.297 199.34 341.797 195.33 344.107L133 380.037C128.99 382.357 122.92 382.607 119.45 380.597Z" fill="black"/>
</g>
<path d="M134.66 379.877L196.31 344.347C198.76 342.927 199.98 341.037 200.02 339.057C200.02 338.877 200.02 335.067 200 334.887C199.8 332.587 198.03 333.857 194.77 331.977L86.79 269.717C80.45 266.057 70.85 265.657 65.36 268.827L3.71002 304.357C1.26002 305.777 0.04 303.277 0 305.267C0 305.437 1.95317e-05 309.997 0.0200195 310.167C0.22002 312.467 1.98 314.847 5.25 316.737L113.23 378.997C119.57 382.657 129.17 383.057 134.66 379.887V379.877Z" fill="url(#paint41_linear_115_680)"/>
<path d="M134.66 375.697L196.31 340.167C201.8 336.997 201.11 331.457 194.77 327.797L86.79 265.537C80.45 261.877 70.85 261.477 65.36 264.647L3.71001 300.177C-1.77999 303.347 -1.09001 308.887 5.24999 312.547L113.23 374.807C119.57 378.467 129.17 378.867 134.66 375.697Z" fill="url(#paint42_linear_115_680)"/>
<path style="mix-blend-mode:color-dodge" d="M196.31 339.617L134.66 375.147C129.17 378.317 119.57 377.917 113.23 374.257L5.25009 311.997C1.91009 310.067 0.140103 307.617 0.0101025 305.267C-0.129897 307.777 1.65009 310.457 5.25009 312.537L113.23 374.797C119.57 378.457 129.17 378.857 134.66 375.687L196.31 340.157C198.91 338.657 200.12 336.617 200.01 334.507C199.9 336.417 198.69 338.237 196.31 339.607V339.617Z" fill="url(#paint43_radial_115_680)"/>
<path d="M191.26 329.567L83.7099 267.557C79.0599 264.867 72.0098 264.577 67.9798 266.907L7.61983 301.697C3.58983 304.027 4.08984 308.087 8.74984 310.777L116.3 372.787C120.95 375.477 128 375.767 132.03 373.437L192.39 338.647C196.42 336.317 195.92 332.257 191.26 329.567Z" fill="url(#paint44_linear_115_680)"/>
<path d="M179.74 324.047L82.1199 267.757C78.3399 265.577 72.1999 265.587 68.3999 267.787L9.13988 301.937C5.33988 304.127 5.3199 307.677 9.0999 309.857L106.71 366.137L179.75 324.047H179.74Z" fill="url(#paint45_linear_115_680)"/>
<path d="M172.73 357.577L164.01 362.607C164.01 361.017 164.98 359.167 166.17 358.477L170.56 355.937C171.75 355.247 172.72 355.977 172.72 357.577H172.73Z" fill="black"/>
<path d="M11.6 309.757C11.5 309.757 11.39 309.707 11.33 309.607C11.24 309.457 11.29 309.277 11.44 309.187L14.35 307.477C14.49 307.387 14.68 307.437 14.77 307.587C14.86 307.737 14.81 307.917 14.66 308.007L11.75 309.717C11.75 309.717 11.65 309.757 11.59 309.757H11.6Z" fill="#25054D"/>
<path d="M19.9198 314.547C19.8198 314.547 19.7098 314.497 19.6498 314.397C19.5598 314.247 19.6098 314.067 19.7598 313.977L22.6698 312.267C22.8098 312.177 22.9998 312.227 23.0898 312.377C23.1798 312.527 23.1298 312.707 22.9798 312.797L20.0698 314.507C20.0698 314.507 19.9698 314.547 19.9098 314.547H19.9198Z" fill="#25054D"/>
<path d="M28.2499 319.327C28.1499 319.327 28.0399 319.277 27.9799 319.177C27.8899 319.027 27.9399 318.847 28.0899 318.757L30.9999 317.047C31.1399 316.957 31.3299 317.007 31.4199 317.157C31.5099 317.307 31.4599 317.487 31.3099 317.577L28.3999 319.287C28.3999 319.287 28.2999 319.327 28.2399 319.327H28.2499Z" fill="#25054D"/>
<path d="M36.5697 324.117C36.4597 324.117 36.3597 324.067 36.2997 323.967C36.2097 323.817 36.2597 323.637 36.4097 323.547L39.3197 321.837C39.4597 321.747 39.6497 321.797 39.7397 321.947C39.8297 322.097 39.7797 322.277 39.6297 322.367L36.7197 324.077C36.7197 324.077 36.6197 324.117 36.5597 324.117H36.5697Z" fill="#25054D"/>
<path d="M44.8998 328.897C44.7898 328.897 44.6898 328.847 44.6298 328.747C44.5398 328.597 44.5898 328.417 44.7398 328.327L47.6498 326.617C47.7898 326.527 47.9798 326.577 48.0698 326.727C48.1598 326.877 48.1098 327.057 47.9598 327.147L45.0498 328.857C45.0498 328.857 44.9498 328.897 44.8898 328.897H44.8998Z" fill="#25054D"/>
<path d="M53.2298 333.687C53.1198 333.687 53.0199 333.637 52.9599 333.537C52.8699 333.387 52.9199 333.207 53.0699 333.117L55.9798 331.407C56.1298 331.317 56.3099 331.367 56.3999 331.517C56.4899 331.667 56.4398 331.847 56.2898 331.937L53.3798 333.647C53.3798 333.647 53.2799 333.687 53.2199 333.687H53.2298Z" fill="#25054D"/>
<path d="M61.5501 338.467C61.4401 338.467 61.3402 338.417 61.2802 338.317C61.1902 338.167 61.2402 337.987 61.3902 337.897L64.3001 336.187C64.4501 336.097 64.6302 336.147 64.7202 336.297C64.8102 336.447 64.7601 336.627 64.6101 336.717L61.7002 338.427C61.7002 338.427 61.6001 338.467 61.5401 338.467H61.5501Z" fill="#25054D"/>
<path d="M69.8798 343.247C69.7698 343.247 69.6698 343.197 69.6098 343.097C69.5198 342.947 69.5698 342.767 69.7198 342.677L72.6298 340.967C72.7798 340.877 72.9598 340.927 73.0498 341.077C73.1398 341.227 73.0898 341.407 72.9398 341.497L70.0298 343.207C70.0298 343.207 69.9298 343.247 69.8698 343.247H69.8798Z" fill="#25054D"/>
<path d="M78.2001 348.037C78.0901 348.037 77.9901 347.987 77.9301 347.887C77.8401 347.737 77.8901 347.557 78.0401 347.467L80.9501 345.757C81.1001 345.667 81.2801 345.717 81.3701 345.867C81.4601 346.017 81.4101 346.197 81.2601 346.287L78.3501 347.997C78.3501 347.997 78.2501 348.037 78.1901 348.037H78.2001Z" fill="#25054D"/>
<path d="M86.5302 352.817C86.4202 352.817 86.3202 352.767 86.2602 352.667C86.1702 352.517 86.2201 352.337 86.3701 352.247L89.2802 350.537C89.4302 350.447 89.6102 350.497 89.7002 350.647C89.7902 350.797 89.7402 350.977 89.5902 351.067L86.6801 352.777C86.6801 352.777 86.5802 352.817 86.5202 352.817H86.5302Z" fill="#25054D"/>
<path d="M94.8597 357.607C94.7497 357.607 94.6497 357.557 94.5897 357.457C94.4997 357.307 94.5497 357.127 94.6997 357.037L97.6097 355.327C97.7597 355.237 97.9398 355.287 98.0298 355.437C98.1198 355.587 98.0697 355.767 97.9197 355.857L95.0097 357.567C95.0097 357.567 94.9098 357.607 94.8498 357.607H94.8597Z" fill="#25054D"/>
<path d="M103.18 362.387C103.07 362.387 102.97 362.337 102.91 362.237C102.82 362.087 102.87 361.907 103.02 361.817L105.93 360.107C106.08 360.017 106.26 360.067 106.35 360.217C106.44 360.367 106.39 360.547 106.24 360.637L103.33 362.347C103.33 362.347 103.23 362.387 103.17 362.387H103.18Z" fill="#25054D"/>
<path d="M181.61 334.357C179.05 332.597 175.7 332.477 173.02 334.037L124.86 362.087C122.71 363.337 122.6 366.397 124.65 367.797C127.46 369.727 131.13 369.857 134.08 368.147L181.39 340.597C183.73 339.227 183.86 335.887 181.62 334.357H181.61Z" fill="black"/>
<path d="M181.61 332.957C179.05 331.197 175.7 331.077 173.02 332.637L124.86 360.687C122.71 361.937 122.6 364.997 124.65 366.397C127.46 368.327 131.13 368.457 134.08 366.747L181.39 339.197C183.73 337.827 183.86 334.487 181.62 332.957H181.61Z" fill="url(#paint46_linear_115_680)"/>
<path d="M166.35 348.847L156.5 342.117C155.6 341.497 154.42 341.457 153.47 342.007L141.52 348.967C140.78 349.397 140.74 350.457 141.45 350.937L151.3 357.667C152.2 358.287 153.38 358.327 154.33 357.777L166.28 350.817C167.02 350.387 167.06 349.327 166.35 348.847Z" fill="black"/>
<path d="M166.35 348.087L156.5 341.357C155.6 340.737 154.42 340.697 153.47 341.247L141.52 348.207C140.78 348.637 140.74 349.697 141.45 350.177L151.3 356.907C152.2 357.527 153.38 357.567 154.33 357.017L166.28 350.057C167.02 349.627 167.06 348.567 166.35 348.087Z" fill="url(#paint47_linear_115_680)"/>
<path style="mix-blend-mode:color-dodge" d="M141.44 349.487L151.29 356.217C152.19 356.837 153.38 356.877 154.32 356.327L166.27 349.367C166.54 349.207 166.71 348.967 166.79 348.707C166.93 349.197 166.76 349.757 166.27 350.047L154.32 357.007C153.37 357.557 152.19 357.517 151.29 356.897L141.44 350.167C140.99 349.857 140.84 349.317 140.99 348.857C141.06 349.097 141.21 349.327 141.44 349.487Z" fill="url(#paint48_radial_115_680)"/>
<path style="mix-blend-mode:color-dodge" d="M175.67 343.897V342.457L166.45 336.457L165.81 336.797L174.91 342.837V344.327L175.67 343.897Z" fill="url(#paint49_radial_115_680)"/>
<path d="M175.25 344.237V342.797L166.02 336.797L165.38 337.137L174.48 343.177V344.667L175.25 344.237Z" fill="black"/>
<path style="mix-blend-mode:color-dodge" d="M141.83 363.547V362.097L132.6 356.107L131.96 356.447L141.06 362.477V363.967L141.83 363.547Z" fill="url(#paint50_radial_115_680)"/>
<path d="M141.4 363.887V362.437L132.18 356.447L131.54 356.787L140.64 362.817V364.307L141.4 363.887Z" fill="black"/>
<path d="M159.6 348.167L155.42 345.287C154.79 344.857 153.97 344.827 153.31 345.207L148.03 348.277C147.42 348.637 147.39 349.497 147.97 349.907L152.15 352.787C152.78 353.217 153.6 353.247 154.26 352.867L159.54 349.797C160.15 349.437 160.18 348.577 159.6 348.167Z" fill="url(#paint51_linear_115_680)"/>
<g style="mix-blend-mode:multiply">
<path d="M234.73 167.967C242.32 172.347 248.47 168.837 248.47 160.137C248.47 151.437 242.32 140.827 234.73 136.447C227.14 132.067 220.99 135.577 220.99 144.277C220.99 152.977 227.14 163.587 234.73 167.967ZM280.86 163.627C268.33 156.397 259.41 210.147 245.44 202.077C231.46 194.007 226.4 170.067 215.32 163.667C207.65 159.237 198.88 190.817 192.67 195.657V196.147L310.03 263.907V262.587C300.39 245.437 290.49 169.177 280.87 163.627H280.86ZM306.09 166.567V168.197L283.21 154.727V152.607L278.51 149.897V151.967L260.66 141.457V140.197L256.35 137.707V142.647L260.66 145.137V142.877L277.73 152.927C276.99 152.927 276.26 153.017 275.55 153.237C271.06 154.617 267.66 160.307 264.68 166.387L262.65 165.217C262.46 165.107 262.23 165.107 262.04 165.217C261.85 165.327 261.73 165.527 261.73 165.747V171.147C261.73 171.367 261.85 171.567 262.04 171.677L266.74 174.387C266.83 174.447 266.94 174.467 267.05 174.467C267.16 174.467 267.26 174.437 267.36 174.387C267.55 174.277 267.67 174.077 267.67 173.857V168.457C267.67 168.237 267.55 168.037 267.36 167.927L265.76 167.007C268.51 161.397 271.85 155.667 275.93 154.407C276.78 154.147 277.64 154.087 278.53 154.207V155.287L283.23 158.007V156.577C286.96 159.917 292.25 168.037 295.38 180.977L293.98 180.167C293.79 180.057 293.56 180.057 293.37 180.167C293.18 180.277 293.06 180.477 293.06 180.697V186.087C293.06 186.307 293.18 186.507 293.37 186.617L298.07 189.337C298.16 189.397 298.27 189.417 298.38 189.417C298.49 189.417 298.59 189.387 298.69 189.337C298.88 189.227 299 189.027 299 188.807V183.407C299 183.187 298.88 182.987 298.69 182.877L296.86 181.817C294.43 171.137 290.21 162.707 286.22 157.907L306.13 169.627V171.517L310.44 174.007V169.067L306.13 166.577L306.09 166.567ZM266.42 168.817V172.797L262.95 170.787V166.807L266.42 168.817ZM297.73 183.757V187.737L294.26 185.727V181.747L297.73 183.757Z" fill="#E6E7E8"/>
</g>
<path d="M246.63 160.747C246.63 169.447 240.48 172.957 232.89 168.577C225.3 164.197 219.15 153.587 219.15 144.887C219.15 136.187 225.3 132.677 232.89 137.057C240.48 141.437 246.63 152.047 246.63 160.747Z" fill="url(#paint52_linear_115_680)"/>
<path d="M190.82 196.777L308.18 264.537V263.217C298.54 246.067 288.64 169.807 279.02 164.257C266.49 157.027 257.57 210.777 243.6 202.707C229.62 194.637 224.56 170.697 213.48 164.297C205.81 159.867 197.04 191.447 190.83 196.287V196.777H190.82Z" fill="url(#paint53_linear_115_680)"/>
<path style="mix-blend-mode:color-dodge" d="M304.24 167.187V168.817L281.36 155.347V153.227L276.66 150.517V152.587L258.81 142.077V140.817L254.5 138.327V143.267L258.81 145.757V143.497L275.88 153.547C275.14 153.547 274.41 153.637 273.7 153.857C269.21 155.237 265.81 160.927 262.83 167.007L260.8 165.837C260.61 165.727 260.38 165.727 260.19 165.837C260 165.947 259.88 166.147 259.88 166.367V171.767C259.88 171.987 260 172.187 260.19 172.297L264.89 175.007C264.98 175.067 265.09 175.087 265.2 175.087C265.31 175.087 265.41 175.057 265.51 175.007C265.7 174.897 265.82 174.697 265.82 174.477V169.077C265.82 168.857 265.7 168.657 265.51 168.547L263.91 167.627C266.66 162.017 270 156.287 274.08 155.027C274.93 154.767 275.79 154.707 276.68 154.827V155.907L281.38 158.627V157.197C285.11 160.537 290.4 168.657 293.53 181.597L292.13 180.787C291.94 180.677 291.71 180.677 291.52 180.787C291.33 180.897 291.21 181.097 291.21 181.317V186.707C291.21 186.927 291.33 187.127 291.52 187.237L296.22 189.957C296.31 190.017 296.42 190.037 296.53 190.037C296.64 190.037 296.74 190.007 296.84 189.957C297.03 189.847 297.15 189.647 297.15 189.427V184.027C297.15 183.807 297.03 183.607 296.84 183.497L295.01 182.437C292.58 171.757 288.36 163.327 284.37 158.527L304.28 170.247V172.137L308.59 174.627V169.687L304.28 167.197L304.24 167.187ZM264.57 173.407L261.1 171.397V167.417L264.57 169.427V173.407ZM295.89 188.347L292.42 186.337V182.357L295.89 184.367V188.347Z" fill="url(#paint54_radial_115_680)"/>
<path d="M71.7698 312.487C68.6398 312.487 65.6798 311.777 63.4398 310.487C61.0998 309.137 59.7998 307.297 59.7998 305.327C59.7998 303.357 61.0698 301.557 63.3798 300.217C65.5898 298.947 68.5098 298.237 71.6098 298.237C74.7098 298.237 77.6998 298.947 79.9398 300.237C82.2798 301.587 83.5798 303.417 83.5798 305.397C83.5798 307.377 82.3098 309.177 79.9998 310.507C77.7898 311.777 74.8698 312.487 71.7698 312.487ZM71.6298 299.457C68.7398 299.457 66.0298 300.097 64.0098 301.267C62.0898 302.377 61.0398 303.807 61.0398 305.317C61.0398 306.827 62.1098 308.287 64.0598 309.417C66.1098 310.607 68.8498 311.257 71.7698 311.257C74.6898 311.257 77.3698 310.617 79.3898 309.447C81.3098 308.337 82.3598 306.907 82.3598 305.397C82.3598 303.887 81.2898 302.427 79.3398 301.297C77.2898 300.107 74.5498 299.457 71.6298 299.457Z" fill="url(#paint55_linear_115_680)"/>
<path d="M85.57 339.967L84.49 339.597L84.43 339.227C84.2 337.707 82.07 334.667 80.02 331.737C77.01 327.437 73.89 322.987 74.44 320.487C74.58 319.837 74.95 319.347 75.52 319.017C78.52 317.287 82.95 317.347 87.64 317.417C92.8 317.497 98.12 317.567 102.01 315.327C102.66 314.957 103.04 314.457 103.19 313.807C103.79 311.137 100.37 306.197 97.62 302.227C97.43 301.947 97.5 301.567 97.78 301.377C98.06 301.187 98.44 301.257 98.63 301.537C101.67 305.927 105.11 310.897 104.39 314.087C104.17 315.077 103.58 315.857 102.63 316.397C98.45 318.807 92.95 318.727 87.62 318.647C83.11 318.587 78.83 318.517 76.13 320.077C75.86 320.237 75.7 320.447 75.63 320.757C75.19 322.727 78.42 327.327 81.01 331.037C83.15 334.087 85.02 336.757 85.53 338.577L138.76 307.847C139.05 307.677 139.43 307.777 139.6 308.067C139.77 308.357 139.67 308.737 139.38 308.907L85.56 339.977L85.57 339.967Z" fill="url(#paint56_linear_115_680)"/>
<path d="M99.7598 299.727C98.7998 300.247 95.7898 300.997 95.2698 300.027C94.7498 299.057 96.9198 296.747 97.8798 296.227C98.8398 295.707 100.05 296.067 100.57 297.037C101.09 297.997 100.73 299.207 99.7598 299.727Z" fill="url(#paint57_radial_115_680)"/>
<path d="M116.83 296.067C121.94 293.387 115.11 280.237 109.53 283.457C103.95 286.687 97.7999 295.057 97.7999 295.057C97.7999 295.057 97.7799 295.057 97.7799 295.067C97.0299 295.927 96.8999 297.037 97.6699 298.477C98.4399 299.907 99.0899 300.317 100.58 300.257C100.58 300.257 100.59 300.257 100.6 300.247C100.6 300.247 111.73 298.757 116.83 296.067Z" fill="url(#paint58_linear_115_680)"/>
<path d="M154.78 275.147L147.79 262.187L109.42 283.447C109.42 283.447 109.38 283.467 109.37 283.477C107.29 284.597 107.16 288.417 109.09 291.997C111.02 295.577 114.27 297.567 116.36 296.447C116.38 296.447 116.39 296.427 116.41 296.417L154.78 275.157V275.147Z" fill="url(#paint59_linear_115_680)"/>
<path d="M154.76 275.157C152.68 276.277 149.42 274.287 147.49 270.707C145.56 267.127 145.69 263.317 147.77 262.187C149.85 261.067 153.11 263.057 155.04 266.637C156.97 270.217 156.84 274.027 154.76 275.157Z" fill="url(#paint60_linear_115_680)"/>
<path d="M209.15 244.447L203.49 233.947L147.7 262.317C147.7 262.317 147.66 262.337 147.65 262.347C145.57 263.467 145.44 267.287 147.37 270.867C149.3 274.447 152.55 276.437 154.64 275.317C154.66 275.317 154.67 275.297 154.69 275.287L209.15 244.457V244.447Z" fill="url(#paint61_linear_115_680)"/>
<path d="M209.13 244.457C207.44 245.367 204.81 243.757 203.24 240.857C201.68 237.957 201.78 234.867 203.47 233.957C205.16 233.047 207.79 234.657 209.36 237.557C210.92 240.457 210.82 243.547 209.13 244.457Z" fill="url(#paint62_linear_115_680)"/>
<path style="mix-blend-mode:color-dodge" d="M203.49 240.807C201.93 237.907 202.03 234.817 203.72 233.907C203.76 233.887 203.8 233.877 203.84 233.857C203.65 233.897 203.46 233.957 203.28 234.057C201.59 234.967 201.49 238.057 203.05 240.957C204.58 243.797 207.13 245.387 208.82 244.607C207.15 244.967 204.89 243.407 203.49 240.807Z" fill="url(#paint63_radial_115_680)"/>
<path style="mix-blend-mode:multiply" opacity="0.2" d="M157.17 333.237L108.65 304.297C108.65 304.297 108.24 304.077 108.07 304.007C103.21 301.357 96.8698 299.257 96.8698 299.257C96.8698 299.257 96.8598 299.257 96.8498 299.247C96.0798 298.987 95.6898 299.207 95.8898 300.127C96.0898 301.057 96.4598 301.607 97.5698 302.597C97.5698 302.597 97.5798 302.597 97.5898 302.607C97.5898 302.607 104.77 308.547 109.41 311.627C109.67 311.847 109.93 312.037 110.2 312.197C110.22 312.197 110.23 312.217 110.25 312.227L158.97 341.467L157.18 333.247L157.17 333.237Z" fill="url(#paint64_radial_115_680)"/>
<path style="mix-blend-mode:multiply" opacity="0.3" d="M123.69 314.897L101.929 301.917C101.929 301.917 101.749 301.817 101.669 301.787C99.4895 300.597 96.6495 299.657 96.6495 299.657C96.2995 299.537 96.4695 300.717 96.9695 301.157C96.9695 301.157 100.19 303.827 102.27 305.207C102.39 305.307 102.5 305.397 102.62 305.467C102.62 305.467 102.63 305.467 102.64 305.477L124.489 318.587L123.69 314.897Z" fill="url(#paint65_radial_115_680)"/>
<path style="mix-blend-mode:screen" d="M200.28 238.707C201.08 240.237 188.74 248.337 176.63 254.697C164.52 261.057 154.05 264.977 153.24 263.447C152.44 261.917 161.61 255.527 173.72 249.157C185.83 242.797 199.48 237.177 200.28 238.697V238.707Z" fill="url(#paint66_radial_115_680)"/>
<g style="mix-blend-mode:multiply">
<path d="M142.774 266.747L109.872 284.656C109.266 284.986 109.042 285.745 109.372 286.351L110.232 287.932C110.563 288.538 111.322 288.762 111.928 288.432L144.83 270.524C145.436 270.194 145.66 269.434 145.33 268.828L144.47 267.247C144.14 266.641 143.38 266.417 142.774 266.747Z" fill="#939598"/>
</g>
<path d="M132.096 273.112L113.16 283.42C112.713 283.662 112.548 284.221 112.791 284.667L113.432 285.844C113.675 286.29 114.233 286.455 114.68 286.212L133.616 275.905C134.063 275.662 134.227 275.103 133.984 274.657L133.344 273.48C133.101 273.034 132.542 272.869 132.096 273.112Z" fill="url(#paint67_linear_115_680)"/>
<g style="mix-blend-mode:screen">
<path d="M133.44 274.247C133.3 273.987 133.08 273.807 132.85 273.667C132.92 273.747 133.01 273.827 133.07 273.927C133.49 274.697 133.2 275.667 132.43 276.087L114.67 285.757C114.16 286.037 113.57 285.977 113.1 285.697C113.58 286.247 114.37 286.437 115.04 286.077L132.8 276.407C133.57 275.987 133.86 275.017 133.44 274.247Z" fill="#58595B"/>
</g>
<path style="mix-blend-mode:screen" opacity="0.5" d="M113.09 286.747C117.63 283.187 115.56 280.197 110.54 284.227C105.52 288.257 98.8196 294.927 98.8196 294.927C98.8196 294.927 98.8096 294.927 98.7996 294.937C98.0296 295.677 97.6496 296.257 97.8996 296.567C98.1496 296.877 98.5496 296.767 99.6896 296.067C99.6896 296.067 99.6996 296.067 99.7096 296.057C99.7096 296.057 108.55 290.307 113.09 286.747Z" fill="url(#paint68_radial_115_680)"/>
<path style="mix-blend-mode:screen" opacity="0.2" d="M115.18 295.827C119.92 294.407 119.48 292.287 114.2 293.897C108.92 295.517 101.4 298.457 101.4 298.457C101.4 298.457 101.39 298.457 101.38 298.457C100.52 298.777 100.03 299.067 100.1 299.297C100.17 299.527 100.51 299.527 101.63 299.287C101.63 299.287 101.64 299.287 101.65 299.287C101.65 299.287 110.44 297.247 115.18 295.837V295.827Z" fill="url(#paint69_radial_115_680)"/>
<path style="mix-blend-mode:screen" d="M262.75 69.127L159.32 9.19678L121.68 31.5469V66.8071L225.04 126.597V126.607H225.06H225.07V126.597L262.75 104.387V69.127Z" fill="url(#paint70_linear_115_680)"/>
<g opacity="0.9">
<path d="M225.04 91.5469V126.607L235.2 120.747V85.4868L225.04 91.5469Z" fill="url(#paint71_linear_115_680)"/>
<path d="M225.07 91.5469V126.607L121.68 66.8071V31.5469L225.07 91.5469Z" fill="url(#paint72_linear_115_680)"/>
<path d="M121.68 31.5469L225.07 91.5469L235.2 85.4868L131.77 25.5571L121.68 31.5469Z" fill="url(#paint73_linear_115_680)"/>
</g>
<path d="M140.67 71.9868L128.76 65.1172V41.7969L140.67 48.6768V71.9868Z" fill="#138BBD"/>
<path d="M156.28 81.0068L144.37 74.127V50.8071L156.28 57.687V81.0068Z" fill="#18A0CA"/>
<path d="M171.891 90.0171L159.98 83.1372V59.8271L171.891 66.6968V90.0171Z" fill="#1CB6D7"/>
<path d="M187.5 99.0269L175.59 92.1572V68.8369L187.5 75.7168V99.0269Z" fill="#21CBE5"/>
<path d="M203.11 108.047L191.2 101.167V77.8472L203.11 84.7271V108.047Z" fill="#25E1F2"/>
<path d="M218.72 117.057L206.81 110.177V86.8569L218.72 93.7368V117.057Z" fill="#2AF6FF"/>
<defs>
<linearGradient id="paint0_linear_115_680" x1="168.79" y1="311.627" x2="345.4" y2="311.627" gradientUnits="userSpaceOnUse">
<stop stop-color="#020010"/>
<stop offset="0.25" stop-color="#033839"/>
<stop offset="0.49" stop-color="#056A5E"/>
<stop offset="0.71" stop-color="#068E78"/>
<stop offset="0.89" stop-color="#06A489"/>
<stop offset="1" stop-color="#07AD8F"/>
</linearGradient>
<linearGradient id="paint1_linear_115_680" x1="216.05" y1="322.987" x2="296.11" y2="278.697" gradientUnits="userSpaceOnUse">
<stop offset="0.04" stop-color="#020010"/>
<stop offset="0.15" stop-color="#020D1A"/>
<stop offset="0.37" stop-color="#033234"/>
<stop offset="0.66" stop-color="#056C5F"/>
<stop offset="0.94" stop-color="#07AD8F"/>
</linearGradient>
<linearGradient id="paint2_linear_115_680" x1="258.51" y1="302.057" x2="274.22" y2="275.707" gradientUnits="userSpaceOnUse">
<stop stop-color="white"/>
<stop offset="1"/>
</linearGradient>
<linearGradient id="paint3_linear_115_680" x1="162.08" y1="324.627" x2="329.51" y2="324.627" gradientUnits="userSpaceOnUse">
<stop stop-color="#020010"/>
<stop offset="0.25" stop-color="#033839"/>
<stop offset="0.49" stop-color="#056A5E"/>
<stop offset="0.71" stop-color="#068E78"/>
<stop offset="0.89" stop-color="#06A489"/>
<stop offset="1" stop-color="#07AD8F"/>
</linearGradient>
<linearGradient id="paint4_linear_115_680" x1="388.11" y1="354.087" x2="117.85" y2="-19.8831" gradientUnits="userSpaceOnUse">
<stop stop-color="#020010"/>
<stop offset="0.25" stop-color="#033839"/>
<stop offset="0.49" stop-color="#056A5E"/>
<stop offset="0.71" stop-color="#068E78"/>
<stop offset="0.89" stop-color="#06A489"/>
<stop offset="1" stop-color="#07AD8F"/>
</linearGradient>
<linearGradient id="paint5_linear_115_680" x1="143.55" y1="178.927" x2="379.68" y2="178.927" gradientUnits="userSpaceOnUse">
<stop offset="0.04" stop-color="#020010"/>
<stop offset="0.15" stop-color="#020D1A"/>
<stop offset="0.37" stop-color="#033234"/>
<stop offset="0.66" stop-color="#056C5F"/>
<stop offset="0.94" stop-color="#07AD8F"/>
</linearGradient>
<linearGradient id="paint6_linear_115_680" x1="445.53" y1="362.217" x2="232.81" y2="22.3069" gradientUnits="userSpaceOnUse">
<stop stop-color="#07AD8F"/>
<stop offset="0.11" stop-color="#06A489"/>
<stop offset="0.29" stop-color="#068E78"/>
<stop offset="0.51" stop-color="#056A5E"/>
<stop offset="0.75" stop-color="#033839"/>
<stop offset="1" stop-color="#020010"/>
</linearGradient>
<linearGradient id="paint7_linear_115_680" x1="141.2" y1="178.507" x2="392" y2="178.507" gradientUnits="userSpaceOnUse">
<stop stop-color="#020010"/>
<stop offset="0.25" stop-color="#033839"/>
<stop offset="0.49" stop-color="#056A5E"/>
<stop offset="0.71" stop-color="#068E78"/>
<stop offset="0.89" stop-color="#06A489"/>
<stop offset="1" stop-color="#07AD8F"/>
</linearGradient>
<linearGradient id="paint8_linear_115_680" x1="135.46" y1="217.757" x2="171.31" y2="193.557" gradientUnits="userSpaceOnUse">
<stop stop-color="#FDD65B"/>
<stop offset="0.01" stop-color="#F6D058"/>
<stop offset="0.13" stop-color="#BDA044"/>
<stop offset="0.25" stop-color="#8B7532"/>
<stop offset="0.37" stop-color="#605122"/>
<stop offset="0.49" stop-color="#3D3416"/>
<stop offset="0.62" stop-color="#221D0C"/>
<stop offset="0.74" stop-color="#0F0C05"/>
<stop offset="0.87" stop-color="#030301"/>
<stop offset="1"/>
</linearGradient>
<linearGradient id="paint9_linear_115_680" x1="148.63" y1="222.167" x2="185.84" y2="211.027" gradientUnits="userSpaceOnUse">
<stop offset="0.04" stop-color="#FFA98C"/>
<stop offset="0.32" stop-color="#FEB892"/>
<stop offset="0.86" stop-color="#FEE0A3"/>
<stop offset="1" stop-color="#FEECA8"/>
</linearGradient>
<linearGradient id="paint10_linear_115_680" x1="91.9702" y1="226.797" x2="177.19" y2="207.697" gradientUnits="userSpaceOnUse">
<stop offset="0.04" stop-color="#FFA98C"/>
<stop offset="0.32" stop-color="#FEB892"/>
<stop offset="0.86" stop-color="#FEE0A3"/>
<stop offset="1" stop-color="#FEECA8"/>
</linearGradient>
<linearGradient id="paint11_linear_115_680" x1="151.61" y1="177.157" x2="138.261" y2="202.577" gradientUnits="userSpaceOnUse">
<stop offset="0.04" stop-color="#FFA98C"/>
<stop offset="0.32" stop-color="#FEB892"/>
<stop offset="0.86" stop-color="#FEE0A3"/>
<stop offset="1" stop-color="#FEECA8"/>
</linearGradient>
<linearGradient id="paint12_linear_115_680" x1="135.46" y1="182.777" x2="171.31" y2="158.577" gradientUnits="userSpaceOnUse">
<stop stop-color="#FDD65B"/>
<stop offset="0.01" stop-color="#F6D058"/>
<stop offset="0.13" stop-color="#BDA044"/>
<stop offset="0.25" stop-color="#8B7532"/>
<stop offset="0.37" stop-color="#605122"/>
<stop offset="0.49" stop-color="#3D3416"/>
<stop offset="0.62" stop-color="#221D0C"/>
<stop offset="0.74" stop-color="#0F0C05"/>
<stop offset="0.87" stop-color="#030301"/>
<stop offset="1"/>
</linearGradient>
<linearGradient id="paint13_linear_115_680" x1="148.63" y1="187.177" x2="185.84" y2="176.037" gradientUnits="userSpaceOnUse">
<stop offset="0.04" stop-color="#FFA98C"/>
<stop offset="0.32" stop-color="#FEB892"/>
<stop offset="0.86" stop-color="#FEE0A3"/>
<stop offset="1" stop-color="#FEECA8"/>
</linearGradient>
<linearGradient id="paint14_linear_115_680" x1="91.9702" y1="191.817" x2="177.19" y2="172.707" gradientUnits="userSpaceOnUse">
<stop offset="0.04" stop-color="#FFA98C"/>
<stop offset="0.32" stop-color="#FEB892"/>
<stop offset="0.86" stop-color="#FEE0A3"/>
<stop offset="1" stop-color="#FEECA8"/>
</linearGradient>
<linearGradient id="paint15_linear_115_680" x1="151.61" y1="142.167" x2="138.26" y2="167.597" gradientUnits="userSpaceOnUse">
<stop offset="0.04" stop-color="#FFA98C"/>
<stop offset="0.32" stop-color="#FEB892"/>
<stop offset="0.86" stop-color="#FEE0A3"/>
<stop offset="1" stop-color="#FEECA8"/>
</linearGradient>
<linearGradient id="paint16_linear_115_680" x1="135.46" y1="147.467" x2="171.31" y2="123.267" gradientUnits="userSpaceOnUse">
<stop stop-color="#FDD65B"/>
<stop offset="0.01" stop-color="#F6D058"/>
<stop offset="0.13" stop-color="#BDA044"/>
<stop offset="0.25" stop-color="#8B7532"/>
<stop offset="0.37" stop-color="#605122"/>
<stop offset="0.49" stop-color="#3D3416"/>
<stop offset="0.62" stop-color="#221D0C"/>
<stop offset="0.74" stop-color="#0F0C05"/>
<stop offset="0.87" stop-color="#030301"/>
<stop offset="1"/>
</linearGradient>
<linearGradient id="paint17_linear_115_680" x1="148.63" y1="151.867" x2="185.84" y2="140.727" gradientUnits="userSpaceOnUse">
<stop offset="0.04" stop-color="#FFA98C"/>
<stop offset="0.32" stop-color="#FEB892"/>
<stop offset="0.86" stop-color="#FEE0A3"/>
<stop offset="1" stop-color="#FEECA8"/>
</linearGradient>
<linearGradient id="paint18_linear_115_680" x1="91.9702" y1="156.507" x2="177.19" y2="137.397" gradientUnits="userSpaceOnUse">
<stop offset="0.04" stop-color="#FFA98C"/>
<stop offset="0.32" stop-color="#FEB892"/>
<stop offset="0.86" stop-color="#FEE0A3"/>
<stop offset="1" stop-color="#FEECA8"/>
</linearGradient>
<linearGradient id="paint19_linear_115_680" x1="151.61" y1="106.857" x2="138.26" y2="132.287" gradientUnits="userSpaceOnUse">
<stop offset="0.04" stop-color="#FFA98C"/>
<stop offset="0.32" stop-color="#FEB892"/>
<stop offset="0.86" stop-color="#FEE0A3"/>
<stop offset="1" stop-color="#FEECA8"/>
</linearGradient>
<linearGradient id="paint20_linear_115_680" x1="340.87" y1="290.117" x2="376.72" y2="265.917" gradientUnits="userSpaceOnUse">
<stop stop-color="#2AF6FF"/>
<stop offset="0.02" stop-color="#28EEF6"/>
<stop offset="0.13" stop-color="#1FB7BD"/>
<stop offset="0.25" stop-color="#16868B"/>
<stop offset="0.37" stop-color="#0F5D60"/>
<stop offset="0.49" stop-color="#0A3B3D"/>
<stop offset="0.62" stop-color="#052122"/>
<stop offset="0.74" stop-color="#020E0F"/>
<stop offset="0.87" stop-color="#000303"/>
<stop offset="1"/>
</linearGradient>
<linearGradient id="paint21_linear_115_680" x1="354.04" y1="294.517" x2="391.25" y2="283.377" gradientUnits="userSpaceOnUse">
<stop offset="0.04" stop-color="#138BBD"/>
<stop offset="0.23" stop-color="#169AC6"/>
<stop offset="0.59" stop-color="#1EC2DF"/>
<stop offset="1" stop-color="#2AF6FF"/>
</linearGradient>
<linearGradient id="paint22_linear_115_680" x1="297.38" y1="299.157" x2="382.6" y2="280.047" gradientUnits="userSpaceOnUse">
<stop offset="0.04" stop-color="#138BBD"/>
<stop offset="0.23" stop-color="#169AC6"/>
<stop offset="0.59" stop-color="#1EC2DF"/>
<stop offset="1" stop-color="#2AF6FF"/>
</linearGradient>
<linearGradient id="paint23_linear_115_680" x1="357.02" y1="249.507" x2="343.67" y2="274.937" gradientUnits="userSpaceOnUse">
<stop offset="0.04" stop-color="#138BBD"/>
<stop offset="0.23" stop-color="#169AC6"/>
<stop offset="0.59" stop-color="#1EC2DF"/>
<stop offset="1" stop-color="#2AF6FF"/>
</linearGradient>
<linearGradient id="paint24_linear_115_680" x1="340.87" y1="241.907" x2="376.72" y2="217.707" gradientUnits="userSpaceOnUse">
<stop stop-color="#C211A1"/>
<stop offset="0.01" stop-color="#BC109C"/>
<stop offset="0.15" stop-color="#8B0C73"/>
<stop offset="0.29" stop-color="#60084F"/>
<stop offset="0.42" stop-color="#3D0533"/>
<stop offset="0.56" stop-color="#22031C"/>
<stop offset="0.7" stop-color="#0F010C"/>
<stop offset="0.85" stop-color="#030003"/>
<stop offset="1"/>
</linearGradient>
<linearGradient id="paint25_linear_115_680" x1="354.04" y1="246.317" x2="391.25" y2="235.177" gradientUnits="userSpaceOnUse">
<stop offset="0.04" stop-color="#9F19AB"/>
<stop offset="0.24" stop-color="#AE24B0"/>
<stop offset="0.65" stop-color="#D643BF"/>
<stop offset="1" stop-color="#FF63CE"/>
</linearGradient>
<linearGradient id="paint26_linear_115_680" x1="297.38" y1="250.947" x2="382.6" y2="231.847" gradientUnits="userSpaceOnUse">
<stop offset="0.04" stop-color="#9F19AB"/>
<stop offset="0.24" stop-color="#AE24B0"/>
<stop offset="0.65" stop-color="#D643BF"/>
<stop offset="1" stop-color="#FF63CE"/>
</linearGradient>
<linearGradient id="paint27_linear_115_680" x1="357.02" y1="201.307" x2="343.67" y2="226.737" gradientUnits="userSpaceOnUse">
<stop offset="0.04" stop-color="#9F19AB"/>
<stop offset="0.24" stop-color="#AE24B0"/>
<stop offset="0.65" stop-color="#D643BF"/>
<stop offset="1" stop-color="#FF63CE"/>
</linearGradient>
<linearGradient id="paint28_linear_115_680" x1="340.87" y1="206.017" x2="376.72" y2="181.817" gradientUnits="userSpaceOnUse">
<stop stop-color="#C211A1"/>
<stop offset="0.01" stop-color="#BC109C"/>
<stop offset="0.15" stop-color="#8B0C73"/>
<stop offset="0.29" stop-color="#60084F"/>
<stop offset="0.42" stop-color="#3D0533"/>
<stop offset="0.56" stop-color="#22031C"/>
<stop offset="0.7" stop-color="#0F010C"/>
<stop offset="0.85" stop-color="#030003"/>
<stop offset="1"/>
</linearGradient>
<linearGradient id="paint29_linear_115_680" x1="-834.93" y1="210.417" x2="391.25" y2="199.277" gradientUnits="userSpaceOnUse">
<stop offset="0.04" stop-color="#9F19AB"/>
<stop offset="0.24" stop-color="#AE24B0"/>
<stop offset="0.65" stop-color="#D643BF"/>
<stop offset="1" stop-color="#FF63CE"/>
</linearGradient>
<linearGradient id="paint30_linear_115_680" x1="297.38" y1="215.057" x2="382.6" y2="195.947" gradientUnits="userSpaceOnUse">
<stop offset="0.04" stop-color="#9F19AB"/>
<stop offset="0.24" stop-color="#AE24B0"/>
<stop offset="0.65" stop-color="#D643BF"/>
<stop offset="1" stop-color="#FF63CE"/>
</linearGradient>
<linearGradient id="paint31_linear_115_680" x1="357.02" y1="165.407" x2="343.67" y2="190.837" gradientUnits="userSpaceOnUse">
<stop offset="0.04" stop-color="#9F19AB"/>
<stop offset="0.24" stop-color="#AE24B0"/>
<stop offset="0.65" stop-color="#D643BF"/>
<stop offset="1" stop-color="#FF63CE"/>
</linearGradient>
<linearGradient id="paint32_linear_115_680" x1="340.87" y1="169.267" x2="376.72" y2="145.067" gradientUnits="userSpaceOnUse">
<stop stop-color="#C211A1"/>
<stop offset="0.01" stop-color="#BC109C"/>
<stop offset="0.15" stop-color="#8B0C73"/>
<stop offset="0.29" stop-color="#60084F"/>
<stop offset="0.42" stop-color="#3D0533"/>
<stop offset="0.56" stop-color="#22031C"/>
<stop offset="0.7" stop-color="#0F010C"/>
<stop offset="0.85" stop-color="#030003"/>
<stop offset="1"/>
</linearGradient>
<linearGradient id="paint33_linear_115_680" x1="354.04" y1="173.667" x2="391.25" y2="162.527" gradientUnits="userSpaceOnUse">
<stop offset="0.04" stop-color="#9F19AB"/>
<stop offset="0.24" stop-color="#AE24B0"/>
<stop offset="0.65" stop-color="#D643BF"/>
<stop offset="1" stop-color="#FF63CE"/>
</linearGradient>
<linearGradient id="paint34_linear_115_680" x1="297.38" y1="178.307" x2="382.6" y2="159.197" gradientUnits="userSpaceOnUse">
<stop offset="0.04" stop-color="#9F19AB"/>
<stop offset="0.24" stop-color="#AE24B0"/>
<stop offset="0.65" stop-color="#D643BF"/>
<stop offset="1" stop-color="#FF63CE"/>
</linearGradient>
<linearGradient id="paint35_linear_115_680" x1="357.02" y1="128.657" x2="343.67" y2="154.087" gradientUnits="userSpaceOnUse">
<stop offset="0.04" stop-color="#9F19AB"/>
<stop offset="0.24" stop-color="#AE24B0"/>
<stop offset="0.65" stop-color="#D643BF"/>
<stop offset="1" stop-color="#FF63CE"/>
</linearGradient>
<linearGradient id="paint36_linear_115_680" x1="3876.79" y1="2537.76" x2="3895.88" y2="2512.33" gradientUnits="userSpaceOnUse">
<stop offset="0.03" stop-color="#D4D1D8"/>
<stop offset="1" stop-color="#EEEBF2"/>
</linearGradient>
<linearGradient id="paint37_linear_115_680" x1="3876.64" y1="2537.85" x2="3893.61" y2="2515.24" gradientUnits="userSpaceOnUse">
<stop offset="0.03" stop-color="#D4D1D8"/>
<stop offset="1" stop-color="#EEEBF2"/>
</linearGradient>
<linearGradient id="paint38_linear_115_680" x1="3864.17" y1="2542.9" x2="3885.39" y2="2522.11" gradientUnits="userSpaceOnUse">
<stop offset="0.03" stop-color="#D4D1D8"/>
<stop offset="1" stop-color="#EEEBF2"/>
</linearGradient>
<linearGradient id="paint39_linear_115_680" x1="3863.74" y1="2542.48" x2="3883.51" y2="2523.12" gradientUnits="userSpaceOnUse">
<stop offset="0.03" stop-color="#D4D1D8"/>
<stop offset="1" stop-color="#EEEBF2"/>
</linearGradient>
<linearGradient id="paint40_linear_115_680" x1="3846.69" y1="2546.79" x2="3883.36" y2="2526" gradientUnits="userSpaceOnUse">
<stop offset="0.03" stop-color="#D4D1D8"/>
<stop offset="1" stop-color="#EEEBF2"/>
</linearGradient>
<linearGradient id="paint41_linear_115_680" x1="18.61" y1="324.347" x2="218.64" y2="324.347" gradientUnits="userSpaceOnUse">
<stop stop-color="#020010"/>
<stop offset="0.25" stop-color="#033839"/>
<stop offset="0.49" stop-color="#056A5E"/>
<stop offset="0.71" stop-color="#068E78"/>
<stop offset="0.89" stop-color="#06A489"/>
<stop offset="1" stop-color="#07AD8F"/>
</linearGradient>
<linearGradient id="paint42_linear_115_680" x1="66.9" y1="344.217" x2="201.01" y2="246.807" gradientUnits="userSpaceOnUse">
<stop offset="0.04" stop-color="#020010"/>
<stop offset="0.15" stop-color="#020D1A"/>
<stop offset="0.37" stop-color="#033234"/>
<stop offset="0.66" stop-color="#056C5F"/>
<stop offset="0.94" stop-color="#07AD8F"/>
</linearGradient>
<radialGradient id="paint43_radial_115_680" cx="0" cy="0" r="1" gradientUnits="userSpaceOnUse" gradientTransform="translate(88.3696 366.831) rotate(180) scale(75.8229 75.8228)">
<stop stop-color="white"/>
<stop offset="1"/>
</radialGradient>
<linearGradient id="paint44_linear_115_680" x1="4.90984" y1="320.167" x2="195.12" y2="320.167" gradientUnits="userSpaceOnUse">
<stop offset="0.04" stop-color="#020010"/>
<stop offset="0.15" stop-color="#020D1A"/>
<stop offset="0.37" stop-color="#033234"/>
<stop offset="0.66" stop-color="#056C5F"/>
<stop offset="0.94" stop-color="#07AD8F"/>
</linearGradient>
<linearGradient id="paint45_linear_115_680" x1="6.27989" y1="316.127" x2="179.74" y2="316.127" gradientUnits="userSpaceOnUse">
<stop stop-color="#07AD8F"/>
<stop offset="0.11" stop-color="#06A489"/>
<stop offset="0.29" stop-color="#068E78"/>
<stop offset="0.51" stop-color="#056A5E"/>
<stop offset="0.75" stop-color="#033839"/>
<stop offset="1" stop-color="#020010"/>
</linearGradient>
<linearGradient id="paint46_linear_115_680" x1="145.08" y1="339.887" x2="174.8" y2="376.007" gradientUnits="userSpaceOnUse">
<stop stop-color="#07AD8F"/>
<stop offset="0.11" stop-color="#06A489"/>
<stop offset="0.29" stop-color="#068E78"/>
<stop offset="0.51" stop-color="#056A5E"/>
<stop offset="0.75" stop-color="#033839"/>
<stop offset="1" stop-color="#020010"/>
</linearGradient>
<linearGradient id="paint47_linear_115_680" x1="140.93" y1="349.127" x2="166.85" y2="349.127" gradientUnits="userSpaceOnUse">
<stop stop-color="#020010"/>
<stop offset="0.25" stop-color="#033839"/>
<stop offset="0.49" stop-color="#056A5E"/>
<stop offset="0.71" stop-color="#068E78"/>
<stop offset="0.89" stop-color="#06A489"/>
<stop offset="1" stop-color="#07AD8F"/>
</linearGradient>
<radialGradient id="paint48_radial_115_680" cx="0" cy="0" r="1" gradientUnits="userSpaceOnUse" gradientTransform="translate(120.867 374.819) rotate(180) scale(9.7092 9.70905)">
<stop stop-color="white"/>
<stop offset="1"/>
</radialGradient>
<radialGradient id="paint49_radial_115_680" cx="0" cy="0" r="1" gradientUnits="userSpaceOnUse" gradientTransform="translate(137.793 362.097) rotate(180) scale(4.48259 4.48267)">
<stop stop-color="white"/>
<stop offset="1"/>
</radialGradient>
<radialGradient id="paint50_radial_115_680" cx="0" cy="0" r="1" gradientUnits="userSpaceOnUse" gradientTransform="translate(103.802 381.831) rotate(180) scale(4.4826 4.48252)">
<stop stop-color="white"/>
<stop offset="1"/>
</radialGradient>
<linearGradient id="paint51_linear_115_680" x1="151.44" y1="356.527" x2="156.21" y2="341.297" gradientUnits="userSpaceOnUse">
<stop stop-color="#07AD8F"/>
<stop offset="0.11" stop-color="#06A489"/>
<stop offset="0.29" stop-color="#068E78"/>
<stop offset="0.51" stop-color="#056A5E"/>
<stop offset="0.75" stop-color="#033839"/>
<stop offset="1" stop-color="#020010"/>
</linearGradient>
<linearGradient id="paint52_linear_115_680" x1="238.77" y1="173.597" x2="224.96" y2="124.777" gradientUnits="userSpaceOnUse">
<stop offset="0.04" stop-color="#FFBA78"/>
<stop offset="0.4" stop-color="#FEC986"/>
<stop offset="1" stop-color="#FEECA8"/>
</linearGradient>
<linearGradient id="paint53_linear_115_680" x1="262.84" y1="261.187" x2="227.84" y2="155.867" gradientUnits="userSpaceOnUse">
<stop offset="0.04" stop-color="#138BBD"/>
<stop offset="0.23" stop-color="#169AC6"/>
<stop offset="0.59" stop-color="#1EC2DF"/>
<stop offset="1" stop-color="#2AF6FF"/>
</linearGradient>
<radialGradient id="paint54_radial_115_680" cx="0" cy="0" r="1" gradientUnits="userSpaceOnUse" gradientTransform="translate(288.065 177.808) scale(55.1769 55.1769)">
<stop stop-color="#FA45C1"/>
<stop offset="0.21" stop-color="#CB389D"/>
<stop offset="0.67" stop-color="#571843"/>
<stop offset="1"/>
</radialGradient>
<linearGradient id="paint55_linear_115_680" x1="64.4198" y1="336.747" x2="74.2398" y2="294.377" gradientUnits="userSpaceOnUse">
<stop offset="0.04" stop-color="#FFA98C"/>
<stop offset="0.32" stop-color="#FEB892"/>
<stop offset="0.86" stop-color="#FEE0A3"/>
<stop offset="1" stop-color="#FEECA8"/>
</linearGradient>
<linearGradient id="paint56_linear_115_680" x1="112.53" y1="331.997" x2="101.79" y2="298.837" gradientUnits="userSpaceOnUse">
<stop offset="0.04" stop-color="#FFA98C"/>
<stop offset="0.32" stop-color="#FEB892"/>
<stop offset="0.86" stop-color="#FEE0A3"/>
<stop offset="1" stop-color="#FEECA8"/>
</linearGradient>
<radialGradient id="paint57_radial_115_680" cx="0" cy="0" r="1" gradientTransform="matrix(1.87504 3.47931 -3.47943 1.87498 75.7908 331.173)" gradientUnits="userSpaceOnUse">
<stop offset="0.1" stop-color="#8493BA"/>
<stop offset="0.21" stop-color="#606C8F"/>
<stop offset="0.33" stop-color="#434D6D"/>
<stop offset="0.43" stop-color="#2F3755"/>
<stop offset="0.53" stop-color="#232947"/>
<stop offset="0.62" stop-color="#1F2542"/>
<stop offset="0.71" stop-color="#242A48"/>
<stop offset="0.83" stop-color="#33385B"/>
<stop offset="0.98" stop-color="#4D517A"/>
</radialGradient>
<linearGradient id="paint58_linear_115_680" x1="103.82" y1="286.556" x2="110.618" y2="299.17" gradientUnits="userSpaceOnUse">
<stop stop-color="#07AD8F"/>
<stop offset="0.11" stop-color="#06A489"/>
<stop offset="0.29" stop-color="#068E78"/>
<stop offset="0.51" stop-color="#056A5E"/>
<stop offset="0.75" stop-color="#033839"/>
<stop offset="1" stop-color="#020010"/>
</linearGradient>
<linearGradient id="paint59_linear_115_680" x1="126.49" y1="273.691" x2="133.606" y2="286.896" gradientUnits="userSpaceOnUse">
<stop stop-color="#07AD8F"/>
<stop offset="0.11" stop-color="#06A489"/>
<stop offset="0.29" stop-color="#068E78"/>
<stop offset="0.51" stop-color="#056A5E"/>
<stop offset="0.75" stop-color="#033839"/>
<stop offset="1" stop-color="#020010"/>
</linearGradient>
<linearGradient id="paint60_linear_115_680" x1="152.24" y1="254.287" x2="150.42" y2="281.137" gradientUnits="userSpaceOnUse">
<stop stop-color="#D6DAE6"/>
<stop offset="0.01" stop-color="#D4D8E5"/>
<stop offset="0.28" stop-color="#B4B8E3"/>
<stop offset="0.4" stop-color="#999FC7"/>
<stop offset="0.53" stop-color="#8289AF"/>
<stop offset="0.65" stop-color="#747CA1"/>
<stop offset="0.76" stop-color="#70789C"/>
<stop offset="0.85" stop-color="#767DA2"/>
<stop offset="0.99" stop-color="#898EB3"/>
<stop offset="1" stop-color="#8B90B5"/>
</linearGradient>
<linearGradient id="paint61_linear_115_680" x1="173.241" y1="248.577" x2="180.115" y2="261.332" gradientUnits="userSpaceOnUse">
<stop stop-color="#07AD8F"/>
<stop offset="0.11" stop-color="#06A489"/>
<stop offset="0.29" stop-color="#068E78"/>
<stop offset="0.51" stop-color="#056A5E"/>
<stop offset="0.75" stop-color="#033839"/>
<stop offset="1" stop-color="#020010"/>
</linearGradient>
<linearGradient id="paint62_linear_115_680" x1="207.1" y1="227.547" x2="205.62" y2="249.297" gradientUnits="userSpaceOnUse">
<stop stop-color="#020010"/>
<stop offset="0.25" stop-color="#033839"/>
<stop offset="0.49" stop-color="#056A5E"/>
<stop offset="0.71" stop-color="#068E78"/>
<stop offset="0.89" stop-color="#06A489"/>
<stop offset="1" stop-color="#07AD8F"/>
</linearGradient>
<radialGradient id="paint63_radial_115_680" cx="0" cy="0" r="1" gradientUnits="userSpaceOnUse" gradientTransform="translate(207.294 259.406) scale(4.59422 4.5942)">
<stop stop-color="#B4299A"/>
<stop offset="0.12" stop-color="#8A1F76"/>
<stop offset="0.26" stop-color="#601552"/>
<stop offset="0.4" stop-color="#3D0E34"/>
<stop offset="0.55" stop-color="#22071D"/>
<stop offset="0.69" stop-color="#0F030D"/>
<stop offset="0.84" stop-color="#030003"/>
<stop offset="1"/>
</radialGradient>
<radialGradient id="paint64_radial_115_680" cx="0" cy="0" r="1" gradientTransform="matrix(19.1559 17.5839 -6.61762 7.20918 144.925 267.366)" gradientUnits="userSpaceOnUse">
<stop/>
<stop offset="1" stop-color="white"/>
</radialGradient>
<radialGradient id="paint65_radial_115_680" cx="0" cy="0" r="1" gradientTransform="matrix(8.53658 7.83593 -2.94905 3.21264 143.883 268.858)" gradientUnits="userSpaceOnUse">
<stop/>
<stop offset="1" stop-color="white"/>
</radialGradient>
<radialGradient id="paint66_radial_115_680" cx="0" cy="0" r="1" gradientUnits="userSpaceOnUse" gradientTransform="translate(176.006 246.012) rotate(-27.71) scale(25.7002 3.2338)">
<stop offset="0.06" stop-color="#07AD8F"/>
<stop offset="0.28" stop-color="#0A806B"/>
<stop offset="0.6" stop-color="#0F463C"/>
<stop offset="0.83" stop-color="#12211F"/>
<stop offset="0.96" stop-color="#141414"/>
</radialGradient>
<linearGradient id="paint67_linear_115_680" x1="121.214" y1="276.385" x2="128.373" y2="288.974" gradientUnits="userSpaceOnUse">
<stop stop-color="#07AD8F"/>
<stop offset="0.11" stop-color="#06A489"/>
<stop offset="0.29" stop-color="#068E78"/>
<stop offset="0.51" stop-color="#056A5E"/>
<stop offset="0.75" stop-color="#033839"/>
<stop offset="1" stop-color="#020010"/>
</linearGradient>
<radialGradient id="paint68_radial_115_680" cx="0" cy="0" r="1" gradientTransform="matrix(1.45258 1.83926 -7.43709 5.87339 86.0191 321.378)" gradientUnits="userSpaceOnUse">
<stop stop-color="#742A97"/>
<stop offset="0.04" stop-color="#6A268A"/>
<stop offset="0.19" stop-color="#491A60"/>
<stop offset="0.35" stop-color="#2F113D"/>
<stop offset="0.51" stop-color="#1A0922"/>
<stop offset="0.67" stop-color="#0B040F"/>
<stop offset="0.83" stop-color="#020103"/>
<stop offset="1"/>
</radialGradient>
<radialGradient id="paint69_radial_115_680" cx="0" cy="0" r="1" gradientUnits="userSpaceOnUse" gradientTransform="translate(160.727 343.616) rotate(73.28) scale(1.4266 8.05008)">
<stop stop-color="#742A97"/>
<stop offset="0.04" stop-color="#6A268A"/>
<stop offset="0.19" stop-color="#491A60"/>
<stop offset="0.35" stop-color="#2F113D"/>
<stop offset="0.51" stop-color="#1A0922"/>
<stop offset="0.67" stop-color="#0B040F"/>
<stop offset="0.83" stop-color="#020103"/>
<stop offset="1"/>
</radialGradient>
<linearGradient id="paint70_linear_115_680" x1="174.33" y1="88.8369" x2="211.46" y2="45.5169" gradientUnits="userSpaceOnUse">
<stop stop-color="#B086CC"/>
<stop offset="0.04" stop-color="#A27BBC"/>
<stop offset="0.17" stop-color="#775B8B"/>
<stop offset="0.3" stop-color="#533F60"/>
<stop offset="0.44" stop-color="#35283D"/>
<stop offset="0.57" stop-color="#1D1622"/>
<stop offset="0.71" stop-color="#0D0A0F"/>
<stop offset="0.85" stop-color="#030203"/>
<stop offset="1"/>
</linearGradient>
<linearGradient id="paint71_linear_115_680" x1="223.75" y1="109.137" x2="263.46" y2="89.8968" gradientUnits="userSpaceOnUse">
<stop stop-color="#9F79C8"/>
<stop offset="0.14" stop-color="#A47FCA"/>
<stop offset="0.33" stop-color="#B491D3"/>
<stop offset="0.55" stop-color="#CDAFE1"/>
<stop offset="0.58" stop-color="#D1B4E3"/>
<stop offset="0.76" stop-color="#DAC3E8"/>
<stop offset="1" stop-color="#EBDEF3"/>
</linearGradient>
<linearGradient id="paint72_linear_115_680" x1="119.8" y1="115.107" x2="221.29" y2="46.8669" gradientUnits="userSpaceOnUse">
<stop stop-color="#9F79C8"/>
<stop offset="0.14" stop-color="#A47FCA"/>
<stop offset="0.33" stop-color="#B491D3"/>
<stop offset="0.55" stop-color="#CDAFE1"/>
<stop offset="0.58" stop-color="#D1B4E3"/>
<stop offset="0.76" stop-color="#DAC3E8"/>
<stop offset="1" stop-color="#EBDEF3"/>
</linearGradient>
<linearGradient id="paint73_linear_115_680" x1="202.03" y1="24.0671" x2="177.14" y2="60.4271" gradientUnits="userSpaceOnUse">
<stop stop-color="#9F79C8"/>
<stop offset="0.14" stop-color="#A47FCA"/>
<stop offset="0.33" stop-color="#B491D3"/>
<stop offset="0.55" stop-color="#CDAFE1"/>
<stop offset="0.58" stop-color="#D1B4E3"/>
<stop offset="0.76" stop-color="#DAC3E8"/>
<stop offset="1" stop-color="#EBDEF3"/>
</linearGradient>
</defs>
</svg>
