<svg width="78" height="78" viewBox="0 0 78 78" fill="none" xmlns="http://www.w3.org/2000/svg">
<path d="M77.0841 35.5949C76.1141 17.4849 60.6941 1.4352 42.3141 0.435205C29.0541 -0.304795 15.7341 0.155283 2.43411 0.0152832C0.384106 0.00528317 0.0441089 1.08505 0.0541089 2.77505C0.0941089 9.08505 -0.0958935 15.395 0.114106 21.695C0.544106 34.265 9.69411 43.0852 22.2241 43.2052C27.6641 43.2652 33.1041 43.1652 38.5241 43.2252C45.5741 43.3152 50.9941 48.6653 51.0841 55.5153C51.1741 62.5153 45.7441 67.965 38.5141 68.005C29.7741 68.065 21.0441 68.0253 12.3041 68.0153C11.4541 68.0153 10.6141 67.8953 9.34411 67.8053C9.34411 63.7753 9.38411 60.0952 9.33411 56.4152C9.26411 49.5152 10.1641 50.715 3.52411 50.445C0.89411 50.335 -0.065892 51.1251 0.014108 53.8351C0.174108 60.4251 0.184106 67.0449 0.00410586 73.6349C-0.0658941 76.3949 0.74411 77.3351 3.59411 77.2951C14.9541 77.1451 26.3041 77.285 37.6641 77.195C40.5641 77.175 43.4941 76.9149 46.3441 76.3849C65.2041 72.8749 78.1541 55.6251 77.0841 35.5851V35.5949ZM61.4441 57.3053C61.2241 57.5753 60.8841 57.7549 60.1641 58.3249C60.6541 49.4649 57.6641 42.7449 50.8541 37.9049C47.4541 35.4849 43.6241 34.1752 39.4241 34.1652C33.7841 34.1252 28.1641 34.1549 22.5341 34.1149C14.5641 34.0749 9.45411 28.995 9.36411 21.025C9.32411 17.915 9.41411 14.8152 9.32411 11.7052C9.28411 10.0252 9.79411 9.26505 11.6241 9.27505C21.4341 9.34505 31.2541 8.85524 41.0241 9.47524C52.6541 10.2152 61.1141 16.465 65.6541 27.175C70.1941 37.885 68.5041 48.0453 61.4441 57.3053Z" fill="url(#paint0_linear_157_935)"/>
<defs>
<linearGradient id="paint0_linear_157_935" x1="6.91411" y1="-3.11475" x2="52.264" y2="75.4252" gradientUnits="userSpaceOnUse">
<stop stop-color="#07AD8F"/>
<stop offset="0.11" stop-color="#06A489"/>
<stop offset="0.29" stop-color="#068E78"/>
<stop offset="0.51" stop-color="#056A5E"/>
<stop offset="0.75" stop-color="#033839"/>
<stop offset="1" stop-color="#020010"/>
</linearGradient>
</defs>
</svg>
