<svg width="36" height="36" viewBox="0 0 36 36" fill="none" xmlns="http://www.w3.org/2000/svg">
<path d="M22.3396 6.41992H18.9996C16.3596 6.41992 14.2296 8.56996 14.2296 11.21V15.52H11.3696C11.1096 15.52 10.8896 15.74 10.8896 16V18.8799C10.8896 19.1399 11.0996 19.3599 11.3696 19.3599H14.2296V28.7598C15.0796 28.9298 15.9596 29.02 16.8596 29.02C17.2596 29.02 17.6597 28.9997 18.0497 28.9697V19.3599H21.7697C22.1597 19.3599 22.4797 19.0699 22.5297 18.6899L22.8197 16.3901C22.8797 15.9301 22.5197 15.5298 22.0597 15.5298H18.0497V12.1699C18.0497 11.1099 18.8997 10.25 19.9597 10.25H22.3496C22.6096 10.25 22.8297 10.03 22.8297 9.77002V6.89014C22.8297 6.63014 22.6196 6.40967 22.3496 6.40967L22.3396 6.41992Z" fill="#07B68F"/>
<path d="M31.3301 0H4.12C1.84 0 0 1.85012 0 4.12012V31.3301C0 33.6101 1.85 35.4497 4.12 35.4497H31.3301C33.6101 35.4497 35.4501 33.6001 35.4501 31.3301V4.12012C35.4501 1.84012 33.6001 0 31.3301 0ZM35.2001 31.3301C35.2001 33.4601 33.4601 35.1997 31.3301 35.1997H4.12C1.99 35.1997 0.25 33.4601 0.25 31.3301V4.12012C0.25 1.99012 1.99 0.25 4.12 0.25H31.3301C33.4601 0.25 35.2001 1.99012 35.2001 4.12012V31.3301Z" fill="#07B68F"/>
<path d="M31.3304 1.39014H4.12036C2.62036 1.39014 1.40039 2.60986 1.40039 4.10986V31.3198C1.40039 32.8198 2.62036 34.04 4.12036 34.04H31.3304C32.8304 34.04 34.0504 32.8198 34.0504 31.3198V4.10986C34.0504 2.60986 32.8304 1.39014 31.3304 1.39014ZM33.8004 31.3301C33.8004 32.6901 32.6904 33.7998 31.3304 33.7998H4.12036C2.76036 33.7998 1.65039 32.6901 1.65039 31.3301V4.12012C1.65039 2.76012 2.76036 1.6499 4.12036 1.6499H31.3304C32.6904 1.6499 33.8004 2.76012 33.8004 4.12012V31.3301Z" fill="#07B68F"/>
</svg>
