<?xml version="1.0" encoding="UTF-8"?>
<svg id="Layer_2" data-name="Layer 2" xmlns="http://www.w3.org/2000/svg" xmlns:xlink="http://www.w3.org/1999/xlink" viewBox="0 0 100 100">
  <defs>
    <style>
      .cls-1 {
        fill: #020010;
      }

      .cls-2 {
        fill: url(#linear-gradient);
      }
    </style>
    <linearGradient id="linear-gradient" x1="6.73" y1="17.25" x2="72.08" y2="82.6" gradientUnits="userSpaceOnUse">
      <stop offset="0" stop-color="#07ad8f"/>
      <stop offset=".15" stop-color="#06917a"/>
      <stop offset=".74" stop-color="#03292e"/>
      <stop offset="1" stop-color="#020010"/>
    </linearGradient>
  </defs>
  <g id="Layer_1-2" data-name="Layer 1">
    <rect class="cls-1" width="100" height="100"/>
    <path class="cls-2" d="M88.51,46.94c-.97-18.11-16.39-34.16-34.77-35.16-13.26-.74-26.58-.28-39.88-.42-2.05-.01-2.39,1.07-2.38,2.76.04,6.31-.15,12.62.06,18.92.43,12.57,9.58,21.39,22.11,21.51,5.44.06,10.88-.04,16.3.02,7.05.09,12.47,5.44,12.56,12.29.09,7-5.34,12.45-12.57,12.49-8.74.06-17.47.02-26.21.01-.85,0-1.69-.12-2.96-.21,0-4.03.04-7.71-.01-11.39-.07-6.9.83-5.7-5.81-5.97-2.63-.11-3.59.68-3.51,3.39.16,6.59.17,13.21-.01,19.8-.07,2.76.74,3.7,3.59,3.66,11.36-.15,22.71-.01,34.07-.1,2.9-.02,5.83-.28,8.68-.81,18.86-3.51,31.81-20.76,30.74-40.8ZM72.87,68.65c-.22.27-.56.45-1.28,1.02.49-8.86-2.5-15.58-9.31-20.42-3.4-2.42-7.23-3.73-11.43-3.74-5.64-.04-11.26-.01-16.89-.05-7.97-.04-13.08-5.12-13.17-13.09-.04-3.11.05-6.21-.04-9.32-.04-1.68.47-2.44,2.3-2.43,9.81.07,19.63-.42,29.4.2,11.63.74,20.09,6.99,24.63,17.7,4.54,10.71,2.85,20.87-4.21,30.13Z"/>
  </g>
</svg>