<svg width="220" height="91" viewBox="0 0 220 91" fill="none" xmlns="http://www.w3.org/2000/svg">
<path d="M67.9752 22.0225C68.1952 24.4975 68.4702 25.9825 69.2402 27H66.6277C66.1052 25.79 65.8577 24.58 65.6102 22.2425C65.3902 20.29 64.6477 18.9975 62.7777 18.86C62.3377 18.8325 61.8702 18.8325 61.4302 18.8325H57.8552V27H55.4902V8.025H61.7052C62.6677 8.025 63.3277 8.025 64.1802 8.135C66.9302 8.4925 68.9102 10.005 68.9102 13.195C68.9102 15.6975 67.2877 17.1275 65.5277 17.6775C67.0677 18.3925 67.8102 20.125 67.9752 22.0225ZM57.8552 16.9075H61.4852C62.3377 16.9075 62.8052 16.9075 63.3277 16.8525C65.0877 16.6875 66.3802 15.56 66.3802 13.415C66.3802 11.2975 65.3627 10.335 63.6027 10.06C63.0802 9.9775 62.5577 9.95 61.7052 9.95H57.8552V16.9075ZM80.1616 27L79.9141 24.91L79.1166 26.4775C78.1266 27.165 76.8616 27.385 75.4591 27.385C72.8191 27.385 70.7566 25.9275 70.7566 23.2325C70.7566 19.9325 73.2316 18.2275 78.9516 18.2275H79.8866V17.8425C79.8866 17.21 79.8866 16.6325 79.8316 16.0825C79.7216 14.735 78.9516 13.855 76.9991 13.855C75.0191 13.855 74.0291 14.9275 73.8641 16.935H71.3891C71.6091 13.8275 73.7816 12.04 76.9991 12.04C80.4641 12.04 81.9216 13.4975 82.1691 15.89C82.2241 16.4675 82.2516 17.1825 82.2516 17.815V23.2875C82.2516 24.3875 82.3066 25.3775 82.5266 27H80.1616ZM76.2566 25.57C78.4566 25.57 79.8866 24.1125 79.8866 21.4725V19.9875C75.8716 19.685 73.3416 20.5375 73.3416 23.04C73.3416 24.8 74.4691 25.57 76.2566 25.57ZM89.2435 14.35V22.7375C89.2435 23.2325 89.2435 23.48 89.271 23.865C89.381 25.2675 89.9585 25.57 91.801 25.35V27.0825C91.1135 27.1925 90.4535 27.22 89.7935 27.22C87.9785 27.22 87.0435 26.4775 86.906 24.6625C86.8785 24.2775 86.8785 23.6725 86.8785 22.8475V14.35H84.926V12.535H86.8785V9.1525H89.2435V12.535H91.966V14.35H89.2435ZM106.645 19.3C106.645 19.52 106.645 19.905 106.59 20.4275H96.03C96.25 24.2775 98.065 25.57 100.21 25.57C102.107 25.57 103.647 24.3875 103.977 22.2975H106.452C105.875 25.8175 103.097 27.385 100.1 27.385C96.305 27.385 93.4725 24.91 93.4725 19.7675C93.4725 15.0375 96.415 12.04 100.402 12.04C104.417 12.04 106.645 15.0375 106.645 19.3ZM100.347 13.855C98.0375 13.855 96.3325 15.505 96.0575 18.6125H104.252C104.032 15.5875 102.74 13.855 100.347 13.855ZM122.508 6.7875V27H120.143V24.6625L119.043 26.23C118.218 26.9175 116.678 27.385 115.193 27.385C110.93 27.385 108.565 24.195 108.565 19.9325C108.565 14.5425 111.92 12.04 115.688 12.04C116.898 12.04 118.438 12.3975 119.18 13.0025L120.143 14.4325V6.7875H122.508ZM115.55 25.57C117.97 25.57 120.143 24.03 120.143 19.85V19.0525C120.143 15.285 117.778 13.855 115.688 13.855C113.13 13.855 111.15 15.835 111.15 19.6575C111.15 22.9575 112.635 25.57 115.55 25.57ZM138.652 12.04C143.602 12.04 145.884 15.5875 145.884 19.7125C145.884 23.81 143.602 27.385 138.652 27.385C133.702 27.385 131.419 23.81 131.419 19.7125C131.419 15.5875 133.702 12.04 138.652 12.04ZM138.652 25.57C141.594 25.57 143.299 23.1225 143.299 19.7125C143.299 16.275 141.594 13.855 138.652 13.855C135.709 13.855 134.004 16.275 134.004 19.7125C134.004 23.1225 135.709 25.57 138.652 25.57ZM161.008 16.3025C161.063 17.045 161.063 17.6225 161.063 18.805V27H158.698V18.97C158.698 18.2275 158.698 17.6225 158.643 16.88C158.505 15.175 157.57 13.91 155.315 13.91C153.033 13.91 151.108 15.615 151.108 20.5925V27H148.743V12.425H151.108V14.9275L152.015 13.25C153.253 12.2875 154.325 12.04 155.81 12.04C159 12.04 160.788 13.745 161.008 16.3025Z" fill="white"/>
<path d="M93.8602 56.6602C93.8602 67.0502 85.7401 74.7002 75.7601 74.7002C65.7801 74.7002 57.6602 67.0502 57.6602 56.6602C57.6602 46.2702 65.7801 38.6201 75.7601 38.6201C85.7401 38.6201 93.8602 46.2002 93.8602 56.6602ZM85.9402 56.6602C85.9402 50.1702 81.2301 45.73 75.7701 45.73C70.3101 45.73 65.6002 50.1702 65.6002 56.6602C65.6002 63.1502 70.3101 67.5901 75.7701 67.5901C81.2301 67.5901 85.9402 63.0802 85.9402 56.6602Z" fill="white"/>
<path d="M132.9 56.6602C132.9 67.0502 124.78 74.7002 114.8 74.7002C104.82 74.7002 96.7002 67.0502 96.7002 56.6602C96.7002 46.2702 104.82 38.6201 114.8 38.6201C124.78 38.6201 132.9 46.2002 132.9 56.6602ZM124.97 56.6602C124.97 50.1702 120.26 45.73 114.8 45.73C109.34 45.73 104.63 50.1702 104.63 56.6602C104.63 63.1502 109.34 67.5901 114.8 67.5901C120.26 67.5901 124.97 63.0802 124.97 56.6602Z" fill="white"/>
<path d="M170.31 39.7102V72.1001C170.31 85.4201 162.45 90.8601 153.17 90.8601C144.43 90.8601 139.16 85.01 137.18 80.23L144.08 77.3601C145.31 80.3001 148.32 83.76 153.16 83.76C159.11 83.76 162.79 80.0902 162.79 73.1902V70.6001H162.51C160.74 72.7901 157.32 74.7002 153.01 74.7002C143.99 74.7002 135.73 66.84 135.73 56.73C135.73 46.62 143.99 38.6301 153.01 38.6301C157.31 38.6301 160.73 40.5402 162.51 42.6602H162.79V39.72H170.31V39.7102ZM163.35 56.73C163.35 50.38 159.11 45.73 153.72 45.73C148.33 45.73 143.68 50.37 143.68 56.73C143.68 63.09 148.26 67.6001 153.72 67.6001C159.18 67.6001 163.35 63.02 163.35 56.73Z" fill="white"/>
<path d="M182.71 20.73V73.5901H174.98V20.73H182.71Z" fill="white"/>
<path d="M212.82 62.6001L218.97 66.7002C216.99 69.6402 212.2 74.6902 203.94 74.6902C193.69 74.6902 186.04 66.7701 186.04 56.6501C186.04 45.9201 193.76 38.6101 203.05 38.6101C212.34 38.6101 216.99 46.0601 218.49 50.0901L219.31 52.1401L195.2 62.1301C197.05 65.7501 199.92 67.6001 203.94 67.6001C207.96 67.6001 210.77 65.6201 212.82 62.6101V62.6001ZM193.89 56.1101L210.01 49.4202C209.12 47.1702 206.46 45.6001 203.32 45.6001C199.29 45.6001 193.69 49.1501 193.89 56.1201V56.1101Z" fill="white"/>
<path d="M28.42 51.97V44.3201H54.21C54.46 45.6501 54.59 47.2302 54.59 48.9402C54.59 54.6802 53.02 61.7801 47.96 66.8401C43.04 71.9601 36.75 74.7002 28.42 74.7002C12.98 74.7002 0 62.1302 0 46.6902C0 31.2502 12.98 18.6802 28.42 18.6802C36.96 18.6802 43.04 22.0301 47.61 26.4001L42.21 31.8C38.93 28.73 34.49 26.3301 28.41 26.3301C17.14 26.3301 8.31995 35.4102 8.31995 46.6902C8.31995 57.9702 17.14 67.05 28.41 67.05C35.72 67.05 39.89 64.1102 42.55 61.4502C44.71 59.2902 46.1399 56.2 46.7 51.97H28.41H28.42Z" fill="white"/>
</svg>
