<svg width="266" height="220" viewBox="0 0 266 220" fill="none" xmlns="http://www.w3.org/2000/svg">
<path d="M255.115 49.8854C243.525 31.0154 223.585 18.1653 201.775 15.5253C175.345 12.3253 150.515 23.9153 132.495 47.5153C121.655 20.4153 101.875 3.43525 77.2151 0.455251C57.6351 -1.91475 37.8852 5.04534 23.0352 19.5453C7.65516 34.5753 -0.514846 56.0155 0.0251539 79.9155C1.90515 162.725 105.635 216.795 110.055 219.045L111.455 219.765L112.985 219.435C118.165 218.345 240.125 191.635 262.615 111.735C268.785 89.7753 266.135 67.8154 255.125 49.8754L255.115 49.8854Z" fill="#EA0000"/>
<path d="M131.095 57.8454C104.735 -27.9346 2.87504 -1.02468 4.71504 79.7253C6.54504 160.465 112.135 214.545 112.135 214.545C112.135 214.545 236.185 188.255 258.105 110.385C280.035 32.5155 179.965 -18.8246 131.095 57.8554V57.8454Z" fill="url(#paint0_linear_157_285)"/>
<path style="mix-blend-mode:multiply" opacity="0.3" d="M250.745 52.0654C230.445 133.975 156.105 190.115 75.465 180.355C69.935 179.685 64.5151 178.715 59.2051 177.485C85.8051 201.055 112.145 214.545 112.145 214.545C112.145 214.545 236.195 188.255 258.115 110.385C264.445 87.9155 260.585 67.6854 250.745 52.0754V52.0654Z" fill="url(#paint1_linear_157_285)"/>
<g style="mix-blend-mode:screen" opacity="0.3">
<path d="M30.2556 37.8255C30.4456 38.5155 30.6656 39.1854 31.0556 39.7454C34.8456 45.2854 46.9756 42.6756 58.1456 33.9056C69.3256 25.1356 75.3156 13.5354 71.5156 7.9954C69.2656 4.7054 64.0556 4.34553 57.8656 6.38553C57.9456 6.32553 58.0156 6.26536 58.0856 6.20536C29.2456 11.9854 3.7956 38.9854 4.7156 79.7154C5.4456 111.885 22.6456 139.795 43.0756 161.755C29.1456 142.895 18.6656 120.815 17.3956 96.2754C16.2156 73.4754 21.1456 53.9755 30.2556 37.8155V37.8255Z" fill="white"/>
</g>
<defs>
<linearGradient id="paint0_linear_157_285" x1="141.722" y1="8.57241" x2="111.036" y2="262.152" gradientUnits="userSpaceOnUse">
<stop stop-color="#FF2200"/>
<stop offset="1" stop-color="#8C0000"/>
</linearGradient>
<linearGradient id="paint1_linear_157_285" x1="171.742" y1="38.3546" x2="144.886" y2="260.276" gradientUnits="userSpaceOnUse">
<stop stop-color="#EA0000"/>
<stop offset="1" stop-color="#8C0000"/>
</linearGradient>
</defs>
</svg>
