<svg width="251" height="121" viewBox="0 0 251 121" fill="none" xmlns="http://www.w3.org/2000/svg">
<path d="M46.94 94.19C46.14 94.19 45.11 93.92 43.84 93.37C43.29 93.1 42.79 92.8 42.34 92.47C41.89 92.14 41.59 91.86 41.44 91.63C41.12 90.85 40.86 88.01 40.65 83.11C40.44 78.21 40.32 72.46 40.3 65.86C40.3 62.8 40.27 60.25 40.21 58.19C40.15 56.14 40.06 55.11 39.96 55.11C39.73 55.11 38.41 55.52 36.01 56.34C30.28 58.28 25.19 60.11 20.74 61.84L20.68 91.4C20.41 91.42 20.17 91.45 19.98 91.49C19.79 91.53 19.48 91.55 19.06 91.55C18.22 91.55 17.55 91.34 17.05 90.93C16.55 90.52 16.11 90.03 15.71 89.46C15.12 88.76 14.71 87.24 14.49 84.89C14.27 82.54 14.07 78.64 13.91 73.18L13.59 65.43L9.98999 66.95C7.68999 67.96 5.85 68.47 4.46 68.47C3.34 68.47 2.32 68.19 1.39 67.62C0.459999 67.05 0 66.51 0 66.01C0 65.65 0.169995 65.27 0.509995 64.87C1.03999 64.26 2.23 63.41 4.1 62.31C5.97 61.21 8.07 60.15 10.41 59.12L13.67 57.67C13.9 49.54 14.06 43.58 14.14 39.81C14.25 34.79 14.33 27.8 14.39 18.82C14.47 7.35998 14.53 1.42999 14.55 1.04999C14.55 0.969988 14.69 0.899996 14.96 0.839996C15.23 0.789996 15.55 0.759979 15.91 0.759979C16.82 0.759979 17.62 1.30999 18.31 2.39999C20.52 5.91999 21.63 16.16 21.63 33.13C21.63 38.19 21.5 44.16 21.25 51.05C21.19 52.67 21.16 53.7 21.16 54.12V54.28C21.33 54.28 23.5 53.63 27.67 52.32C29.31 51.79 30.93 51.29 32.52 50.8C34.11 50.31 36.68 49.57 40.22 48.56L40.35 47.23C40.46 46.22 40.54 45.16 40.6 44.05C40.66 42.94 40.69 41.37 40.69 39.32C40.69 36.22 40.86 31.73 41.2 25.84C41.54 19.95 41.91 14.53 42.32 9.59C42.73 4.65 43.07 1.72998 43.35 0.849976C43.6 0.279976 44.18 0 45.09 0C45.87 0 46.69 0.209995 47.54 0.619995C48.39 1.03 49.03 1.6 49.45 2.31C49.64 2.35 49.73 4.63998 49.73 9.16998C49.73 11.78 49.7 15.46 49.64 20.2C49.58 24.94 49.5 29.41 49.42 33.59C49.34 37.77 49.26 40.56 49.2 41.95L48.98 46.47L49.26 46.37C49.6 46.27 49.98 46.17 50.4 46.09C50.82 46.01 51.4 45.93 52.12 45.85C52.85 45.78 53.85 45.71 55.14 45.64C58.05 45.64 60.22 46.35 61.65 47.76C61.99 48.12 62.16 48.43 62.16 48.71C62.16 49.32 61.37 49.73 59.79 49.94C58.76 50.09 57.45 50.34 55.87 50.68C54.29 51.02 52.84 51.38 51.52 51.74C50.2 52.1 49.44 52.35 49.23 52.5C49 53.09 48.81 60.08 48.66 73.46L48.47 94.04L46.95 94.17L46.94 94.19Z" fill="white"/>
<path d="M67.9302 81.8002H67.7402C67.3002 81.8002 66.6602 81.6702 65.8302 81.4002C65.0002 81.1302 64.2202 80.6402 63.5102 79.9002C63.2102 79.5802 62.9802 79.3002 62.8002 79.0502C62.6202 78.8002 62.4902 78.4602 62.4002 78.0402C62.1902 77.1502 62.0002 75.0802 61.8302 71.8102C61.7702 70.6702 61.7402 69.2202 61.7402 67.4502C61.7402 62.5002 62.0102 57.6702 62.5602 52.9702C63.1102 48.2702 63.7902 45.3202 64.6102 44.1202C64.8802 43.8002 65.2402 43.6402 65.6802 43.6102H65.9002C66.6802 43.6102 67.4702 43.9202 68.2702 44.5302C69.2002 45.2302 69.6702 46.1102 69.6902 47.1902C69.6902 48.4802 69.5502 50.8002 69.2802 54.1802C68.6502 60.9702 68.3302 66.5402 68.3302 70.9002C68.3302 72.7502 68.3802 74.4502 68.4902 75.9902C68.6202 78.0802 68.6802 79.6002 68.6802 80.5702C68.6802 80.9902 68.6702 81.2502 68.6502 81.3602C68.5402 81.5902 68.3002 81.7402 67.9202 81.8002H67.9302ZM68.1202 40.8902C67.5702 40.8902 67.0602 40.7902 66.5702 40.5702C65.5602 40.0202 64.9802 39.0902 64.8302 37.7902L64.8002 37.3502C64.8002 37.0302 64.8502 36.7202 64.9602 36.4002C65.1102 35.8102 65.3302 35.4002 65.6202 35.1702C66.0002 34.8802 66.6102 34.7202 67.4502 34.7002C68.4002 34.7002 69.2402 35.0502 69.9802 35.7602C70.7202 36.4702 71.1102 37.3202 71.1502 38.3402C71.1502 38.9102 70.9502 39.4602 70.5702 40.0002C70.1802 40.5402 69.3602 40.8402 68.1202 40.9002V40.8902Z" fill="white"/>
<path d="M80.2599 85.34C79.7999 85.34 79.3999 85.27 79.0699 85.13C78.7399 84.99 78.3699 84.81 77.9499 84.58L77.2899 84.23L77.8899 83.25C78.4199 82.47 78.8199 81.82 79.1099 81.31C79.3899 80.79 79.5399 80.31 79.5399 79.87C79.5399 79.49 79.3499 79.3 78.9699 79.3C78.5899 79.3 78.1099 79.15 77.5299 78.86C76.9499 78.57 76.4199 78.23 75.9299 77.85C75.0899 77.2 74.6699 76.4 74.6699 75.45C74.6699 74.88 74.9799 74.27 75.5899 73.62C75.9699 73.16 76.3199 72.85 76.6299 72.7C76.9499 72.55 77.5499 72.48 78.4299 72.48C79.4799 72.48 80.3799 72.6 81.1299 72.83C81.8799 73.06 82.7499 73.61 83.7399 74.47C84.1599 74.83 84.4599 75.13 84.6299 75.37C84.7999 75.61 84.8799 75.98 84.8799 76.46L84.7899 77.88C84.5199 80.54 83.6199 82.75 82.0999 84.52C81.5899 85.07 80.9799 85.34 80.2699 85.34H80.2599Z" fill="white"/>
<path d="M114.941 120.27C114.271 120.27 113.581 120.12 112.891 119.83C111.961 119.51 111.261 118.81 110.771 117.73C110.281 116.64 109.971 114.6 109.821 111.58C109.671 108.57 109.601 103.3 109.601 95.7701C109.601 80.6001 109.861 70.6001 110.371 65.7701C110.891 60.9401 111.971 51.5901 113.611 37.7001C112.371 37.8501 109.351 38.3701 104.571 39.2801C102.021 39.8501 100.331 40.1301 99.5105 40.1301C99.2205 40.1301 98.9705 40.0901 98.7805 40.0201C98.5905 39.9501 98.3905 39.8501 98.1805 39.7201C97.5905 39.3401 97.0905 38.8701 96.6805 38.3101C96.2705 37.7501 96.0605 37.2501 96.0605 36.8101L96.1205 36.4901C96.8205 35.5401 100.981 34.2901 108.611 32.7301L114.551 31.5301C114.801 29.6501 115.091 27.6901 115.401 25.6501C115.721 23.6101 116.021 21.8201 116.301 20.3101C116.581 18.7901 116.811 17.8601 116.981 17.5001C117.251 17.0801 117.701 16.8701 118.311 16.8701C118.981 16.8701 119.731 17.1001 120.541 17.5501C121.351 18.0001 121.761 18.4501 121.761 18.8901L121.731 19.2401C121.601 19.8101 121.451 20.8601 121.261 22.4001C121.071 23.9401 120.891 25.5001 120.721 27.0801C120.551 28.6601 120.471 29.6901 120.471 30.1801C120.491 30.2401 120.511 30.3001 120.521 30.3501C120.531 30.4001 120.641 30.4301 120.851 30.4301C121.401 30.4301 123.101 30.2001 125.971 29.7301V29.6401C126.711 24.3301 127.291 20.9901 127.711 19.6201C127.921 18.9701 128.161 18.5401 128.441 18.3401C128.711 18.1401 129.111 18.0301 129.641 18.0101C130.401 18.0101 131.131 18.2301 131.821 18.6701C132.521 19.1101 132.861 19.5301 132.861 19.9301C132.861 20.1201 132.751 20.2901 132.541 20.4401C132.431 20.4801 132.331 20.6601 132.221 20.9801C132.111 21.3001 132.001 21.8601 131.891 22.6701C131.771 23.4801 131.631 24.6701 131.461 26.2301L131.141 29.3001C134.301 29.0701 137.361 28.8701 140.311 28.7001C144.971 28.4501 151.371 28.2601 159.511 28.1301C167.651 28.0001 179.591 27.8901 195.311 27.7801C199.021 27.7801 201.331 27.8501 202.231 28.0001C203.371 28.1901 204.471 28.9201 205.551 30.1801C206.181 30.9401 206.501 31.5801 206.501 32.1101C206.501 32.3201 206.471 32.4901 206.401 32.6201C206.341 32.7501 206.171 32.8401 205.891 32.8901C205.621 32.9401 205.161 32.9701 204.531 32.9701L200.231 32.8701C175.381 33.1401 155.321 33.7501 140.041 34.6701L130.521 35.3001C130.331 37.3901 130.131 39.7601 129.921 42.4101C129.101 52.1701 128.691 58.0801 128.691 60.1401L128.721 60.2001C128.871 60.2001 129.541 59.2401 130.741 57.3201C133.311 53.1101 135.711 50.0701 137.951 48.2201C138.521 47.7401 139.031 47.4201 139.501 47.2701C139.961 47.1201 140.661 47.0501 141.591 47.0501C142.451 47.0501 143.151 47.1201 143.681 47.2701C144.211 47.4201 144.781 47.7001 145.391 48.1201C146.761 48.9801 147.661 50.1601 148.091 51.6601C148.521 53.1601 148.751 55.4401 148.771 58.5201C148.771 59.8901 148.671 61.3901 148.471 63.0201C148.271 64.6501 147.901 67.0601 147.351 70.2401C146.781 73.8401 146.311 76.8101 145.931 79.1401C145.551 81.4701 145.261 83.7801 145.061 86.0601C144.861 88.3401 144.761 90.0501 144.761 91.1701C144.761 92.2901 144.841 93.3101 145.011 94.3001L145.581 98.2501C145.581 98.8401 145.231 99.1401 144.541 99.1401C143.951 99.1401 143.161 98.9201 142.171 98.4801C141.071 98.0601 140.331 97.3301 139.931 96.3001C139.261 94.6601 138.921 91.3001 138.921 86.2501C138.921 84.2501 139.131 81.3401 139.541 77.5201C139.951 73.7101 140.451 70.0101 141.041 66.4201C142.141 60.3301 142.681 56.1601 142.681 53.9001C142.681 52.4001 142.491 51.6601 142.111 51.6601C141.861 51.6601 141.341 52.1601 140.561 53.1501C138.221 55.6801 135.431 60.1701 132.181 66.6201C130.071 70.7501 128.811 73.0701 128.391 73.5801C127.991 73.9801 127.471 74.1801 126.841 74.1801C126.101 74.1801 125.351 73.9501 124.601 73.4801C123.841 73.0201 123.361 72.4301 123.151 71.7101C123.071 71.2301 123.021 70.1101 123.021 68.3601C123.021 65.5801 123.111 61.9801 123.291 57.5801C123.471 53.1801 123.691 49.6001 123.941 46.8601C124.321 42.9801 124.731 39.2701 125.171 35.7301C122.181 36.2101 120.391 36.6501 119.801 37.0301C119.361 37.7001 118.841 41.3801 118.241 48.0501C117.641 54.7201 117.071 62.8001 116.551 72.2801C115.601 80.8601 115.131 91.0101 115.131 102.72C115.131 109.34 115.381 114.88 115.891 119.35C115.891 119.73 115.831 119.97 115.701 120.08C115.571 120.18 115.321 120.25 114.941 120.27Z" fill="white"/>
<path d="M160.18 81.8002H159.99C159.55 81.8002 158.91 81.6702 158.08 81.4002C157.25 81.1302 156.47 80.6402 155.76 79.9002C155.46 79.5802 155.23 79.3002 155.05 79.0502C154.87 78.8002 154.74 78.4602 154.65 78.0402C154.44 77.1502 154.25 75.0802 154.08 71.8102C154.02 70.6702 153.99 69.2202 153.99 67.4502C153.99 62.5002 154.26 57.6702 154.81 52.9702C155.36 48.2702 156.04 45.3202 156.86 44.1202C157.13 43.8002 157.49 43.6402 157.93 43.6102H158.15C158.93 43.6102 159.72 43.9202 160.52 44.5302C161.45 45.2302 161.92 46.1102 161.94 47.1902C161.94 48.4802 161.8 50.8002 161.53 54.1802C160.9 60.9702 160.58 66.5402 160.58 70.9002C160.58 72.7502 160.63 74.4502 160.74 75.9902C160.87 78.0802 160.93 79.6002 160.93 80.5702C160.93 80.9902 160.92 81.2502 160.9 81.3602C160.79 81.5902 160.55 81.7402 160.17 81.8002H160.18ZM160.37 40.8902C159.82 40.8902 159.31 40.7902 158.82 40.5702C157.81 40.0202 157.23 39.0902 157.08 37.7902L157.05 37.3502C157.05 37.0302 157.1 36.7202 157.21 36.4002C157.36 35.8102 157.58 35.4002 157.87 35.1702C158.25 34.8802 158.86 34.7202 159.7 34.7002C160.65 34.7002 161.49 35.0502 162.23 35.7602C162.97 36.4702 163.36 37.3202 163.4 38.3402C163.4 38.9102 163.2 39.4602 162.82 40.0002C162.43 40.5402 161.61 40.8402 160.37 40.9002V40.8902Z" fill="white"/>
<path d="M166.021 103.68H165.701C165.191 103.68 164.731 103.62 164.311 103.49C162.521 102.96 161.091 102.14 160.011 101.02C158.871 99.8402 158.301 98.3302 158.301 96.5002C158.301 93.6102 159.781 89.8502 162.731 85.2102C165.681 80.5702 170.201 74.8702 176.291 68.1102L180.301 63.6802C179.691 63.2202 179.131 62.8502 178.621 62.5702C177.841 62.1502 175.791 61.4702 172.461 60.5502C170.021 59.8502 168.111 58.9302 166.751 57.7802C165.391 56.6302 164.691 55.5802 164.651 54.6302C164.651 54.2502 164.731 53.8002 164.901 53.2702C165.261 52.0502 166.011 50.5702 167.161 48.8302C168.311 47.0902 169.551 45.4802 170.891 44.0102C172.231 42.5402 173.351 41.5802 174.261 41.1302C174.871 40.8802 175.491 40.7402 176.131 40.7202C177.251 40.7202 178.281 40.9702 179.241 41.4602C180.201 41.9602 181.021 42.6602 181.691 43.5602C181.981 43.9402 182.201 44.3102 182.341 44.6702C182.481 45.0302 182.551 45.5802 182.551 46.3102C182.551 48.5002 182.081 50.8402 181.131 53.3302C180.271 55.6702 179.791 57.1702 179.691 57.8302C179.601 58.4902 179.251 58.8402 178.661 58.8602C178.051 58.8602 177.311 58.6402 176.431 58.2102C175.561 57.7802 174.781 57.2902 174.111 56.7402C173.441 56.1902 173.081 55.7102 173.031 55.2902C173.071 54.9102 173.691 53.2802 174.901 50.3902C176.021 47.7302 176.581 46.2902 176.581 46.0602L176.521 46.0002C176.221 46.0402 175.761 46.5102 175.111 47.3902C174.471 48.2802 173.791 49.3302 173.091 50.5502C172.381 51.7702 171.771 52.9402 171.261 54.0602C170.741 55.1802 170.491 55.9802 170.491 56.4602C170.491 56.8402 171.191 57.1802 172.581 57.4902C173.971 57.8002 175.401 58.2402 176.881 58.8302C178.361 59.4202 179.611 60.0302 180.641 60.6602L182.441 61.7702L183.581 62.4002C184.341 62.8202 185.211 63.5302 186.201 64.5202C188.641 67.0102 189.981 70.4302 190.211 74.7902C190.231 75.3002 190.261 75.6502 190.301 75.8602V76.8102C190.301 78.6602 189.961 80.6502 189.291 82.7702C188.621 84.8902 187.741 86.4802 186.671 87.5602C183.911 91.9602 180.551 95.6902 176.591 98.7502C172.631 101.81 169.111 103.44 166.031 103.65L166.021 103.68ZM164.481 99.6302C164.961 99.6302 165.861 99.2802 167.171 98.5902C170.231 96.9902 173.461 94.3302 176.881 90.6202C179.561 87.6702 181.521 84.8702 182.761 82.2102C184.001 79.5502 184.621 76.8502 184.621 74.0902C184.601 72.6802 184.541 71.5802 184.431 70.8002C184.371 70.1902 184.191 69.8802 183.891 69.8802C183.471 69.9002 182.311 71.0402 180.411 73.2902C178.051 76.0502 176.041 78.4902 174.371 80.5902C172.701 82.7002 171.121 84.8502 169.631 87.0402C167.991 89.4202 166.621 91.7802 165.521 94.1102C164.421 96.4402 163.881 98.0602 163.881 98.9602C163.881 99.3802 164.061 99.6002 164.421 99.6202H164.481V99.6302Z" fill="white"/>
<path d="M220.751 81.8002H220.561C220.121 81.8002 219.481 81.6702 218.651 81.4002C217.821 81.1302 217.041 80.6402 216.331 79.9002C216.031 79.5802 215.801 79.3002 215.621 79.0502C215.441 78.8002 215.311 78.4602 215.221 78.0402C215.011 77.1502 214.821 75.0802 214.651 71.8102C214.591 70.6702 214.561 69.2202 214.561 67.4502C214.561 62.5002 214.831 57.6702 215.381 52.9702C215.931 48.2702 216.611 45.3202 217.431 44.1202C217.701 43.8002 218.061 43.6402 218.501 43.6102H218.721C219.501 43.6102 220.291 43.9202 221.091 44.5302C222.021 45.2302 222.491 46.1102 222.511 47.1902C222.511 48.4802 222.371 50.8002 222.101 54.1802C221.471 60.9702 221.151 66.5402 221.151 70.9002C221.151 72.7502 221.201 74.4502 221.311 75.9902C221.441 78.0802 221.501 79.6002 221.501 80.5702C221.501 80.9902 221.491 81.2502 221.471 81.3602C221.361 81.5902 221.121 81.7402 220.741 81.8002H220.751ZM220.941 40.8902C220.391 40.8902 219.881 40.7902 219.391 40.5702C218.381 40.0202 217.801 39.0902 217.651 37.7902L217.621 37.3502C217.621 37.0302 217.671 36.7202 217.781 36.4002C217.931 35.8102 218.151 35.4002 218.441 35.1702C218.821 34.8802 219.431 34.7202 220.271 34.7002C221.221 34.7002 222.061 35.0502 222.801 35.7602C223.541 36.4702 223.931 37.3202 223.971 38.3402C223.971 38.9102 223.771 39.4602 223.391 40.0002C223.001 40.5402 222.181 40.8402 220.941 40.9002V40.8902Z" fill="white"/>
<path d="M226.589 103.68H226.269C225.759 103.68 225.299 103.62 224.879 103.49C223.089 102.96 221.659 102.14 220.579 101.02C219.439 99.8402 218.869 98.3302 218.869 96.5002C218.869 93.6102 220.349 89.8502 223.299 85.2102C226.249 80.5702 230.769 74.8702 236.859 68.1102L240.869 63.6802C240.259 63.2202 239.699 62.8502 239.189 62.5702C238.409 62.1502 236.359 61.4702 233.029 60.5502C230.589 59.8502 228.679 58.9302 227.319 57.7802C225.959 56.6302 225.259 55.5802 225.219 54.6302C225.219 54.2502 225.299 53.8002 225.469 53.2702C225.829 52.0502 226.579 50.5702 227.729 48.8302C228.879 47.0902 230.119 45.4802 231.459 44.0102C232.799 42.5402 233.919 41.5802 234.829 41.1302C235.439 40.8802 236.059 40.7402 236.699 40.7202C237.819 40.7202 238.849 40.9702 239.809 41.4602C240.769 41.9602 241.589 42.6602 242.259 43.5602C242.549 43.9402 242.769 44.3102 242.909 44.6702C243.049 45.0302 243.119 45.5802 243.119 46.3102C243.119 48.5002 242.649 50.8402 241.699 53.3302C240.839 55.6702 240.359 57.1702 240.259 57.8302C240.169 58.4902 239.819 58.8402 239.229 58.8602C238.619 58.8602 237.879 58.6402 236.999 58.2102C236.129 57.7802 235.349 57.2902 234.679 56.7402C234.009 56.1902 233.649 55.7102 233.599 55.2902C233.639 54.9102 234.259 53.2802 235.469 50.3902C236.589 47.7302 237.149 46.2902 237.149 46.0602L237.089 46.0002C236.789 46.0402 236.329 46.5102 235.679 47.3902C235.039 48.2802 234.359 49.3302 233.659 50.5502C232.949 51.7702 232.339 52.9402 231.829 54.0602C231.309 55.1802 231.059 55.9802 231.059 56.4602C231.059 56.8402 231.759 57.1802 233.149 57.4902C234.539 57.8002 235.969 58.2402 237.449 58.8302C238.929 59.4202 240.179 60.0302 241.209 60.6602L243.009 61.7702L244.149 62.4002C244.909 62.8202 245.779 63.5302 246.769 64.5202C249.209 67.0102 250.549 70.4302 250.779 74.7902C250.799 75.3002 250.829 75.6502 250.869 75.8602V76.8102C250.869 78.6602 250.529 80.6502 249.859 82.7702C249.189 84.8902 248.309 86.4802 247.239 87.5602C244.479 91.9602 241.119 95.6902 237.159 98.7502C233.199 101.81 229.679 103.44 226.599 103.65L226.589 103.68ZM225.049 99.6302C225.529 99.6302 226.429 99.2802 227.739 98.5902C230.799 96.9902 234.029 94.3302 237.449 90.6202C240.129 87.6702 242.089 84.8702 243.329 82.2102C244.569 79.5502 245.189 76.8502 245.189 74.0902C245.169 72.6802 245.109 71.5802 244.999 70.8002C244.939 70.1902 244.759 69.8802 244.459 69.8802C244.039 69.9002 242.879 71.0402 240.979 73.2902C238.619 76.0502 236.609 78.4902 234.939 80.5902C233.269 82.7002 231.689 84.8502 230.199 87.0402C228.559 89.4202 227.189 91.7802 226.089 94.1102C224.989 96.4402 224.449 98.0602 224.449 98.9602C224.449 99.3802 224.629 99.6002 224.989 99.6202H225.049V99.6302Z" fill="white"/>
</svg>
