<svg width="632" height="48" viewBox="0 0 632 48" fill="none" xmlns="http://www.w3.org/2000/svg">
<path d="M0.290009 21.1602C0.290009 15.2602 0.15 8.97008 0 2.83008H6.72L6.62001 17.5601H23.99C23.99 13.1001 23.94 7.58008 23.8 2.83008H30.42C30.28 7.00008 30.23 14.5902 30.23 21.1602C30.23 27.2102 30.28 35.2199 30.42 39.4399H23.8C23.94 34.6899 23.99 26.2399 23.99 21.8799H6.62001L6.72 39.4399H0C0.14 33.3499 0.290009 27.0602 0.290009 21.1602Z" fill="url(#paint0_linear_157_863)"/>
<path d="M34.6992 3.30029C34.6992 1.33029 35.6592 0.319824 38.7292 0.319824C41.7992 0.319824 42.8092 1.33029 42.8092 3.30029C42.8092 5.60029 41.8492 6.60986 38.7292 6.60986C35.6092 6.60986 34.6992 5.60029 34.6992 3.30029ZM35.6592 24.23C35.6592 19.14 35.6092 13.9602 35.4692 8.97021L38.7792 9.06982L42.0892 8.97021C41.9492 13.9602 41.8992 19.14 41.8992 24.23C41.8992 29.32 41.9492 34.3999 42.0892 39.4399H35.4692C35.6092 34.3999 35.6592 29.27 35.6592 24.23Z" fill="url(#paint1_linear_157_863)"/>
<path d="M47.1295 23.9399C47.1295 18.8099 47.1295 14.01 46.9895 9.02002H53.6595L52.9395 16.1699H53.3695C55.6695 10.5499 58.4095 8.3999 62.7295 8.3999C68.9695 8.3999 72.3295 12.4801 72.3795 21.6001L65.6595 22.4199C65.6095 15.8899 63.8795 14.1699 60.3295 14.1699C57.4995 14.1699 55.0495 15.6599 53.4195 20.3599C53.4195 29.6699 53.4695 34.42 53.6595 39.46H46.9395C47.1295 34.9 47.1295 29.24 47.1295 23.96V23.9399Z" fill="url(#paint2_linear_157_863)"/>
<path d="M74.6797 24.1299C74.6797 13.8599 80.0597 8.33984 89.0297 8.33984C97.9997 8.33984 102.99 13.5701 103.14 23.3101L81.1597 24.9399C81.3497 31.9899 83.9397 35.3999 89.3197 35.3999C91.8197 35.3999 93.7797 34.6803 95.5097 33.5303C96.0397 31.4203 96.3297 29.83 96.4697 27.96H102.9C101.84 36.21 96.7597 39.96 89.0297 39.96C80.0597 39.96 74.6797 34.4401 74.6797 24.1201V24.1299ZM88.7397 12.8999C86.1997 12.8999 84.0797 13.57 82.1697 15.25C81.6897 17.22 81.3997 19.0902 81.2597 21.2002L96.5697 20.0503C95.7097 15.2503 93.2097 12.8999 88.7497 12.8999H88.7397Z" fill="url(#paint3_linear_157_863)"/>
<path d="M118.55 23.9399C118.55 18.8099 118.55 14.01 118.41 9.02002H125.08L124.36 16.1699H124.79C127.14 10.5499 130.21 8.3999 134.96 8.3999C140.24 8.3999 143.26 11.1799 143.89 16.6099H144.37C146.72 10.5599 149.79 8.3999 154.54 8.3999C160.92 8.3999 163.99 12.48 163.99 19.73C163.99 27.5 164.04 33.3602 164.18 39.4502H157.51C157.65 33.3602 157.7 29.1799 157.7 20.8799C157.7 15.9399 155.68 13.7803 151.99 13.7803C148.49 13.7803 146.04 15.8901 144.41 20.3501C144.41 27.6001 144.46 33.4002 144.6 39.4502H137.93C138.07 33.3602 138.12 29.1799 138.12 20.8799C138.12 15.9399 136.1 13.7803 132.41 13.7803C128.91 13.7803 126.46 15.8901 124.83 20.3501C124.83 29.6601 124.88 34.4102 125.07 39.4502H118.35C118.54 34.8902 118.54 29.2302 118.54 23.9502L118.55 23.9399Z" fill="url(#paint4_linear_157_863)"/>
<path d="M167.65 24.1299C167.65 13.8599 173.03 8.33984 182 8.33984C190.97 8.33984 195.96 13.5701 196.11 23.3101L174.13 24.9399C174.32 31.9899 176.91 35.3999 182.29 35.3999C184.79 35.3999 186.75 34.6803 188.48 33.5303C189.01 31.4203 189.3 29.83 189.44 27.96H195.87C194.81 36.21 189.73 39.96 182 39.96C173.03 39.96 167.65 34.4401 167.65 24.1201V24.1299ZM181.71 12.8999C179.17 12.8999 177.05 13.57 175.14 15.25C174.66 17.22 174.37 19.0902 174.23 21.2002L189.54 20.0503C188.68 15.2503 186.18 12.8999 181.72 12.8999H181.71Z" fill="url(#paint5_linear_157_863)"/>
<path d="M199.18 2.81982H206.52C205.99 11.4098 205.7 22.1102 205.56 30.7002C204.74 30.5602 204.02 30.46 202.78 30.46C201.68 30.46 200.91 30.5602 200.09 30.7002C199.95 21.2902 199.66 12.2698 199.18 2.81982ZM199.18 37.0898C199.18 35.1698 200.14 34.21 202.78 34.21C205.42 34.21 206.48 35.1698 206.48 37.0898C206.48 39.0098 205.47 40.02 202.78 40.02C200.09 40.02 199.18 38.9598 199.18 37.0898Z" fill="url(#paint6_linear_157_863)"/>
<path d="M225.58 25.6699C225.58 21.7299 225.53 17.6599 225.44 13.6699L221.6 13.77V9.02002L226.16 9.06982C225.2 8.05982 224.67 6.81021 224.67 5.47021C224.67 2.78021 227.84 0 233.45 0C235.99 0 238.15 0.29002 240.26 0.77002L239.92 5.33008C237.57 4.90008 236.56 4.80029 234.64 4.80029C231.38 4.80029 230.51 5.62016 230.51 6.91016C230.51 7.77016 231.18 8.92982 231.81 9.06982L239.92 9.02002L239.68 13.77L231.95 13.6699C231.85 17.6099 231.85 21.7299 231.85 25.6699C231.85 29.6099 231.9 33.9199 232.04 39.4399H225.37C225.51 33.7299 225.56 29.5999 225.56 25.6699H225.58Z" fill="url(#paint7_linear_157_863)"/>
<path d="M239.301 24.1299C239.301 13.8599 244.681 8.33984 253.981 8.33984C263.281 8.33984 268.621 13.8599 268.621 24.1299C268.621 34.3999 263.251 39.9702 253.981 39.9702C244.711 39.9702 239.301 34.4499 239.301 24.1299ZM261.091 33.0601C261.811 30.2801 262.101 27.6899 262.101 24.1299C262.101 16.5499 259.461 12.8999 253.701 12.8999C251.061 12.8999 248.901 13.52 246.841 15.25C246.171 17.99 245.831 20.6299 245.831 24.1299C245.831 31.7599 248.471 35.4102 254.281 35.4102C256.871 35.4102 259.031 34.7901 261.091 33.0601Z" fill="url(#paint8_linear_157_863)"/>
<path d="M272.42 23.9399C272.42 18.8099 272.42 14.01 272.28 9.02002H278.95L278.23 16.1699H278.66C280.96 10.5499 283.7 8.3999 288.02 8.3999C294.26 8.3999 297.62 12.4801 297.67 21.6001L290.95 22.4199C290.9 15.8899 289.17 14.1699 285.62 14.1699C282.79 14.1699 280.34 15.6599 278.71 20.3599C278.71 29.6699 278.76 34.42 278.95 39.46H272.23C272.42 34.9 272.42 29.24 272.42 23.96V23.9399Z" fill="url(#paint9_linear_157_863)"/>
<path d="M313.74 46.0601L314.32 41.4102C316.43 41.5102 319.98 41.5503 321.47 41.5503C324.06 40.7803 325.12 37.2799 325.98 34.8799H325.55C325.02 36.3199 324.3 36.8003 322.72 36.8003C320.9 36.8003 320.42 35.8398 319.26 32.3398L311.1 9.02002H317.58L325.5 32.8198H326.32L333.57 9.02002H339.95L331.22 36.6602C328.77 44.3902 325.8 46.98 319.8 46.98C317.54 46.98 315.38 46.5998 313.75 46.0698L313.74 46.0601Z" fill="url(#paint10_linear_157_863)"/>
<path d="M340.381 24.1299C340.381 13.8599 345.761 8.33984 355.061 8.33984C364.361 8.33984 369.701 13.8599 369.701 24.1299C369.701 34.3999 364.331 39.9702 355.061 39.9702C345.791 39.9702 340.381 34.4499 340.381 24.1299ZM362.171 33.0601C362.891 30.2801 363.181 27.6899 363.181 24.1299C363.181 16.5499 360.541 12.8999 354.781 12.8999C352.141 12.8999 349.981 13.52 347.921 15.25C347.251 17.99 346.911 20.6299 346.911 24.1299C346.911 31.7599 349.551 35.4102 355.361 35.4102C357.951 35.4102 360.111 34.7901 362.171 33.0601Z" fill="url(#paint11_linear_157_863)"/>
<path d="M373.35 27.7803C373.35 20.9703 373.3 15.11 373.16 9.02002H379.83C379.69 15.11 379.64 19.2901 379.64 26.5801C379.64 32.1501 381.18 34.6899 385.54 34.6899C389.43 34.6899 392.31 32.6301 393.94 28.1201C393.94 18.8101 393.94 14.06 393.75 9.02002H400.47C400.28 13.63 400.23 19.24 400.23 24.52C400.23 29.8 400.28 34.4999 400.42 39.4399H393.75L394.47 32.29H393.99C391.64 37.86 388.09 40.0601 383.29 40.0601C376.33 40.0601 373.36 35.93 373.36 27.77L373.35 27.7803Z" fill="url(#paint12_linear_157_863)"/>
<path d="M405.51 23.9399C405.51 18.8099 405.51 14.01 405.37 9.02002H412.04L411.32 16.1699H411.75C414.05 10.5499 416.79 8.3999 421.11 8.3999C427.35 8.3999 430.71 12.4801 430.76 21.6001L424.04 22.4199C423.99 15.8899 422.26 14.1699 418.71 14.1699C415.88 14.1699 413.43 15.6599 411.8 20.3599C411.8 29.6699 411.85 34.42 412.04 39.46H405.32C405.51 34.9 405.51 29.24 405.51 23.96V23.9399Z" fill="url(#paint13_linear_157_863)"/>
<path d="M446.3 21.1602C446.3 14.8302 446.25 8.73008 446.16 2.83008H461.47C471.26 2.83008 475.87 6.66996 475.87 15.21C475.87 23.75 471.7 27.7402 460.66 27.7402C456.15 27.7402 454.33 27.0699 452.74 24.8599H452.4C452.64 27.2599 452.64 28.0802 452.64 30.2402C452.64 32.1102 452.69 35.4702 452.83 39.4502H446.21L446.31 21.1699L446.3 21.1602ZM460.46 23.1699C465.83 23.1699 469.34 21.2502 469.34 15.2002C469.34 9.1502 466.08 7.14014 460.41 7.14014H452.73L452.63 22.5898V23.1699H460.45H460.46Z" fill="url(#paint14_linear_157_863)"/>
<path d="M479.37 23.9399C479.37 18.8099 479.37 14.01 479.23 9.02002H485.9L485.18 16.1699H485.61C487.91 10.5499 490.65 8.3999 494.97 8.3999C501.21 8.3999 504.57 12.4801 504.62 21.6001L497.9 22.4199C497.85 15.8899 496.12 14.1699 492.57 14.1699C489.74 14.1699 487.29 15.6599 485.66 20.3599C485.66 29.6699 485.71 34.42 485.9 39.46H479.18C479.37 34.9 479.37 29.24 479.37 23.96V23.9399Z" fill="url(#paint15_linear_157_863)"/>
<path d="M506.92 24.1299C506.92 13.8599 512.3 8.33984 521.6 8.33984C530.9 8.33984 536.24 13.8599 536.24 24.1299C536.24 34.3999 530.87 39.9702 521.6 39.9702C512.33 39.9702 506.92 34.4499 506.92 24.1299ZM528.71 33.0601C529.43 30.2801 529.72 27.6899 529.72 24.1299C529.72 16.5499 527.08 12.8999 521.32 12.8999C518.68 12.8999 516.52 13.52 514.46 15.25C513.79 17.99 513.45 20.6299 513.45 24.1299C513.45 31.7599 516.09 35.4102 521.9 35.4102C524.49 35.4102 526.65 34.7901 528.71 33.0601Z" fill="url(#paint16_linear_157_863)"/>
<path d="M534.43 46.25L534.67 41.5C535.73 41.6 536.88 41.6401 538.51 41.6401C539.81 40.7801 540.09 38.8999 540.09 36.3599L540.14 24.27C540.14 19.14 540.09 14.05 539.95 8.95996L543.26 9.01025L546.57 8.95996C546.43 14 546.33 19.13 546.33 24.27C546.33 29.41 546.47 32.8602 546.47 37.9902C546.47 44.4702 543.73 47.0601 538.6 47.0601C537.35 47.0601 535.82 46.8202 534.43 46.2402V46.25ZM539.18 3.26025C539.18 1.29025 540.14 0.280273 543.21 0.280273C546.28 0.280273 547.29 1.29025 547.29 3.26025C547.29 5.56025 546.33 6.56982 543.21 6.56982C540.09 6.56982 539.18 5.56025 539.18 3.26025Z" fill="url(#paint17_linear_157_863)"/>
<path d="M550.21 24.1299C550.21 13.8599 555.59 8.33984 564.56 8.33984C573.53 8.33984 578.52 13.5701 578.67 23.3101L556.69 24.9399C556.88 31.9899 559.47 35.3999 564.85 35.3999C567.35 35.3999 569.31 34.6803 571.04 33.5303C571.57 31.4203 571.86 29.83 572 27.96H578.43C577.37 36.21 572.29 39.96 564.56 39.96C555.59 39.96 550.21 34.4401 550.21 24.1201V24.1299ZM564.28 12.8999C561.74 12.8999 559.63 13.57 557.71 15.25C557.23 17.22 556.94 19.0902 556.8 21.2002L572.11 20.0503C571.25 15.2503 568.75 12.8999 564.29 12.8999H564.28Z" fill="url(#paint18_linear_157_863)"/>
<path d="M581.36 24.1299C581.36 13.8599 586.69 8.33984 595.71 8.33984C604.01 8.33984 608.47 12.13 609.63 20L603.39 20.7202C602.53 15.3402 600.13 12.8999 595.42 12.8999C592.92 12.8999 590.81 13.52 588.8 15.25C588.18 18.03 587.84 20.6299 587.84 24.1299C587.84 31.7599 590.38 35.4102 595.81 35.4102C598.31 35.4102 600.37 34.8299 602.38 33.4399C602.76 31.4299 603.1 29.7502 603.2 27.9702H609.68C608.67 35.8402 603.92 39.9702 595.52 39.9702C586.69 39.9702 581.36 34.4499 581.36 24.1299Z" fill="url(#paint19_linear_157_863)"/>
<path d="M615.06 30.3701C615.06 25.0001 615.2 19.2402 615.06 13.7202H610.64V9.02002L615.06 9.12012V2.55029C617.36 2.55029 619.14 2.49986 621.49 2.35986V9.12988C624.56 9.12988 627.78 9.13027 631.04 9.03027L630.8 13.8301L621.49 13.73C621.35 19.25 621.44 25.0102 621.44 29.9502C621.44 33.3602 622.88 34.8003 625.52 34.8003C627.06 34.8003 628.45 34.6099 630.46 34.1299L630.32 38.98C628.26 39.51 626.34 39.8398 623.94 39.8398C617.65 39.8398 615.06 36.8601 615.06 30.3901V30.3701Z" fill="url(#paint20_linear_157_863)"/>
<defs>
<linearGradient id="paint0_linear_157_863" x1="0" y1="23.53" x2="631.04" y2="23.53" gradientUnits="userSpaceOnUse">
<stop offset="0.06" stop-color="#07AD8F"/>
<stop offset="0.18" stop-color="#07B68F"/>
<stop offset="0.69" stop-color="#07DB8F"/>
<stop offset="0.96" stop-color="#07E98F"/>
</linearGradient>
<linearGradient id="paint1_linear_157_863" x1="-0.000784135" y1="23.5299" x2="631.039" y2="23.5299" gradientUnits="userSpaceOnUse">
<stop offset="0.06" stop-color="#07AD8F"/>
<stop offset="0.18" stop-color="#07B68F"/>
<stop offset="0.69" stop-color="#07DB8F"/>
<stop offset="0.96" stop-color="#07E98F"/>
</linearGradient>
<linearGradient id="paint2_linear_157_863" x1="-0.000551592" y1="23.5299" x2="631.039" y2="23.5299" gradientUnits="userSpaceOnUse">
<stop offset="0.06" stop-color="#07AD8F"/>
<stop offset="0.18" stop-color="#07B68F"/>
<stop offset="0.69" stop-color="#07DB8F"/>
<stop offset="0.96" stop-color="#07E98F"/>
</linearGradient>
<linearGradient id="paint3_linear_157_863" x1="-0.000290336" y1="23.5299" x2="631.04" y2="23.5299" gradientUnits="userSpaceOnUse">
<stop offset="0.06" stop-color="#07AD8F"/>
<stop offset="0.18" stop-color="#07B68F"/>
<stop offset="0.69" stop-color="#07DB8F"/>
<stop offset="0.96" stop-color="#07E98F"/>
</linearGradient>
<linearGradient id="paint4_linear_157_863" x1="-0.000347816" y1="23.53" x2="631.039" y2="23.53" gradientUnits="userSpaceOnUse">
<stop offset="0.06" stop-color="#07AD8F"/>
<stop offset="0.18" stop-color="#07B68F"/>
<stop offset="0.69" stop-color="#07DB8F"/>
<stop offset="0.96" stop-color="#07E98F"/>
</linearGradient>
<linearGradient id="paint5_linear_157_863" x1="0.000446009" y1="23.5299" x2="631.04" y2="23.5299" gradientUnits="userSpaceOnUse">
<stop offset="0.06" stop-color="#07AD8F"/>
<stop offset="0.18" stop-color="#07B68F"/>
<stop offset="0.69" stop-color="#07DB8F"/>
<stop offset="0.96" stop-color="#07E98F"/>
</linearGradient>
<linearGradient id="paint6_linear_157_863" x1="-0.000215364" y1="23.5299" x2="631.039" y2="23.5299" gradientUnits="userSpaceOnUse">
<stop offset="0.06" stop-color="#07AD8F"/>
<stop offset="0.18" stop-color="#07B68F"/>
<stop offset="0.69" stop-color="#07DB8F"/>
<stop offset="0.96" stop-color="#07E98F"/>
</linearGradient>
<linearGradient id="paint7_linear_157_863" x1="-7.88742e-05" y1="23.53" x2="631.039" y2="23.53" gradientUnits="userSpaceOnUse">
<stop offset="0.06" stop-color="#07AD8F"/>
<stop offset="0.18" stop-color="#07B68F"/>
<stop offset="0.69" stop-color="#07DB8F"/>
<stop offset="0.96" stop-color="#07E98F"/>
</linearGradient>
<linearGradient id="paint8_linear_157_863" x1="0.00072323" y1="23.53" x2="631.041" y2="23.53" gradientUnits="userSpaceOnUse">
<stop offset="0.06" stop-color="#07AD8F"/>
<stop offset="0.18" stop-color="#07B68F"/>
<stop offset="0.69" stop-color="#07DB8F"/>
<stop offset="0.96" stop-color="#07E98F"/>
</linearGradient>
<linearGradient id="paint9_linear_157_863" x1="0.000449649" y1="23.5299" x2="631.04" y2="23.5299" gradientUnits="userSpaceOnUse">
<stop offset="0.06" stop-color="#07AD8F"/>
<stop offset="0.18" stop-color="#07B68F"/>
<stop offset="0.69" stop-color="#07DB8F"/>
<stop offset="0.96" stop-color="#07E98F"/>
</linearGradient>
<linearGradient id="paint10_linear_157_863" x1="-0.00013013" y1="23.53" x2="631.039" y2="23.53" gradientUnits="userSpaceOnUse">
<stop offset="0.06" stop-color="#07AD8F"/>
<stop offset="0.18" stop-color="#07B68F"/>
<stop offset="0.69" stop-color="#07DB8F"/>
<stop offset="0.96" stop-color="#07E98F"/>
</linearGradient>
<linearGradient id="paint11_linear_157_863" x1="0.00114414" y1="23.53" x2="631.041" y2="23.53" gradientUnits="userSpaceOnUse">
<stop offset="0.06" stop-color="#07AD8F"/>
<stop offset="0.18" stop-color="#07B68F"/>
<stop offset="0.69" stop-color="#07DB8F"/>
<stop offset="0.96" stop-color="#07E98F"/>
</linearGradient>
<linearGradient id="paint12_linear_157_863" x1="0.000195304" y1="23.53" x2="631.04" y2="23.53" gradientUnits="userSpaceOnUse">
<stop offset="0.06" stop-color="#07AD8F"/>
<stop offset="0.18" stop-color="#07B68F"/>
<stop offset="0.69" stop-color="#07DB8F"/>
<stop offset="0.96" stop-color="#07E98F"/>
</linearGradient>
<linearGradient id="paint13_linear_157_863" x1="0.00027456" y1="23.5299" x2="631.04" y2="23.5299" gradientUnits="userSpaceOnUse">
<stop offset="0.06" stop-color="#07AD8F"/>
<stop offset="0.18" stop-color="#07B68F"/>
<stop offset="0.69" stop-color="#07DB8F"/>
<stop offset="0.96" stop-color="#07E98F"/>
</linearGradient>
<linearGradient id="paint14_linear_157_863" x1="0.000739934" y1="23.5301" x2="631.04" y2="23.5301" gradientUnits="userSpaceOnUse">
<stop offset="0.06" stop-color="#07AD8F"/>
<stop offset="0.18" stop-color="#07B68F"/>
<stop offset="0.69" stop-color="#07DB8F"/>
<stop offset="0.96" stop-color="#07E98F"/>
</linearGradient>
<linearGradient id="paint15_linear_157_863" x1="-0.000348341" y1="23.5299" x2="631.04" y2="23.5299" gradientUnits="userSpaceOnUse">
<stop offset="0.06" stop-color="#07AD8F"/>
<stop offset="0.18" stop-color="#07B68F"/>
<stop offset="0.69" stop-color="#07DB8F"/>
<stop offset="0.96" stop-color="#07E98F"/>
</linearGradient>
<linearGradient id="paint16_linear_157_863" x1="-0.000205499" y1="23.53" x2="631.04" y2="23.53" gradientUnits="userSpaceOnUse">
<stop offset="0.06" stop-color="#07AD8F"/>
<stop offset="0.18" stop-color="#07B68F"/>
<stop offset="0.69" stop-color="#07DB8F"/>
<stop offset="0.96" stop-color="#07E98F"/>
</linearGradient>
<linearGradient id="paint17_linear_157_863" x1="-0.0022173" y1="23.5302" x2="631.04" y2="23.5302" gradientUnits="userSpaceOnUse">
<stop offset="0.06" stop-color="#07AD8F"/>
<stop offset="0.18" stop-color="#07B68F"/>
<stop offset="0.69" stop-color="#07DB8F"/>
<stop offset="0.96" stop-color="#07E98F"/>
</linearGradient>
<linearGradient id="paint18_linear_157_863" x1="-0.000455462" y1="23.5299" x2="631.04" y2="23.5299" gradientUnits="userSpaceOnUse">
<stop offset="0.06" stop-color="#07AD8F"/>
<stop offset="0.18" stop-color="#07B68F"/>
<stop offset="0.69" stop-color="#07DB8F"/>
<stop offset="0.96" stop-color="#07E98F"/>
</linearGradient>
<linearGradient id="paint19_linear_157_863" x1="0.00146272" y1="23.53" x2="631.04" y2="23.53" gradientUnits="userSpaceOnUse">
<stop offset="0.06" stop-color="#07AD8F"/>
<stop offset="0.18" stop-color="#07B68F"/>
<stop offset="0.69" stop-color="#07DB8F"/>
<stop offset="0.96" stop-color="#07E98F"/>
</linearGradient>
<linearGradient id="paint20_linear_157_863" x1="-0.00110273" y1="23.5298" x2="631.04" y2="23.5298" gradientUnits="userSpaceOnUse">
<stop offset="0.06" stop-color="#07AD8F"/>
<stop offset="0.18" stop-color="#07B68F"/>
<stop offset="0.69" stop-color="#07DB8F"/>
<stop offset="0.96" stop-color="#07E98F"/>
</linearGradient>
</defs>
</svg>
