<svg width="36" height="36" viewBox="0 0 36 36" fill="none" xmlns="http://www.w3.org/2000/svg">
<path d="M22.3995 8.70996H13.0795C10.6795 8.70996 8.72949 10.6601 8.72949 13.0601V22.3799C8.72949 24.7799 10.6795 26.73 13.0795 26.73H22.3995C24.7995 26.73 26.7495 24.7799 26.7495 22.3799V13.0601C26.7495 10.6601 24.7995 8.70996 22.3995 8.70996ZM25.1995 22.0698C25.1995 23.7898 23.8095 25.1797 22.0895 25.1797H13.3895C11.6695 25.1797 10.2795 23.7898 10.2795 22.0698V13.3701C10.2795 11.6501 11.6695 10.2598 13.3895 10.2598H22.0895C23.8095 10.2598 25.1995 11.6501 25.1995 13.3701V22.0698Z" fill="#07AD8F"/>
<path d="M17.7401 13.0601C15.1701 13.0601 13.0801 15.1497 13.0801 17.7197C13.0801 20.2897 15.1701 22.3799 17.7401 22.3799C20.3101 22.3799 22.4001 20.2897 22.4001 17.7197C22.4001 15.1497 20.3101 13.0601 17.7401 13.0601ZM17.7401 20.8301C16.0301 20.8301 14.6301 19.4297 14.6301 17.7197C14.6301 16.0097 16.0301 14.6099 17.7401 14.6099C19.4501 14.6099 20.8501 16.0097 20.8501 17.7197C20.8501 19.4297 19.4501 20.8301 17.7401 20.8301Z" fill="#07AD8F"/>
<path d="M22.7102 11.8198C22.2002 11.8198 21.7803 12.24 21.7803 12.75C21.7803 13.26 22.2002 13.6797 22.7102 13.6797C23.2202 13.6797 23.6403 13.26 23.6403 12.75C23.6403 12.24 23.2202 11.8198 22.7102 11.8198Z" fill="#07AD8F"/>
<path d="M31.3303 1.39014H4.12036C2.62036 1.39014 1.40039 2.60986 1.40039 4.10986V31.3198C1.40039 32.8198 2.62036 34.04 4.12036 34.04H31.3303C32.8303 34.04 34.0504 32.8198 34.0504 31.3198V4.10986C34.0504 2.60986 32.8303 1.39014 31.3303 1.39014ZM33.8004 31.3301C33.8004 32.6901 32.6903 33.7998 31.3303 33.7998H4.12036C2.76036 33.7998 1.65039 32.6901 1.65039 31.3301V4.12012C1.65039 2.76012 2.76036 1.6499 4.12036 1.6499H31.3303C32.6903 1.6499 33.8004 2.76012 33.8004 4.12012V31.3301Z" fill="#07AD8F"/>
<path d="M31.33 0H4.12C1.84 0 0 1.85012 0 4.12012V31.3301C0 33.6101 1.85 35.4497 4.12 35.4497H31.33C33.61 35.4497 35.45 33.6001 35.45 31.3301V4.12012C35.45 1.84012 33.6 0 31.33 0ZM35.2 31.3301C35.2 33.4601 33.46 35.1997 31.33 35.1997H4.12C1.99 35.1997 0.25 33.4601 0.25 31.3301V4.12012C0.25 1.99012 1.99 0.25 4.12 0.25H31.33C33.46 0.25 35.2 1.99012 35.2 4.12012V31.3301Z" fill="#07AD8F"/>
</svg>
