<svg width="54" height="54" viewBox="0 0 54 54" fill="none" xmlns="http://www.w3.org/2000/svg">
<path d="M42.6497 26.3201C42.6297 26.2501 42.6097 26.1801 42.5797 26.1101C42.5697 26.0801 42.5497 26.05 42.5297 26.02C42.4997 25.96 42.4697 25.9101 42.4297 25.8601C42.4097 25.8301 42.3796 25.8 42.3596 25.77C42.3196 25.73 42.2796 25.6799 42.2396 25.6399C42.2296 25.6299 42.2197 25.6201 42.2097 25.6101L31.1196 15.9099C30.5196 15.3899 29.6196 15.4501 29.0996 16.0501C28.5796 16.6501 28.6396 17.5501 29.2396 18.0701L37.4597 25.26H12.1096C11.3196 25.26 10.6797 25.9 10.6797 26.69C10.6797 27.48 11.3196 28.1201 12.1096 28.1201H37.4597L29.2396 35.3101C28.6496 35.8301 28.5796 36.7401 29.0996 37.3301C29.3796 37.6501 29.7797 37.8201 30.1797 37.8201C30.5097 37.8201 30.8496 37.7 31.1196 37.47L42.2097 27.77C42.2097 27.77 42.2296 27.75 42.2396 27.74C42.2796 27.7 42.3196 27.6601 42.3596 27.6101C42.3796 27.5801 42.4097 27.55 42.4297 27.52C42.4697 27.47 42.4997 27.4101 42.5297 27.3601C42.5497 27.3301 42.5597 27.3 42.5797 27.27C42.6097 27.2 42.6297 27.1301 42.6497 27.0601C42.6497 27.0401 42.6697 27.01 42.6697 26.99C42.6897 26.89 42.6997 26.79 42.6997 26.69C42.6997 26.59 42.6897 26.4899 42.6697 26.3899C42.6697 26.3699 42.6597 26.3401 42.6497 26.3201Z" fill="url(#paint0_linear_157_304)"/>
<path d="M26.6901 0C11.9501 0 0 11.9499 0 26.6899C0 41.4299 11.9501 53.3799 26.6901 53.3799C41.4301 53.3799 53.38 41.4299 53.38 26.6899C53.38 11.9499 41.4301 0 26.6901 0ZM26.6901 51.3101C13.1201 51.3101 2.07007 40.2699 2.07007 26.6899C2.07007 13.1099 13.1101 2.07007 26.6901 2.07007C40.2701 2.07007 51.3101 13.1099 51.3101 26.6899C51.3101 40.2699 40.2701 51.3101 26.6901 51.3101Z" fill="url(#paint1_linear_157_304)"/>
<defs>
<linearGradient id="paint0_linear_157_304" x1="10.6697" y1="26.69" x2="42.6997" y2="26.69" gradientUnits="userSpaceOnUse">
<stop offset="0.12" stop-color="#020010"/>
<stop offset="0.23" stop-color="#03242A"/>
<stop offset="0.4" stop-color="#04544E"/>
<stop offset="0.57" stop-color="#057A6A"/>
<stop offset="0.71" stop-color="#06967E"/>
<stop offset="0.84" stop-color="#06A78A"/>
<stop offset="0.94" stop-color="#07AD8F"/>
</linearGradient>
<linearGradient id="paint1_linear_157_304" x1="-0.01" y1="26.6899" x2="53.38" y2="26.6899" gradientUnits="userSpaceOnUse">
<stop offset="0.12" stop-color="#020010"/>
<stop offset="0.23" stop-color="#03242A"/>
<stop offset="0.4" stop-color="#04544E"/>
<stop offset="0.57" stop-color="#057A6A"/>
<stop offset="0.71" stop-color="#06967E"/>
<stop offset="0.84" stop-color="#06A78A"/>
<stop offset="0.94" stop-color="#07AD8F"/>
</linearGradient>
</defs>
</svg>
