<svg width="52" height="52" viewBox="0 0 52 52" fill="none" xmlns="http://www.w3.org/2000/svg">
<path d="M51.4689 23.7701C50.8189 11.6801 40.5289 0.960091 28.2489 0.290091C19.3989 -0.199909 10.4989 0.100092 1.61892 0.0100922C0.248923 0.0100922 0.0189112 0.720089 0.0289112 1.85009C0.0489112 6.06009 -0.0710803 10.2801 0.0689197 14.4801C0.35892 22.8701 6.45891 28.7601 14.8289 28.8401C18.4589 28.8801 22.0889 28.8201 25.7189 28.8601C30.4289 28.9201 34.0489 32.4901 34.1089 37.0701C34.1689 41.7401 30.5389 45.3801 25.7189 45.4101C19.8789 45.4501 14.0489 45.4301 8.21891 45.4101C7.64891 45.4101 7.08892 45.3301 6.23892 45.2701C6.23892 42.5801 6.25892 40.1201 6.23892 37.6601C6.18892 33.0501 6.79891 33.8601 2.35891 33.6801C0.608913 33.6101 -0.0310833 34.1301 0.0189167 35.9401C0.128917 40.3401 0.128917 44.7601 0.0189167 49.1601C-0.0310833 51.0001 0.508916 51.6301 2.40892 51.6001C9.98892 51.5001 17.5789 51.6001 25.1589 51.5301C27.0889 51.5101 29.0489 51.3401 30.9589 50.9901C43.5489 48.6501 52.1989 37.1301 51.4889 23.7501L51.4689 23.7701ZM41.0189 38.2701C40.8689 38.4501 40.6389 38.5701 40.1689 38.9501C40.4989 33.0301 38.4989 28.5501 33.9589 25.3201C31.6889 23.7101 29.1289 22.8301 26.3289 22.8201C22.5689 22.8001 18.8089 22.8201 15.0489 22.7901C9.72892 22.7701 6.31891 19.3701 6.24891 14.0501C6.22891 11.9801 6.27892 9.90009 6.22892 7.83009C6.20892 6.71009 6.53892 6.20009 7.75892 6.21009C14.3089 6.26009 20.8689 5.93009 27.3889 6.34009C35.1489 6.83009 40.7989 11.0001 43.8289 18.1601C46.8589 25.3101 45.7289 32.1001 41.0189 38.2801V38.2701Z" fill="white"/>
</svg>
