<svg width="98" height="24" viewBox="0 0 98 24" fill="none" xmlns="http://www.w3.org/2000/svg">
<path d="M38.5508 8.3501H41.6508V18.1001H38.5508V8.3501Z" fill="url(#paint0_linear_157_438)"/>
<path d="M42.3105 8.3501H45.3005V9.67969H45.3605C46.0805 8.62969 47.0205 8.06006 48.3705 8.06006C50.5005 8.06006 51.7605 9.58 51.7605 11.75V18.0898H48.6606V12.3799C48.6606 11.3499 48.1505 10.6499 47.1405 10.6499C46.1305 10.6499 45.4305 11.51 45.4305 12.71V18.1001H42.3305V8.3501H42.3105Z" fill="url(#paint1_linear_157_438)"/>
<path d="M41.97 5.73975C41.97 4.70975 41.14 3.87988 40.11 3.87988C39.08 3.87988 38.25 4.70975 38.25 5.73975C38.25 6.76975 39.08 7.6001 40.11 7.6001C41.14 7.6001 41.97 6.76975 41.97 5.73975Z" fill="url(#paint2_linear_157_438)"/>
<path d="M73.5703 8.20996C73.4803 8.20996 73.3803 8.19971 73.2603 8.19971C72.0803 8.19971 71.2803 8.70988 70.6003 9.87988H70.5403V8.35986H67.5703V18.1099H70.6703V13.73C70.6703 11.7 71.7903 10.7597 73.5703 10.9297V8.22998V8.20996Z" fill="url(#paint3_linear_157_438)"/>
<path d="M88.7894 11.9497C87.5494 11.7197 86.4493 11.6299 86.4493 10.9399C86.4493 10.3299 87.0394 10.0498 87.7994 10.0498C88.6594 10.0498 89.2494 10.3199 89.3594 11.1899H92.2194C92.0694 9.26994 90.5793 8.06982 87.8193 8.06982C85.5193 8.06982 83.6094 9.13994 83.6094 11.1899C83.6094 13.4699 85.4194 13.9297 87.1094 14.2197C88.3994 14.4497 89.5793 14.5399 89.5793 15.4199C89.5793 16.0499 88.9894 16.3901 88.0594 16.3901C87.1294 16.3901 86.5093 15.9899 86.3193 15.1899H83.3594C83.5794 17.1899 85.3393 18.4102 88.0793 18.4102C90.6293 18.4102 92.5193 17.3099 92.5193 15.1699C92.5193 12.6799 90.4994 12.2397 88.7894 11.9497Z" fill="url(#paint4_linear_157_438)"/>
<path d="M78.5505 16.1499C77.2705 16.1499 76.5505 15.33 76.3605 14.02H83.3605C83.3805 12.04 82.8105 10.3498 81.6505 9.27979C80.8105 8.51979 79.7105 8.06006 78.3205 8.06006C75.3505 8.06006 73.3105 10.2897 73.3105 13.1997C73.3105 16.1097 75.2905 18.3799 78.5105 18.3799C79.7505 18.3799 80.7405 18.0597 81.5605 17.4897C82.4205 16.8997 82.9905 16.0599 83.2005 15.1899H80.1705C79.9005 15.7999 79.3705 16.1602 78.5505 16.1602V16.1499ZM78.3805 10.27C79.3905 10.27 80.1105 11.0099 80.2305 12.1699H76.3905C76.6005 11.0099 77.2105 10.27 78.3905 10.27H78.3805Z" fill="url(#paint5_linear_157_438)"/>
<path d="M97.9899 15.7998C97.8499 15.7998 97.6499 15.8101 97.4799 15.8101C96.8099 15.8101 96.3999 15.6199 96.3999 14.8599V10.29H97.9999V8.3501H96.3999V5.27002H93.3699V8.3501H92.4199V10.29H93.3699V15.52C93.3699 17.61 94.6599 18.1997 96.4699 18.1997C97.1599 18.1997 97.6799 18.1498 97.9899 18.0898V15.79V15.7998Z" fill="url(#paint6_linear_157_438)"/>
<path d="M57.2896 15.7998C57.1696 15.7998 57.0195 15.7998 56.8895 15.7998C56.2195 15.7998 55.8096 15.6101 55.8096 14.8501V10.2798H57.2996V8.33984H55.8096V5.25977H52.7795V8.33984H51.7695V10.2798H52.7795V15.5098C52.7795 17.5998 54.0695 18.1899 55.8795 18.1899C56.4895 18.1899 56.9696 18.1501 57.2896 18.1001V15.7798V15.7998Z" fill="url(#paint7_linear_157_438)"/>
<path d="M62.3709 16.1499C61.0909 16.1499 60.3709 15.33 60.1809 14.02H67.1809C67.2009 12.04 66.6309 10.3498 65.4709 9.27979C64.6309 8.51979 63.5309 8.06006 62.1409 8.06006C59.1709 8.06006 57.1309 10.2897 57.1309 13.1997C57.1309 16.1097 59.1109 18.3799 62.3309 18.3799C63.5709 18.3799 64.5609 18.0597 65.3809 17.4897C66.2409 16.8997 66.8109 16.0599 67.0209 15.1899H63.9909C63.7209 15.7999 63.1909 16.1602 62.3709 16.1602V16.1499ZM62.2009 10.27C63.2109 10.27 63.9309 11.0099 64.0509 12.1699H60.2109C60.4209 11.0099 61.0309 10.27 62.2109 10.27H62.2009Z" fill="url(#paint8_linear_157_438)"/>
<path d="M36.7504 5.73975C35.9104 4.93975 34.6904 4.47998 33.0404 4.47998H27.6504V18.0898H30.7904V13.54H33.5104C36.3104 13.54 38.1204 11.6898 38.1204 9.08984C38.1204 7.71984 37.6304 6.55975 36.7504 5.73975ZM33.1704 10.8799H30.7904V7.31982H33.1704C34.3704 7.31982 35.0704 7.98982 35.0704 9.06982C35.0704 10.1498 34.3804 10.8799 33.1704 10.8799Z" fill="url(#paint9_linear_157_438)"/>
<path d="M23.39 11.6997C23.39 18.1697 18.15 23.4102 11.68 23.4102C11.6 23.4102 11.53 23.4102 11.45 23.4102C11.37 23.4102 11.3 23.4102 11.22 23.4102C11.15 23.4102 11.09 23.4102 11.02 23.4102C11 23.4102 10.99 23.4102 10.97 23.4102C10.9 23.4102 10.84 23.4099 10.77 23.3999C10.7 23.3999 10.62 23.3899 10.55 23.3799C10.42 23.3699 10.3 23.3498 10.18 23.3398C10.15 23.3398 10.13 23.3401 10.1 23.3301C10.03 23.3301 9.95999 23.3098 9.89999 23.2998C9.82999 23.2898 9.76 23.28 9.69 23.27C9.69 23.27 9.68001 23.27 9.67001 23.27C9.60001 23.26 9.52999 23.25 9.45999 23.23C9.38999 23.22 9.32 23.1999 9.25 23.1899C9.19 23.1799 9.13999 23.1699 9.07999 23.1499C9.04999 23.1499 9.02001 23.1399 8.98001 23.1299C8.93001 23.1199 8.87001 23.1098 8.82001 23.0898C8.75001 23.0698 8.67999 23.05 8.60999 23.04C8.53999 23.02 8.46999 23 8.39999 22.98C8.32999 22.96 8.26 22.9399 8.19 22.9199C8.67 22.1399 9.37999 20.8701 9.64999 19.8501C9.78999 19.3001 10.38 17.0698 10.38 17.0698C10.76 17.7998 11.88 18.4199 13.06 18.4199C16.59 18.4199 19.14 15.1699 19.14 11.1299C19.14 7.08988 15.98 4.35986 11.92 4.35986C6.86001 4.35986 4.17999 7.74971 4.17999 11.4497C4.17999 13.1697 5.09 15.3097 6.56 15.9897C6.78 16.0897 6.90001 16.0501 6.95001 15.8301C6.99001 15.6701 7.19 14.87 7.28 14.5C7.31 14.38 7.29001 14.2802 7.20001 14.1602C6.72001 13.5702 6.32999 12.4897 6.32999 11.4897C6.32999 8.90975 8.29 6.41016 11.62 6.41016C14.5 6.41016 16.51 8.36969 16.51 11.1797C16.51 14.3497 14.91 16.54 12.83 16.54C11.68 16.54 10.82 15.5899 11.1 14.4199C11.43 13.0299 12.07 11.52 12.07 10.52C12.07 9.62002 11.59 8.87012 10.59 8.87012C9.41 8.87012 8.47 10.09 8.47 11.71C8.47 12.75 8.82001 13.4497 8.82001 13.4497C8.82001 13.4497 7.66001 18.36 7.45001 19.27C7.21001 20.28 7.31 21.7099 7.41 22.6299C7.27 22.5799 7.14001 22.52 7.01001 22.46C6.94001 22.43 6.88 22.4001 6.81 22.3701C6.74 22.3401 6.67999 22.3098 6.60999 22.2798C6.47999 22.2198 6.35 22.1501 6.22 22.0801C6.16 22.0501 6.1 22.01 6.03 21.98C6.03 21.98 6.02999 21.98 6.01999 21.98C5.95999 21.95 5.90001 21.9099 5.85001 21.8799C5.66001 21.7699 5.47999 21.66 5.29999 21.54C5.24999 21.51 5.19998 21.4699 5.13998 21.4399C5.13998 21.4399 5.12 21.4299 5.12 21.4199C5 21.3399 4.87999 21.2599 4.76999 21.1699C4.70999 21.1299 4.65001 21.08 4.60001 21.04C4.54001 21 4.48999 20.9502 4.42999 20.9102C4.36999 20.8602 4.32001 20.82 4.26001 20.77C4.20001 20.72 4.15 20.6799 4.09 20.6299C3.98 20.5399 3.86999 20.4398 3.76999 20.3398C3.65999 20.2398 3.55999 20.14 3.45999 20.04C3.35999 19.94 3.26 19.84 3.16 19.73C3.11 19.68 3.06001 19.6198 3.01001 19.5698C2.77001 19.2998 2.54001 19.0297 2.32001 18.7397C2.10001 18.4497 1.89999 18.1501 1.70999 17.8501C1.55999 17.6001 1.42 17.3498 1.28 17.0898C1.25 17.0298 1.20999 16.9599 1.17999 16.8999C1.14999 16.8399 1.12 16.7697 1.09 16.6997C1.06 16.6297 1.03 16.57 1 16.5C0.97 16.43 0.940004 16.3698 0.910004 16.2998C0.890004 16.2498 0.859996 16.1901 0.839996 16.1401C0.799996 16.0501 0.770011 15.9599 0.730011 15.8599C0.710011 15.7999 0.690004 15.7397 0.660004 15.6797C0.610004 15.5397 0.559989 15.3998 0.519989 15.2598C0.499989 15.1898 0.480012 15.1198 0.450012 15.0498C0.430012 14.9698 0.400005 14.8901 0.380005 14.8101C0.360005 14.7501 0.349987 14.6801 0.329987 14.6201C0.309987 14.5601 0.300009 14.4999 0.290009 14.4399C0.290009 14.4099 0.269989 14.3698 0.269989 14.3398C0.249989 14.2398 0.220012 14.1398 0.200012 14.0298C0.200012 13.9898 0.179993 13.9502 0.179993 13.9102C0.169993 13.8502 0.159994 13.7997 0.149994 13.7397C0.139994 13.6797 0.129995 13.61 0.119995 13.54C0.0899951 13.38 0.0699878 13.2201 0.0499878 13.0601C0.0499878 13.0101 0.0399988 12.9602 0.0299988 12.9102V12.8901C0.0299988 12.8601 0.0299988 12.8298 0.0299988 12.7998C0.0199988 12.6798 0.01 12.5597 0 12.4497V12.4297C0 12.3997 0 12.3701 0 12.3501C0 12.2901 0 12.2299 0 12.1699C0 12.0999 0 12.0197 0 11.9497V11.9297C0 11.8597 0 11.78 0 11.71C0 5.23996 5.23999 0 11.71 0C18.18 0 23.42 5.23996 23.42 11.71L23.39 11.6997Z" fill="url(#paint10_linear_157_438)"/>
<path d="M23.39 11.6997C23.39 18.1697 18.15 23.4102 11.68 23.4102C11.6 23.4102 11.53 23.4102 11.45 23.4102C11.37 23.4102 11.3 23.4102 11.22 23.4102C11.15 23.4102 11.09 23.4102 11.02 23.4102C11 23.4102 10.99 23.4102 10.97 23.4102C10.9 23.4102 10.84 23.4099 10.77 23.3999C10.7 23.3999 10.62 23.3899 10.55 23.3799C10.42 23.3699 10.3 23.3498 10.18 23.3398C10.15 23.3398 10.13 23.3401 10.1 23.3301C10.03 23.3301 9.95999 23.3098 9.89999 23.2998C9.82999 23.2898 9.76 23.28 9.69 23.27C9.69 23.27 9.68001 23.27 9.67001 23.27C9.60001 23.26 9.52999 23.25 9.45999 23.23C9.38999 23.22 9.32 23.1999 9.25 23.1899C9.19 23.1799 9.13999 23.1699 9.07999 23.1499C9.04999 23.1499 9.02001 23.1399 8.98001 23.1299C8.93001 23.1199 8.87001 23.1098 8.82001 23.0898C8.75001 23.0698 8.67999 23.05 8.60999 23.04C8.53999 23.02 8.46999 23 8.39999 22.98C8.32999 22.96 8.26 22.9399 8.19 22.9199C8.67 22.1399 9.37999 20.8701 9.64999 19.8501C9.78999 19.3001 10.38 17.0698 10.38 17.0698C10.76 17.7998 11.88 18.4199 13.06 18.4199C16.59 18.4199 19.14 15.1699 19.14 11.1299C19.14 7.08988 15.98 4.35986 11.92 4.35986C6.86001 4.35986 4.17999 7.74971 4.17999 11.4497C4.17999 13.1697 5.09 15.3097 6.56 15.9897C6.78 16.0897 6.90001 16.0501 6.95001 15.8301C6.99001 15.6701 7.19 14.87 7.28 14.5C7.31 14.38 7.29001 14.2802 7.20001 14.1602C6.72001 13.5702 6.32999 12.4897 6.32999 11.4897C6.32999 8.90975 8.29 6.41016 11.62 6.41016C14.5 6.41016 16.51 8.36969 16.51 11.1797C16.51 14.3497 14.91 16.54 12.83 16.54C11.68 16.54 10.82 15.5899 11.1 14.4199C11.43 13.0299 12.07 11.52 12.07 10.52C12.07 9.62002 11.59 8.87012 10.59 8.87012C9.41 8.87012 8.47 10.09 8.47 11.71C8.47 12.75 8.82001 13.4497 8.82001 13.4497C8.82001 13.4497 7.66001 18.36 7.45001 19.27C7.21001 20.28 7.31 21.7099 7.41 22.6299C7.27 22.5799 7.14001 22.52 7.01001 22.46C6.94001 22.43 6.88 22.4001 6.81 22.3701C6.74 22.3401 6.67999 22.3098 6.60999 22.2798C6.47999 22.2198 6.35 22.1501 6.22 22.0801C6.16 22.0501 6.1 22.01 6.03 21.98C6.03 21.98 6.02999 21.98 6.01999 21.98C5.95999 21.95 5.90001 21.9099 5.85001 21.8799C5.66001 21.7699 5.47999 21.66 5.29999 21.54C5.24999 21.51 5.19998 21.4699 5.13998 21.4399C5.13998 21.4399 5.12 21.4299 5.12 21.4199C5 21.3399 4.87999 21.2599 4.76999 21.1699C4.70999 21.1299 4.65001 21.08 4.60001 21.04C4.54001 21 4.48999 20.9502 4.42999 20.9102C4.36999 20.8602 4.32001 20.82 4.26001 20.77C4.20001 20.72 4.15 20.6799 4.09 20.6299C3.98 20.5399 3.86999 20.4398 3.76999 20.3398C3.65999 20.2398 3.55999 20.14 3.45999 20.04C3.35999 19.94 3.26 19.84 3.16 19.73C3.11 19.68 3.06001 19.6198 3.01001 19.5698C2.77001 19.2998 2.54001 19.0297 2.32001 18.7397C2.10001 18.4497 1.89999 18.1501 1.70999 17.8501C1.55999 17.6001 1.42 17.3498 1.28 17.0898C1.25 17.0298 1.20999 16.9599 1.17999 16.8999C1.14999 16.8399 1.12 16.7697 1.09 16.6997C1.06 16.6297 1.03 16.57 1 16.5C0.97 16.43 0.940004 16.3698 0.910004 16.2998C0.890004 16.2498 0.859996 16.1901 0.839996 16.1401C0.799996 16.0501 0.770011 15.9599 0.730011 15.8599C0.710011 15.7999 0.690004 15.7397 0.660004 15.6797C0.610004 15.5397 0.559989 15.3998 0.519989 15.2598C0.499989 15.1898 0.480012 15.1198 0.450012 15.0498C0.430012 14.9698 0.400005 14.8901 0.380005 14.8101C0.360005 14.7501 0.349987 14.6801 0.329987 14.6201C0.309987 14.5601 0.300009 14.4999 0.290009 14.4399C0.290009 14.4099 0.269989 14.3698 0.269989 14.3398C0.249989 14.2398 0.220012 14.1398 0.200012 14.0298C0.200012 13.9898 0.179993 13.9502 0.179993 13.9102C0.169993 13.8502 0.159994 13.7997 0.149994 13.7397C0.139994 13.6797 0.129995 13.61 0.119995 13.54C0.0899951 13.38 0.0699878 13.2201 0.0499878 13.0601C0.0499878 13.0101 0.0399988 12.9602 0.0299988 12.9102V12.8901C0.0299988 12.8601 0.0299988 12.8298 0.0299988 12.7998C0.0199988 12.6798 0.01 12.5597 0 12.4497V12.4297C0 12.3997 0 12.3701 0 12.3501C0 12.2901 0 12.2299 0 12.1699C0 12.0999 0 12.0197 0 11.9497V11.9297C0 11.8597 0 11.78 0 11.71C0 5.23996 5.23999 0 11.71 0C18.18 0 23.42 5.23996 23.42 11.71L23.39 11.6997Z" fill="url(#paint11_linear_157_438)"/>
<defs>
<linearGradient id="paint0_linear_157_438" x1="48.9708" y1="23.4101" x2="48.9708" y2="-0.0199019" gradientUnits="userSpaceOnUse">
<stop stop-color="#020010"/>
<stop offset="0.25" stop-color="#033839"/>
<stop offset="0.49" stop-color="#056A5E"/>
<stop offset="0.71" stop-color="#068E78"/>
<stop offset="0.89" stop-color="#06A489"/>
<stop offset="1" stop-color="#07AD8F"/>
</linearGradient>
<linearGradient id="paint1_linear_157_438" x1="48.9705" y1="23.4101" x2="48.9705" y2="-0.0199732" gradientUnits="userSpaceOnUse">
<stop stop-color="#020010"/>
<stop offset="0.25" stop-color="#033839"/>
<stop offset="0.49" stop-color="#056A5E"/>
<stop offset="0.71" stop-color="#068E78"/>
<stop offset="0.89" stop-color="#06A489"/>
<stop offset="1" stop-color="#07AD8F"/>
</linearGradient>
<linearGradient id="paint2_linear_157_438" x1="48.97" y1="23.411" x2="48.97" y2="-0.0203421" gradientUnits="userSpaceOnUse">
<stop stop-color="#020010"/>
<stop offset="0.25" stop-color="#033839"/>
<stop offset="0.49" stop-color="#056A5E"/>
<stop offset="0.71" stop-color="#068E78"/>
<stop offset="0.89" stop-color="#06A489"/>
<stop offset="1" stop-color="#07AD8F"/>
</linearGradient>
<linearGradient id="paint3_linear_157_438" x1="48.9703" y1="23.4099" x2="48.9703" y2="-0.0204231" gradientUnits="userSpaceOnUse">
<stop stop-color="#020010"/>
<stop offset="0.25" stop-color="#033839"/>
<stop offset="0.49" stop-color="#056A5E"/>
<stop offset="0.71" stop-color="#068E78"/>
<stop offset="0.89" stop-color="#06A489"/>
<stop offset="1" stop-color="#07AD8F"/>
</linearGradient>
<linearGradient id="paint4_linear_157_438" x1="48.9695" y1="23.4103" x2="48.9695" y2="-0.0204352" gradientUnits="userSpaceOnUse">
<stop stop-color="#020010"/>
<stop offset="0.25" stop-color="#033839"/>
<stop offset="0.49" stop-color="#056A5E"/>
<stop offset="0.71" stop-color="#068E78"/>
<stop offset="0.89" stop-color="#06A489"/>
<stop offset="1" stop-color="#07AD8F"/>
</linearGradient>
<linearGradient id="paint5_linear_157_438" x1="48.9706" y1="23.4098" x2="48.9706" y2="-0.0198041" gradientUnits="userSpaceOnUse">
<stop stop-color="#020010"/>
<stop offset="0.25" stop-color="#033839"/>
<stop offset="0.49" stop-color="#056A5E"/>
<stop offset="0.71" stop-color="#068E78"/>
<stop offset="0.89" stop-color="#06A489"/>
<stop offset="1" stop-color="#07AD8F"/>
</linearGradient>
<linearGradient id="paint6_linear_157_438" x1="48.9703" y1="23.4096" x2="48.9703" y2="-0.0198533" gradientUnits="userSpaceOnUse">
<stop stop-color="#020010"/>
<stop offset="0.25" stop-color="#033839"/>
<stop offset="0.49" stop-color="#056A5E"/>
<stop offset="0.71" stop-color="#068E78"/>
<stop offset="0.89" stop-color="#06A489"/>
<stop offset="1" stop-color="#07AD8F"/>
</linearGradient>
<linearGradient id="paint7_linear_157_438" x1="48.9695" y1="23.41" x2="48.9695" y2="-0.0203062" gradientUnits="userSpaceOnUse">
<stop stop-color="#020010"/>
<stop offset="0.25" stop-color="#033839"/>
<stop offset="0.49" stop-color="#056A5E"/>
<stop offset="0.71" stop-color="#068E78"/>
<stop offset="0.89" stop-color="#06A489"/>
<stop offset="1" stop-color="#07AD8F"/>
</linearGradient>
<linearGradient id="paint8_linear_157_438" x1="48.9708" y1="23.4098" x2="48.9708" y2="-0.0198041" gradientUnits="userSpaceOnUse">
<stop stop-color="#020010"/>
<stop offset="0.25" stop-color="#033839"/>
<stop offset="0.49" stop-color="#056A5E"/>
<stop offset="0.71" stop-color="#068E78"/>
<stop offset="0.89" stop-color="#06A489"/>
<stop offset="1" stop-color="#07AD8F"/>
</linearGradient>
<linearGradient id="paint9_linear_157_438" x1="48.9704" y1="23.4098" x2="48.9704" y2="-0.0199749" gradientUnits="userSpaceOnUse">
<stop stop-color="#020010"/>
<stop offset="0.25" stop-color="#033839"/>
<stop offset="0.49" stop-color="#056A5E"/>
<stop offset="0.71" stop-color="#068E78"/>
<stop offset="0.89" stop-color="#06A489"/>
<stop offset="1" stop-color="#07AD8F"/>
</linearGradient>
<linearGradient id="paint10_linear_157_438" x1="48.97" y1="23.4102" x2="48.97" y2="-0.0199999" gradientUnits="userSpaceOnUse">
<stop stop-color="#020010"/>
<stop offset="0.25" stop-color="#033839"/>
<stop offset="0.49" stop-color="#056A5E"/>
<stop offset="0.71" stop-color="#068E78"/>
<stop offset="0.89" stop-color="#06A489"/>
<stop offset="1" stop-color="#07AD8F"/>
</linearGradient>
<linearGradient id="paint11_linear_157_438" x1="48.97" y1="23.4102" x2="48.97" y2="-0.0199999" gradientUnits="userSpaceOnUse">
<stop stop-color="#020010"/>
<stop offset="0.25" stop-color="#033839"/>
<stop offset="0.49" stop-color="#056A5E"/>
<stop offset="0.71" stop-color="#068E78"/>
<stop offset="0.89" stop-color="#06A489"/>
<stop offset="1" stop-color="#07AD8F"/>
</linearGradient>
</defs>
</svg>
