<svg width="36" height="36" viewBox="0 0 36 36" fill="none" xmlns="http://www.w3.org/2000/svg">
<path d="M20.5503 7.41972C16.2403 6.35972 11.1503 8.46958 9.9103 13.5296C9.4703 15.3096 9.62041 17.9996 12.0304 19.2796C12.2804 19.4096 12.5804 19.2798 12.6504 18.9998L12.9904 17.6297C13.0304 17.4697 12.9603 17.3095 12.8403 17.1995C11.9803 16.4195 11.7803 15.1498 12.0703 13.9598C12.9103 10.5398 16.4303 9.12991 19.4203 9.86991C22.0203 10.5099 23.6004 13.1597 22.8604 16.1497C22.3404 18.2897 20.8503 20.6499 18.7103 20.1199C17.4303 19.8099 17.2804 18.5497 17.6304 17.1297L18.4103 13.9197C18.6103 13.0897 18.1104 12.2596 17.2804 12.0496C16.4504 11.8496 15.1404 12.4297 14.7304 14.1497C14.4804 15.1497 14.6903 15.9498 15.0603 16.4798L13.4804 22.9095C12.7504 25.8695 13.3004 27.7898 13.4704 28.2498L13.5803 28.2898C13.9103 27.9798 15.3103 26.5298 16.0503 23.5398L16.6004 21.2596C17.1204 21.7996 17.8404 22.1599 18.6004 22.3499C21.6804 23.1099 24.6603 19.8195 25.4303 16.6595C26.5203 12.2395 24.2604 8.32946 20.5204 7.40946L20.5503 7.41972Z" fill="url(#paint0_linear_157_953)"/>
<path d="M31.33 0H4.12C1.84 0 0 1.85012 0 4.12012V31.3301C0 33.6101 1.85 35.4497 4.12 35.4497H31.33C33.61 35.4497 35.45 33.6001 35.45 31.3301V4.12012C35.45 1.84012 33.6 0 31.33 0ZM35.21 31.3301C35.21 33.4601 33.47 35.1997 31.34 35.1997H4.13C2 35.1997 0.26001 33.4601 0.26001 31.3301V4.12012C0.26001 1.99012 2 0.25 4.13 0.25H31.34C33.47 0.25 35.21 1.99012 35.21 4.12012V31.3301Z" fill="url(#paint1_linear_157_953)"/>
<path d="M31.3303 1.39014H4.12036C2.62036 1.39014 1.40039 2.60986 1.40039 4.10986V31.3198C1.40039 32.8198 2.62036 34.04 4.12036 34.04H31.3303C32.8303 34.04 34.0503 32.8198 34.0503 31.3198V4.10986C34.0503 2.60986 32.8303 1.39014 31.3303 1.39014ZM33.8103 31.3301C33.8103 32.6901 32.7003 33.7998 31.3403 33.7998H4.13037C2.77037 33.7998 1.66028 32.6901 1.66028 31.3301V4.12012C1.66028 2.76012 2.77037 1.6499 4.13037 1.6499H31.3403C32.7003 1.6499 33.8103 2.76012 33.8103 4.12012V31.3301Z" fill="url(#paint2_linear_157_953)"/>
<defs>
<linearGradient id="paint0_linear_157_953" x1="12.9903" y1="8.79972" x2="21.5804" y2="23.6898" gradientUnits="userSpaceOnUse">
<stop stop-color="#07AD8F"/>
<stop offset="0.11" stop-color="#06A489"/>
<stop offset="0.29" stop-color="#068E78"/>
<stop offset="0.51" stop-color="#056A5E"/>
<stop offset="0.75" stop-color="#033839"/>
<stop offset="1" stop-color="#020010"/>
</linearGradient>
<linearGradient id="paint1_linear_157_953" x1="6.37999" y1="-1.93998" x2="29.0797" y2="37.3898" gradientUnits="userSpaceOnUse">
<stop stop-color="#07AD8F"/>
<stop offset="0.11" stop-color="#06A489"/>
<stop offset="0.29" stop-color="#068E78"/>
<stop offset="0.51" stop-color="#056A5E"/>
<stop offset="0.75" stop-color="#033839"/>
<stop offset="1" stop-color="#020010"/>
</linearGradient>
<linearGradient id="paint2_linear_157_953" x1="7.08037" y1="-0.729857" x2="28.3803" y2="36.18" gradientUnits="userSpaceOnUse">
<stop stop-color="#07AD8F"/>
<stop offset="0.11" stop-color="#06A489"/>
<stop offset="0.29" stop-color="#068E78"/>
<stop offset="0.51" stop-color="#056A5E"/>
<stop offset="0.75" stop-color="#033839"/>
<stop offset="1" stop-color="#020010"/>
</linearGradient>
</defs>
</svg>
