<svg width="46" height="44" viewBox="0 0 46 44" fill="none" xmlns="http://www.w3.org/2000/svg">
<path d="M45.0063 18.25L35.1864 28.0301L36.6064 36.8401L37.3864 41.72C37.5664 42.86 36.3764 43.72 35.3564 43.2L30.3164 40.6202L23.0164 36.8802L11.4964 42.7801L10.6764 43.2C9.76639 43.67 8.72635 43.0301 8.63635 42.0901C8.62635 41.9701 8.62635 41.85 8.63635 41.72L10.8364 28.0301L10.2764 27.47L1.01636 18.24C0.196359 17.43 0.656378 16.0301 1.78638 15.8501L15.4864 13.71L21.7563 1.34013C22.2764 0.310127 23.7464 0.310127 24.2664 1.34013L30.5364 13.71L36.3464 14.6202L44.2364 15.8501C45.3764 16.0301 45.8263 17.43 45.0063 18.24V18.25Z" fill="url(#paint0_linear_157_348)"/>
<path d="M45.047 18.3L40.137 23.1899L37.677 25.6401L35.237 28.1101L35.267 28.03L36.557 35.6301L37.207 39.4299L37.527 41.3301C37.547 41.5001 37.587 41.6301 37.607 41.8201C37.627 42.0001 37.607 42.1901 37.567 42.3701C37.477 42.7301 37.247 43.06 36.947 43.28C36.647 43.5 36.267 43.6201 35.887 43.6001C35.697 43.5901 35.507 43.55 35.337 43.47C35.157 43.4 35.037 43.33 34.887 43.25L33.167 42.3901L29.717 40.6699L22.837 37.2H23.167L16.327 40.75L12.907 42.52L11.197 43.4099L10.987 43.52C10.917 43.56 10.847 43.5901 10.747 43.6401C10.557 43.7301 10.347 43.77 10.137 43.79C9.71699 43.82 9.28699 43.6899 8.94699 43.4399C8.60699 43.1899 8.34704 42.8299 8.24704 42.4199C8.19704 42.2099 8.16704 42.02 8.18704 41.79C8.19704 41.67 8.21702 41.59 8.22702 41.52L8.267 41.28L8.56705 39.3801L9.15701 35.5701L10.337 27.95L10.477 28.3999L4.98703 22.99L2.23703 20.29L0.867036 18.9399L0.696992 18.77L0.607026 18.6899L0.497041 18.5701C0.347041 18.4001 0.226994 18.2 0.136994 17.99C-0.0330056 17.56 -0.0429836 17.0701 0.0970164 16.6401C0.237016 16.2101 0.527024 15.8101 0.917024 15.5601C1.11702 15.4401 1.32704 15.34 1.55704 15.29L1.71701 15.25L1.83701 15.23L2.077 15.1899L3.97702 14.8801L7.78702 14.27L15.397 13.0601L14.897 13.4199L18.397 6.55005C18.977 5.40005 19.577 4.27013 20.167 3.13013L21.057 1.41992L21.167 1.20996L21.227 1.1001L21.307 0.959961C21.417 0.759961 21.577 0.589941 21.757 0.439941C22.117 0.149941 22.577 0 23.027 0C23.477 0 23.927 0.159961 24.277 0.459961C24.447 0.609961 24.607 0.779971 24.707 0.969971L24.787 1.11011L24.837 1.21997L24.947 1.43994L25.797 3.16992L27.477 6.64014L30.827 13.5901L30.607 13.4299C33.397 13.9199 36.177 14.4299 38.967 14.8999L43.147 15.6001L44.197 15.77C44.557 15.81 44.927 16 45.167 16.28C45.407 16.57 45.537 16.9401 45.527 17.3101C45.527 17.6801 45.347 18.04 45.087 18.3H45.047ZM44.957 18.21C45.187 17.97 45.347 17.6401 45.347 17.3101C45.357 16.9701 45.227 16.6401 45.017 16.3901C44.797 16.1401 44.487 15.98 44.147 15.95L43.097 15.79L38.897 15.1899C36.097 14.7899 33.297 14.42 30.487 14.03L30.337 14.01L30.257 13.8701L26.627 7.07007L24.817 3.66992L23.927 1.95996L23.817 1.75L23.757 1.64014C23.757 1.64014 23.727 1.60007 23.717 1.57007C23.667 1.48007 23.597 1.42011 23.527 1.36011C23.377 1.24011 23.187 1.18993 22.997 1.17993C22.807 1.17993 22.617 1.25012 22.487 1.37012C22.427 1.43012 22.357 1.50008 22.317 1.58008L22.277 1.6499L22.227 1.76001L22.117 1.97998L21.267 3.70996C20.697 4.85996 20.137 6.01991 19.547 7.15991L16.077 14.04L15.917 14.3501L15.577 14.3999L7.957 15.5701L4.147 16.1499L2.23703 16.4399L1.99704 16.48L1.87705 16.5L1.80704 16.52C1.71704 16.53 1.63704 16.5801 1.55704 16.6201C1.40704 16.7101 1.29702 16.86 1.22702 17.04C1.17702 17.22 1.16702 17.4101 1.22702 17.5701C1.26702 17.6501 1.29704 17.73 1.36704 17.8L1.41702 17.8601L1.49704 17.95L1.66702 18.1201L3.02701 19.49L5.73703 22.23L11.167 27.7L11.357 27.8901L11.317 28.1499L10.057 35.76L9.42703 39.5601L9.10703 41.46L9.03702 41.8999C9.02702 41.9999 9.03705 42.12 9.06705 42.23C9.11705 42.44 9.24703 42.63 9.42703 42.77C9.60703 42.9 9.82703 42.97 10.047 42.96C10.157 42.96 10.267 42.9301 10.367 42.8901C10.417 42.8701 10.477 42.84 10.557 42.8L10.767 42.6899L12.487 41.8201L15.927 40.0801L22.807 36.6001L22.977 36.52L23.137 36.6001L29.977 40.1499L33.387 41.9399L35.097 42.8401C35.237 42.9101 35.397 43 35.507 43.05C35.627 43.1101 35.757 43.1299 35.887 43.1499C36.147 43.1699 36.417 43.0899 36.637 42.9399C36.857 42.7799 37.017 42.55 37.097 42.29C37.177 42.03 37.127 41.7599 37.067 41.4299L36.777 39.52L36.207 35.71L35.047 28.0901V28.04L35.077 28.01L37.557 25.5801L40.017 23.1301L44.927 18.24L44.957 18.21Z" fill="url(#paint1_linear_157_348)"/>
<path d="M23.0069 34.4299L11.0269 40.5601L13.1569 27.28L3.62695 17.79L16.9169 15.71L23.0069 3.70996L29.0869 15.71L42.377 17.79L32.8469 27.28L34.9769 40.5601L23.0069 34.4299Z" fill="url(#paint2_linear_157_348)"/>
<g opacity="0.25">
<path d="M32.8173 27.7501C32.8873 28.1901 32.9573 28.6301 33.0273 29.0701L33.5373 32.2401L34.1573 36.0801L34.6873 39.3902C34.7773 39.9302 34.8573 40.4701 34.9473 41.0001V41.0201L34.9773 40.0001C34.6973 39.8601 34.4273 39.7201 34.1473 39.5701L32.0673 38.5001L29.3073 37.0902L26.4973 35.65C25.7373 35.26 24.9673 34.8701 24.2073 34.4801C23.8273 34.2801 23.4473 34.0602 23.0473 33.8902C22.9873 33.8602 22.9673 33.89 22.8973 33.92L22.2473 34.2501C21.4273 34.6701 20.6173 35.0901 19.7973 35.5001C18.8773 35.9701 17.9473 36.45 17.0273 36.92C16.4673 37.21 15.9073 37.5001 15.3373 37.7801L15.2573 37.8201C15.2573 37.8201 15.2173 37.9601 15.2173 37.9801C15.2073 38.1101 15.1973 38.2402 15.1973 38.3702C15.1973 38.5002 15.1973 38.6301 15.2173 38.7601C15.2173 38.7801 15.2373 38.93 15.2573 38.92C15.6573 38.72 16.0573 38.5101 16.4573 38.3101C17.3373 37.8601 18.2173 37.41 19.0873 36.96C19.9573 36.51 20.8573 36.0502 21.7473 35.6002L22.6373 35.1402L22.8873 35.0101C22.8873 35.0101 22.9573 34.96 22.9873 34.96C23.0373 34.96 23.1373 35.0401 23.1873 35.0601L23.7773 35.3602L25.8473 36.42C26.7573 36.89 27.6673 37.3501 28.5873 37.8201L31.4173 39.2701L33.7173 40.45L34.9073 41.0601L34.9573 41.0902L35.0173 40.69C35.0173 40.48 35.0173 40.2801 34.9873 40.0701C34.9173 39.6301 34.8473 39.1901 34.7773 38.7501L34.2673 35.5801L33.6473 31.7401L33.1173 28.43C33.0273 27.89 32.9573 27.3501 32.8573 26.8201V26.8001C32.8273 26.5801 32.7773 26.9701 32.7773 27.0001C32.7673 27.2501 32.7573 27.5001 32.7973 27.7501H32.8173Z" fill="white"/>
</g>
<g style="mix-blend-mode:overlay" opacity="0.2">
<path d="M45.0063 18.25L35.1864 28.0301L36.6064 36.8401C34.6764 38.3301 32.5664 39.6102 30.3164 40.6202L23.0164 36.8802L11.4964 42.7801C10.5264 42.6001 9.57635 42.3601 8.63635 42.0901C8.62635 41.9701 8.62635 41.85 8.63635 41.72L10.8364 28.0301L10.2764 27.47L1.01636 18.24C0.196359 17.43 0.656378 16.0301 1.78638 15.8501L15.4864 13.71L21.7563 1.34013C22.2764 0.310127 23.7464 0.310127 24.2664 1.34013L30.5364 13.71L36.3464 14.6202L44.2364 15.8501C45.3764 16.0301 45.8263 17.43 45.0063 18.24V18.25Z" fill="white"/>
</g>
<g style="mix-blend-mode:overlay" opacity="0.4">
<path d="M30.5268 13.72L36.3368 14.6302C30.6368 22.4302 21.4168 27.49 11.0168 27.49C10.7668 27.49 10.5068 27.49 10.2568 27.49L0.996845 18.26C0.176845 17.45 0.636803 16.0502 1.7668 15.8702L15.4668 13.73L21.7368 1.36015C22.2568 0.330146 23.7268 0.330146 24.2468 1.36015L30.5168 13.73L30.5268 13.72Z" fill="white"/>
</g>
<g opacity="0.55">
<path d="M3.55777 18.17C7.48777 17.55 11.4278 16.9402 15.3578 16.3202C15.8478 16.2402 16.3477 16.1902 16.8377 16.0902C17.5277 15.9502 17.6478 15.48 17.9278 14.92L21.0478 8.77013C21.8978 7.09013 22.7477 5.4201 23.5977 3.74011L22.3678 3.88024C23.3978 5.90024 24.4177 7.92006 25.4477 9.94006C25.6877 10.4101 26.9277 10.0202 26.7177 9.60021C25.6877 7.58021 24.6677 5.56015 23.6377 3.54015C23.4277 3.13015 22.5877 3.32005 22.4077 3.68005C20.6377 7.18005 18.8577 10.67 17.0877 14.17L16.3277 15.68L16.9978 15.3202C13.1278 15.9302 9.24777 16.5303 5.37777 17.1403L3.70773 17.4C3.46773 17.44 3.02777 17.5602 2.99777 17.8602C2.96777 18.1602 3.34777 18.21 3.55777 18.18V18.17Z" fill="white"/>
</g>
<path d="M45.047 18.3L40.137 23.1899L37.677 25.6401L35.237 28.1101L35.267 28.03L36.557 35.6301L37.207 39.4299L37.527 41.3301C37.547 41.5001 37.587 41.6301 37.607 41.8201C37.627 42.0001 37.607 42.1901 37.567 42.3701C37.477 42.7301 37.247 43.06 36.947 43.28C36.647 43.5 36.267 43.6201 35.887 43.6001C35.697 43.5901 35.507 43.55 35.337 43.47C35.157 43.4 35.037 43.33 34.887 43.25L33.167 42.3901L29.717 40.6699L22.837 37.2H23.167L16.327 40.75L12.907 42.52L11.197 43.4099L10.987 43.52C10.917 43.56 10.847 43.5901 10.747 43.6401C10.557 43.7301 10.347 43.77 10.137 43.79C9.71699 43.82 9.28699 43.6899 8.94699 43.4399C8.60699 43.1899 8.34704 42.8299 8.24704 42.4199C8.19704 42.2099 8.16704 42.02 8.18704 41.79C8.19704 41.67 8.21702 41.59 8.22702 41.52L8.267 41.28L8.56705 39.3801L9.15701 35.5701L10.337 27.95L10.477 28.3999L4.98703 22.99L2.23703 20.29L0.867036 18.9399L0.696992 18.77L0.607026 18.6899L0.497041 18.5701C0.347041 18.4001 0.226994 18.2 0.136994 17.99C-0.0330056 17.56 -0.0429836 17.0701 0.0970164 16.6401C0.237016 16.2101 0.527024 15.8101 0.917024 15.5601C1.11702 15.4401 1.32704 15.34 1.55704 15.29L1.71701 15.25L1.83701 15.23L2.077 15.1899L3.97702 14.8801L7.78702 14.27L15.397 13.0601L14.897 13.4199L18.397 6.55005C18.977 5.40005 19.577 4.27013 20.167 3.13013L21.057 1.41992L21.167 1.20996L21.227 1.1001L21.307 0.959961C21.417 0.759961 21.577 0.589941 21.757 0.439941C22.117 0.149941 22.577 0 23.027 0C23.477 0 23.927 0.159961 24.277 0.459961C24.447 0.609961 24.607 0.779971 24.707 0.969971L24.787 1.11011L24.837 1.21997L24.947 1.43994L25.797 3.16992L27.477 6.64014L30.827 13.5901L30.607 13.4299C33.397 13.9199 36.177 14.4299 38.967 14.8999L43.147 15.6001L44.197 15.77C44.557 15.81 44.927 16 45.167 16.28C45.407 16.57 45.537 16.9401 45.527 17.3101C45.527 17.6801 45.347 18.04 45.087 18.3H45.047ZM44.957 18.21C45.187 17.97 45.347 17.6401 45.347 17.3101C45.357 16.9701 45.227 16.6401 45.017 16.3901C44.797 16.1401 44.487 15.98 44.147 15.95L43.097 15.79L38.897 15.1899C36.097 14.7899 33.297 14.42 30.487 14.03L30.337 14.01L30.257 13.8701L26.627 7.07007L24.817 3.66992L23.927 1.95996L23.817 1.75L23.757 1.64014C23.757 1.64014 23.727 1.60007 23.717 1.57007C23.667 1.48007 23.597 1.42011 23.527 1.36011C23.377 1.24011 23.187 1.18993 22.997 1.17993C22.807 1.17993 22.617 1.25012 22.487 1.37012C22.427 1.43012 22.357 1.50008 22.317 1.58008L22.277 1.6499L22.227 1.76001L22.117 1.97998L21.267 3.70996C20.697 4.85996 20.137 6.01991 19.547 7.15991L16.077 14.04L15.917 14.3501L15.577 14.3999L7.957 15.5701L4.147 16.1499L2.23703 16.4399L1.99704 16.48L1.87705 16.5L1.80704 16.52C1.71704 16.53 1.63704 16.5801 1.55704 16.6201C1.40704 16.7101 1.29702 16.86 1.22702 17.04C1.17702 17.22 1.16702 17.4101 1.22702 17.5701C1.26702 17.6501 1.29704 17.73 1.36704 17.8L1.41702 17.8601L1.49704 17.95L1.66702 18.1201L3.02701 19.49L5.73703 22.23L11.167 27.7L11.357 27.8901L11.317 28.1499L10.057 35.76L9.42703 39.5601L9.10703 41.46L9.03702 41.8999C9.02702 41.9999 9.03705 42.12 9.06705 42.23C9.11705 42.44 9.24703 42.63 9.42703 42.77C9.60703 42.9 9.82703 42.97 10.047 42.96C10.157 42.96 10.267 42.9301 10.367 42.8901C10.417 42.8701 10.477 42.84 10.557 42.8L10.767 42.6899L12.487 41.8201L15.927 40.0801L22.807 36.6001L22.977 36.52L23.137 36.6001L29.977 40.1499L33.387 41.9399L35.097 42.8401C35.237 42.9101 35.397 43 35.507 43.05C35.627 43.1101 35.757 43.1299 35.887 43.1499C36.147 43.1699 36.417 43.0899 36.637 42.9399C36.857 42.7799 37.017 42.55 37.097 42.29C37.177 42.03 37.127 41.7599 37.067 41.4299L36.777 39.52L36.207 35.71L35.047 28.0901V28.04L35.077 28.01L37.557 25.5801L40.017 23.1301L44.927 18.24L44.957 18.21Z" fill="url(#paint3_linear_157_348)"/>
<defs>
<linearGradient id="paint0_linear_157_348" x1="14.8564" y1="8.5701" x2="36.4163" y2="45.8601" gradientUnits="userSpaceOnUse">
<stop stop-color="#FFEF1F"/>
<stop offset="1" stop-color="#FFAC00"/>
</linearGradient>
<linearGradient id="paint1_linear_157_348" x1="-0.0729933" y1="-3281.98" x2="46.077" y2="-3281.98" gradientUnits="userSpaceOnUse">
<stop stop-color="#FFF9BA"/>
<stop offset="1" stop-color="#F15400"/>
</linearGradient>
<linearGradient id="paint2_linear_157_348" x1="-3.58305" y1="35.72" x2="66.877" y2="6.3301" gradientUnits="userSpaceOnUse">
<stop stop-color="#FFF474"/>
<stop offset="1" stop-color="#FFAC00"/>
</linearGradient>
<linearGradient id="paint3_linear_157_348" x1="-0.0729933" y1="-3281.98" x2="46.077" y2="-3281.98" gradientUnits="userSpaceOnUse">
<stop stop-color="#FFF9BA"/>
<stop offset="1" stop-color="#F15400"/>
</linearGradient>
</defs>
</svg>
