<svg width="607" height="108" viewBox="0 0 607 108" fill="none" xmlns="http://www.w3.org/2000/svg">
<path d="M0 64.39L20.09 63.85C21.39 73.08 26.06 77.53 36.81 77.53C41.37 77.53 46.15 76.99 50.06 76.0099C50.82 72.7499 51.36 69.82 51.36 66.45C51.36 41.91 2.82 67.75 2.82 31.2599C2.82 15.6199 16.94 7.47998 34.75 7.47998C55.6 7.47998 68.42 15.08 70.37 35.72L51.15 37.5699C50.17 27.3599 45.94 23.02 35.19 23.02C30.63 23.02 27.26 23.3499 23.57 24.3199C22.7 27.0299 22.27 29.7499 22.27 32.6799C22.27 57.2199 71.03 32.35 71.03 67.65C71.03 84.81 54.85 93.0599 36.71 93.0599C10.97 93.0599 1.2 81.8699 0 64.39Z" fill="black"/>
<path d="M83.1901 105.98L84.8201 92.1899H104.15C109.15 89.7999 110.77 80.8999 111.64 77.4199H110.23C108.82 82.0899 105.89 83.9399 100.89 83.9399C95.3501 83.9399 93.1801 81.0099 90.4601 71.5599L75.5801 21.71H95.1301L109.79 72.1H111.85L125.1 21.71H144.54L128.25 82.7399C123.47 101.96 116.85 107.61 100.01 107.61C94.8001 107.61 87.4101 106.96 83.1801 105.98H83.1901Z" fill="black"/>
<path d="M145.42 56.5698C145.42 32.6798 158.02 20.2998 179.74 20.2998C201.46 20.2998 212.75 31.5898 213.08 54.5098L164.97 58.1998C165.19 72.5298 169.86 79.1599 180.72 79.1599C185.17 79.1599 188.54 78.1799 192.12 76.6599C193.1 71.9899 193.53 68.1898 193.75 63.9498H212.65C210.59 83.8198 198.75 92.8398 179.75 92.8398C158.03 92.8398 145.43 80.4598 145.43 56.5698H145.42ZM178.65 33.9799C174.2 33.9799 170.4 34.8498 166.49 37.4598C165.84 41.2598 165.4 45.3898 165.19 49.8398L193.75 47.5598C192.12 38.3298 187.45 33.9898 178.66 33.9898L178.65 33.9799Z" fill="black"/>
<path d="M218.4 56.6799C218.4 32.6799 227.74 20.2999 245.55 20.2999C257.6 20.2999 265.21 25.5099 269.33 36.9199H270.63C269.54 27.6899 269.22 23.2399 269.22 18.6799V8.79993L288.98 7.16992C288.76 20.9599 288.76 35.2999 288.76 49.7399C288.76 64.1799 288.76 77.65 289.09 91.66H269.33L270.74 75.2599H269.44C265.64 86.5499 258.15 92.96 245.66 92.96C227.52 92.96 218.4 80.5799 218.4 56.6899V56.6799ZM267.81 71.34C269 66.24 269.55 61.4599 269.55 55.4899C269.55 42.4599 264.45 35.73 252.72 35.73C247.94 35.73 244.03 36.82 240.67 38.34C238.61 45.51 238.06 50.1799 238.06 56.7999C238.06 70.6999 243.06 77.4299 254.89 77.4299C259.56 77.4299 264.01 75.8 267.81 71.35V71.34Z" fill="black"/>
<path d="M326.459 50.27C326.459 36.37 326.349 22.58 326.029 8.79004H345.789C345.359 22.47 345.359 36.37 345.359 50.17C345.359 63.97 345.359 77.97 345.789 91.65H326.029C326.359 77.97 326.459 64.07 326.459 50.27Z" fill="black"/>
<path d="M356.43 56.1401C356.43 44.1901 356.43 33.0101 356.1 21.7101H376.08L374.23 38.7601H375.42C380.42 25.2901 386.5 20.4102 396.6 20.4102C411.37 20.4102 418.86 30.1801 418.43 54.1801L398.56 56.3502C398.78 41.2502 394.98 38.0001 387.7 38.0001C382.81 38.0001 378.47 40.1701 375.65 47.9901C375.65 66.7801 375.65 80.2401 376.08 91.6501H355.99C356.42 81.1201 356.42 68.1901 356.42 56.1401H356.43Z" fill="black"/>
<path d="M430.07 61.35L429.96 35.5L421.49 35.72V21.82L431.48 21.93C428.66 19.43 427.14 16.28 427.14 12.92C427.14 6.39998 434.63 0 449.19 0C455.92 0 461.79 0.760005 466.67 1.63L465.8 15.1C461.13 14.45 458.96 14.23 455.05 14.23C448.43 14.23 446.15 15.32 445.17 17.49C445.17 19.55 447.02 21.94 449.51 21.94L465.91 21.83L465.37 35.73L449.73 35.51C449.51 43.33 449.51 53.21 449.51 61.36C449.51 69.94 449.62 79.5 449.94 91.66H429.74C430.07 79.17 430.07 69.94 430.07 61.36V61.35Z" fill="black"/>
<path d="M464.391 74.1601C464.391 62.4301 471.231 54.2901 490.131 54.2901C497.841 54.2901 505.011 55.0501 511.201 55.8101V53.42C511.201 40.39 506.861 33.9801 496.211 33.9801C492.191 33.9801 488.831 34.7401 485.241 37.0201C484.591 41.4701 484.051 45.7101 483.941 50.8101L464.831 47.9901C467.111 29.4201 478.511 20.0801 498.711 20.0801C520.971 20.0801 530.201 30.4001 530.201 49.2901V73.4001C530.201 80.0201 530.311 85.3501 530.631 91.5401H510.431L513.041 72.4301H511.851C509.031 83.4001 499.801 93.0601 485.031 93.0601C473.191 93.0601 464.401 86.7601 464.401 74.1601H464.391ZM511.191 67.0001V62.6601L494.681 62.4401C486.751 62.4401 483.391 65.4801 483.391 70.2601C483.391 75.4701 486.971 77.9701 492.401 77.9701C499.461 77.9701 505.431 74.7101 511.191 67.0001Z" fill="black"/>
<path d="M540.3 56.1398C540.3 44.1898 540.3 33.0098 539.97 21.7098H559.95L558.1 38.1098H559.29C564.29 25.1898 572.54 20.2998 583.29 20.2998C599.04 20.2998 605.88 29.6398 605.88 47.8798C605.88 62.7598 605.99 78.4998 606.31 91.6398H586.33C586.66 78.6098 586.66 68.9398 586.66 53.0898C586.66 41.5798 583.4 36.4698 574.71 36.4698C567.76 36.4698 562.33 39.8398 559.51 47.3298C559.51 66.1198 559.51 80.2298 559.94 91.6398H539.85C540.28 81.1098 540.28 68.1798 540.28 56.1298L540.3 56.1398Z" fill="black"/>
<path d="M0 64.39L20.09 63.85C21.39 73.08 26.06 77.53 36.81 77.53C41.37 77.53 46.15 76.99 50.06 76.0099C50.82 72.7499 51.36 69.82 51.36 66.45C51.36 41.91 2.82 67.75 2.82 31.2599C2.82 15.6199 16.94 7.47998 34.75 7.47998C55.6 7.47998 68.42 15.08 70.37 35.72L51.15 37.5699C50.17 27.3599 45.94 23.02 35.19 23.02C30.63 23.02 27.26 23.3499 23.57 24.3199C22.7 27.0299 22.27 29.7499 22.27 32.6799C22.27 57.2199 71.03 32.35 71.03 67.65C71.03 84.81 54.85 93.0599 36.71 93.0599C10.97 93.0599 1.2 81.8699 0 64.39Z" fill="url(#paint0_linear_157_53)"/>
<path d="M83.1901 105.98L84.8201 92.1899H104.15C109.15 89.7999 110.77 80.8999 111.64 77.4199H110.23C108.82 82.0899 105.89 83.9399 100.89 83.9399C95.3501 83.9399 93.1801 81.0099 90.4601 71.5599L75.5801 21.71H95.1301L109.79 72.1H111.85L125.1 21.71H144.54L128.25 82.7399C123.47 101.96 116.85 107.61 100.01 107.61C94.8001 107.61 87.4101 106.96 83.1801 105.98H83.1901Z" fill="url(#paint1_linear_157_53)"/>
<path d="M145.42 56.5698C145.42 32.6798 158.02 20.2998 179.74 20.2998C201.46 20.2998 212.75 31.5898 213.08 54.5098L164.97 58.1998C165.19 72.5298 169.86 79.1599 180.72 79.1599C185.17 79.1599 188.54 78.1799 192.12 76.6599C193.1 71.9899 193.53 68.1898 193.75 63.9498H212.65C210.59 83.8198 198.75 92.8398 179.75 92.8398C158.03 92.8398 145.43 80.4598 145.43 56.5698H145.42ZM178.65 33.9799C174.2 33.9799 170.4 34.8498 166.49 37.4598C165.84 41.2598 165.4 45.3898 165.19 49.8398L193.75 47.5598C192.12 38.3298 187.45 33.9898 178.66 33.9898L178.65 33.9799Z" fill="url(#paint2_linear_157_53)"/>
<path d="M218.4 56.6799C218.4 32.6799 227.74 20.2999 245.55 20.2999C257.6 20.2999 265.21 25.5099 269.33 36.9199H270.63C269.54 27.6899 269.22 23.2399 269.22 18.6799V8.79993L288.98 7.16992C288.76 20.9599 288.76 35.2999 288.76 49.7399C288.76 64.1799 288.76 77.65 289.09 91.66H269.33L270.74 75.2599H269.44C265.64 86.5499 258.15 92.96 245.66 92.96C227.52 92.96 218.4 80.5799 218.4 56.6899V56.6799ZM267.81 71.34C269 66.24 269.55 61.4599 269.55 55.4899C269.55 42.4599 264.45 35.73 252.72 35.73C247.94 35.73 244.03 36.82 240.67 38.34C238.61 45.51 238.06 50.1799 238.06 56.7999C238.06 70.6999 243.06 77.4299 254.89 77.4299C259.56 77.4299 264.01 75.8 267.81 71.35V71.34Z" fill="url(#paint3_linear_157_53)"/>
<path d="M326.459 50.27C326.459 36.37 326.349 22.58 326.029 8.79004H345.789C345.359 22.47 345.359 36.37 345.359 50.17C345.359 63.97 345.359 77.97 345.789 91.65H326.029C326.359 77.97 326.459 64.07 326.459 50.27Z" fill="url(#paint4_linear_157_53)"/>
<path d="M356.43 56.1401C356.43 44.1901 356.43 33.0101 356.1 21.7101H376.08L374.23 38.7601H375.42C380.42 25.2901 386.5 20.4102 396.6 20.4102C411.37 20.4102 418.86 30.1801 418.43 54.1801L398.56 56.3502C398.78 41.2502 394.98 38.0001 387.7 38.0001C382.81 38.0001 378.47 40.1701 375.65 47.9901C375.65 66.7801 375.65 80.2401 376.08 91.6501H355.99C356.42 81.1201 356.42 68.1901 356.42 56.1401H356.43Z" fill="url(#paint5_linear_157_53)"/>
<path d="M430.07 61.35L429.96 35.5L421.49 35.72V21.82L431.48 21.93C428.66 19.43 427.14 16.28 427.14 12.92C427.14 6.39998 434.63 0 449.19 0C455.92 0 461.79 0.760005 466.67 1.63L465.8 15.1C461.13 14.45 458.96 14.23 455.05 14.23C448.43 14.23 446.15 15.32 445.17 17.49C445.17 19.55 447.02 21.94 449.51 21.94L465.91 21.83L465.37 35.73L449.73 35.51C449.51 43.33 449.51 53.21 449.51 61.36C449.51 69.94 449.62 79.5 449.94 91.66H429.74C430.07 79.17 430.07 69.94 430.07 61.36V61.35Z" fill="url(#paint6_linear_157_53)"/>
<path d="M464.391 74.1601C464.391 62.4301 471.231 54.2901 490.131 54.2901C497.841 54.2901 505.011 55.0501 511.201 55.8101V53.42C511.201 40.39 506.861 33.9801 496.211 33.9801C492.191 33.9801 488.831 34.7401 485.241 37.0201C484.591 41.4701 484.051 45.7101 483.941 50.8101L464.831 47.9901C467.111 29.4201 478.511 20.0801 498.711 20.0801C520.971 20.0801 530.201 30.4001 530.201 49.2901V73.4001C530.201 80.0201 530.311 85.3501 530.631 91.5401H510.431L513.041 72.4301H511.851C509.031 83.4001 499.801 93.0601 485.031 93.0601C473.191 93.0601 464.401 86.7601 464.401 74.1601H464.391ZM511.191 67.0001V62.6601L494.681 62.4401C486.751 62.4401 483.391 65.4801 483.391 70.2601C483.391 75.4701 486.971 77.9701 492.401 77.9701C499.461 77.9701 505.431 74.7101 511.191 67.0001Z" fill="url(#paint7_linear_157_53)"/>
<path d="M540.3 56.1398C540.3 44.1898 540.3 33.0098 539.97 21.7098H559.95L558.1 38.1098H559.29C564.29 25.1898 572.54 20.2998 583.29 20.2998C599.04 20.2998 605.88 29.6398 605.88 47.8798C605.88 62.7598 605.99 78.4998 606.31 91.6398H586.33C586.66 78.6098 586.66 68.9398 586.66 53.0898C586.66 41.5798 583.4 36.4698 574.71 36.4698C567.76 36.4698 562.33 39.8398 559.51 47.3298C559.51 66.1198 559.51 80.2298 559.94 91.6398H539.85C540.28 81.1098 540.28 68.1798 540.28 56.1298L540.3 56.1398Z" fill="url(#paint8_linear_157_53)"/>
<defs>
<linearGradient id="paint0_linear_157_53" x1="0" y1="53.8" x2="606.33" y2="53.8" gradientUnits="userSpaceOnUse">
<stop offset="0.06" stop-color="#07AD8F"/>
<stop offset="0.18" stop-color="#07B68F"/>
<stop offset="0.69" stop-color="#07DB8F"/>
<stop offset="0.96" stop-color="#07E98F"/>
</linearGradient>
<linearGradient id="paint1_linear_157_53" x1="7.03251e-05" y1="53.7999" x2="606.33" y2="53.7999" gradientUnits="userSpaceOnUse">
<stop offset="0.06" stop-color="#07AD8F"/>
<stop offset="0.18" stop-color="#07B68F"/>
<stop offset="0.69" stop-color="#07DB8F"/>
<stop offset="0.96" stop-color="#07E98F"/>
</linearGradient>
<linearGradient id="paint2_linear_157_53" x1="-8.27536e-05" y1="53.7998" x2="606.33" y2="53.7998" gradientUnits="userSpaceOnUse">
<stop offset="0.06" stop-color="#07AD8F"/>
<stop offset="0.18" stop-color="#07B68F"/>
<stop offset="0.69" stop-color="#07DB8F"/>
<stop offset="0.96" stop-color="#07E98F"/>
</linearGradient>
<linearGradient id="paint3_linear_157_53" x1="0.000379588" y1="53.7999" x2="606.33" y2="53.7999" gradientUnits="userSpaceOnUse">
<stop offset="0.06" stop-color="#07AD8F"/>
<stop offset="0.18" stop-color="#07B68F"/>
<stop offset="0.69" stop-color="#07DB8F"/>
<stop offset="0.96" stop-color="#07E98F"/>
</linearGradient>
<linearGradient id="paint4_linear_157_53" x1="-0.000865873" y1="53.8" x2="606.329" y2="53.8" gradientUnits="userSpaceOnUse">
<stop offset="0.06" stop-color="#07AD8F"/>
<stop offset="0.18" stop-color="#07B68F"/>
<stop offset="0.69" stop-color="#07DB8F"/>
<stop offset="0.96" stop-color="#07E98F"/>
</linearGradient>
<linearGradient id="paint5_linear_157_53" x1="0.000252842" y1="53.8002" x2="606.33" y2="53.8002" gradientUnits="userSpaceOnUse">
<stop offset="0.06" stop-color="#07AD8F"/>
<stop offset="0.18" stop-color="#07B68F"/>
<stop offset="0.69" stop-color="#07DB8F"/>
<stop offset="0.96" stop-color="#07E98F"/>
</linearGradient>
<linearGradient id="paint6_linear_157_53" x1="0.000297159" y1="53.8" x2="606.33" y2="53.8" gradientUnits="userSpaceOnUse">
<stop offset="0.06" stop-color="#07AD8F"/>
<stop offset="0.18" stop-color="#07B68F"/>
<stop offset="0.69" stop-color="#07DB8F"/>
<stop offset="0.96" stop-color="#07E98F"/>
</linearGradient>
<linearGradient id="paint7_linear_157_53" x1="0.00026198" y1="53.8001" x2="606.331" y2="53.8001" gradientUnits="userSpaceOnUse">
<stop offset="0.06" stop-color="#07AD8F"/>
<stop offset="0.18" stop-color="#07B68F"/>
<stop offset="0.69" stop-color="#07DB8F"/>
<stop offset="0.96" stop-color="#07E98F"/>
</linearGradient>
<linearGradient id="paint8_linear_157_53" x1="-0.000540845" y1="53.7998" x2="606.33" y2="53.7998" gradientUnits="userSpaceOnUse">
<stop offset="0.06" stop-color="#07AD8F"/>
<stop offset="0.18" stop-color="#07B68F"/>
<stop offset="0.69" stop-color="#07DB8F"/>
<stop offset="0.96" stop-color="#07E98F"/>
</linearGradient>
</defs>
</svg>
