<svg width="36" height="36" viewBox="0 0 36 36" fill="none" xmlns="http://www.w3.org/2000/svg">
<path d="M17.8396 6.70999C12.5296 6.87999 8.1395 11.1798 7.8795 16.4898C7.7795 18.3998 8.20953 20.2098 9.02953 21.7798L7.8795 26.94C7.8295 27.17 8.03952 27.3801 8.26952 27.3301L13.4296 26.1797C14.9896 26.9897 16.7796 27.4201 18.6796 27.3301C23.9796 27.0801 28.2895 22.7297 28.4995 17.4297C28.7295 11.4297 23.8396 6.50999 17.8396 6.70999ZM18.1796 25.21C16.6796 25.21 15.2696 24.8001 14.0596 24.1001C13.9496 24.0401 13.8396 23.9699 13.7296 23.8999L10.4296 24.7798L11.3096 21.48C10.4796 20.2 9.98949 18.6698 9.98949 17.0298C9.98949 12.5198 13.6595 8.85013 18.1695 8.85013C22.6795 8.85013 26.3496 12.5198 26.3496 17.0298C26.3496 21.5398 22.6795 25.21 18.1695 25.21H18.1796Z" fill="#07B68F"/>
<path d="M22.6799 19.5399L21.0499 18.9998C20.5999 18.8498 20.3198 18.9197 20.1298 19.1097L19.6899 19.5399C19.4799 19.7499 19.1398 19.7897 18.8898 19.6297C18.5198 19.3897 17.9199 18.9397 17.0899 18.1097C16.2599 17.2797 15.8099 16.6799 15.5699 16.3099C15.4099 16.0499 15.4399 15.7196 15.6599 15.5096L16.0899 15.0696C16.2799 14.8796 16.3499 14.5997 16.1999 14.1497L15.6599 12.5198C15.5099 12.0698 14.9699 11.8895 14.5799 12.1595C14.3699 12.3095 14.1699 12.4595 13.9299 12.6995C13.4099 13.2195 13.1399 13.9498 13.2199 14.6898C13.3499 16.0098 14.0799 17.8896 15.6999 19.5096C17.3199 21.1196 19.1999 21.8496 20.5199 21.9896C21.2599 22.0596 21.9898 21.7996 22.5098 21.2796C22.7498 21.0396 22.8999 20.8397 23.0399 20.6297C23.3099 20.2297 23.1299 19.6996 22.6799 19.5496V19.5399Z" fill="#07B68F"/>
<path d="M31.3301 0H4.12C1.84 0 0 1.85012 0 4.12012V31.3301C0 33.6101 1.85 35.4497 4.12 35.4497H31.3301C33.6101 35.4497 35.4501 33.6001 35.4501 31.3301V4.12012C35.4501 1.84012 33.6001 0 31.3301 0ZM35.2001 31.3301C35.2001 33.4601 33.4601 35.1997 31.3301 35.1997H4.12C1.99 35.1997 0.25 33.4601 0.25 31.3301V4.12012C0.25 1.99012 1.99 0.25 4.12 0.25H31.3301C33.4601 0.25 35.2001 1.99012 35.2001 4.12012V31.3301Z" fill="#07B68F"/>
<path d="M31.3304 1.39014H4.12036C2.62036 1.39014 1.40039 2.60986 1.40039 4.10986V31.3198C1.40039 32.8198 2.62036 34.04 4.12036 34.04H31.3304C32.8304 34.04 34.0504 32.8198 34.0504 31.3198V4.10986C34.0504 2.60986 32.8304 1.39014 31.3304 1.39014ZM33.8004 31.3301C33.8004 32.6901 32.6904 33.7998 31.3304 33.7998H4.12036C2.76036 33.7998 1.65039 32.6901 1.65039 31.3301V4.12012C1.65039 2.76012 2.76036 1.6499 4.12036 1.6499H31.3304C32.6904 1.6499 33.8004 2.76012 33.8004 4.12012V31.3301Z" fill="#07B68F"/>
</svg>
