<svg width="55" height="55" viewBox="0 0 55 55" fill="none" xmlns="http://www.w3.org/2000/svg">
<path d="M42.09 0.5H12.91C6.05618 0.5 0.5 6.05612 0.5 12.91V42.09C0.5 48.9438 6.05618 54.5 12.91 54.5H42.09C48.9438 54.5 54.5 48.9438 54.5 42.09V12.91C54.5 6.05612 48.9438 0.5 42.09 0.5Z" fill="url(#paint0_linear_157_979)"/>
<g opacity="0.3">
<path d="M42.09 0.5H12.91C6.05618 0.5 0.5 6.05612 0.5 12.91V42.09C0.5 48.9438 6.05618 54.5 12.91 54.5H42.09C48.9438 54.5 54.5 48.9438 54.5 42.09V12.91C54.5 6.05612 48.9438 0.5 42.09 0.5Z" fill="white"/>
</g>
<path d="M54.5 42.09V12.91C54.5 6.05618 48.9439 0.5 42.09 0.5L12.91 0.5C6.05618 0.5 0.5 6.05618 0.5 12.91V42.09C0.5 48.9438 6.05618 54.5 12.91 54.5H42.09C48.9439 54.5 54.5 48.9438 54.5 42.09Z" stroke="#F7F7F7" stroke-miterlimit="10"/>
<path d="M26.9203 9.96013C17.8903 10.2501 10.4302 17.5701 9.98022 26.5901C9.82022 29.8401 10.5303 32.9201 11.9303 35.5901L9.97021 44.3702C9.89021 44.7702 10.2403 45.1201 10.6403 45.0401L19.4203 43.0801C22.0703 44.4701 25.1202 45.1801 28.3402 45.0301C37.3502 44.6101 44.6903 37.2101 45.0403 28.2001C45.4303 17.9901 37.1103 9.63013 26.9203 9.96013ZM27.5002 41.4202C24.9502 41.4202 22.5602 40.7301 20.5002 39.5301C20.3102 39.4201 20.1203 39.3102 19.9403 39.1902L14.3303 40.6802L15.8203 35.0701C14.4003 32.8901 13.5803 30.3001 13.5803 27.5101C13.5803 19.8401 19.8302 13.5901 27.5002 13.5901C35.1702 13.5901 41.4203 19.8401 41.4203 27.5101C41.4203 35.1801 35.1702 41.4302 27.5002 41.4302V41.4202Z" fill="white"/>
<path d="M35.1501 31.7804L32.3801 30.8604C31.6201 30.6104 31.1402 30.7204 30.8202 31.0504L30.0802 31.7804C29.7202 32.1404 29.15 32.2005 28.71 31.9305C28.07 31.5205 27.0501 30.7604 25.6501 29.3504C24.2401 27.9404 23.4802 26.9204 23.0702 26.2904C22.7902 25.8504 22.8501 25.2904 23.2201 24.9204L23.9502 24.1804C24.2802 23.8604 24.3901 23.3805 24.1401 22.6205L23.2201 19.8504C22.9701 19.0904 22.0501 18.7804 21.3801 19.2404C21.0201 19.4904 20.6801 19.7404 20.2701 20.1504C19.3801 21.0404 18.9301 22.2804 19.0601 23.5404C19.2801 25.7904 20.5301 28.9904 23.2801 31.7404C26.0301 34.4804 29.2301 35.7304 31.4801 35.9604C32.7401 36.0904 33.9701 35.6405 34.8701 34.7505C35.2801 34.3405 35.5301 34.0004 35.7701 33.6404C36.2301 32.9704 35.9301 32.0504 35.1601 31.8004L35.1501 31.7804Z" fill="white"/>
<defs>
<linearGradient id="paint0_linear_157_979" x1="11.33" y1="55.51" x2="43.67" y2="-0.51" gradientUnits="userSpaceOnUse">
<stop stop-color="white" stop-opacity="0.6"/>
<stop offset="0.29" stop-color="white" stop-opacity="0.3"/>
<stop offset="0.6" stop-color="white" stop-opacity="0"/>
</linearGradient>
</defs>
</svg>
